<svg xmlns="http://www.w3.org/2000/svg" width="315" height="88" viewBox="38.131 20.804 315 88"><linearGradient id="a" gradientUnits="userSpaceOnUse" x1="-17.186" y1="389.856" x2="29.614" y2="342.584" gradientTransform="matrix(1 0 0 -1 134.4 374.709)"><stop offset="0" stop-color="#E5262C"/><stop offset="1" stop-color="#521110"/></linearGradient><rect x="47.043" y="28.58" fill="url(#a)" width="300.405" height="74.225"/><path fill="#fff" d="M112.595 74.627c.19 0 .377.048.558.146.182.098.324.237.424.419.102.182.152.373.152.57 0 .194-.05.383-.15.563-.101.181-.24.32-.419.42-.18.1-.368.15-.565.15-.195 0-.384-.05-.565-.15-.18-.1-.319-.24-.42-.42-.099-.18-.15-.369-.15-.563 0-.197.051-.388.153-.57.102-.182.244-.322.424-.419.182-.098.368-.146.558-.146zm0 .188c-.16 0-.314.042-.465.122-.151.083-.27.199-.354.351-.085.151-.127.31-.127.475 0 .163.042.319.125.469.084.15.201.267.351.351.149.083.307.125.47.125.164 0 .32-.042.47-.125.151-.083.268-.201.35-.351.084-.15.126-.306.126-.469 0-.165-.044-.323-.126-.475-.085-.152-.203-.269-.355-.351-.152-.081-.305-.122-.465-.122zm-.497 1.574v-1.222h.42c.144 0 .248.012.312.034.063.023.114.062.153.118l.057.18c0 .089-.033.166-.096.232-.063.067-.149.103-.253.112l.103.064.181.242.149.239h-.241l-.108-.192c-.085-.153-.155-.247-.207-.285l-.157-.042h-.115v.52h-.198zm.199-.688h.239c.113 0 .193-.017.234-.051l.063-.135-.031-.097-.083-.064-.198-.021h-.224v.368z"/><path fill="#fff" d="M97.428 69.87c-.502.044-.996.098-1.486.153-6.027-3.665-9.085-8.229-11.063-13.898.585-2.645.815-5.457.891-9.325 0 0-.451 2.493-1.781 6.464-1.945-7.024-1.131-11.76-1.131-11.76 1.032-3.32 3.064 1.613 3.003 4.196l.145.624c1.716-6.727-2.076-6.456-2.889-6.456-.813 0-3.161.226-2.89 5.283.161 2.989.708 7.482 2.314 12.063-.664 1.668-1.45 3.479-2.378 5.391-4.385 9.024-12.186 24.676-17.284 25.695 0 0-1.785-.969 8.514-10.604 0 0-4.439 1.722-6.678 3.824-2.919 2.739-4.742 5.658-3.519 6.831 1.224 1.173 2.805 1.275 3.519 1.122.665-.142 4.641-1.354 10.91-12.728 2.772-1.072 8.337-2.857 17.876-4.505l1.119-.185c5.217 3.044 10.911 4.58 13.43 4.58 3.774 0 3.282-2.872 3.282-2.872-.795 1.591-6.44.885-12.658-2.229 10.489-1.005 12.909 1.723 12.909 1.723.406-2.778-1.22-4.539-14.155-3.387zm-21.195 5.751c.267-.5.537-1.016.812-1.553 3.292-6.444 5.363-10.441 6.657-13.965 1.002 2.192 2.282 4.336 3.916 6.274 1.328 1.575 2.933 2.966 4.662 4.181-7.714 1.364-13.614 3.899-16.047 5.063z"/><rect x="122.432" y="31.31" fill="#fff" width="222.591" height="68.764"/><polygon fill="#989A9D" points="322.018,36.48 322.018,50.634 316.782,50.634 327.889,62.92 338.994,50.634 333.759,50.634 333.759,36.48"/><path d="M136.298 83.198l-1.235 4.024h-2.705l4.6-14.201h3.344l4.664 14.201h-2.832l-1.299-4.024h-4.537zm4.11-1.959l-1.129-3.498c-.277-.864-.511-1.833-.724-2.655h-.043c-.212.822-.447 1.812-.681 2.655l-1.108 3.498h3.685zm7.624-8.028c1.171-.168 2.619-.295 4.174-.295 2.684 0 4.515.548 5.835 1.644 1.405 1.117 2.257 2.823 2.257 5.225 0 2.549-.873 4.425-2.236 5.647-1.427 1.285-3.706 1.938-6.496 1.938-1.512 0-2.662-.084-3.535-.19v-13.969h.001zm2.62 12.052c.362.063.916.063 1.448.063 3.408.021 5.431-1.854 5.431-5.457.022-3.118-1.81-4.93-5.089-4.93-.831 0-1.406.063-1.789.147l-.001 10.177zm25.726-5.289c0 4.762-2.917 7.479-6.857 7.479-4.068 0-6.624-3.076-6.624-7.227 0-4.382 2.79-7.458 6.836-7.458 4.174 0 6.645 3.14 6.645 7.206zm-10.713.19c0 2.907 1.47 5.204 3.983 5.204 2.534 0 3.961-2.339 3.961-5.31 0-2.676-1.341-5.204-3.961-5.204-2.598 0-3.983 2.381-3.983 5.31zm14.034-6.932c.831-.168 2.343-.316 3.834-.316 1.917 0 3.13.253 4.089.906.895.527 1.491 1.454 1.491 2.676 0 1.306-.831 2.486-2.385 3.055v.063c1.512.379 2.896 1.56 2.896 3.498 0 1.264-.554 2.254-1.363 2.949-1.022.864-2.705 1.307-5.346 1.307-1.448 0-2.535-.105-3.216-.19v-13.948zm2.599 5.604h1.342c1.832 0 2.833-.842 2.833-2.043 0-1.348-1.022-1.959-2.683-1.959-.767 0-1.214.042-1.491.105v3.897h-.001zm0 6.511c.341.063.788.063 1.385.063 1.682 0 3.194-.611 3.194-2.36 0-1.665-1.47-2.339-3.28-2.339h-1.299v4.636zm18.762-4.425h-5.41v4.172h6.048v2.128h-8.668v-14.201h8.349v2.128h-5.729v3.666h5.41v2.107zm2.751-6.488c0-.667.238-1.235.715-1.706.477-.471 1.052-.706 1.726-.706.674 0 1.249.235 1.724.706.476.47.713 1.039.713 1.706s-.238 1.236-.713 1.708-1.05.707-1.724.707c-.674 0-1.25-.235-1.726-.707s-.715-1.041-.715-1.708zm.589 0c0 .505.181.937.544 1.295.362.358.798.538 1.309.538.51 0 .945-.179 1.307-.536s.542-.79.542-1.297c0-.504-.181-.936-.542-1.293-.361-.357-.797-.536-1.307-.536-.513 0-.95.179-1.311.536-.362.358-.542.788-.542 1.293zm2.406 1.35l-.658-1.106h-.229v1.106h-.561v-2.758h.762c.686 0 1.029.269 1.029.805 0 .332-.153.578-.46.74l.741 1.212h-.624v.001zm-.686-2.257h-.201v.675l.441-.017c.077-.011.134-.042.171-.094.037-.051.055-.129.055-.235.002-.22-.154-.329-.466-.329zm6.844-.295c1-.19 2.449-.316 3.961-.316 2.066 0 3.45.337 4.43 1.138.788.653 1.235 1.643 1.235 2.866 0 1.833-1.256 3.076-2.619 3.54v.063c1.043.379 1.661 1.37 2.002 2.739.468 1.77.852 3.413 1.128 3.961h-2.684c-.213-.421-.575-1.58-.958-3.35-.426-1.854-1.086-2.444-2.577-2.486h-1.32v5.836h-2.598v-13.991zm2.598 6.258h1.555c1.768 0 2.854-.927 2.854-2.339 0-1.538-1.086-2.275-2.791-2.275-.83 0-1.363.063-1.618.126v4.488zm18.613 1.432h-5.409v4.172h6.048v2.128h-8.668v-14.201h8.348v2.128h-5.729v3.666h5.409v2.107zm6.878 2.276l-1.235 4.024h-2.705l4.6-14.201h3.344l4.664 14.201h-2.832l-1.299-4.024h-4.537zm4.111-1.959l-1.129-3.498c-.277-.864-.511-1.833-.724-2.655h-.042c-.213.822-.447 1.812-.682 2.655l-1.107 3.498h3.684zm7.624-8.028c1.171-.168 2.62-.295 4.174-.295 2.684 0 4.515.548 5.835 1.644 1.406 1.117 2.257 2.823 2.257 5.225 0 2.549-.873 4.425-2.236 5.647-1.427 1.285-3.706 1.938-6.496 1.938-1.512 0-2.662-.084-3.535-.19v-13.969h.001zm2.619 12.052c.362.063.916.063 1.448.063 3.407.021 5.431-1.854 5.431-5.457.021-3.118-1.81-4.93-5.09-4.93-.831 0-1.406.063-1.789.147v10.177zm21.02-4.341h-5.41v4.172h6.048v2.128h-8.668v-14.201h8.348v2.128h-5.729v3.666h5.41v2.107zm4.003-7.69c1.001-.19 2.449-.316 3.961-.316 2.066 0 3.45.337 4.43 1.138.788.653 1.235 1.643 1.235 2.866 0 1.833-1.257 3.076-2.62 3.54v.063c1.043.379 1.661 1.37 2.002 2.739.468 1.77.852 3.413 1.128 3.961h-2.683c-.213-.421-.575-1.58-.958-3.35-.426-1.854-1.086-2.444-2.577-2.486h-1.32v5.836h-2.598v-13.991zm2.599 6.258h1.555c1.768 0 2.854-.927 2.854-2.339 0-1.538-1.086-2.275-2.79-2.275-.831 0-1.363.063-1.619.126v4.488zm9.332-5.056c0-.667.238-1.235.715-1.706.477-.471 1.052-.706 1.726-.706.674 0 1.249.235 1.724.706.476.47.713 1.039.713 1.706s-.238 1.236-.713 1.708-1.05.707-1.724.707c-.674 0-1.25-.235-1.726-.707-.478-.471-.715-1.041-.715-1.708zm.588 0c0 .505.181.937.543 1.295.362.358.799.538 1.309.538.51 0 .945-.179 1.307-.536.361-.357.542-.79.542-1.297 0-.504-.181-.936-.542-1.293-.362-.357-.797-.536-1.307-.536-.513 0-.95.179-1.311.536-.361.358-.541.788-.541 1.293zm2.406 1.35l-.658-1.106h-.229v1.106h-.561v-2.758h.762c.686 0 1.028.269 1.028.805 0 .332-.153.578-.46.74l.741 1.212h-.623zm-.685-2.257h-.201v.675l.442-.017c.077-.011.134-.042.171-.094.037-.051.055-.129.055-.235 0-.22-.156-.329-.467-.329z"/><path fill="#989A9D" d="M143.848 63.043c-.885.363-2.52.817-4.313.817-2.156 0-3.836-.613-4.993-1.907-1.157-1.271-1.543-2.951-1.543-4.448 0-2.542 1.021-5.22 2.973-6.991 1.657-1.43 3.858-2.27 6.31-2.27 1.861 0 3.132.432 3.609.704l-.635 1.589c-.772-.409-1.816-.658-3.2-.658-1.816 0-3.473.658-4.744 1.861-1.43 1.339-2.292 3.541-2.292 5.606 0 2.95 1.475 4.902 4.88 4.902.908 0 1.77-.182 2.315-.431l.885-4.562h-3.11l.295-1.543h4.948l-1.385 7.331zm10.803.045c-.817.454-2.156.863-3.631.863-2.905 0-4.176-1.998-4.176-4.426 0-3.313 2.451-7.058 5.992-7.058 2.088 0 3.223 1.248 3.223 2.837 0 2.882-3.246 3.631-7.308 3.563-.091.477-.023 1.498.227 2.088.431.999 1.316 1.475 2.451 1.475 1.293 0 2.27-.386 2.95-.749l.272 1.407zm-2.088-9.147c-1.793 0-3.132 1.748-3.609 3.473 2.973.045 5.289-.363 5.289-2.088-.001-.885-.681-1.385-1.68-1.385zm9.305-3.858l-.499 2.633h2.633l-.295 1.475h-2.633l-.999 5.333c-.136.613-.227 1.18-.227 1.748 0 .659.318 1.067 1.044 1.067.34 0 .635-.022.885-.091l-.091 1.476c-.34.136-.908.204-1.452.204-1.657 0-2.315-.999-2.315-2.133 0-.636.091-1.249.25-2.043l1.067-5.561h-1.566l.272-1.475h1.566l.386-2.042 1.974-.591z"/></svg>