<svg width="667" height="66" viewBox="0 0 667 66" fill="none" xmlns="http://www.w3.org/2000/svg">
<rect width="667" height="66" fill="white" fill-opacity="0.13"/>
<rect x="2" width="665" height="65.9316" fill="white"/>
<path d="M17.336 14.36C18.056 14.68 18.608 15.12 18.992 15.68C19.392 16.224 19.592 16.88 19.592 17.648C19.592 19.424 18.856 20.76 17.384 21.656C15.928 22.552 14.048 23 11.744 23H2.048L5.408 6.2H14.312C16.28 6.2 17.776 6.552 18.8 7.256C19.824 7.944 20.336 8.928 20.336 10.208C20.336 11.152 20.072 11.984 19.544 12.704C19.016 13.408 18.28 13.96 17.336 14.36ZM10.184 10.16L9.68 12.656H12.56C13.808 12.656 14.432 12.168 14.432 11.192C14.432 10.856 14.304 10.6 14.048 10.424C13.792 10.248 13.424 10.16 12.944 10.16H10.184ZM12.056 19.04C12.632 19.04 13.096 18.912 13.448 18.656C13.8 18.384 13.976 18 13.976 17.504C13.976 17.152 13.84 16.88 13.568 16.688C13.312 16.496 12.984 16.4 12.584 16.4H8.936L8.408 19.04H12.056ZM23.9945 5.192H29.4185L25.8665 23H20.4425L23.9945 5.192ZM45.3106 9.872L42.6946 23H37.5826L37.8226 21.8C36.8306 22.76 35.6466 23.24 34.2706 23.24C33.3746 23.24 32.5106 23 31.6786 22.52C30.8466 22.04 30.1666 21.344 29.6386 20.432C29.1266 19.504 28.8706 18.416 28.8706 17.168C28.8706 15.76 29.1826 14.48 29.8066 13.328C30.4466 12.176 31.3026 11.272 32.3746 10.616C33.4466 9.96 34.6066 9.632 35.8546 9.632C37.6146 9.632 38.8626 10.176 39.5986 11.264L39.8866 9.872H45.3106ZM34.3666 16.904C34.3666 17.528 34.5346 18.032 34.8706 18.416C35.2226 18.784 35.7026 18.968 36.3106 18.968C37.0146 18.968 37.5826 18.696 38.0146 18.152C38.4626 17.608 38.6866 16.88 38.6866 15.968C38.6866 15.344 38.5106 14.848 38.1586 14.48C37.8226 14.096 37.3506 13.904 36.7426 13.904C36.0386 13.904 35.4626 14.176 35.0146 14.72C34.5826 15.264 34.3666 15.992 34.3666 16.904ZM52.8033 23.24C51.3793 23.24 50.1233 22.992 49.0353 22.496C47.9633 21.984 47.1313 21.272 46.5393 20.36C45.9473 19.448 45.6513 18.384 45.6513 17.168C45.6513 15.744 46.0033 14.464 46.7073 13.328C47.4113 12.176 48.3953 11.272 49.6593 10.616C50.9233 9.96 52.3473 9.632 53.9313 9.632C55.4833 9.632 56.8353 9.976 57.9873 10.664C59.1553 11.352 59.9713 12.288 60.4353 13.472L55.8273 15.584C55.4113 14.464 54.6913 13.904 53.6673 13.904C52.9313 13.904 52.3233 14.176 51.8433 14.72C51.3793 15.264 51.1473 15.968 51.1473 16.832C51.1473 17.472 51.3233 17.992 51.6753 18.392C52.0433 18.776 52.5553 18.968 53.2113 18.968C53.7553 18.968 54.2193 18.84 54.6033 18.584C55.0033 18.312 55.3553 17.88 55.6593 17.288L59.6193 19.592C58.9633 20.76 58.0433 21.664 56.8593 22.304C55.6913 22.928 54.3393 23.24 52.8033 23.24ZM71.4575 15.8L75.7535 23H69.3935L67.1375 19.184L65.7455 20.48L65.2415 23H59.8175L63.3695 5.192H68.7935L67.1135 13.616L71.3615 9.872H78.0335L71.4575 15.8ZM87.1111 6.2H92.7751L89.4151 23H83.7511L87.1111 6.2ZM99.0298 17.84C98.9978 18.032 98.9818 18.16 98.9818 18.224C98.9818 18.832 99.3178 19.136 99.9898 19.136C100.342 19.136 100.742 19.032 101.19 18.824L101.814 22.472C100.886 22.984 99.7018 23.24 98.2617 23.24C96.7738 23.24 95.5978 22.888 94.7338 22.184C93.8858 21.464 93.4618 20.456 93.4618 19.16C93.4618 18.744 93.5098 18.312 93.6058 17.864L94.2778 14.552H92.4538L93.2458 10.592H95.0458L95.7898 6.92H101.214L100.47 10.592H103.158L102.366 14.552H99.6778L99.0298 17.84ZM119.701 9.872L117.085 23H111.973L112.213 21.8C111.221 22.76 110.037 23.24 108.661 23.24C107.765 23.24 106.901 23 106.069 22.52C105.237 22.04 104.557 21.344 104.029 20.432C103.517 19.504 103.261 18.416 103.261 17.168C103.261 15.76 103.573 14.48 104.197 13.328C104.837 12.176 105.693 11.272 106.765 10.616C107.837 9.96 108.997 9.632 110.245 9.632C112.005 9.632 113.253 10.176 113.989 11.264L114.277 9.872H119.701ZM108.757 16.904C108.757 17.528 108.925 18.032 109.261 18.416C109.613 18.784 110.093 18.968 110.701 18.968C111.405 18.968 111.973 18.696 112.405 18.152C112.853 17.608 113.077 16.88 113.077 15.968C113.077 15.344 112.901 14.848 112.549 14.48C112.213 14.096 111.741 13.904 111.133 13.904C110.429 13.904 109.853 14.176 109.405 14.72C108.973 15.264 108.757 15.992 108.757 16.904ZM123.018 5.192H128.442L124.89 23H119.466L123.018 5.192ZM129.91 9.872H135.31L132.694 23H127.294L129.91 9.872ZM133.198 8.816C132.27 8.816 131.526 8.576 130.966 8.096C130.406 7.6 130.126 6.984 130.126 6.248C130.126 5.4 130.446 4.696 131.086 4.136C131.726 3.576 132.558 3.296 133.582 3.296C134.51 3.296 135.254 3.528 135.814 3.992C136.374 4.44 136.654 5.032 136.654 5.768C136.654 6.68 136.334 7.416 135.694 7.976C135.07 8.536 134.238 8.816 133.198 8.816ZM142.827 23.24C141.403 23.24 140.147 22.992 139.059 22.496C137.987 21.984 137.155 21.272 136.563 20.36C135.971 19.448 135.675 18.384 135.675 17.168C135.675 15.744 136.027 14.464 136.731 13.328C137.435 12.176 138.419 11.272 139.683 10.616C140.947 9.96 142.371 9.632 143.955 9.632C145.507 9.632 146.859 9.976 148.011 10.664C149.179 11.352 149.995 12.288 150.459 13.472L145.851 15.584C145.435 14.464 144.715 13.904 143.691 13.904C142.955 13.904 142.347 14.176 141.867 14.72C141.403 15.264 141.171 15.968 141.171 16.832C141.171 17.472 141.347 17.992 141.699 18.392C142.067 18.776 142.579 18.968 143.235 18.968C143.779 18.968 144.243 18.84 144.627 18.584C145.027 18.312 145.379 17.88 145.683 17.288L149.643 19.592C148.987 20.76 148.067 21.664 146.883 22.304C145.715 22.928 144.363 23.24 142.827 23.24ZM165.772 5.816C167.196 5.816 168.444 6.08 169.516 6.608C170.604 7.12 171.452 7.888 172.06 8.912C172.668 9.92 172.972 11.16 172.972 12.632C172.972 14.376 172.572 16.072 171.772 17.72C170.988 19.368 169.78 20.728 168.148 21.8C166.532 22.856 164.532 23.384 162.148 23.384C161.092 23.384 160.092 23.264 159.148 23.024C158.204 22.8 157.444 22.48 156.868 22.064L159.436 18.176C160.236 18.72 161.244 18.992 162.46 18.992C164.508 18.992 165.892 18.072 166.612 16.232C165.812 16.792 164.9 17.072 163.876 17.072C162.884 17.072 161.972 16.888 161.14 16.52C160.308 16.136 159.636 15.584 159.124 14.864C158.628 14.128 158.38 13.248 158.38 12.224C158.38 10.944 158.692 9.824 159.316 8.864C159.956 7.888 160.836 7.136 161.956 6.608C163.076 6.08 164.348 5.816 165.772 5.816ZM163.924 11.648C163.924 12.112 164.06 12.48 164.332 12.752C164.62 13.024 165.012 13.16 165.508 13.16C166.052 13.16 166.5 12.992 166.852 12.656C167.204 12.304 167.38 11.848 167.38 11.288C167.38 10.824 167.236 10.448 166.948 10.16C166.676 9.872 166.292 9.728 165.796 9.728C165.268 9.728 164.82 9.904 164.452 10.256C164.1 10.608 163.924 11.072 163.924 11.648ZM180.391 23.384C179.079 23.384 177.935 23.128 176.959 22.616C175.983 22.088 175.223 21.336 174.679 20.36C174.151 19.368 173.887 18.184 173.887 16.808C173.887 14.728 174.279 12.856 175.063 11.192C175.847 9.512 176.927 8.2 178.303 7.256C179.695 6.296 181.255 5.816 182.983 5.816C184.295 5.816 185.439 6.08 186.415 6.608C187.391 7.12 188.143 7.872 188.671 8.864C189.215 9.84 189.487 11.016 189.487 12.392C189.487 14.472 189.095 16.352 188.311 18.032C187.527 19.696 186.439 21.008 185.047 21.968C183.671 22.912 182.119 23.384 180.391 23.384ZM180.967 18.848C181.575 18.848 182.095 18.496 182.527 17.792C182.959 17.088 183.279 16.248 183.487 15.272C183.711 14.28 183.823 13.368 183.823 12.536C183.823 11.08 183.351 10.352 182.407 10.352C181.799 10.352 181.279 10.704 180.847 11.408C180.415 12.112 180.087 12.96 179.863 13.952C179.655 14.928 179.551 15.832 179.551 16.664C179.551 18.12 180.023 18.848 180.967 18.848ZM197.009 23.384C195.697 23.384 194.553 23.128 193.577 22.616C192.601 22.088 191.841 21.336 191.297 20.36C190.769 19.368 190.505 18.184 190.505 16.808C190.505 14.728 190.897 12.856 191.681 11.192C192.465 9.512 193.545 8.2 194.921 7.256C196.313 6.296 197.873 5.816 199.601 5.816C200.913 5.816 202.057 6.08 203.033 6.608C204.009 7.12 204.761 7.872 205.289 8.864C205.833 9.84 206.105 11.016 206.105 12.392C206.105 14.472 205.713 16.352 204.929 18.032C204.145 19.696 203.057 21.008 201.665 21.968C200.289 22.912 198.737 23.384 197.009 23.384ZM197.585 18.848C198.193 18.848 198.713 18.496 199.145 17.792C199.577 17.088 199.897 16.248 200.105 15.272C200.329 14.28 200.441 13.368 200.441 12.536C200.441 11.08 199.969 10.352 199.025 10.352C198.417 10.352 197.897 10.704 197.465 11.408C197.033 12.112 196.705 12.96 196.481 13.952C196.273 14.928 196.169 15.832 196.169 16.664C196.169 18.12 196.641 18.848 197.585 18.848ZM14.288 49.072H7.88L6.2 52H0.224L10.928 35.2H16.496L20.48 52H14.84L14.288 49.072ZM13.496 44.992L12.68 40.696L10.208 44.992H13.496ZM24.7679 34.192H30.1919L26.6399 52H21.2159L24.7679 34.192ZM48.7241 38.632C50.0681 38.632 51.1561 39.024 51.9881 39.808C52.8361 40.576 53.2601 41.68 53.2601 43.12C53.2601 43.664 53.2041 44.208 53.0921 44.752L51.6521 52H46.2281L47.5481 45.448C47.6121 45.176 47.6441 44.904 47.6441 44.632C47.6441 44.152 47.5401 43.792 47.3321 43.552C47.1241 43.312 46.8361 43.192 46.4681 43.192C45.3641 43.192 44.6601 43.96 44.3561 45.496L43.0601 52H37.6361L38.9561 45.448C39.0201 45.176 39.0521 44.904 39.0521 44.632C39.0521 44.152 38.9481 43.792 38.7401 43.552C38.5321 43.312 38.2441 43.192 37.8761 43.192C36.7881 43.192 36.0761 43.992 35.7401 45.592L34.4681 52H29.0441L31.6601 38.872H36.7721L36.5081 40.144C37.0521 39.632 37.6441 39.256 38.2841 39.016C38.9241 38.76 39.5801 38.632 40.2521 38.632C41.0681 38.632 41.8201 38.808 42.5081 39.16C43.1961 39.512 43.7321 40.032 44.1161 40.72C44.6921 40.048 45.3721 39.536 46.1561 39.184C46.9401 38.816 47.7961 38.632 48.7241 38.632ZM61.9434 52.24C60.5034 52.24 59.2474 51.992 58.1754 51.496C57.1034 50.984 56.2714 50.272 55.6794 49.36C55.1034 48.448 54.8154 47.384 54.8154 46.168C54.8154 44.744 55.1674 43.464 55.8714 42.328C56.5754 41.176 57.5434 40.272 58.7754 39.616C60.0234 38.96 61.4314 38.632 62.9994 38.632C64.4394 38.632 65.6954 38.888 66.7674 39.4C67.8394 39.896 68.6634 40.6 69.2394 41.512C69.8314 42.424 70.1274 43.488 70.1274 44.704C70.1274 46.128 69.7754 47.416 69.0714 48.568C68.3674 49.704 67.3914 50.6 66.1434 51.256C64.9114 51.912 63.5114 52.24 61.9434 52.24ZM62.2554 47.968C62.9594 47.968 63.5274 47.696 63.9594 47.152C64.4074 46.608 64.6314 45.88 64.6314 44.968C64.6314 44.344 64.4554 43.848 64.1034 43.48C63.7674 43.096 63.2954 42.904 62.6874 42.904C61.9834 42.904 61.4074 43.176 60.9594 43.72C60.5274 44.264 60.3114 44.992 60.3114 45.904C60.3114 46.528 60.4794 47.032 60.8154 47.416C61.1674 47.784 61.6474 47.968 62.2554 47.968ZM75.9301 52.24C74.7941 52.24 73.6981 52.128 72.6421 51.904C71.5861 51.68 70.7621 51.392 70.1701 51.04L72.0421 47.344C72.6661 47.728 73.3861 48.024 74.2021 48.232C75.0341 48.44 75.8341 48.544 76.6021 48.544C77.6741 48.544 78.2101 48.336 78.2101 47.92C78.2101 47.744 78.0661 47.616 77.7781 47.536C77.5061 47.44 77.0661 47.352 76.4581 47.272C75.5141 47.128 74.7141 46.96 74.0581 46.768C73.4021 46.56 72.8261 46.208 72.3301 45.712C71.8341 45.2 71.5861 44.496 71.5861 43.6C71.5861 41.984 72.2741 40.752 73.6501 39.904C75.0261 39.056 76.8021 38.632 78.9781 38.632C79.9381 38.632 80.8581 38.72 81.7381 38.896C82.6341 39.056 83.4261 39.296 84.1141 39.616L82.2421 43.312C81.1061 42.656 79.8021 42.328 78.3301 42.328C77.7541 42.328 77.3301 42.392 77.0581 42.52C76.8021 42.648 76.6741 42.8 76.6741 42.976C76.6741 43.152 76.8101 43.288 77.0821 43.384C77.3541 43.464 77.8181 43.56 78.4741 43.672C79.4021 43.816 80.1861 43.992 80.8261 44.2C81.4821 44.392 82.0501 44.744 82.5301 45.256C83.0261 45.752 83.2741 46.44 83.2741 47.32C83.2741 48.376 82.9461 49.28 82.2901 50.032C81.6501 50.768 80.7701 51.32 79.6501 51.688C78.5461 52.056 77.3061 52.24 75.9301 52.24ZM91.0844 46.84C91.0524 47.032 91.0364 47.16 91.0364 47.224C91.0364 47.832 91.3724 48.136 92.0444 48.136C92.3964 48.136 92.7964 48.032 93.2444 47.824L93.8684 51.472C92.9404 51.984 91.7564 52.24 90.3164 52.24C88.8284 52.24 87.6524 51.888 86.7884 51.184C85.9404 50.464 85.5164 49.456 85.5164 48.16C85.5164 47.744 85.5644 47.312 85.6604 46.864L86.3324 43.552H84.5084L85.3004 39.592H87.1004L87.8444 35.92H93.2684L92.5244 39.592H95.2124L94.4204 43.552H91.7324L91.0844 46.84ZM113.303 38.632C114.199 38.632 115.063 38.872 115.895 39.352C116.727 39.832 117.399 40.536 117.911 41.464C118.439 42.376 118.703 43.456 118.703 44.704C118.703 46.112 118.383 47.392 117.743 48.544C117.119 49.696 116.271 50.6 115.199 51.256C114.127 51.912 112.967 52.24 111.719 52.24C109.783 52.24 108.463 51.584 107.759 50.272L107.423 52H102.263L105.815 34.192H111.239L110.135 39.76C111.031 39.008 112.087 38.632 113.303 38.632ZM110.831 47.968C111.535 47.968 112.103 47.696 112.535 47.152C112.983 46.608 113.207 45.88 113.207 44.968C113.207 44.344 113.031 43.848 112.679 43.48C112.343 43.096 111.871 42.904 111.263 42.904C110.559 42.904 109.983 43.176 109.535 43.72C109.103 44.264 108.887 44.992 108.887 45.904C108.887 46.528 109.055 47.032 109.391 47.416C109.743 47.784 110.223 47.968 110.831 47.968ZM134.476 44.416C134.476 45.136 134.38 45.896 134.188 46.696H124.996C125.108 47.24 125.372 47.632 125.788 47.872C126.204 48.112 126.78 48.232 127.516 48.232C128.604 48.232 129.556 47.928 130.372 47.32L132.628 50.608C131.028 51.696 129.116 52.24 126.892 52.24C125.468 52.24 124.204 51.992 123.1 51.496C122.012 51 121.164 50.296 120.556 49.384C119.964 48.472 119.668 47.4 119.668 46.168C119.668 44.728 120.004 43.44 120.676 42.304C121.364 41.152 122.324 40.256 123.556 39.616C124.788 38.96 126.204 38.632 127.804 38.632C129.18 38.632 130.372 38.88 131.38 39.376C132.388 39.856 133.156 40.536 133.684 41.416C134.212 42.28 134.476 43.28 134.476 44.416ZM127.564 42.328C126.972 42.328 126.476 42.488 126.076 42.808C125.692 43.112 125.404 43.536 125.212 44.08H129.508C129.508 43.536 129.332 43.112 128.98 42.808C128.628 42.488 128.156 42.328 127.564 42.328ZM142.982 39.592H145.814L145.022 43.552H142.358L140.654 52H135.23L136.91 43.552H135.11L135.902 39.592H137.702L137.774 39.28C138.094 37.648 138.822 36.352 139.958 35.392C141.094 34.432 142.59 33.952 144.446 33.952C145.806 33.952 146.918 34.168 147.782 34.6L145.718 38.368C145.334 38.16 144.926 38.056 144.494 38.056C144.062 38.056 143.726 38.176 143.486 38.416C143.262 38.656 143.094 39.04 142.982 39.568V39.592ZM152.436 52.24C150.996 52.24 149.74 51.992 148.668 51.496C147.596 50.984 146.764 50.272 146.172 49.36C145.596 48.448 145.308 47.384 145.308 46.168C145.308 44.744 145.66 43.464 146.364 42.328C147.068 41.176 148.036 40.272 149.268 39.616C150.516 38.96 151.924 38.632 153.492 38.632C154.932 38.632 156.188 38.888 157.26 39.4C158.332 39.896 159.156 40.6 159.732 41.512C160.324 42.424 160.62 43.488 160.62 44.704C160.62 46.128 160.268 47.416 159.564 48.568C158.86 49.704 157.884 50.6 156.636 51.256C155.404 51.912 154.004 52.24 152.436 52.24ZM152.748 47.968C153.452 47.968 154.02 47.696 154.452 47.152C154.9 46.608 155.124 45.88 155.124 44.968C155.124 44.344 154.948 43.848 154.596 43.48C154.26 43.096 153.788 42.904 153.18 42.904C152.476 42.904 151.9 43.176 151.452 43.72C151.02 44.264 150.804 44.992 150.804 45.904C150.804 46.528 150.972 47.032 151.308 47.416C151.66 47.784 152.14 47.968 152.748 47.968ZM168.414 40.216C169.486 39.16 171.022 38.632 173.022 38.632L172.062 43.432C171.662 43.368 171.27 43.336 170.886 43.336C169.958 43.336 169.222 43.544 168.678 43.96C168.15 44.36 167.79 45.016 167.598 45.928L166.374 52H160.95L163.566 38.872H168.678L168.414 40.216ZM187.186 44.416C187.186 45.136 187.09 45.896 186.898 46.696H177.706C177.818 47.24 178.082 47.632 178.498 47.872C178.914 48.112 179.49 48.232 180.226 48.232C181.314 48.232 182.266 47.928 183.082 47.32L185.338 50.608C183.738 51.696 181.826 52.24 179.602 52.24C178.178 52.24 176.914 51.992 175.81 51.496C174.722 51 173.874 50.296 173.266 49.384C172.674 48.472 172.378 47.4 172.378 46.168C172.378 44.728 172.714 43.44 173.386 42.304C174.074 41.152 175.034 40.256 176.266 39.616C177.498 38.96 178.914 38.632 180.514 38.632C181.89 38.632 183.082 38.88 184.09 39.376C185.098 39.856 185.866 40.536 186.394 41.416C186.922 42.28 187.186 43.28 187.186 44.416ZM180.274 42.328C179.682 42.328 179.186 42.488 178.786 42.808C178.402 43.112 178.114 43.536 177.922 44.08H182.218C182.218 43.536 182.042 43.112 181.69 42.808C181.338 42.488 180.866 42.328 180.274 42.328ZM219.76 38.872L212.68 52H207.328L206.368 45.928L203.224 52H197.896L195.784 38.872H200.728L201.664 45.736L205.384 38.872H210.04L211 45.784L214.72 38.872H219.76ZM233.194 44.416C233.194 45.136 233.098 45.896 232.906 46.696H223.714C223.826 47.24 224.09 47.632 224.506 47.872C224.922 48.112 225.498 48.232 226.234 48.232C227.322 48.232 228.274 47.928 229.09 47.32L231.346 50.608C229.746 51.696 227.834 52.24 225.61 52.24C224.186 52.24 222.922 51.992 221.818 51.496C220.73 51 219.882 50.296 219.274 49.384C218.682 48.472 218.386 47.4 218.386 46.168C218.386 44.728 218.722 43.44 219.394 42.304C220.082 41.152 221.042 40.256 222.274 39.616C223.506 38.96 224.922 38.632 226.522 38.632C227.898 38.632 229.09 38.88 230.098 39.376C231.106 39.856 231.874 40.536 232.402 41.416C232.93 42.28 233.194 43.28 233.194 44.416ZM226.282 42.328C225.69 42.328 225.194 42.488 224.794 42.808C224.41 43.112 224.122 43.536 223.93 44.08H228.226C228.226 43.536 228.05 43.112 227.698 42.808C227.346 42.488 226.874 42.328 226.282 42.328ZM252.184 44.8L256.48 52H250.12L247.864 48.184L246.472 49.48L245.968 52H240.544L244.096 34.192H249.52L247.84 42.616L252.088 38.872H258.76L252.184 44.8ZM268.514 38.632C269.938 38.632 271.074 39.016 271.922 39.784C272.786 40.552 273.218 41.656 273.218 43.096C273.218 43.64 273.162 44.192 273.05 44.752L271.61 52H266.186L267.506 45.4C267.57 45.016 267.602 44.752 267.602 44.608C267.602 43.664 267.146 43.192 266.234 43.192C264.954 43.192 264.146 44.024 263.81 45.688L262.538 52H257.114L259.73 38.872H264.842L264.578 40.192C265.138 39.664 265.754 39.272 266.426 39.016C267.114 38.76 267.81 38.632 268.514 38.632ZM289.608 44.416C289.608 45.136 289.512 45.896 289.32 46.696H280.128C280.24 47.24 280.504 47.632 280.92 47.872C281.336 48.112 281.912 48.232 282.648 48.232C283.736 48.232 284.688 47.928 285.504 47.32L287.76 50.608C286.16 51.696 284.248 52.24 282.024 52.24C280.6 52.24 279.336 51.992 278.232 51.496C277.144 51 276.296 50.296 275.688 49.384C275.096 48.472 274.8 47.4 274.8 46.168C274.8 44.728 275.136 43.44 275.808 42.304C276.496 41.152 277.456 40.256 278.688 39.616C279.92 38.96 281.336 38.632 282.936 38.632C284.312 38.632 285.504 38.88 286.512 39.376C287.52 39.856 288.288 40.536 288.816 41.416C289.344 42.28 289.608 43.28 289.608 44.416ZM282.696 42.328C282.104 42.328 281.608 42.488 281.208 42.808C280.824 43.112 280.536 43.536 280.344 44.08H284.64C284.64 43.536 284.464 43.112 284.112 42.808C283.76 42.488 283.288 42.328 282.696 42.328ZM314.752 38.872L307.672 52H302.32L301.36 45.928L298.216 52H292.888L290.776 38.872H295.72L296.656 45.736L300.376 38.872H305.032L305.992 45.784L309.712 38.872H314.752ZM322.941 38.872H328.341L325.725 52H320.325L322.941 38.872ZM326.229 37.816C325.301 37.816 324.557 37.576 323.997 37.096C323.437 36.6 323.157 35.984 323.157 35.248C323.157 34.4 323.477 33.696 324.117 33.136C324.757 32.576 325.589 32.296 326.613 32.296C327.541 32.296 328.285 32.528 328.845 32.992C329.405 33.44 329.685 34.032 329.685 34.768C329.685 35.68 329.365 36.416 328.725 36.976C328.101 37.536 327.269 37.816 326.229 37.816ZM335.186 46.84C335.154 47.032 335.138 47.16 335.138 47.224C335.138 47.832 335.474 48.136 336.146 48.136C336.498 48.136 336.898 48.032 337.346 47.824L337.97 51.472C337.042 51.984 335.858 52.24 334.418 52.24C332.93 52.24 331.754 51.888 330.89 51.184C330.042 50.464 329.618 49.456 329.618 48.16C329.618 47.744 329.666 47.312 329.762 46.864L330.434 43.552H328.61L329.402 39.592H331.202L331.946 35.92H337.37L336.626 39.592H339.314L338.522 43.552H335.834L335.186 46.84ZM342.643 46.048C343.523 46.048 344.235 46.312 344.779 46.84C345.323 47.368 345.595 48.056 345.595 48.904C345.595 49.336 345.515 49.752 345.355 50.152C345.195 50.552 344.899 51.064 344.467 51.688L341.635 55.84H338.275L340.363 51.664C339.995 51.408 339.715 51.088 339.523 50.704C339.331 50.304 339.235 49.864 339.235 49.384C339.235 48.392 339.563 47.592 340.219 46.984C340.875 46.36 341.683 46.048 342.643 46.048ZM379.112 38.872L372.032 52H366.68L365.72 45.928L362.576 52H357.248L355.136 38.872H360.08L361.016 45.736L364.736 38.872H369.392L370.352 45.784L374.072 38.872H379.112ZM392.546 44.416C392.546 45.136 392.45 45.896 392.258 46.696H383.066C383.178 47.24 383.442 47.632 383.858 47.872C384.274 48.112 384.85 48.232 385.586 48.232C386.674 48.232 387.626 47.928 388.442 47.32L390.698 50.608C389.098 51.696 387.186 52.24 384.962 52.24C383.538 52.24 382.274 51.992 381.17 51.496C380.082 51 379.234 50.296 378.626 49.384C378.034 48.472 377.738 47.4 377.738 46.168C377.738 44.728 378.074 43.44 378.746 42.304C379.434 41.152 380.394 40.256 381.626 39.616C382.858 38.96 384.274 38.632 385.874 38.632C387.25 38.632 388.442 38.88 389.45 39.376C390.458 39.856 391.226 40.536 391.754 41.416C392.282 42.28 392.546 43.28 392.546 44.416ZM385.634 42.328C385.042 42.328 384.546 42.488 384.146 42.808C383.762 43.112 383.474 43.536 383.282 44.08H387.578C387.578 43.536 387.402 43.112 387.05 42.808C386.698 42.488 386.226 42.328 385.634 42.328ZM411.296 38.632C412.688 38.632 413.816 39.024 414.68 39.808C415.56 40.576 416 41.688 416 43.144C416 43.672 415.944 44.208 415.832 44.752L414.392 52H408.968L410.288 45.4C410.352 45.016 410.384 44.752 410.384 44.608C410.384 43.664 409.928 43.192 409.016 43.192C407.736 43.192 406.928 44.024 406.592 45.688L405.32 52H399.896L403.448 34.192H408.872L407.744 39.88C408.272 39.464 408.84 39.152 409.448 38.944C410.056 38.736 410.672 38.632 411.296 38.632ZM434.022 38.872L431.406 52H426.294L426.534 50.8C425.542 51.76 424.358 52.24 422.982 52.24C422.086 52.24 421.222 52 420.39 51.52C419.558 51.04 418.878 50.344 418.35 49.432C417.838 48.504 417.582 47.416 417.582 46.168C417.582 44.76 417.894 43.48 418.518 42.328C419.158 41.176 420.014 40.272 421.086 39.616C422.158 38.96 423.318 38.632 424.566 38.632C426.326 38.632 427.574 39.176 428.31 40.264L428.598 38.872H434.022ZM423.078 45.904C423.078 46.528 423.246 47.032 423.582 47.416C423.934 47.784 424.414 47.968 425.022 47.968C425.726 47.968 426.294 47.696 426.726 47.152C427.174 46.608 427.398 45.88 427.398 44.968C427.398 44.344 427.222 43.848 426.87 43.48C426.534 43.096 426.062 42.904 425.454 42.904C424.75 42.904 424.174 43.176 423.726 43.72C423.294 44.264 423.078 44.992 423.078 45.904ZM451.858 34.192L448.306 52H443.194L443.434 50.8C442.442 51.76 441.266 52.24 439.906 52.24C439.01 52.24 438.146 52 437.314 51.52C436.482 51.04 435.802 50.344 435.274 49.432C434.762 48.504 434.506 47.416 434.506 46.168C434.506 44.76 434.818 43.48 435.442 42.328C436.082 41.176 436.938 40.272 438.01 39.616C439.082 38.96 440.242 38.632 441.49 38.632C443.234 38.632 444.482 39.168 445.234 40.24L446.434 34.192H451.858ZM440.002 45.904C440.002 46.528 440.17 47.032 440.506 47.416C440.858 47.784 441.338 47.968 441.946 47.968C442.65 47.968 443.218 47.696 443.65 47.152C444.098 46.608 444.322 45.88 444.322 44.968C444.322 44.344 444.146 43.848 443.794 43.48C443.458 43.096 442.986 42.904 442.378 42.904C441.674 42.904 441.098 43.176 440.65 43.72C440.218 44.264 440.002 44.992 440.002 45.904ZM461.455 34.192H466.879L463.327 52H457.903L461.455 34.192ZM481.14 44.416C481.14 45.136 481.044 45.896 480.852 46.696H471.66C471.772 47.24 472.036 47.632 472.452 47.872C472.868 48.112 473.444 48.232 474.18 48.232C475.268 48.232 476.22 47.928 477.036 47.32L479.292 50.608C477.692 51.696 475.78 52.24 473.556 52.24C472.132 52.24 470.868 51.992 469.764 51.496C468.676 51 467.828 50.296 467.22 49.384C466.628 48.472 466.332 47.4 466.332 46.168C466.332 44.728 466.668 43.44 467.34 42.304C468.028 41.152 468.988 40.256 470.22 39.616C471.452 38.96 472.868 38.632 474.468 38.632C475.844 38.632 477.036 38.88 478.044 39.376C479.052 39.856 479.82 40.536 480.348 41.416C480.876 42.28 481.14 43.28 481.14 44.416ZM474.228 42.328C473.636 42.328 473.14 42.488 472.74 42.808C472.356 43.112 472.068 43.536 471.876 44.08H476.172C476.172 43.536 475.996 43.112 475.644 42.808C475.292 42.488 474.82 42.328 474.228 42.328ZM489.646 39.592H492.478L491.686 43.552H489.022L487.318 52H481.894L483.574 43.552H481.774L482.566 39.592H484.366L484.438 39.28C484.758 37.648 485.486 36.352 486.622 35.392C487.758 34.432 489.254 33.952 491.11 33.952C492.47 33.952 493.582 34.168 494.446 34.6L492.382 38.368C491.998 38.16 491.59 38.056 491.158 38.056C490.726 38.056 490.39 38.176 490.15 38.416C489.926 38.656 489.758 39.04 489.646 39.568V39.592ZM498.569 46.84C498.537 47.032 498.521 47.16 498.521 47.224C498.521 47.832 498.857 48.136 499.529 48.136C499.881 48.136 500.281 48.032 500.729 47.824L501.353 51.472C500.425 51.984 499.241 52.24 497.801 52.24C496.313 52.24 495.137 51.888 494.273 51.184C493.425 50.464 493.001 49.456 493.001 48.16C493.001 47.744 493.049 47.312 493.145 46.864L493.817 43.552H491.993L492.785 39.592H494.585L495.329 35.92H500.753L500.009 39.592H502.697L501.905 43.552H499.217L498.569 46.84ZM516.803 46.84C516.771 47.032 516.755 47.16 516.755 47.224C516.755 47.832 517.091 48.136 517.763 48.136C518.115 48.136 518.515 48.032 518.963 47.824L519.587 51.472C518.659 51.984 517.475 52.24 516.035 52.24C514.547 52.24 513.371 51.888 512.507 51.184C511.659 50.464 511.235 49.456 511.235 48.16C511.235 47.744 511.283 47.312 511.379 46.864L512.051 43.552H510.227L511.019 39.592H512.819L513.563 35.92H518.987L518.243 39.592H520.931L520.139 43.552H517.451L516.803 46.84ZM532.186 38.632C533.578 38.632 534.706 39.024 535.57 39.808C536.45 40.576 536.89 41.688 536.89 43.144C536.89 43.672 536.834 44.208 536.722 44.752L535.282 52H529.858L531.178 45.4C531.242 45.016 531.274 44.752 531.274 44.608C531.274 43.664 530.818 43.192 529.906 43.192C528.626 43.192 527.818 44.024 527.482 45.688L526.21 52H520.786L524.338 34.192H529.762L528.634 39.88C529.162 39.464 529.73 39.152 530.338 38.944C530.946 38.736 531.562 38.632 532.186 38.632ZM553.28 44.416C553.28 45.136 553.184 45.896 552.992 46.696H543.8C543.912 47.24 544.176 47.632 544.592 47.872C545.008 48.112 545.584 48.232 546.32 48.232C547.408 48.232 548.36 47.928 549.176 47.32L551.432 50.608C549.832 51.696 547.92 52.24 545.696 52.24C544.272 52.24 543.008 51.992 541.904 51.496C540.816 51 539.968 50.296 539.36 49.384C538.768 48.472 538.472 47.4 538.472 46.168C538.472 44.728 538.808 43.44 539.48 42.304C540.168 41.152 541.128 40.256 542.36 39.616C543.592 38.96 545.008 38.632 546.608 38.632C547.984 38.632 549.176 38.88 550.184 39.376C551.192 39.856 551.96 40.536 552.488 41.416C553.016 42.28 553.28 43.28 553.28 44.416ZM546.368 42.328C545.776 42.328 545.28 42.488 544.88 42.808C544.496 43.112 544.208 43.536 544.016 44.08H548.312C548.312 43.536 548.136 43.112 547.784 42.808C547.432 42.488 546.96 42.328 546.368 42.328ZM577.934 38.872L575.846 49.36C575.334 51.968 574.318 53.872 572.798 55.072C571.294 56.288 569.318 56.896 566.87 56.896C564.182 56.896 562.014 56.352 560.366 55.264L562.67 51.568C563.198 51.968 563.846 52.28 564.614 52.504C565.398 52.744 566.182 52.864 566.966 52.864C567.974 52.864 568.726 52.656 569.222 52.24C569.734 51.824 570.07 51.2 570.23 50.368L570.302 50.032C569.406 50.864 568.302 51.28 566.99 51.28C565.998 51.28 565.07 51.056 564.206 50.608C563.342 50.144 562.646 49.48 562.118 48.616C561.59 47.752 561.326 46.752 561.326 45.616C561.326 44.336 561.638 43.168 562.262 42.112C562.886 41.04 563.734 40.192 564.806 39.568C565.894 38.944 567.086 38.632 568.382 38.632C570.446 38.632 571.782 39.376 572.39 40.864L572.774 38.872H577.934ZM566.798 45.352C566.798 45.848 566.966 46.256 567.302 46.576C567.654 46.88 568.126 47.032 568.718 47.032C569.422 47.032 569.982 46.808 570.398 46.36C570.83 45.912 571.046 45.32 571.046 44.584C571.046 44.088 570.878 43.688 570.542 43.384C570.206 43.064 569.742 42.904 569.15 42.904C568.446 42.904 567.878 43.128 567.446 43.576C567.014 44.024 566.798 44.616 566.798 45.352ZM585.157 40.216C586.229 39.16 587.765 38.632 589.765 38.632L588.805 43.432C588.405 43.368 588.013 43.336 587.629 43.336C586.701 43.336 585.965 43.544 585.421 43.96C584.893 44.36 584.533 45.016 584.341 45.928L583.117 52H577.692L580.309 38.872H585.421L585.157 40.216ZM596.225 52.24C594.785 52.24 593.529 51.992 592.457 51.496C591.385 50.984 590.553 50.272 589.961 49.36C589.385 48.448 589.097 47.384 589.097 46.168C589.097 44.744 589.449 43.464 590.153 42.328C590.857 41.176 591.825 40.272 593.057 39.616C594.305 38.96 595.713 38.632 597.281 38.632C598.721 38.632 599.977 38.888 601.049 39.4C602.121 39.896 602.945 40.6 603.521 41.512C604.113 42.424 604.409 43.488 604.409 44.704C604.409 46.128 604.057 47.416 603.353 48.568C602.649 49.704 601.673 50.6 600.425 51.256C599.193 51.912 597.793 52.24 596.225 52.24ZM596.537 47.968C597.241 47.968 597.809 47.696 598.241 47.152C598.689 46.608 598.913 45.88 598.913 44.968C598.913 44.344 598.737 43.848 598.385 43.48C598.049 43.096 597.577 42.904 596.969 42.904C596.265 42.904 595.689 43.176 595.241 43.72C594.809 44.264 594.593 44.992 594.593 45.904C594.593 46.528 594.761 47.032 595.097 47.416C595.449 47.784 595.929 47.968 596.537 47.968ZM621.731 38.872L619.115 52H614.003L614.267 50.68C613.707 51.208 613.091 51.6 612.419 51.856C611.747 52.112 611.067 52.24 610.379 52.24C608.971 52.24 607.843 51.856 606.995 51.088C606.147 50.32 605.723 49.216 605.723 47.776C605.723 47.232 605.779 46.68 605.891 46.12L607.331 38.872H612.755L611.435 45.472C611.371 45.856 611.339 46.128 611.339 46.288C611.339 47.216 611.779 47.68 612.659 47.68C613.907 47.68 614.699 46.848 615.035 45.184L616.307 38.872H621.731ZM632.897 38.632C634.321 38.632 635.457 39.016 636.305 39.784C637.169 40.552 637.601 41.656 637.601 43.096C637.601 43.64 637.545 44.192 637.433 44.752L635.993 52H630.569L631.889 45.4C631.953 45.016 631.985 44.752 631.985 44.608C631.985 43.664 631.529 43.192 630.617 43.192C629.337 43.192 628.529 44.024 628.193 45.688L626.921 52H621.497L624.113 38.872H629.225L628.961 40.192C629.521 39.664 630.137 39.272 630.809 39.016C631.497 38.76 632.193 38.632 632.897 38.632ZM656.655 34.192L653.103 52H647.991L648.231 50.8C647.239 51.76 646.063 52.24 644.703 52.24C643.807 52.24 642.943 52 642.111 51.52C641.279 51.04 640.599 50.344 640.071 49.432C639.559 48.504 639.303 47.416 639.303 46.168C639.303 44.76 639.615 43.48 640.239 42.328C640.879 41.176 641.735 40.272 642.807 39.616C643.879 38.96 645.039 38.632 646.287 38.632C648.031 38.632 649.279 39.168 650.031 40.24L651.231 34.192H656.655ZM644.799 45.904C644.799 46.528 644.967 47.032 645.303 47.416C645.655 47.784 646.135 47.968 646.743 47.968C647.447 47.968 648.015 47.696 648.447 47.152C648.895 46.608 649.119 45.88 649.119 44.968C649.119 44.344 648.943 43.848 648.591 43.48C648.255 43.096 647.783 42.904 647.175 42.904C646.471 42.904 645.895 43.176 645.447 43.72C645.015 44.264 644.799 44.992 644.799 45.904ZM658.313 52.24C657.433 52.24 656.713 51.976 656.153 51.448C655.609 50.904 655.337 50.216 655.337 49.384C655.337 48.392 655.665 47.592 656.321 46.984C656.977 46.36 657.785 46.048 658.745 46.048C659.625 46.048 660.337 46.312 660.881 46.84C661.425 47.368 661.697 48.056 661.697 48.904C661.697 49.896 661.369 50.704 660.713 51.328C660.057 51.936 659.257 52.24 658.313 52.24Z" fill="black"/>
</svg>
