<svg width="666" height="66" viewBox="0 0 666 66" fill="none" xmlns="http://www.w3.org/2000/svg">
<rect width="666" height="66" fill="white" fill-opacity="0.13"/>
<rect x="1" width="665" height="65.9316" fill="white"/>
<path d="M15.808 14.216C16.8 14.584 17.568 15.12 18.112 15.824C18.656 16.528 18.928 17.376 18.928 18.368C18.928 19.84 18.32 20.984 17.104 21.8C15.888 22.6 14.128 23 11.824 23H2.368V6.2H11.344C13.584 6.2 15.272 6.6 16.408 7.4C17.56 8.2 18.136 9.264 18.136 10.592C18.136 11.376 17.936 12.08 17.536 12.704C17.152 13.328 16.576 13.832 15.808 14.216ZM7.936 10.16V12.656H10.576C11.808 12.656 12.424 12.24 12.424 11.408C12.424 10.576 11.808 10.16 10.576 10.16H7.936ZM11.344 19.04C12.592 19.04 13.216 18.6 13.216 17.72C13.216 16.84 12.592 16.4 11.344 16.4H7.936V19.04H11.344ZM20.7625 5.192H26.1865V23H20.7625V5.192ZM34.4706 9.632C36.7746 9.632 38.5346 10.152 39.7506 11.192C40.9666 12.216 41.5746 13.8 41.5746 15.944V23H36.5346V21.272C35.9106 22.584 34.6706 23.24 32.8146 23.24C31.7746 23.24 30.8866 23.064 30.1506 22.712C29.4306 22.344 28.8786 21.856 28.4946 21.248C28.1266 20.624 27.9426 19.928 27.9426 19.16C27.9426 17.864 28.4386 16.88 29.4306 16.208C30.4226 15.536 31.9266 15.2 33.9426 15.2H36.1266C35.9506 14.176 35.1266 13.664 33.6546 13.664C33.0626 13.664 32.4626 13.76 31.8546 13.952C31.2466 14.128 30.7266 14.376 30.2946 14.696L28.5666 11.12C29.3186 10.656 30.2226 10.296 31.2786 10.04C32.3506 9.768 33.4146 9.632 34.4706 9.632ZM34.4466 19.976C34.8306 19.976 35.1746 19.872 35.4786 19.664C35.7826 19.456 36.0066 19.144 36.1506 18.728V17.816H34.8066C33.7026 17.816 33.1506 18.184 33.1506 18.92C33.1506 19.224 33.2626 19.48 33.4866 19.688C33.7266 19.88 34.0466 19.976 34.4466 19.976ZM51.2091 23.24C49.7211 23.24 48.3851 22.952 47.2011 22.376C46.0331 21.8 45.1131 20.992 44.4411 19.952C43.7851 18.912 43.4571 17.736 43.4571 16.424C43.4571 15.112 43.7851 13.944 44.4411 12.92C45.1131 11.88 46.0331 11.072 47.2011 10.496C48.3851 9.92 49.7211 9.632 51.2091 9.632C52.8091 9.632 54.1771 9.976 55.3131 10.664C56.4491 11.352 57.2331 12.304 57.6651 13.52L53.4651 15.584C52.9531 14.432 52.1931 13.856 51.1851 13.856C50.5451 13.856 50.0091 14.08 49.5771 14.528C49.1611 14.976 48.9531 15.608 48.9531 16.424C48.9531 17.256 49.1611 17.896 49.5771 18.344C50.0091 18.792 50.5451 19.016 51.1851 19.016C52.1931 19.016 52.9531 18.44 53.4651 17.288L57.6651 19.352C57.2331 20.568 56.4491 21.52 55.3131 22.208C54.1771 22.896 52.8091 23.24 51.2091 23.24ZM65.2068 18.968L64.3428 19.904V23H58.9188V5.192H64.3428V13.688L68.1108 9.872H74.5188L69.0948 15.56L74.9508 23H68.3988L65.2068 18.968ZM89.1274 5.816C90.7434 5.816 92.1514 6.128 93.3514 6.752C94.5674 7.376 95.5114 8.304 96.1834 9.536C96.8554 10.768 97.1914 12.28 97.1914 14.072C97.1914 15.992 96.7994 17.656 96.0154 19.064C95.2474 20.472 94.1594 21.544 92.7514 22.28C91.3594 23.016 89.7354 23.384 87.8794 23.384C86.8714 23.384 85.9114 23.264 84.9994 23.024C84.0874 22.8 83.3114 22.48 82.6714 22.064L84.7114 18.104C85.5434 18.696 86.5594 18.992 87.7594 18.992C88.7354 18.992 89.5354 18.752 90.1594 18.272C90.7994 17.776 91.2154 17.064 91.4074 16.136C90.5274 16.76 89.4154 17.072 88.0714 17.072C87.0474 17.072 86.0954 16.848 85.2154 16.4C84.3354 15.952 83.6314 15.32 83.1034 14.504C82.5754 13.688 82.3114 12.752 82.3114 11.696C82.3114 10.528 82.6074 9.496 83.1994 8.6C83.8074 7.704 84.6314 7.016 85.6714 6.536C86.7114 6.056 87.8634 5.816 89.1274 5.816ZM89.5114 13.16C90.0234 13.16 90.4394 13.008 90.7594 12.704C91.0794 12.384 91.2394 11.96 91.2394 11.432C91.2394 10.904 91.0794 10.488 90.7594 10.184C90.4394 9.88 90.0234 9.728 89.5114 9.728C88.9994 9.728 88.5834 9.88 88.2634 10.184C87.9434 10.488 87.7834 10.904 87.7834 11.432C87.7834 11.96 87.9434 12.384 88.2634 12.704C88.5834 13.008 88.9994 13.16 89.5114 13.16ZM106.195 23.384C104.707 23.384 103.387 23.04 102.235 22.352C101.099 21.648 100.203 20.64 99.5466 19.328C98.9066 18 98.5866 16.424 98.5866 14.6C98.5866 12.776 98.9066 11.208 99.5466 9.896C100.203 8.568 101.099 7.56 102.235 6.872C103.387 6.168 104.707 5.816 106.195 5.816C107.683 5.816 108.995 6.168 110.131 6.872C111.283 7.56 112.179 8.568 112.819 9.896C113.475 11.208 113.803 12.776 113.803 14.6C113.803 16.424 113.475 18 112.819 19.328C112.179 20.64 111.283 21.648 110.131 22.352C108.995 23.04 107.683 23.384 106.195 23.384ZM106.195 18.848C107.475 18.848 108.115 17.432 108.115 14.6C108.115 11.768 107.475 10.352 106.195 10.352C104.915 10.352 104.275 11.768 104.275 14.6C104.275 17.432 104.915 18.848 106.195 18.848ZM122.812 23.384C121.324 23.384 120.004 23.04 118.852 22.352C117.716 21.648 116.82 20.64 116.164 19.328C115.524 18 115.204 16.424 115.204 14.6C115.204 12.776 115.524 11.208 116.164 9.896C116.82 8.568 117.716 7.56 118.852 6.872C120.004 6.168 121.324 5.816 122.812 5.816C124.3 5.816 125.612 6.168 126.748 6.872C127.9 7.56 128.796 8.568 129.436 9.896C130.092 11.208 130.42 12.776 130.42 14.6C130.42 16.424 130.092 18 129.436 19.328C128.796 20.64 127.9 21.648 126.748 22.352C125.612 23.04 124.3 23.384 122.812 23.384ZM122.812 18.848C124.092 18.848 124.732 17.432 124.732 14.6C124.732 11.768 124.092 10.352 122.812 10.352C121.532 10.352 120.892 11.768 120.892 14.6C120.892 17.432 121.532 18.848 122.812 18.848ZM13.816 49.072H7.432L6.304 52H0.544L7.888 35.2H13.456L20.8 52H14.944L13.816 49.072ZM12.256 44.992L10.624 40.768L8.992 44.992H12.256ZM21.5359 34.192H26.9599V52H21.5359V34.192ZM46.7401 38.632C48.3241 38.632 49.5881 39.12 50.5321 40.096C51.4921 41.072 51.9721 42.544 51.9721 44.512V52H46.5481V45.448C46.5481 43.944 46.0601 43.192 45.0841 43.192C44.5721 43.192 44.1561 43.384 43.8361 43.768C43.5321 44.152 43.3801 44.76 43.3801 45.592V52H37.9561V45.448C37.9561 43.944 37.4681 43.192 36.4921 43.192C35.9801 43.192 35.5641 43.384 35.2441 43.768C34.9401 44.152 34.7881 44.76 34.7881 45.592V52H29.3641V38.872H34.5241V40.096C35.5001 39.12 36.7401 38.632 38.2441 38.632C39.1241 38.632 39.9161 38.8 40.6201 39.136C41.3241 39.456 41.9001 39.952 42.3481 40.624C42.8761 39.984 43.5161 39.496 44.2681 39.16C45.0201 38.808 45.8441 38.632 46.7401 38.632ZM61.4954 52.24C60.0394 52.24 58.7274 51.952 57.5594 51.376C56.4074 50.784 55.5034 49.976 54.8474 48.952C54.1914 47.912 53.8634 46.736 53.8634 45.424C53.8634 44.112 54.1914 42.944 54.8474 41.92C55.5034 40.88 56.4074 40.072 57.5594 39.496C58.7274 38.92 60.0394 38.632 61.4954 38.632C62.9674 38.632 64.2794 38.92 65.4314 39.496C66.5994 40.072 67.5034 40.88 68.1434 41.92C68.7994 42.944 69.1274 44.112 69.1274 45.424C69.1274 46.736 68.7994 47.912 68.1434 48.952C67.5034 49.976 66.5994 50.784 65.4314 51.376C64.2794 51.952 62.9674 52.24 61.4954 52.24ZM61.4954 48.016C62.1194 48.016 62.6314 47.792 63.0314 47.344C63.4314 46.88 63.6314 46.24 63.6314 45.424C63.6314 44.608 63.4314 43.976 63.0314 43.528C62.6314 43.08 62.1194 42.856 61.4954 42.856C60.8714 42.856 60.3594 43.08 59.9594 43.528C59.5594 43.976 59.3594 44.608 59.3594 45.424C59.3594 46.24 59.5594 46.88 59.9594 47.344C60.3594 47.792 60.8714 48.016 61.4954 48.016ZM75.961 52.24C74.841 52.24 73.737 52.12 72.649 51.88C71.561 51.64 70.681 51.328 70.009 50.944L71.497 47.368C72.105 47.736 72.825 48.024 73.657 48.232C74.489 48.44 75.297 48.544 76.081 48.544C76.705 48.544 77.137 48.496 77.377 48.4C77.633 48.288 77.761 48.128 77.761 47.92C77.761 47.712 77.601 47.568 77.281 47.488C76.977 47.408 76.473 47.328 75.769 47.248C74.697 47.12 73.785 46.96 73.033 46.768C72.281 46.56 71.617 46.168 71.041 45.592C70.481 45.016 70.201 44.192 70.201 43.12C70.201 42.272 70.457 41.512 70.969 40.84C71.481 40.168 72.241 39.632 73.249 39.232C74.273 38.832 75.497 38.632 76.921 38.632C77.913 38.632 78.881 38.728 79.825 38.92C80.785 39.096 81.601 39.36 82.273 39.712L80.785 43.288C79.633 42.648 78.369 42.328 76.993 42.328C75.809 42.328 75.217 42.536 75.217 42.952C75.217 43.16 75.377 43.312 75.697 43.408C76.017 43.488 76.521 43.568 77.209 43.648C78.281 43.776 79.185 43.944 79.921 44.152C80.673 44.36 81.329 44.752 81.889 45.328C82.465 45.904 82.753 46.728 82.753 47.8C82.753 48.616 82.497 49.36 81.985 50.032C81.473 50.704 80.705 51.24 79.681 51.64C78.657 52.04 77.417 52.24 75.961 52.24ZM94.0673 51.544C93.2513 52.008 92.1393 52.24 90.7313 52.24C88.8913 52.24 87.4753 51.8 86.4833 50.92C85.4913 50.024 84.9953 48.688 84.9953 46.912V43.552H83.1953V39.592H84.9953V35.92H90.4193V39.592H93.1073V43.552H90.4193V46.864C90.4193 47.264 90.5233 47.576 90.7313 47.8C90.9393 48.024 91.2113 48.136 91.5473 48.136C92.0113 48.136 92.4193 48.016 92.7713 47.776L94.0673 51.544ZM111.39 38.632C112.542 38.632 113.598 38.912 114.558 39.472C115.534 40.016 116.302 40.808 116.862 41.848C117.438 42.872 117.726 44.064 117.726 45.424C117.726 46.784 117.438 47.984 116.862 49.024C116.302 50.064 115.534 50.864 114.558 51.424C113.598 51.968 112.542 52.24 111.39 52.24C109.774 52.24 108.574 51.8 107.79 50.92V52H102.63V34.192H108.054V39.76C108.822 39.008 109.934 38.632 111.39 38.632ZM110.094 48.016C110.718 48.016 111.23 47.792 111.63 47.344C112.03 46.88 112.23 46.24 112.23 45.424C112.23 44.608 112.03 43.976 111.63 43.528C111.23 43.08 110.718 42.856 110.094 42.856C109.47 42.856 108.958 43.08 108.558 43.528C108.158 43.976 107.958 44.608 107.958 45.424C107.958 46.24 108.158 46.88 108.558 47.344C108.958 47.792 109.47 48.016 110.094 48.016ZM133.402 45.424C133.402 45.504 133.378 45.928 133.33 46.696H124.21C124.402 47.192 124.722 47.576 125.17 47.848C125.618 48.104 126.178 48.232 126.85 48.232C127.426 48.232 127.906 48.16 128.29 48.016C128.69 47.872 129.122 47.624 129.586 47.272L132.418 50.128C131.138 51.536 129.226 52.24 126.682 52.24C125.098 52.24 123.706 51.952 122.506 51.376C121.306 50.784 120.378 49.968 119.722 48.928C119.066 47.888 118.738 46.72 118.738 45.424C118.738 44.112 119.058 42.944 119.698 41.92C120.354 40.88 121.242 40.072 122.362 39.496C123.498 38.92 124.77 38.632 126.178 38.632C127.506 38.632 128.714 38.896 129.802 39.424C130.906 39.952 131.778 40.728 132.418 41.752C133.074 42.776 133.402 44 133.402 45.424ZM126.226 42.328C125.666 42.328 125.202 42.48 124.834 42.784C124.466 43.088 124.226 43.52 124.114 44.08H128.338C128.226 43.536 127.986 43.112 127.618 42.808C127.25 42.488 126.786 42.328 126.226 42.328ZM140.97 39.592H143.826V43.552H141.138V52H135.714V43.552H133.914V39.592H135.714V39.52C135.714 37.808 136.226 36.456 137.25 35.464C138.274 34.456 139.714 33.952 141.57 33.952C142.178 33.952 142.77 34.008 143.346 34.12C143.922 34.232 144.402 34.392 144.786 34.6L143.49 38.368C143.042 38.16 142.634 38.056 142.266 38.056C141.866 38.056 141.546 38.184 141.306 38.44C141.082 38.68 140.97 39.056 140.97 39.568V39.592ZM152.152 52.24C150.696 52.24 149.384 51.952 148.216 51.376C147.064 50.784 146.16 49.976 145.504 48.952C144.848 47.912 144.52 46.736 144.52 45.424C144.52 44.112 144.848 42.944 145.504 41.92C146.16 40.88 147.064 40.072 148.216 39.496C149.384 38.92 150.696 38.632 152.152 38.632C153.624 38.632 154.936 38.92 156.088 39.496C157.256 40.072 158.16 40.88 158.8 41.92C159.456 42.944 159.784 44.112 159.784 45.424C159.784 46.736 159.456 47.912 158.8 48.952C158.16 49.976 157.256 50.784 156.088 51.376C154.936 51.952 153.624 52.24 152.152 52.24ZM152.152 48.016C152.776 48.016 153.288 47.792 153.688 47.344C154.088 46.88 154.288 46.24 154.288 45.424C154.288 44.608 154.088 43.976 153.688 43.528C153.288 43.08 152.776 42.856 152.152 42.856C151.528 42.856 151.016 43.08 150.616 43.528C150.216 43.976 150.016 44.608 150.016 45.424C150.016 46.24 150.216 46.88 150.616 47.344C151.016 47.792 151.528 48.016 152.152 48.016ZM166.641 40.288C167.601 39.184 169.017 38.632 170.889 38.632V43.432C170.457 43.368 170.057 43.336 169.689 43.336C167.833 43.336 166.905 44.28 166.905 46.168V52H161.481V38.872H166.641V40.288ZM186.277 45.424C186.277 45.504 186.253 45.928 186.205 46.696H177.085C177.277 47.192 177.597 47.576 178.045 47.848C178.493 48.104 179.053 48.232 179.725 48.232C180.301 48.232 180.781 48.16 181.165 48.016C181.565 47.872 181.997 47.624 182.461 47.272L185.293 50.128C184.013 51.536 182.101 52.24 179.557 52.24C177.973 52.24 176.581 51.952 175.381 51.376C174.181 50.784 173.253 49.968 172.597 48.928C171.941 47.888 171.613 46.72 171.613 45.424C171.613 44.112 171.933 42.944 172.573 41.92C173.229 40.88 174.117 40.072 175.237 39.496C176.373 38.92 177.645 38.632 179.053 38.632C180.381 38.632 181.589 38.896 182.677 39.424C183.781 39.952 184.653 40.728 185.293 41.752C185.949 42.776 186.277 44 186.277 45.424ZM179.101 42.328C178.541 42.328 178.077 42.48 177.709 42.784C177.341 43.088 177.101 43.52 176.989 44.08H181.213C181.101 43.536 180.861 43.112 180.493 42.808C180.125 42.488 179.661 42.328 179.101 42.328ZM217.576 38.872L213.016 52H207.736L205.744 45.928L203.68 52H198.4L193.84 38.872H198.976L201.232 45.808L203.584 38.872H208.192L210.472 45.88L212.824 38.872H217.576ZM232.238 45.424C232.238 45.504 232.214 45.928 232.166 46.696H223.046C223.238 47.192 223.558 47.576 224.006 47.848C224.454 48.104 225.014 48.232 225.686 48.232C226.262 48.232 226.742 48.16 227.126 48.016C227.526 47.872 227.958 47.624 228.422 47.272L231.254 50.128C229.974 51.536 228.062 52.24 225.518 52.24C223.934 52.24 222.542 51.952 221.342 51.376C220.142 50.784 219.214 49.968 218.558 48.928C217.902 47.888 217.574 46.72 217.574 45.424C217.574 44.112 217.894 42.944 218.534 41.92C219.19 40.88 220.078 40.072 221.198 39.496C222.334 38.92 223.606 38.632 225.014 38.632C226.342 38.632 227.55 38.896 228.638 39.424C229.742 39.952 230.614 40.728 231.254 41.752C231.91 42.776 232.238 44 232.238 45.424ZM225.062 42.328C224.502 42.328 224.038 42.48 223.67 42.784C223.302 43.088 223.062 43.52 222.95 44.08H227.174C227.062 43.536 226.822 43.112 226.454 42.808C226.086 42.488 225.622 42.328 225.062 42.328ZM247.433 47.968L246.569 48.904V52H241.145V34.192H246.569V42.688L250.337 38.872H256.745L251.321 44.56L257.177 52H250.625L247.433 47.968ZM267.375 38.632C268.991 38.632 270.287 39.12 271.263 40.096C272.255 41.072 272.751 42.544 272.751 44.512V52H267.327V45.448C267.327 43.944 266.791 43.192 265.719 43.192C265.111 43.192 264.615 43.408 264.231 43.84C263.863 44.256 263.679 44.92 263.679 45.832V52H258.255V38.872H263.415V40.168C263.927 39.656 264.519 39.272 265.191 39.016C265.863 38.76 266.591 38.632 267.375 38.632ZM289.309 45.424C289.309 45.504 289.285 45.928 289.237 46.696H280.117C280.309 47.192 280.629 47.576 281.077 47.848C281.525 48.104 282.085 48.232 282.757 48.232C283.333 48.232 283.813 48.16 284.197 48.016C284.597 47.872 285.029 47.624 285.493 47.272L288.325 50.128C287.045 51.536 285.133 52.24 282.589 52.24C281.005 52.24 279.613 51.952 278.413 51.376C277.213 50.784 276.285 49.968 275.629 48.928C274.973 47.888 274.645 46.72 274.645 45.424C274.645 44.112 274.965 42.944 275.605 41.92C276.261 40.88 277.149 40.072 278.269 39.496C279.405 38.92 280.677 38.632 282.085 38.632C283.413 38.632 284.621 38.896 285.709 39.424C286.813 39.952 287.685 40.728 288.325 41.752C288.981 42.776 289.309 44 289.309 45.424ZM282.133 42.328C281.573 42.328 281.109 42.48 280.741 42.784C280.373 43.088 280.133 43.52 280.021 44.08H284.245C284.133 43.536 283.893 43.112 283.525 42.808C283.157 42.488 282.693 42.328 282.133 42.328ZM313.178 38.872L308.618 52H303.338L301.346 45.928L299.282 52H294.002L289.442 38.872H294.578L296.834 45.808L299.186 38.872H303.794L306.074 45.88L308.426 38.872H313.178ZM321.419 38.872H326.843V52H321.419V38.872ZM324.131 37.816C323.155 37.816 322.363 37.56 321.755 37.048C321.163 36.52 320.867 35.856 320.867 35.056C320.867 34.256 321.163 33.6 321.755 33.088C322.363 32.56 323.155 32.296 324.131 32.296C325.123 32.296 325.915 32.544 326.507 33.04C327.099 33.536 327.395 34.176 327.395 34.96C327.395 35.792 327.099 36.48 326.507 37.024C325.915 37.552 325.123 37.816 324.131 37.816ZM338.919 51.544C338.103 52.008 336.991 52.24 335.583 52.24C333.743 52.24 332.327 51.8 331.335 50.92C330.343 50.024 329.847 48.688 329.847 46.912V43.552H328.047V39.592H329.847V35.92H335.271V39.592H337.959V43.552H335.271V46.864C335.271 47.264 335.375 47.576 335.583 47.8C335.791 48.024 336.063 48.136 336.399 48.136C336.863 48.136 337.271 48.016 337.623 47.776L338.919 51.544ZM342.968 46.048C343.896 46.048 344.656 46.328 345.248 46.888C345.84 47.448 346.136 48.192 346.136 49.12C346.136 49.536 346.08 49.952 345.968 50.368C345.856 50.784 345.6 51.416 345.2 52.264L343.52 55.84H340.16L341.36 51.784C340.864 51.544 340.48 51.2 340.208 50.752C339.936 50.288 339.8 49.744 339.8 49.12C339.8 48.192 340.096 47.448 340.688 46.888C341.28 46.328 342.04 46.048 342.968 46.048ZM377.397 38.872L372.837 52H367.557L365.565 45.928L363.501 52H358.221L353.661 38.872H358.797L361.053 45.808L363.405 38.872H368.013L370.293 45.88L372.645 38.872H377.397ZM392.059 45.424C392.059 45.504 392.035 45.928 391.987 46.696H382.867C383.059 47.192 383.379 47.576 383.827 47.848C384.275 48.104 384.835 48.232 385.507 48.232C386.083 48.232 386.563 48.16 386.947 48.016C387.347 47.872 387.779 47.624 388.243 47.272L391.075 50.128C389.795 51.536 387.883 52.24 385.339 52.24C383.755 52.24 382.363 51.952 381.163 51.376C379.963 50.784 379.035 49.968 378.379 48.928C377.723 47.888 377.395 46.72 377.395 45.424C377.395 44.112 377.715 42.944 378.355 41.92C379.011 40.88 379.899 40.072 381.019 39.496C382.155 38.92 383.427 38.632 384.835 38.632C386.163 38.632 387.371 38.896 388.459 39.424C389.563 39.952 390.435 40.728 391.075 41.752C391.731 42.776 392.059 44 392.059 45.424ZM384.883 42.328C384.323 42.328 383.859 42.48 383.491 42.784C383.123 43.088 382.883 43.52 382.771 44.08H386.995C386.883 43.536 386.643 43.112 386.275 42.808C385.907 42.488 385.443 42.328 384.883 42.328ZM410.086 38.632C411.702 38.632 412.998 39.12 413.974 40.096C414.966 41.072 415.462 42.544 415.462 44.512V52H410.038V45.448C410.038 43.944 409.502 43.192 408.43 43.192C407.822 43.192 407.326 43.408 406.942 43.84C406.574 44.256 406.39 44.92 406.39 45.832V52H400.966V34.192H406.39V39.928C407.398 39.064 408.63 38.632 410.086 38.632ZM423.697 38.632C426.001 38.632 427.761 39.152 428.977 40.192C430.193 41.216 430.801 42.8 430.801 44.944V52H425.761V50.272C425.137 51.584 423.897 52.24 422.041 52.24C421.001 52.24 420.113 52.064 419.377 51.712C418.657 51.344 418.105 50.856 417.721 50.248C417.353 49.624 417.169 48.928 417.169 48.16C417.169 46.864 417.665 45.88 418.657 45.208C419.649 44.536 421.153 44.2 423.169 44.2H425.353C425.177 43.176 424.353 42.664 422.881 42.664C422.289 42.664 421.689 42.76 421.081 42.952C420.473 43.128 419.953 43.376 419.521 43.696L417.793 40.12C418.545 39.656 419.449 39.296 420.505 39.04C421.577 38.768 422.641 38.632 423.697 38.632ZM423.673 48.976C424.057 48.976 424.401 48.872 424.705 48.664C425.009 48.456 425.233 48.144 425.377 47.728V46.816H424.033C422.929 46.816 422.377 47.184 422.377 47.92C422.377 48.224 422.489 48.48 422.713 48.688C422.953 48.88 423.273 48.976 423.673 48.976ZM447.9 34.192V52H442.74V50.92C441.956 51.8 440.756 52.24 439.14 52.24C437.988 52.24 436.924 51.968 435.948 51.424C434.988 50.864 434.22 50.064 433.644 49.024C433.084 47.984 432.804 46.784 432.804 45.424C432.804 44.064 433.084 42.872 433.644 41.848C434.22 40.808 434.988 40.016 435.948 39.472C436.924 38.912 437.988 38.632 439.14 38.632C440.596 38.632 441.708 39.008 442.476 39.76V34.192H447.9ZM440.436 48.016C441.06 48.016 441.572 47.792 441.972 47.344C442.372 46.88 442.572 46.24 442.572 45.424C442.572 44.608 442.372 43.976 441.972 43.528C441.572 43.08 441.06 42.856 440.436 42.856C439.812 42.856 439.3 43.08 438.9 43.528C438.5 43.976 438.3 44.608 438.3 45.424C438.3 46.24 438.5 46.88 438.9 47.344C439.3 47.792 439.812 48.016 440.436 48.016ZM457.497 34.192H462.921V52H457.497V34.192ZM479.293 45.424C479.293 45.504 479.269 45.928 479.221 46.696H470.101C470.293 47.192 470.613 47.576 471.061 47.848C471.509 48.104 472.069 48.232 472.741 48.232C473.317 48.232 473.797 48.16 474.181 48.016C474.581 47.872 475.013 47.624 475.477 47.272L478.309 50.128C477.029 51.536 475.117 52.24 472.573 52.24C470.989 52.24 469.597 51.952 468.397 51.376C467.197 50.784 466.269 49.968 465.613 48.928C464.957 47.888 464.629 46.72 464.629 45.424C464.629 44.112 464.949 42.944 465.589 41.92C466.245 40.88 467.133 40.072 468.253 39.496C469.389 38.92 470.661 38.632 472.069 38.632C473.397 38.632 474.605 38.896 475.693 39.424C476.797 39.952 477.669 40.728 478.309 41.752C478.965 42.776 479.293 44 479.293 45.424ZM472.117 42.328C471.557 42.328 471.093 42.48 470.725 42.784C470.357 43.088 470.117 43.52 470.005 44.08H474.229C474.117 43.536 473.877 43.112 473.509 42.808C473.141 42.488 472.677 42.328 472.117 42.328ZM486.861 39.592H489.717V43.552H487.029V52H481.605V43.552H479.805V39.592H481.605V39.52C481.605 37.808 482.117 36.456 483.141 35.464C484.165 34.456 485.605 33.952 487.461 33.952C488.069 33.952 488.661 34.008 489.237 34.12C489.813 34.232 490.293 34.392 490.677 34.6L489.381 38.368C488.933 38.16 488.525 38.056 488.157 38.056C487.757 38.056 487.437 38.184 487.197 38.44C486.973 38.68 486.861 39.056 486.861 39.568V39.592ZM500.895 51.544C500.079 52.008 498.967 52.24 497.559 52.24C495.719 52.24 494.303 51.8 493.311 50.92C492.319 50.024 491.823 48.688 491.823 46.912V43.552H490.023V39.592H491.823V35.92H497.247V39.592H499.935V43.552H497.247V46.864C497.247 47.264 497.351 47.576 497.559 47.8C497.767 48.024 498.039 48.136 498.375 48.136C498.839 48.136 499.247 48.016 499.599 47.776L500.895 51.544ZM519.13 51.544C518.314 52.008 517.202 52.24 515.794 52.24C513.954 52.24 512.538 51.8 511.546 50.92C510.554 50.024 510.058 48.688 510.058 46.912V43.552H508.258V39.592H510.058V35.92H515.482V39.592H518.17V43.552H515.482V46.864C515.482 47.264 515.586 47.576 515.794 47.8C516.002 48.024 516.274 48.136 516.61 48.136C517.074 48.136 517.482 48.016 517.834 47.776L519.13 51.544ZM529.617 38.632C531.233 38.632 532.529 39.12 533.505 40.096C534.497 41.072 534.993 42.544 534.993 44.512V52H529.569V45.448C529.569 43.944 529.033 43.192 527.961 43.192C527.353 43.192 526.857 43.408 526.473 43.84C526.105 44.256 525.921 44.92 525.921 45.832V52H520.497V34.192H525.921V39.928C526.929 39.064 528.161 38.632 529.617 38.632ZM551.551 45.424C551.551 45.504 551.527 45.928 551.479 46.696H542.359C542.551 47.192 542.871 47.576 543.319 47.848C543.767 48.104 544.327 48.232 544.999 48.232C545.575 48.232 546.055 48.16 546.439 48.016C546.839 47.872 547.271 47.624 547.735 47.272L550.567 50.128C549.287 51.536 547.375 52.24 544.831 52.24C543.247 52.24 541.855 51.952 540.655 51.376C539.455 50.784 538.527 49.968 537.871 48.928C537.215 47.888 536.887 46.72 536.887 45.424C536.887 44.112 537.207 42.944 537.847 41.92C538.503 40.88 539.391 40.072 540.511 39.496C541.647 38.92 542.919 38.632 544.327 38.632C545.655 38.632 546.863 38.896 547.951 39.424C549.055 39.952 549.927 40.728 550.567 41.752C551.223 42.776 551.551 44 551.551 45.424ZM544.375 42.328C543.815 42.328 543.351 42.48 542.983 42.784C542.615 43.088 542.375 43.52 542.263 44.08H546.487C546.375 43.536 546.135 43.112 545.767 42.808C545.399 42.488 544.935 42.328 544.375 42.328ZM575.122 38.872V49.384C575.122 51.88 574.426 53.752 573.034 55C571.658 56.264 569.69 56.896 567.13 56.896C565.818 56.896 564.594 56.752 563.458 56.464C562.322 56.192 561.354 55.792 560.554 55.264L562.378 51.568C562.89 51.952 563.538 52.264 564.322 52.504C565.106 52.744 565.858 52.864 566.578 52.864C567.666 52.864 568.458 52.632 568.954 52.168C569.45 51.704 569.698 51.024 569.698 50.128V49.888C568.882 50.816 567.674 51.28 566.074 51.28C564.954 51.28 563.906 51.024 562.93 50.512C561.97 49.984 561.202 49.24 560.626 48.28C560.05 47.304 559.762 46.192 559.762 44.944C559.762 43.696 560.05 42.592 560.626 41.632C561.202 40.672 561.97 39.936 562.93 39.424C563.906 38.896 564.954 38.632 566.074 38.632C567.866 38.632 569.162 39.208 569.962 40.36V38.872H575.122ZM567.514 47.056C568.154 47.056 568.682 46.864 569.098 46.48C569.53 46.08 569.746 45.568 569.746 44.944C569.746 44.32 569.53 43.816 569.098 43.432C568.682 43.048 568.154 42.856 567.514 42.856C566.858 42.856 566.314 43.048 565.882 43.432C565.466 43.816 565.258 44.32 565.258 44.944C565.258 45.568 565.474 46.08 565.906 46.48C566.338 46.864 566.874 47.056 567.514 47.056ZM582.68 40.288C583.64 39.184 585.056 38.632 586.928 38.632V43.432C586.496 43.368 586.096 43.336 585.728 43.336C583.872 43.336 582.944 44.28 582.944 46.168V52H577.52V38.872H582.68V40.288ZM595.284 52.24C593.828 52.24 592.516 51.952 591.348 51.376C590.196 50.784 589.292 49.976 588.636 48.952C587.98 47.912 587.652 46.736 587.652 45.424C587.652 44.112 587.98 42.944 588.636 41.92C589.292 40.88 590.196 40.072 591.348 39.496C592.516 38.92 593.828 38.632 595.284 38.632C596.756 38.632 598.068 38.92 599.22 39.496C600.388 40.072 601.292 40.88 601.932 41.92C602.588 42.944 602.916 44.112 602.916 45.424C602.916 46.736 602.588 47.912 601.932 48.952C601.292 49.976 600.388 50.784 599.22 51.376C598.068 51.952 596.756 52.24 595.284 52.24ZM595.284 48.016C595.908 48.016 596.42 47.792 596.82 47.344C597.22 46.88 597.42 46.24 597.42 45.424C597.42 44.608 597.22 43.976 596.82 43.528C596.42 43.08 595.908 42.856 595.284 42.856C594.66 42.856 594.148 43.08 593.748 43.528C593.348 43.976 593.148 44.608 593.148 45.424C593.148 46.24 593.348 46.88 593.748 47.344C594.148 47.792 594.66 48.016 595.284 48.016ZM618.966 38.872V52H613.806V50.752C613.326 51.248 612.766 51.624 612.126 51.88C611.486 52.12 610.806 52.24 610.086 52.24C608.422 52.24 607.086 51.736 606.078 50.728C605.07 49.704 604.566 48.168 604.566 46.12V38.872H609.99V45.184C609.99 46.08 610.134 46.72 610.422 47.104C610.71 47.488 611.134 47.68 611.694 47.68C612.222 47.68 612.662 47.472 613.014 47.056C613.366 46.624 613.542 45.952 613.542 45.04V38.872H618.966ZM630.492 38.632C632.108 38.632 633.404 39.12 634.38 40.096C635.372 41.072 635.868 42.544 635.868 44.512V52H630.444V45.448C630.444 43.944 629.908 43.192 628.836 43.192C628.228 43.192 627.732 43.408 627.348 43.84C626.98 44.256 626.796 44.92 626.796 45.832V52H621.372V38.872H626.532V40.168C627.044 39.656 627.636 39.272 628.308 39.016C628.98 38.76 629.708 38.632 630.492 38.632ZM652.978 34.192V52H647.818V50.92C647.034 51.8 645.834 52.24 644.218 52.24C643.066 52.24 642.002 51.968 641.026 51.424C640.066 50.864 639.298 50.064 638.722 49.024C638.162 47.984 637.882 46.784 637.882 45.424C637.882 44.064 638.162 42.872 638.722 41.848C639.298 40.808 640.066 40.016 641.026 39.472C642.002 38.912 643.066 38.632 644.218 38.632C645.674 38.632 646.786 39.008 647.554 39.76V34.192H652.978ZM645.514 48.016C646.138 48.016 646.65 47.792 647.05 47.344C647.45 46.88 647.65 46.24 647.65 45.424C647.65 44.608 647.45 43.976 647.05 43.528C646.65 43.08 646.138 42.856 645.514 42.856C644.89 42.856 644.378 43.08 643.978 43.528C643.578 43.976 643.378 44.608 643.378 45.424C643.378 46.24 643.578 46.88 643.978 47.344C644.378 47.792 644.89 48.016 645.514 48.016ZM657.828 52.24C656.916 52.24 656.156 51.952 655.548 51.376C654.956 50.784 654.66 50.032 654.66 49.12C654.66 48.208 654.956 47.472 655.548 46.912C656.156 46.336 656.916 46.048 657.828 46.048C658.74 46.048 659.492 46.336 660.084 46.912C660.692 47.472 660.996 48.208 660.996 49.12C660.996 50.032 660.692 50.784 660.084 51.376C659.492 51.952 658.74 52.24 657.828 52.24Z" fill="black"/>
</svg>
