<svg width="640" height="64" viewBox="0 0 640 64" fill="none" xmlns="http://www.w3.org/2000/svg">
<rect width="640" height="64" fill="white" fill-opacity="0.13"/>
<rect x="2" width="638" height="63.2547" fill="white"/>
<path d="M16.808 14.336C17.528 14.624 18.08 15.056 18.464 15.632C18.864 16.192 19.064 16.88 19.064 17.696C19.064 19.44 18.376 20.76 17 21.656C15.624 22.552 13.792 23 11.504 23H2.696L6.056 6.2H14.168C15.976 6.2 17.368 6.536 18.344 7.208C19.32 7.864 19.808 8.808 19.808 10.04C19.808 11.064 19.536 11.944 18.992 12.68C18.464 13.4 17.736 13.952 16.808 14.336ZM9.32 9.128L8.528 13.088H12.488C13.512 13.088 14.304 12.888 14.864 12.488C15.44 12.072 15.728 11.48 15.728 10.712C15.728 9.656 14.904 9.128 13.256 9.128H9.32ZM11.744 20.072C12.832 20.072 13.68 19.864 14.288 19.448C14.896 19.032 15.2 18.432 15.2 17.648C15.2 16.496 14.36 15.92 12.68 15.92H7.976L7.16 20.072H11.744ZM27.5516 23.192C26.2556 23.192 25.1116 22.952 24.1196 22.472C23.1436 21.992 22.3836 21.32 21.8396 20.456C21.3116 19.576 21.0476 18.56 21.0476 17.408C21.0476 15.984 21.3836 14.704 22.0556 13.568C22.7276 12.432 23.6556 11.536 24.8396 10.88C26.0236 10.224 27.3596 9.896 28.8476 9.896C30.1596 9.896 31.3036 10.136 32.2796 10.616C33.2556 11.096 34.0076 11.776 34.5356 12.656C35.0796 13.52 35.3516 14.528 35.3516 15.68C35.3516 17.104 35.0156 18.384 34.3436 19.52C33.6876 20.656 32.7596 21.552 31.5596 22.208C30.3756 22.864 29.0396 23.192 27.5516 23.192ZM27.7916 20.096C28.5116 20.096 29.1596 19.92 29.7356 19.568C30.3116 19.2 30.7596 18.696 31.0796 18.056C31.3996 17.416 31.5596 16.68 31.5596 15.848C31.5596 14.968 31.3036 14.272 30.7916 13.76C30.2796 13.248 29.5596 12.992 28.6316 12.992C27.8956 12.992 27.2396 13.176 26.6636 13.544C26.0876 13.896 25.6396 14.392 25.3196 15.032C24.9996 15.672 24.8396 16.408 24.8396 17.24C24.8396 18.12 25.0956 18.816 25.6076 19.328C26.1356 19.84 26.8636 20.096 27.7916 20.096ZM40.0627 5.192H43.8067L40.2547 23H36.5107L40.0627 5.192ZM60.4094 5.192L56.8574 23H53.3054L53.5694 21.704C52.4814 22.696 51.1614 23.192 49.6094 23.192C48.6014 23.192 47.6734 22.96 46.8254 22.496C45.9774 22.032 45.2974 21.368 44.7854 20.504C44.2894 19.624 44.0414 18.592 44.0414 17.408C44.0414 15.984 44.3534 14.704 44.9774 13.568C45.6174 12.416 46.4814 11.52 47.5694 10.88C48.6574 10.224 49.8574 9.896 51.1694 9.896C52.1134 9.896 52.9374 10.056 53.6414 10.376C54.3614 10.696 54.9294 11.168 55.3454 11.792L56.6654 5.192H60.4094ZM50.7614 20.096C51.4974 20.096 52.1534 19.92 52.7294 19.568C53.3054 19.2 53.7534 18.696 54.0734 18.056C54.3934 17.416 54.5534 16.68 54.5534 15.848C54.5534 14.968 54.2894 14.272 53.7614 13.76C53.2494 13.248 52.5294 12.992 51.6014 12.992C50.8654 12.992 50.2094 13.176 49.6334 13.544C49.0574 13.896 48.6094 14.392 48.2894 15.032C47.9694 15.672 47.8094 16.408 47.8094 17.24C47.8094 18.12 48.0654 18.816 48.5774 19.328C49.1054 19.84 49.8334 20.096 50.7614 20.096ZM70.7435 6.2H74.6555L71.2955 23H67.3835L70.7435 6.2ZM80.1065 18.44C80.0745 18.568 80.0585 18.744 80.0585 18.968C80.0585 19.8 80.5145 20.216 81.4265 20.216C81.9225 20.216 82.4265 20.064 82.9385 19.76L83.4905 22.424C82.6585 22.936 81.5865 23.192 80.2745 23.192C79.0585 23.192 78.0825 22.872 77.3465 22.232C76.6105 21.592 76.2425 20.712 76.2425 19.592C76.2425 19.272 76.2825 18.896 76.3625 18.464L77.3945 13.256H75.4025L75.9785 10.376H77.9705L78.5945 7.232H82.3385L81.7145 10.376H84.9305L84.3545 13.256H81.1385L80.1065 18.44ZM100.722 10.088L98.1537 23H94.6018L94.8418 21.728C93.7698 22.704 92.4498 23.192 90.8818 23.192C89.8738 23.192 88.9458 22.96 88.0978 22.496C87.2498 22.032 86.5698 21.368 86.0578 20.504C85.5618 19.624 85.3138 18.592 85.3138 17.408C85.3138 15.984 85.6258 14.704 86.2498 13.568C86.8898 12.416 87.7538 11.52 88.8418 10.88C89.9298 10.224 91.1298 9.896 92.4418 9.896C94.4258 9.896 95.8258 10.544 96.6418 11.84L96.9778 10.088H100.722ZM92.0338 20.096C92.7698 20.096 93.4258 19.92 94.0018 19.568C94.5778 19.2 95.0258 18.696 95.3458 18.056C95.6658 17.416 95.8258 16.68 95.8258 15.848C95.8258 14.968 95.5618 14.272 95.0338 13.76C94.5218 13.248 93.8018 12.992 92.8738 12.992C92.1378 12.992 91.4818 13.176 90.9058 13.544C90.3298 13.896 89.8818 14.392 89.5618 15.032C89.2418 15.672 89.0818 16.408 89.0818 17.24C89.0818 18.12 89.3378 18.816 89.8498 19.328C90.3778 19.84 91.1058 20.096 92.0338 20.096ZM105.172 5.192H108.916L105.364 23H101.62L105.172 5.192ZM111.407 10.088H115.127L112.559 23H108.839L111.407 10.088ZM113.903 8.288C113.263 8.288 112.735 8.104 112.319 7.736C111.919 7.352 111.719 6.888 111.719 6.344C111.719 5.704 111.943 5.176 112.391 4.76C112.855 4.328 113.455 4.112 114.191 4.112C114.847 4.112 115.375 4.296 115.775 4.664C116.191 5.016 116.399 5.456 116.399 5.984C116.399 6.672 116.167 7.232 115.703 7.664C115.239 8.08 114.639 8.288 113.903 8.288ZM122.85 23.192C121.522 23.192 120.362 22.952 119.37 22.472C118.378 21.992 117.61 21.32 117.066 20.456C116.538 19.576 116.274 18.56 116.274 17.408C116.274 15.984 116.61 14.704 117.282 13.568C117.954 12.432 118.89 11.536 120.09 10.88C121.29 10.224 122.642 9.896 124.146 9.896C125.522 9.896 126.706 10.184 127.698 10.76C128.706 11.32 129.458 12.12 129.954 13.16L126.786 14.744C126.226 13.576 125.266 12.992 123.906 12.992C123.17 12.992 122.506 13.176 121.914 13.544C121.338 13.896 120.882 14.392 120.546 15.032C120.226 15.672 120.066 16.4 120.066 17.216C120.066 18.096 120.33 18.8 120.858 19.328C121.386 19.84 122.122 20.096 123.066 20.096C124.442 20.096 125.498 19.52 126.234 18.368L128.994 20.096C128.37 21.072 127.514 21.832 126.426 22.376C125.354 22.92 124.162 23.192 122.85 23.192ZM152.707 6.2L152.203 8.72L143.227 23H138.907L147.523 9.368H142.075L141.523 12.104H138.067L139.243 6.2H152.707ZM158.145 23.288C156.273 23.288 154.793 22.728 153.705 21.608C152.617 20.472 152.073 18.912 152.073 16.928C152.073 14.912 152.441 13.064 153.177 11.384C153.929 9.704 154.969 8.376 156.297 7.4C157.625 6.408 159.137 5.912 160.833 5.912C162.705 5.912 164.185 6.48 165.273 7.616C166.361 8.736 166.905 10.288 166.905 12.272C166.905 14.288 166.529 16.136 165.777 17.816C165.041 19.496 164.009 20.832 162.681 21.824C161.353 22.8 159.841 23.288 158.145 23.288ZM158.505 20C159.433 20 160.233 19.6 160.905 18.8C161.593 18 162.113 17.008 162.465 15.824C162.817 14.624 162.993 13.472 162.993 12.368C162.993 11.296 162.769 10.504 162.321 9.992C161.889 9.464 161.273 9.2 160.473 9.2C159.545 9.2 158.737 9.6 158.049 10.4C157.377 11.2 156.865 12.2 156.513 13.4C156.161 14.584 155.985 15.728 155.985 16.832C155.985 17.904 156.201 18.704 156.633 19.232C157.081 19.744 157.705 20 158.505 20ZM174.41 23.288C172.538 23.288 171.058 22.728 169.97 21.608C168.882 20.472 168.338 18.912 168.338 16.928C168.338 14.912 168.706 13.064 169.442 11.384C170.194 9.704 171.234 8.376 172.562 7.4C173.89 6.408 175.402 5.912 177.098 5.912C178.97 5.912 180.45 6.48 181.538 7.616C182.626 8.736 183.17 10.288 183.17 12.272C183.17 14.288 182.794 16.136 182.042 17.816C181.306 19.496 180.274 20.832 178.946 21.824C177.618 22.8 176.106 23.288 174.41 23.288ZM174.77 20C175.698 20 176.498 19.6 177.17 18.8C177.858 18 178.378 17.008 178.73 15.824C179.082 14.624 179.258 13.472 179.258 12.368C179.258 11.296 179.034 10.504 178.586 9.992C178.154 9.464 177.538 9.2 176.738 9.2C175.81 9.2 175.002 9.6 174.314 10.4C173.642 11.2 173.13 12.2 172.778 13.4C172.426 14.584 172.25 15.728 172.25 16.832C172.25 17.904 172.466 18.704 172.898 19.232C173.346 19.744 173.97 20 174.77 20ZM14.648 48.4H6.824L4.64 52H0.488L11.36 35.2H15.2L19.328 52H15.44L14.648 48.4ZM14 45.448L12.584 38.968L8.624 45.448H14ZM24.383 34.192H28.127L24.575 52H20.831L24.383 34.192ZM46.8178 38.896C48.2258 38.896 49.3458 39.28 50.1778 40.048C51.0098 40.8 51.4258 41.872 51.4258 43.264C51.4258 43.776 51.3698 44.304 51.2578 44.848L49.8418 52H46.0978L47.4658 45.112C47.5298 44.792 47.5618 44.464 47.5618 44.128C47.5618 43.472 47.3858 42.976 47.0338 42.64C46.6978 42.304 46.1938 42.136 45.5218 42.136C43.7138 42.136 42.5858 43.216 42.1378 45.376L40.8177 52H37.0738L38.4418 45.112C38.5058 44.792 38.5378 44.472 38.5378 44.152C38.5378 43.496 38.3618 43 38.0098 42.664C37.6738 42.312 37.1698 42.136 36.4978 42.136C34.6898 42.136 33.5538 43.232 33.0898 45.424L31.7938 52H28.0498L30.6178 39.088H34.1698L33.8818 40.432C35.0018 39.408 36.3538 38.896 37.9378 38.896C38.8338 38.896 39.6258 39.08 40.3138 39.448C41.0178 39.8 41.5458 40.32 41.8978 41.008C42.5218 40.32 43.2498 39.8 44.0818 39.448C44.9138 39.08 45.8258 38.896 46.8178 38.896ZM60.1063 52.192C58.8103 52.192 57.6663 51.952 56.6743 51.472C55.6983 50.992 54.9383 50.32 54.3943 49.456C53.8663 48.576 53.6023 47.56 53.6023 46.408C53.6023 44.984 53.9383 43.704 54.6103 42.568C55.2823 41.432 56.2103 40.536 57.3943 39.88C58.5783 39.224 59.9143 38.896 61.4023 38.896C62.7143 38.896 63.8583 39.136 64.8343 39.616C65.8103 40.096 66.5623 40.776 67.0903 41.656C67.6343 42.52 67.9062 43.528 67.9062 44.68C67.9062 46.104 67.5703 47.384 66.8983 48.52C66.2423 49.656 65.3143 50.552 64.1143 51.208C62.9303 51.864 61.5943 52.192 60.1063 52.192ZM60.3463 49.096C61.0663 49.096 61.7143 48.92 62.2903 48.568C62.8663 48.2 63.3143 47.696 63.6343 47.056C63.9543 46.416 64.1143 45.68 64.1143 44.848C64.1143 43.968 63.8583 43.272 63.3463 42.76C62.8343 42.248 62.1143 41.992 61.1863 41.992C60.4503 41.992 59.7943 42.176 59.2183 42.544C58.6423 42.896 58.1943 43.392 57.8743 44.032C57.5543 44.672 57.3943 45.408 57.3943 46.24C57.3943 47.12 57.6503 47.816 58.1623 48.328C58.6903 48.84 59.4183 49.096 60.3463 49.096ZM73.7694 52.192C72.6494 52.192 71.5854 52.072 70.5774 51.832C69.5854 51.576 68.8094 51.248 68.2494 50.848L69.6894 48.136C70.2494 48.504 70.9294 48.8 71.7294 49.024C72.5454 49.248 73.3614 49.36 74.1774 49.36C75.0254 49.36 75.6574 49.256 76.0734 49.048C76.4894 48.824 76.6974 48.512 76.6974 48.112C76.6974 47.792 76.5134 47.56 76.1454 47.416C75.7774 47.272 75.1854 47.12 74.3694 46.96C73.4414 46.784 72.6734 46.592 72.0654 46.384C71.4734 46.176 70.9534 45.84 70.5054 45.376C70.0734 44.896 69.8574 44.248 69.8574 43.432C69.8574 42.008 70.4494 40.896 71.6334 40.096C72.8334 39.296 74.4014 38.896 76.3374 38.896C77.2334 38.896 78.1054 38.992 78.9534 39.184C79.8014 39.376 80.5214 39.64 81.1134 39.976L79.7694 42.712C78.7134 42.056 77.4414 41.728 75.9534 41.728C75.1374 41.728 74.5134 41.848 74.0814 42.088C73.6654 42.328 73.4574 42.632 73.4574 43C73.4574 43.336 73.6414 43.584 74.0094 43.744C74.3774 43.888 74.9934 44.048 75.8574 44.224C76.7694 44.4 77.5134 44.592 78.0894 44.8C78.6814 44.992 79.1934 45.32 79.6254 45.784C80.0574 46.248 80.2734 46.88 80.2734 47.68C80.2734 49.12 79.6654 50.232 78.4494 51.016C77.2494 51.8 75.6894 52.192 73.7694 52.192ZM86.9034 47.44C86.8714 47.568 86.8554 47.744 86.8554 47.968C86.8554 48.8 87.3114 49.216 88.2234 49.216C88.7194 49.216 89.2234 49.064 89.7354 48.76L90.2874 51.424C89.4554 51.936 88.3834 52.192 87.0714 52.192C85.8554 52.192 84.8794 51.872 84.1434 51.232C83.4074 50.592 83.0394 49.712 83.0394 48.592C83.0394 48.272 83.0794 47.896 83.1594 47.464L84.1914 42.256H82.1994L82.7754 39.376H84.7674L85.3914 36.232H89.1354L88.5114 39.376H91.7274L91.1514 42.256H87.9354L86.9034 47.44ZM108.858 38.896C109.866 38.896 110.794 39.128 111.642 39.592C112.506 40.056 113.186 40.728 113.682 41.608C114.194 42.472 114.45 43.496 114.45 44.68C114.45 46.104 114.13 47.392 113.49 48.544C112.866 49.68 112.01 50.576 110.922 51.232C109.834 51.872 108.626 52.192 107.298 52.192C106.29 52.192 105.418 52.016 104.682 51.664C103.946 51.312 103.378 50.784 102.978 50.08L102.594 52H99.0419L102.594 34.192H106.338L105.138 40.192C106.178 39.328 107.418 38.896 108.858 38.896ZM106.866 49.096C107.602 49.096 108.258 48.92 108.834 48.568C109.41 48.2 109.858 47.696 110.178 47.056C110.498 46.416 110.658 45.68 110.658 44.848C110.658 43.968 110.394 43.272 109.866 42.76C109.354 42.248 108.634 41.992 107.706 41.992C106.986 41.992 106.338 42.176 105.762 42.544C105.186 42.896 104.738 43.392 104.418 44.032C104.098 44.672 103.938 45.408 103.938 46.24C103.938 47.12 104.194 47.816 104.706 48.328C105.218 48.84 105.938 49.096 106.866 49.096ZM129.628 44.584C129.628 45.176 129.556 45.832 129.412 46.552H119.524C119.652 48.312 120.764 49.192 122.86 49.192C123.516 49.192 124.14 49.088 124.732 48.88C125.34 48.672 125.868 48.376 126.316 47.992L127.876 50.464C127.156 51.04 126.332 51.472 125.404 51.76C124.476 52.048 123.5 52.192 122.476 52.192C121.148 52.192 119.98 51.96 118.972 51.496C117.98 51.016 117.212 50.336 116.668 49.456C116.14 48.576 115.876 47.56 115.876 46.408C115.876 44.984 116.196 43.704 116.836 42.568C117.492 41.416 118.396 40.52 119.548 39.88C120.7 39.224 122.012 38.896 123.484 38.896C124.732 38.896 125.812 39.128 126.724 39.592C127.652 40.056 128.364 40.72 128.86 41.584C129.372 42.448 129.628 43.448 129.628 44.584ZM123.316 41.704C122.436 41.704 121.692 41.944 121.084 42.424C120.476 42.888 120.044 43.536 119.788 44.368H126.196C126.196 43.536 125.932 42.888 125.404 42.424C124.892 41.944 124.196 41.704 123.316 41.704ZM139.443 36.952C138.867 36.952 138.411 37.112 138.075 37.432C137.755 37.736 137.531 38.224 137.403 38.896L137.307 39.376H140.595L140.019 42.256H136.827L134.883 52H131.139L133.083 42.256H131.067L131.643 39.376H133.659L133.803 38.632C134.107 37.192 134.731 36.064 135.675 35.248C136.635 34.416 137.883 34 139.419 34C139.995 34 140.539 34.064 141.051 34.192C141.579 34.32 142.027 34.496 142.395 34.72L140.931 37.408C140.531 37.104 140.035 36.952 139.443 36.952ZM146.544 52.192C145.248 52.192 144.104 51.952 143.112 51.472C142.136 50.992 141.376 50.32 140.832 49.456C140.304 48.576 140.04 47.56 140.04 46.408C140.04 44.984 140.376 43.704 141.048 42.568C141.72 41.432 142.648 40.536 143.832 39.88C145.016 39.224 146.352 38.896 147.84 38.896C149.152 38.896 150.296 39.136 151.272 39.616C152.248 40.096 153 40.776 153.528 41.656C154.072 42.52 154.344 43.528 154.344 44.68C154.344 46.104 154.008 47.384 153.336 48.52C152.68 49.656 151.752 50.552 150.552 51.208C149.368 51.864 148.032 52.192 146.544 52.192ZM146.784 49.096C147.504 49.096 148.152 48.92 148.728 48.568C149.304 48.2 149.752 47.696 150.072 47.056C150.392 46.416 150.552 45.68 150.552 44.848C150.552 43.968 150.296 43.272 149.784 42.76C149.272 42.248 148.552 41.992 147.624 41.992C146.888 41.992 146.232 42.176 145.656 42.544C145.08 42.896 144.632 43.392 144.312 44.032C143.992 44.672 143.832 45.408 143.832 46.24C143.832 47.12 144.088 47.816 144.6 48.328C145.128 48.84 145.856 49.096 146.784 49.096ZM161.311 40.624C161.871 40.016 162.543 39.576 163.327 39.304C164.127 39.032 165.063 38.896 166.135 38.896L165.463 42.352C165.015 42.32 164.727 42.304 164.599 42.304C163.463 42.304 162.551 42.584 161.863 43.144C161.191 43.704 160.735 44.576 160.495 45.76L159.247 52H155.503L158.071 39.088H161.623L161.311 40.624ZM179.644 44.584C179.644 45.176 179.572 45.832 179.428 46.552H169.54C169.668 48.312 170.78 49.192 172.876 49.192C173.532 49.192 174.156 49.088 174.748 48.88C175.356 48.672 175.884 48.376 176.332 47.992L177.892 50.464C177.172 51.04 176.348 51.472 175.42 51.76C174.492 52.048 173.516 52.192 172.492 52.192C171.164 52.192 169.996 51.96 168.988 51.496C167.996 51.016 167.228 50.336 166.684 49.456C166.156 48.576 165.892 47.56 165.892 46.408C165.892 44.984 166.212 43.704 166.852 42.568C167.508 41.416 168.412 40.52 169.564 39.88C170.716 39.224 172.028 38.896 173.5 38.896C174.748 38.896 175.828 39.128 176.74 39.592C177.668 40.056 178.38 40.72 178.876 41.584C179.388 42.448 179.644 43.448 179.644 44.584ZM173.332 41.704C172.452 41.704 171.708 41.944 171.1 42.424C170.492 42.888 170.06 43.536 169.804 44.368H176.212C176.212 43.536 175.948 42.888 175.42 42.424C174.908 41.944 174.212 41.704 173.332 41.704ZM210.967 39.088L203.839 52H200.143L198.655 43.96L194.215 52H190.567L188.287 39.088H191.695L193.111 47.776L197.959 39.088H201.175L202.639 47.776L207.439 39.088H210.967ZM223.753 44.584C223.753 45.176 223.681 45.832 223.537 46.552H213.649C213.777 48.312 214.889 49.192 216.985 49.192C217.641 49.192 218.265 49.088 218.857 48.88C219.465 48.672 219.993 48.376 220.441 47.992L222.001 50.464C221.281 51.04 220.457 51.472 219.529 51.76C218.601 52.048 217.625 52.192 216.601 52.192C215.273 52.192 214.105 51.96 213.097 51.496C212.105 51.016 211.337 50.336 210.793 49.456C210.265 48.576 210.001 47.56 210.001 46.408C210.001 44.984 210.321 43.704 210.961 42.568C211.617 41.416 212.521 40.52 213.673 39.88C214.825 39.224 216.137 38.896 217.609 38.896C218.857 38.896 219.937 39.128 220.849 39.592C221.777 40.056 222.489 40.72 222.985 41.584C223.497 42.448 223.753 43.448 223.753 44.584ZM217.441 41.704C216.561 41.704 215.817 41.944 215.209 42.424C214.601 42.888 214.169 43.536 213.913 44.368H220.321C220.321 43.536 220.057 42.888 219.529 42.424C219.017 41.944 218.321 41.704 217.441 41.704ZM241.228 44.704L245.668 52H241.324L238.252 46.984L235.972 48.88L235.348 52H231.604L235.156 34.192H238.9L236.908 44.152L243.1 39.088H247.972L241.228 44.704ZM257.059 38.896C258.499 38.896 259.643 39.28 260.491 40.048C261.339 40.8 261.763 41.88 261.763 43.288C261.763 43.816 261.707 44.336 261.595 44.848L260.155 52H256.411L257.803 45.088C257.867 44.816 257.899 44.52 257.899 44.2C257.899 43.528 257.715 43.016 257.347 42.664C256.979 42.312 256.427 42.136 255.691 42.136C254.731 42.136 253.931 42.416 253.291 42.976C252.667 43.52 252.243 44.344 252.019 45.448L250.723 52H246.979L249.547 39.088H253.099L252.811 40.48C253.963 39.424 255.379 38.896 257.059 38.896ZM277.73 44.584C277.73 45.176 277.658 45.832 277.514 46.552H267.626C267.754 48.312 268.866 49.192 270.962 49.192C271.618 49.192 272.242 49.088 272.834 48.88C273.442 48.672 273.97 48.376 274.418 47.992L275.978 50.464C275.258 51.04 274.434 51.472 273.506 51.76C272.578 52.048 271.602 52.192 270.578 52.192C269.25 52.192 268.082 51.96 267.074 51.496C266.082 51.016 265.314 50.336 264.77 49.456C264.242 48.576 263.978 47.56 263.978 46.408C263.978 44.984 264.298 43.704 264.938 42.568C265.594 41.416 266.498 40.52 267.65 39.88C268.802 39.224 270.114 38.896 271.586 38.896C272.834 38.896 273.914 39.128 274.826 39.592C275.754 40.056 276.466 40.72 276.962 41.584C277.474 42.448 277.73 43.448 277.73 44.584ZM271.418 41.704C270.538 41.704 269.794 41.944 269.186 42.424C268.578 42.888 268.146 43.536 267.89 44.368H274.298C274.298 43.536 274.034 42.888 273.506 42.424C272.994 41.944 272.298 41.704 271.418 41.704ZM302.022 39.088L294.894 52H291.198L289.71 43.96L285.27 52H281.622L279.342 39.088H282.75L284.166 47.776L289.014 39.088H292.23L293.694 47.776L298.494 39.088H302.022ZM310.508 39.088H314.228L311.66 52H307.94L310.508 39.088ZM313.004 37.288C312.364 37.288 311.836 37.104 311.42 36.736C311.02 36.352 310.82 35.888 310.82 35.344C310.82 34.704 311.044 34.176 311.492 33.76C311.956 33.328 312.556 33.112 313.292 33.112C313.948 33.112 314.476 33.296 314.876 33.664C315.292 34.016 315.5 34.456 315.5 34.984C315.5 35.672 315.268 36.232 314.804 36.664C314.34 37.08 313.74 37.288 313.004 37.288ZM320.224 47.44C320.192 47.568 320.176 47.744 320.176 47.968C320.176 48.8 320.632 49.216 321.544 49.216C322.04 49.216 322.544 49.064 323.056 48.76L323.608 51.424C322.776 51.936 321.704 52.192 320.392 52.192C319.176 52.192 318.2 51.872 317.464 51.232C316.728 50.592 316.36 49.712 316.36 48.592C316.36 48.272 316.4 47.896 316.48 47.464L317.512 42.256H315.52L316.096 39.376H318.088L318.712 36.232H322.456L321.832 39.376H325.048L324.472 42.256H321.256L320.224 47.44ZM327.792 47.536C328.432 47.536 328.952 47.736 329.352 48.136C329.768 48.536 329.976 49.056 329.976 49.696C329.976 50.032 329.912 50.352 329.784 50.656C329.672 50.944 329.456 51.336 329.136 51.832L326.736 55.696H324.384L326.232 51.832C325.944 51.64 325.712 51.392 325.536 51.088C325.376 50.768 325.296 50.416 325.296 50.032C325.296 49.296 325.536 48.696 326.016 48.232C326.496 47.768 327.088 47.536 327.792 47.536ZM362.35 39.088L355.222 52H351.526L350.038 43.96L345.598 52H341.95L339.67 39.088H343.078L344.494 47.776L349.342 39.088H352.558L354.022 47.776L358.822 39.088H362.35ZM375.136 44.584C375.136 45.176 375.064 45.832 374.92 46.552H365.032C365.16 48.312 366.272 49.192 368.368 49.192C369.024 49.192 369.648 49.088 370.24 48.88C370.848 48.672 371.376 48.376 371.824 47.992L373.384 50.464C372.664 51.04 371.84 51.472 370.912 51.76C369.984 52.048 369.008 52.192 367.984 52.192C366.656 52.192 365.488 51.96 364.48 51.496C363.488 51.016 362.72 50.336 362.176 49.456C361.648 48.576 361.384 47.56 361.384 46.408C361.384 44.984 361.704 43.704 362.344 42.568C363 41.416 363.904 40.52 365.056 39.88C366.208 39.224 367.52 38.896 368.992 38.896C370.24 38.896 371.32 39.128 372.232 39.592C373.16 40.056 373.872 40.72 374.368 41.584C374.88 42.448 375.136 43.448 375.136 44.584ZM368.824 41.704C367.944 41.704 367.2 41.944 366.592 42.424C365.984 42.888 365.552 43.536 365.296 44.368H371.704C371.704 43.536 371.44 42.888 370.912 42.424C370.4 41.944 369.704 41.704 368.824 41.704ZM393.067 38.896C394.507 38.896 395.651 39.28 396.499 40.048C397.347 40.816 397.771 41.904 397.771 43.312C397.771 43.824 397.715 44.336 397.603 44.848L396.163 52H392.419L393.811 45.088C393.875 44.816 393.907 44.52 393.907 44.2C393.907 43.528 393.723 43.016 393.355 42.664C392.987 42.312 392.435 42.136 391.699 42.136C390.739 42.136 389.939 42.416 389.299 42.976C388.675 43.52 388.251 44.344 388.027 45.448L386.731 52H382.987L386.539 34.192H390.283L389.083 40.264C390.187 39.352 391.515 38.896 393.067 38.896ZM415.394 39.088L412.826 52H409.274L409.514 50.728C408.442 51.704 407.122 52.192 405.554 52.192C404.546 52.192 403.618 51.96 402.77 51.496C401.922 51.032 401.242 50.368 400.73 49.504C400.234 48.624 399.986 47.592 399.986 46.408C399.986 44.984 400.298 43.704 400.922 42.568C401.562 41.416 402.426 40.52 403.514 39.88C404.602 39.224 405.802 38.896 407.114 38.896C409.098 38.896 410.498 39.544 411.314 40.84L411.65 39.088H415.394ZM406.706 49.096C407.442 49.096 408.098 48.92 408.674 48.568C409.25 48.2 409.698 47.696 410.018 47.056C410.338 46.416 410.498 45.68 410.498 44.848C410.498 43.968 410.234 43.272 409.706 42.76C409.194 42.248 408.474 41.992 407.546 41.992C406.81 41.992 406.154 42.176 405.578 42.544C405.002 42.896 404.554 43.392 404.234 44.032C403.914 44.672 403.754 45.408 403.754 46.24C403.754 47.12 404.01 47.816 404.522 48.328C405.05 48.84 405.778 49.096 406.706 49.096ZM432.972 34.192L429.42 52H425.868L426.132 50.704C425.044 51.696 423.724 52.192 422.172 52.192C421.164 52.192 420.236 51.96 419.388 51.496C418.54 51.032 417.86 50.368 417.348 49.504C416.852 48.624 416.604 47.592 416.604 46.408C416.604 44.984 416.916 43.704 417.54 42.568C418.18 41.416 419.044 40.52 420.132 39.88C421.22 39.224 422.42 38.896 423.732 38.896C424.676 38.896 425.5 39.056 426.204 39.376C426.924 39.696 427.492 40.168 427.908 40.792L429.228 34.192H432.972ZM423.324 49.096C424.06 49.096 424.716 48.92 425.292 48.568C425.868 48.2 426.316 47.696 426.636 47.056C426.956 46.416 427.116 45.68 427.116 44.848C427.116 43.968 426.852 43.272 426.324 42.76C425.812 42.248 425.092 41.992 424.164 41.992C423.428 41.992 422.772 42.176 422.196 42.544C421.62 42.896 421.172 43.392 420.852 44.032C420.532 44.672 420.372 45.408 420.372 46.24C420.372 47.12 420.628 47.816 421.14 48.328C421.668 48.84 422.396 49.096 423.324 49.096ZM443.258 34.192H447.002L443.45 52H439.706L443.258 34.192ZM460.941 44.584C460.941 45.176 460.869 45.832 460.725 46.552H450.837C450.965 48.312 452.077 49.192 454.173 49.192C454.829 49.192 455.453 49.088 456.045 48.88C456.653 48.672 457.181 48.376 457.629 47.992L459.189 50.464C458.469 51.04 457.645 51.472 456.717 51.76C455.789 52.048 454.813 52.192 453.789 52.192C452.461 52.192 451.293 51.96 450.285 51.496C449.293 51.016 448.525 50.336 447.981 49.456C447.453 48.576 447.189 47.56 447.189 46.408C447.189 44.984 447.509 43.704 448.149 42.568C448.805 41.416 449.709 40.52 450.861 39.88C452.013 39.224 453.325 38.896 454.797 38.896C456.045 38.896 457.125 39.128 458.037 39.592C458.965 40.056 459.677 40.72 460.173 41.584C460.685 42.448 460.941 43.448 460.941 44.584ZM454.629 41.704C453.749 41.704 453.005 41.944 452.397 42.424C451.789 42.888 451.357 43.536 451.101 44.368H457.509C457.509 43.536 457.245 42.888 456.717 42.424C456.205 41.944 455.509 41.704 454.629 41.704ZM470.755 36.952C470.179 36.952 469.723 37.112 469.387 37.432C469.067 37.736 468.843 38.224 468.715 38.896L468.619 39.376H471.907L471.331 42.256H468.139L466.195 52H462.451L464.395 42.256H462.379L462.955 39.376H464.971L465.115 38.632C465.419 37.192 466.043 36.064 466.987 35.248C467.947 34.416 469.195 34 470.731 34C471.307 34 471.851 34.064 472.363 34.192C472.891 34.32 473.339 34.496 473.707 34.72L472.243 37.408C471.843 37.104 471.347 36.952 470.755 36.952ZM476.364 47.44C476.332 47.568 476.316 47.744 476.316 47.968C476.316 48.8 476.772 49.216 477.684 49.216C478.18 49.216 478.684 49.064 479.196 48.76L479.748 51.424C478.916 51.936 477.844 52.192 476.532 52.192C475.316 52.192 474.34 51.872 473.604 51.232C472.868 50.592 472.5 49.712 472.5 48.592C472.5 48.272 472.54 47.896 472.62 47.464L473.652 42.256H471.66L472.236 39.376H474.228L474.852 36.232H478.596L477.972 39.376H481.188L480.612 42.256H477.396L476.364 47.44ZM493.591 47.44C493.559 47.568 493.543 47.744 493.543 47.968C493.543 48.8 493.999 49.216 494.911 49.216C495.407 49.216 495.911 49.064 496.423 48.76L496.975 51.424C496.143 51.936 495.071 52.192 493.759 52.192C492.543 52.192 491.567 51.872 490.831 51.232C490.095 50.592 489.727 49.712 489.727 48.592C489.727 48.272 489.767 47.896 489.847 47.464L490.879 42.256H488.887L489.463 39.376H491.455L492.079 36.232H495.823L495.199 39.376H498.415L497.839 42.256H494.623L493.591 47.44ZM509.013 38.896C510.453 38.896 511.597 39.28 512.445 40.048C513.293 40.816 513.717 41.904 513.717 43.312C513.717 43.824 513.661 44.336 513.549 44.848L512.109 52H508.365L509.757 45.088C509.821 44.816 509.853 44.52 509.853 44.2C509.853 43.528 509.669 43.016 509.301 42.664C508.933 42.312 508.381 42.136 507.645 42.136C506.685 42.136 505.885 42.416 505.245 42.976C504.621 43.52 504.197 44.344 503.973 45.448L502.677 52H498.933L502.485 34.192H506.229L505.029 40.264C506.133 39.352 507.461 38.896 509.013 38.896ZM529.683 44.584C529.683 45.176 529.611 45.832 529.467 46.552H519.579C519.707 48.312 520.819 49.192 522.915 49.192C523.571 49.192 524.195 49.088 524.787 48.88C525.395 48.672 525.923 48.376 526.371 47.992L527.931 50.464C527.211 51.04 526.387 51.472 525.459 51.76C524.531 52.048 523.555 52.192 522.531 52.192C521.203 52.192 520.035 51.96 519.027 51.496C518.035 51.016 517.267 50.336 516.723 49.456C516.195 48.576 515.931 47.56 515.931 46.408C515.931 44.984 516.251 43.704 516.891 42.568C517.547 41.416 518.451 40.52 519.603 39.88C520.755 39.224 522.067 38.896 523.539 38.896C524.787 38.896 525.867 39.128 526.779 39.592C527.707 40.056 528.419 40.72 528.915 41.584C529.427 42.448 529.683 43.448 529.683 44.584ZM523.371 41.704C522.491 41.704 521.747 41.944 521.139 42.424C520.531 42.888 520.099 43.536 519.843 44.368H526.251C526.251 43.536 525.987 42.888 525.459 42.424C524.947 41.944 524.251 41.704 523.371 41.704ZM553.422 39.088L551.286 49.84C550.806 52.272 549.878 54.048 548.502 55.168C547.142 56.288 545.318 56.848 543.03 56.848C541.782 56.848 540.63 56.704 539.574 56.416C538.534 56.128 537.638 55.704 536.886 55.144L538.662 52.432C539.174 52.864 539.83 53.2 540.63 53.44C541.446 53.696 542.302 53.824 543.198 53.824C544.462 53.824 545.422 53.544 546.078 52.984C546.734 52.44 547.182 51.608 547.422 50.488L547.518 49.936C546.478 50.896 545.166 51.376 543.582 51.376C542.51 51.376 541.542 51.16 540.678 50.728C539.814 50.28 539.126 49.648 538.614 48.832C538.118 48.016 537.87 47.056 537.87 45.952C537.87 44.64 538.182 43.448 538.806 42.376C539.43 41.304 540.286 40.456 541.374 39.832C542.478 39.208 543.71 38.896 545.07 38.896C546.078 38.896 546.958 39.088 547.71 39.472C548.478 39.84 549.054 40.416 549.438 41.2L549.846 39.088H553.422ZM544.59 48.304C545.678 48.304 546.574 47.952 547.278 47.248C547.982 46.544 548.334 45.64 548.334 44.536C548.334 43.752 548.078 43.136 547.566 42.688C547.054 42.224 546.342 41.992 545.43 41.992C544.326 41.992 543.414 42.344 542.694 43.048C541.99 43.752 541.638 44.656 541.638 45.76C541.638 46.544 541.902 47.168 542.43 47.632C542.958 48.08 543.678 48.304 544.59 48.304ZM560.147 40.624C560.707 40.016 561.379 39.576 562.163 39.304C562.963 39.032 563.899 38.896 564.971 38.896L564.299 42.352C563.851 42.32 563.563 42.304 563.435 42.304C562.299 42.304 561.387 42.584 560.699 43.144C560.027 43.704 559.571 44.576 559.331 45.76L558.083 52H554.339L556.907 39.088H560.459L560.147 40.624ZM571.208 52.192C569.912 52.192 568.768 51.952 567.776 51.472C566.8 50.992 566.04 50.32 565.496 49.456C564.968 48.576 564.704 47.56 564.704 46.408C564.704 44.984 565.04 43.704 565.712 42.568C566.384 41.432 567.312 40.536 568.496 39.88C569.68 39.224 571.016 38.896 572.504 38.896C573.816 38.896 574.96 39.136 575.936 39.616C576.912 40.096 577.664 40.776 578.192 41.656C578.736 42.52 579.008 43.528 579.008 44.68C579.008 46.104 578.672 47.384 578 48.52C577.344 49.656 576.416 50.552 575.216 51.208C574.032 51.864 572.696 52.192 571.208 52.192ZM571.448 49.096C572.168 49.096 572.816 48.92 573.392 48.568C573.968 48.2 574.416 47.696 574.736 47.056C575.056 46.416 575.216 45.68 575.216 44.848C575.216 43.968 574.96 43.272 574.448 42.76C573.936 42.248 573.216 41.992 572.288 41.992C571.552 41.992 570.896 42.176 570.32 42.544C569.744 42.896 569.296 43.392 568.976 44.032C568.656 44.672 568.496 45.408 568.496 46.24C568.496 47.12 568.752 47.816 569.264 48.328C569.792 48.84 570.52 49.096 571.448 49.096ZM595.743 39.088L593.175 52H589.623L589.887 50.608C589.327 51.136 588.687 51.536 587.967 51.808C587.247 52.064 586.487 52.192 585.687 52.192C584.279 52.192 583.151 51.808 582.303 51.04C581.471 50.272 581.055 49.192 581.055 47.8C581.055 47.272 581.111 46.752 581.223 46.24L582.639 39.088H586.383L585.015 46C584.951 46.304 584.919 46.616 584.919 46.936C584.919 48.28 585.639 48.952 587.079 48.952C588.023 48.952 588.799 48.68 589.407 48.136C590.031 47.576 590.455 46.744 590.679 45.64L591.999 39.088H595.743ZM606.724 38.896C608.164 38.896 609.308 39.28 610.156 40.048C611.004 40.8 611.428 41.88 611.428 43.288C611.428 43.816 611.372 44.336 611.26 44.848L609.82 52H606.076L607.468 45.088C607.532 44.816 607.564 44.52 607.564 44.2C607.564 43.528 607.38 43.016 607.012 42.664C606.644 42.312 606.092 42.136 605.356 42.136C604.396 42.136 603.596 42.416 602.956 42.976C602.332 43.52 601.908 44.344 601.684 45.448L600.388 52H596.644L599.212 39.088H602.764L602.476 40.48C603.628 39.424 605.044 38.896 606.724 38.896ZM630.058 34.192L626.506 52H622.954L623.218 50.704C622.13 51.696 620.81 52.192 619.258 52.192C618.25 52.192 617.322 51.96 616.474 51.496C615.626 51.032 614.946 50.368 614.434 49.504C613.938 48.624 613.69 47.592 613.69 46.408C613.69 44.984 614.002 43.704 614.626 42.568C615.266 41.416 616.13 40.52 617.218 39.88C618.306 39.224 619.506 38.896 620.818 38.896C621.762 38.896 622.586 39.056 623.29 39.376C624.01 39.696 624.578 40.168 624.994 40.792L626.314 34.192H630.058ZM620.41 49.096C621.146 49.096 621.802 48.92 622.378 48.568C622.954 48.2 623.402 47.696 623.722 47.056C624.042 46.416 624.202 45.68 624.202 44.848C624.202 43.968 623.938 43.272 623.41 42.76C622.898 42.248 622.178 41.992 621.25 41.992C620.514 41.992 619.858 42.176 619.282 42.544C618.706 42.896 618.258 43.392 617.938 44.032C617.618 44.672 617.458 45.408 617.458 46.24C617.458 47.12 617.714 47.816 618.226 48.328C618.754 48.84 619.482 49.096 620.41 49.096ZM631.699 52.192C631.059 52.192 630.531 51.992 630.115 51.592C629.699 51.176 629.491 50.656 629.491 50.032C629.491 49.296 629.731 48.696 630.211 48.232C630.691 47.768 631.283 47.536 631.987 47.536C632.627 47.536 633.147 47.736 633.547 48.136C633.963 48.536 634.171 49.056 634.171 49.696C634.171 50.416 633.923 51.016 633.427 51.496C632.947 51.96 632.371 52.192 631.699 52.192Z" fill="black"/>
</svg>
