<svg width="639" height="64" viewBox="0 0 639 64" fill="none" xmlns="http://www.w3.org/2000/svg">
<rect width="639" height="64" fill="white" fill-opacity="0.13"/>
<rect x="1" width="638" height="63.2547" fill="white"/>
<path d="M15.328 14.264C16.288 14.568 17.04 15.08 17.584 15.8C18.128 16.504 18.4 17.376 18.4 18.416C18.4 19.888 17.824 21.024 16.672 21.824C15.536 22.608 13.872 23 11.68 23H2.992V6.2H11.2C13.248 6.2 14.816 6.592 15.904 7.376C17.008 8.16 17.56 9.224 17.56 10.568C17.56 11.384 17.36 12.112 16.96 12.752C16.576 13.392 16.032 13.896 15.328 14.264ZM6.856 9.128V13.088H10.72C11.68 13.088 12.408 12.92 12.904 12.584C13.4 12.248 13.648 11.752 13.648 11.096C13.648 10.44 13.4 9.952 12.904 9.632C12.408 9.296 11.68 9.128 10.72 9.128H6.856ZM11.392 20.072C12.416 20.072 13.184 19.904 13.696 19.568C14.224 19.232 14.488 18.712 14.488 18.008C14.488 16.616 13.456 15.92 11.392 15.92H6.856V20.072H11.392ZM27.2236 23.192C25.8636 23.192 24.6396 22.912 23.5516 22.352C22.4796 21.776 21.6396 20.984 21.0316 19.976C20.4236 18.968 20.1196 17.824 20.1196 16.544C20.1196 15.264 20.4236 14.12 21.0316 13.112C21.6396 12.104 22.4796 11.32 23.5516 10.76C24.6396 10.184 25.8636 9.896 27.2236 9.896C28.5836 9.896 29.7996 10.184 30.8716 10.76C31.9436 11.32 32.7836 12.104 33.3916 13.112C33.9996 14.12 34.3036 15.264 34.3036 16.544C34.3036 17.824 33.9996 18.968 33.3916 19.976C32.7836 20.984 31.9436 21.776 30.8716 22.352C29.7996 22.912 28.5836 23.192 27.2236 23.192ZM27.2236 20.12C28.1836 20.12 28.9676 19.8 29.5756 19.16C30.1996 18.504 30.5116 17.632 30.5116 16.544C30.5116 15.456 30.1996 14.592 29.5756 13.952C28.9676 13.296 28.1836 12.968 27.2236 12.968C26.2636 12.968 25.4716 13.296 24.8476 13.952C24.2236 14.592 23.9116 15.456 23.9116 16.544C23.9116 17.632 24.2236 18.504 24.8476 19.16C25.4716 19.8 26.2636 20.12 27.2236 20.12ZM36.8061 5.192H40.5501V23H36.8061V5.192ZM57.1769 5.192V23H53.6009V21.512C52.6729 22.632 51.3289 23.192 49.5689 23.192C48.3529 23.192 47.2489 22.92 46.2569 22.376C45.2809 21.832 44.5129 21.056 43.9529 20.048C43.3929 19.04 43.1129 17.872 43.1129 16.544C43.1129 15.216 43.3929 14.048 43.9529 13.04C44.5129 12.032 45.2809 11.256 46.2569 10.712C47.2489 10.168 48.3529 9.896 49.5689 9.896C51.2169 9.896 52.5049 10.416 53.4329 11.456V5.192H57.1769ZM50.2169 20.12C51.1609 20.12 51.9449 19.8 52.5689 19.16C53.1929 18.504 53.5049 17.632 53.5049 16.544C53.5049 15.456 53.1929 14.592 52.5689 13.952C51.9449 13.296 51.1609 12.968 50.2169 12.968C49.2569 12.968 48.4649 13.296 47.8409 13.952C47.2169 14.592 46.9049 15.456 46.9049 16.544C46.9049 17.632 47.2169 18.504 47.8409 19.16C48.4649 19.8 49.2569 20.12 50.2169 20.12ZM79.7989 6.2V8.72L73.5589 23H69.3349L75.3589 9.368H69.7909V12.104H66.3349V6.2H79.7989ZM88.261 23.288C86.869 23.288 85.629 22.944 84.541 22.256C83.453 21.568 82.597 20.576 81.973 19.28C81.365 17.968 81.061 16.408 81.061 14.6C81.061 12.792 81.365 11.24 81.973 9.944C82.597 8.632 83.453 7.632 84.541 6.944C85.629 6.256 86.869 5.912 88.261 5.912C89.653 5.912 90.893 6.256 91.981 6.944C93.069 7.632 93.917 8.632 94.525 9.944C95.149 11.24 95.461 12.792 95.461 14.6C95.461 16.408 95.149 17.968 94.525 19.28C93.917 20.576 93.069 21.568 91.981 22.256C90.893 22.944 89.653 23.288 88.261 23.288ZM88.261 20C89.285 20 90.085 19.56 90.661 18.68C91.253 17.8 91.549 16.44 91.549 14.6C91.549 12.76 91.253 11.4 90.661 10.52C90.085 9.64 89.285 9.2 88.261 9.2C87.253 9.2 86.453 9.64 85.861 10.52C85.285 11.4 84.997 12.76 84.997 14.6C84.997 16.44 85.285 17.8 85.861 18.68C86.453 19.56 87.253 20 88.261 20ZM104.55 23.288C103.158 23.288 101.918 22.944 100.83 22.256C99.7421 21.568 98.8861 20.576 98.2621 19.28C97.6541 17.968 97.3501 16.408 97.3501 14.6C97.3501 12.792 97.6541 11.24 98.2621 9.944C98.8861 8.632 99.7421 7.632 100.83 6.944C101.918 6.256 103.158 5.912 104.55 5.912C105.942 5.912 107.182 6.256 108.27 6.944C109.358 7.632 110.206 8.632 110.814 9.944C111.438 11.24 111.75 12.792 111.75 14.6C111.75 16.408 111.438 17.968 110.814 19.28C110.206 20.576 109.358 21.568 108.27 22.256C107.182 22.944 105.942 23.288 104.55 23.288ZM104.55 20C105.574 20 106.374 19.56 106.95 18.68C107.542 17.8 107.838 16.44 107.838 14.6C107.838 12.76 107.542 11.4 106.95 10.52C106.374 9.64 105.574 9.2 104.55 9.2C103.542 9.2 102.742 9.64 102.15 10.52C101.574 11.4 101.286 12.76 101.286 14.6C101.286 16.44 101.574 17.8 102.15 18.68C102.742 19.56 103.542 20 104.55 20ZM14.056 48.4H6.256L4.768 52H0.784L8.272 35.2H12.112L19.624 52H15.544L14.056 48.4ZM12.832 45.448L10.168 39.016L7.504 45.448H12.832ZM21.103 34.192H24.847V52H21.103V34.192ZM44.8578 38.896C46.4738 38.896 47.7538 39.376 48.6978 40.336C49.6578 41.28 50.1378 42.704 50.1378 44.608V52H46.3938V45.184C46.3938 44.16 46.1778 43.4 45.7458 42.904C45.3298 42.392 44.7298 42.136 43.9458 42.136C43.0658 42.136 42.3698 42.424 41.8578 43C41.3458 43.56 41.0898 44.4 41.0898 45.52V52H37.3458V45.184C37.3458 43.152 36.5298 42.136 34.8978 42.136C34.0338 42.136 33.3458 42.424 32.8338 43C32.3218 43.56 32.0658 44.4 32.0658 45.52V52H28.3218V39.088H31.8978V40.576C32.3778 40.032 32.9618 39.616 33.6497 39.328C34.3538 39.04 35.1218 38.896 35.9538 38.896C36.8658 38.896 37.6898 39.08 38.4258 39.448C39.1618 39.8 39.7538 40.32 40.2018 41.008C40.7298 40.336 41.3938 39.816 42.1938 39.448C43.0098 39.08 43.8978 38.896 44.8578 38.896ZM59.7783 52.192C58.4183 52.192 57.1943 51.912 56.1063 51.352C55.0343 50.776 54.1943 49.984 53.5863 48.976C52.9783 47.968 52.6743 46.824 52.6743 45.544C52.6743 44.264 52.9783 43.12 53.5863 42.112C54.1943 41.104 55.0343 40.32 56.1063 39.76C57.1943 39.184 58.4183 38.896 59.7783 38.896C61.1383 38.896 62.3543 39.184 63.4263 39.76C64.4983 40.32 65.3383 41.104 65.9463 42.112C66.5543 43.12 66.8583 44.264 66.8583 45.544C66.8583 46.824 66.5543 47.968 65.9463 48.976C65.3383 49.984 64.4983 50.776 63.4263 51.352C62.3543 51.912 61.1383 52.192 59.7783 52.192ZM59.7783 49.12C60.7383 49.12 61.5223 48.8 62.1303 48.16C62.7543 47.504 63.0663 46.632 63.0663 45.544C63.0663 44.456 62.7543 43.592 62.1303 42.952C61.5223 42.296 60.7383 41.968 59.7783 41.968C58.8183 41.968 58.0263 42.296 57.4023 42.952C56.7783 43.592 56.4663 44.456 56.4663 45.544C56.4663 46.632 56.7783 47.504 57.4023 48.16C58.0263 48.8 58.8183 49.12 59.7783 49.12ZM73.7048 52.192C72.6328 52.192 71.5848 52.064 70.5608 51.808C69.5368 51.536 68.7208 51.2 68.1128 50.8L69.3608 48.112C69.9368 48.48 70.6328 48.784 71.4488 49.024C72.2648 49.248 73.0648 49.36 73.8488 49.36C75.4328 49.36 76.2248 48.968 76.2248 48.184C76.2248 47.816 76.0088 47.552 75.5768 47.392C75.1448 47.232 74.4808 47.096 73.5848 46.984C72.5288 46.824 71.6568 46.64 70.9688 46.432C70.2808 46.224 69.6808 45.856 69.1688 45.328C68.6728 44.8 68.4248 44.048 68.4248 43.072C68.4248 42.256 68.6568 41.536 69.1208 40.912C69.6008 40.272 70.2888 39.776 71.1848 39.424C72.0968 39.072 73.1688 38.896 74.4008 38.896C75.3128 38.896 76.2168 39 77.1128 39.208C78.0248 39.4 78.7768 39.672 79.3688 40.024L78.1208 42.688C76.9848 42.048 75.7448 41.728 74.4008 41.728C73.6008 41.728 73.0008 41.84 72.6008 42.064C72.2008 42.288 72.0008 42.576 72.0008 42.928C72.0008 43.328 72.2168 43.608 72.6488 43.768C73.0808 43.928 73.7688 44.08 74.7128 44.224C75.7688 44.4 76.6328 44.592 77.3048 44.8C77.9768 44.992 78.5608 45.352 79.0568 45.88C79.5528 46.408 79.8008 47.144 79.8008 48.088C79.8008 48.888 79.5608 49.6 79.0808 50.224C78.6008 50.848 77.8968 51.336 76.9688 51.688C76.0568 52.024 74.9688 52.192 73.7048 52.192ZM90.4388 51.376C90.0708 51.648 89.6148 51.856 89.0708 52C88.5428 52.128 87.9828 52.192 87.3908 52.192C85.8548 52.192 84.6628 51.8 83.8148 51.016C82.9828 50.232 82.5668 49.08 82.5668 47.56V42.256H80.5748V39.376H82.5668V36.232H86.3108V39.376H89.5268V42.256H86.3108V47.512C86.3108 48.056 86.4468 48.48 86.7188 48.784C87.0068 49.072 87.4068 49.216 87.9188 49.216C88.5108 49.216 89.0148 49.056 89.4308 48.736L90.4388 51.376ZM106.969 38.896C108.169 38.896 109.257 39.176 110.233 39.736C111.225 40.28 112.001 41.056 112.561 42.064C113.121 43.056 113.401 44.216 113.401 45.544C113.401 46.872 113.121 48.04 112.561 49.048C112.001 50.04 111.225 50.816 110.233 51.376C109.257 51.92 108.169 52.192 106.969 52.192C105.193 52.192 103.841 51.632 102.913 50.512V52H99.3374V34.192H103.081V40.456C104.025 39.416 105.321 38.896 106.969 38.896ZM106.321 49.12C107.281 49.12 108.065 48.8 108.673 48.16C109.297 47.504 109.609 46.632 109.609 45.544C109.609 44.456 109.297 43.592 108.673 42.952C108.065 42.296 107.281 41.968 106.321 41.968C105.361 41.968 104.569 42.296 103.945 42.952C103.337 43.592 103.033 44.456 103.033 45.544C103.033 46.632 103.337 47.504 103.945 48.16C104.569 48.8 105.361 49.12 106.321 49.12ZM128.556 45.592C128.556 45.64 128.532 45.976 128.484 46.6H118.716C118.892 47.4 119.308 48.032 119.964 48.496C120.62 48.96 121.436 49.192 122.412 49.192C123.084 49.192 123.676 49.096 124.188 48.904C124.716 48.696 125.204 48.376 125.652 47.944L127.644 50.104C126.428 51.496 124.652 52.192 122.316 52.192C120.86 52.192 119.572 51.912 118.452 51.352C117.332 50.776 116.468 49.984 115.86 48.976C115.252 47.968 114.948 46.824 114.948 45.544C114.948 44.28 115.244 43.144 115.836 42.136C116.444 41.112 117.268 40.32 118.308 39.76C119.364 39.184 120.54 38.896 121.836 38.896C123.1 38.896 124.244 39.168 125.268 39.712C126.292 40.256 127.092 41.04 127.668 42.064C128.26 43.072 128.556 44.248 128.556 45.592ZM121.86 41.728C121.012 41.728 120.3 41.968 119.724 42.448C119.148 42.928 118.796 43.584 118.668 44.416H125.028C124.9 43.6 124.548 42.952 123.972 42.472C123.396 41.976 122.692 41.728 121.86 41.728ZM135.152 39.376H138.464V42.256H135.248V52H131.504V42.256H129.512V39.376H131.504V38.8C131.504 37.328 131.936 36.16 132.8 35.296C133.68 34.432 134.912 34 136.496 34C137.056 34 137.584 34.064 138.08 34.192C138.592 34.304 139.016 34.472 139.352 34.696L138.368 37.408C137.936 37.104 137.432 36.952 136.856 36.952C135.72 36.952 135.152 37.576 135.152 38.824V39.376ZM146.31 52.192C144.95 52.192 143.726 51.912 142.638 51.352C141.566 50.776 140.726 49.984 140.118 48.976C139.51 47.968 139.206 46.824 139.206 45.544C139.206 44.264 139.51 43.12 140.118 42.112C140.726 41.104 141.566 40.32 142.638 39.76C143.726 39.184 144.95 38.896 146.31 38.896C147.67 38.896 148.886 39.184 149.958 39.76C151.03 40.32 151.87 41.104 152.478 42.112C153.086 43.12 153.39 44.264 153.39 45.544C153.39 46.824 153.086 47.968 152.478 48.976C151.87 49.984 151.03 50.776 149.958 51.352C148.886 51.912 147.67 52.192 146.31 52.192ZM146.31 49.12C147.27 49.12 148.054 48.8 148.662 48.16C149.286 47.504 149.598 46.632 149.598 45.544C149.598 44.456 149.286 43.592 148.662 42.952C148.054 42.296 147.27 41.968 146.31 41.968C145.35 41.968 144.558 42.296 143.934 42.952C143.31 43.592 142.998 44.456 142.998 45.544C142.998 46.632 143.31 47.504 143.934 48.16C144.558 48.8 145.35 49.12 146.31 49.12ZM159.468 40.792C159.916 40.168 160.516 39.696 161.268 39.376C162.036 39.056 162.916 38.896 163.908 38.896V42.352C163.492 42.32 163.212 42.304 163.068 42.304C161.996 42.304 161.156 42.608 160.548 43.216C159.94 43.808 159.636 44.704 159.636 45.904V52H155.892V39.088H159.468V40.792ZM178.665 45.592C178.665 45.64 178.641 45.976 178.593 46.6H168.825C169.001 47.4 169.417 48.032 170.073 48.496C170.729 48.96 171.545 49.192 172.521 49.192C173.193 49.192 173.785 49.096 174.297 48.904C174.825 48.696 175.313 48.376 175.761 47.944L177.753 50.104C176.537 51.496 174.761 52.192 172.425 52.192C170.969 52.192 169.681 51.912 168.561 51.352C167.441 50.776 166.577 49.984 165.969 48.976C165.361 47.968 165.057 46.824 165.057 45.544C165.057 44.28 165.353 43.144 165.945 42.136C166.553 41.112 167.377 40.32 168.417 39.76C169.473 39.184 170.649 38.896 171.945 38.896C173.209 38.896 174.353 39.168 175.377 39.712C176.401 40.256 177.201 41.04 177.777 42.064C178.369 43.072 178.665 44.248 178.665 45.592ZM171.969 41.728C171.121 41.728 170.409 41.968 169.833 42.448C169.257 42.928 168.905 43.584 168.777 44.416H175.137C175.009 43.6 174.657 42.952 174.081 42.472C173.505 41.976 172.801 41.728 171.969 41.728ZM208.691 39.088L204.011 52H200.411L197.507 43.984L194.507 52H190.907L186.251 39.088H189.779L192.827 47.824L195.995 39.088H199.163L202.235 47.824L205.379 39.088H208.691ZM222.728 45.592C222.728 45.64 222.704 45.976 222.656 46.6H212.888C213.064 47.4 213.48 48.032 214.136 48.496C214.792 48.96 215.608 49.192 216.584 49.192C217.256 49.192 217.848 49.096 218.36 48.904C218.888 48.696 219.376 48.376 219.824 47.944L221.816 50.104C220.6 51.496 218.824 52.192 216.488 52.192C215.032 52.192 213.744 51.912 212.624 51.352C211.504 50.776 210.64 49.984 210.032 48.976C209.424 47.968 209.12 46.824 209.12 45.544C209.12 44.28 209.416 43.144 210.008 42.136C210.616 41.112 211.44 40.32 212.48 39.76C213.536 39.184 214.712 38.896 216.008 38.896C217.272 38.896 218.416 39.168 219.44 39.712C220.464 40.256 221.264 41.04 221.84 42.064C222.432 43.072 222.728 44.248 222.728 45.592ZM216.032 41.728C215.184 41.728 214.472 41.968 213.896 42.448C213.32 42.928 212.968 43.584 212.84 44.416H219.2C219.072 43.6 218.72 42.952 218.144 42.472C217.568 41.976 216.864 41.728 216.032 41.728ZM237.561 46.936L235.761 48.712V52H232.017V34.192H235.761V44.272L241.233 39.088H245.697L240.321 44.56L246.177 52H241.641L237.561 46.936ZM255.615 38.896C257.215 38.896 258.503 39.376 259.479 40.336C260.471 41.296 260.967 42.72 260.967 44.608V52H257.223V45.184C257.223 44.16 256.999 43.4 256.551 42.904C256.103 42.392 255.455 42.136 254.607 42.136C253.663 42.136 252.911 42.432 252.351 43.024C251.791 43.6 251.511 44.464 251.511 45.616V52H247.767V39.088H251.343V40.6C251.839 40.056 252.455 39.64 253.191 39.352C253.927 39.048 254.735 38.896 255.615 38.896ZM277.149 45.592C277.149 45.64 277.125 45.976 277.077 46.6H267.309C267.485 47.4 267.901 48.032 268.557 48.496C269.213 48.96 270.029 49.192 271.005 49.192C271.677 49.192 272.269 49.096 272.781 48.904C273.309 48.696 273.797 48.376 274.245 47.944L276.237 50.104C275.021 51.496 273.245 52.192 270.909 52.192C269.453 52.192 268.165 51.912 267.045 51.352C265.925 50.776 265.061 49.984 264.453 48.976C263.845 47.968 263.541 46.824 263.541 45.544C263.541 44.28 263.837 43.144 264.429 42.136C265.037 41.112 265.861 40.32 266.901 39.76C267.957 39.184 269.133 38.896 270.429 38.896C271.693 38.896 272.837 39.168 273.861 39.712C274.885 40.256 275.685 41.04 276.261 42.064C276.853 43.072 277.149 44.248 277.149 45.592ZM270.453 41.728C269.605 41.728 268.893 41.968 268.317 42.448C267.741 42.928 267.389 43.584 267.261 44.416H273.621C273.493 43.6 273.141 42.952 272.565 42.472C271.989 41.976 271.285 41.728 270.453 41.728ZM300.144 39.088L295.464 52H291.864L288.96 43.984L285.96 52H282.36L277.704 39.088H281.232L284.28 47.824L287.448 39.088H290.616L293.688 47.824L296.832 39.088H300.144ZM308.681 39.088H312.425V52H308.681V39.088ZM310.553 37.288C309.865 37.288 309.305 37.088 308.873 36.688C308.441 36.288 308.225 35.792 308.225 35.2C308.225 34.608 308.441 34.112 308.873 33.712C309.305 33.312 309.865 33.112 310.553 33.112C311.241 33.112 311.801 33.304 312.233 33.688C312.665 34.072 312.881 34.552 312.881 35.128C312.881 35.752 312.665 36.272 312.233 36.688C311.801 37.088 311.241 37.288 310.553 37.288ZM324.228 51.376C323.86 51.648 323.404 51.856 322.86 52C322.332 52.128 321.772 52.192 321.18 52.192C319.644 52.192 318.452 51.8 317.604 51.016C316.772 50.232 316.356 49.08 316.356 47.56V42.256H314.364V39.376H316.356V36.232H320.1V39.376H323.316V42.256H320.1V47.512C320.1 48.056 320.236 48.48 320.508 48.784C320.796 49.072 321.196 49.216 321.708 49.216C322.3 49.216 322.804 49.056 323.22 48.736L324.228 51.376ZM328.004 47.536C328.676 47.536 329.228 47.752 329.66 48.184C330.092 48.6 330.308 49.152 330.308 49.84C330.308 50.16 330.268 50.48 330.188 50.8C330.108 51.12 329.932 51.6 329.66 52.24L328.292 55.696H325.916L326.972 51.88C326.572 51.72 326.252 51.464 326.012 51.112C325.788 50.744 325.676 50.32 325.676 49.84C325.676 49.152 325.892 48.6 326.324 48.184C326.772 47.752 327.332 47.536 328.004 47.536ZM360.378 39.088L355.698 52H352.098L349.194 43.984L346.194 52H342.594L337.938 39.088H341.466L344.514 47.824L347.682 39.088H350.85L353.922 47.824L357.066 39.088H360.378ZM374.415 45.592C374.415 45.64 374.391 45.976 374.343 46.6H364.575C364.751 47.4 365.167 48.032 365.823 48.496C366.479 48.96 367.295 49.192 368.271 49.192C368.943 49.192 369.535 49.096 370.047 48.904C370.575 48.696 371.063 48.376 371.511 47.944L373.503 50.104C372.287 51.496 370.511 52.192 368.175 52.192C366.719 52.192 365.431 51.912 364.311 51.352C363.191 50.776 362.327 49.984 361.719 48.976C361.111 47.968 360.807 46.824 360.807 45.544C360.807 44.28 361.103 43.144 361.695 42.136C362.303 41.112 363.127 40.32 364.167 39.76C365.223 39.184 366.399 38.896 367.695 38.896C368.959 38.896 370.103 39.168 371.127 39.712C372.151 40.256 372.951 41.04 373.527 42.064C374.119 43.072 374.415 44.248 374.415 45.592ZM367.719 41.728C366.871 41.728 366.159 41.968 365.583 42.448C365.007 42.928 364.655 43.584 364.527 44.416H370.887C370.759 43.6 370.407 42.952 369.831 42.472C369.255 41.976 368.551 41.728 367.719 41.728ZM391.553 38.896C393.153 38.896 394.441 39.376 395.417 40.336C396.409 41.296 396.905 42.72 396.905 44.608V52H393.161V45.184C393.161 44.16 392.937 43.4 392.489 42.904C392.041 42.392 391.393 42.136 390.545 42.136C389.601 42.136 388.849 42.432 388.289 43.024C387.729 43.6 387.449 44.464 387.449 45.616V52H383.705V34.192H387.449V40.432C387.945 39.936 388.545 39.56 389.249 39.304C389.953 39.032 390.721 38.896 391.553 38.896ZM405.506 38.896C407.506 38.896 409.042 39.376 410.114 40.336C411.186 41.28 411.722 42.712 411.722 44.632V52H408.218V50.392C407.514 51.592 406.202 52.192 404.282 52.192C403.29 52.192 402.426 52.024 401.69 51.688C400.97 51.352 400.418 50.888 400.034 50.296C399.65 49.704 399.458 49.032 399.458 48.28C399.458 47.08 399.906 46.136 400.802 45.448C401.714 44.76 403.114 44.416 405.002 44.416H407.978C407.978 43.6 407.73 42.976 407.234 42.544C406.738 42.096 405.994 41.872 405.002 41.872C404.314 41.872 403.634 41.984 402.962 42.208C402.306 42.416 401.746 42.704 401.282 43.072L399.938 40.456C400.642 39.96 401.482 39.576 402.458 39.304C403.45 39.032 404.466 38.896 405.506 38.896ZM405.218 49.672C405.858 49.672 406.426 49.528 406.922 49.24C407.418 48.936 407.77 48.496 407.978 47.92V46.6H405.41C403.874 46.6 403.106 47.104 403.106 48.112C403.106 48.592 403.29 48.976 403.658 49.264C404.042 49.536 404.562 49.672 405.218 49.672ZM428.403 34.192V52H424.827V50.512C423.899 51.632 422.555 52.192 420.795 52.192C419.579 52.192 418.475 51.92 417.483 51.376C416.507 50.832 415.739 50.056 415.179 49.048C414.619 48.04 414.339 46.872 414.339 45.544C414.339 44.216 414.619 43.048 415.179 42.04C415.739 41.032 416.507 40.256 417.483 39.712C418.475 39.168 419.579 38.896 420.795 38.896C422.443 38.896 423.731 39.416 424.659 40.456V34.192H428.403ZM421.443 49.12C422.387 49.12 423.171 48.8 423.795 48.16C424.419 47.504 424.731 46.632 424.731 45.544C424.731 44.456 424.419 43.592 423.795 42.952C423.171 42.296 422.387 41.968 421.443 41.968C420.483 41.968 419.691 42.296 419.067 42.952C418.443 43.592 418.131 44.456 418.131 45.544C418.131 46.632 418.443 47.504 419.067 48.16C419.691 48.8 420.483 49.12 421.443 49.12ZM438.666 34.192H442.41V52H438.666V34.192ZM458.532 45.592C458.532 45.64 458.508 45.976 458.46 46.6H448.692C448.868 47.4 449.284 48.032 449.94 48.496C450.596 48.96 451.412 49.192 452.388 49.192C453.06 49.192 453.652 49.096 454.164 48.904C454.692 48.696 455.18 48.376 455.628 47.944L457.62 50.104C456.404 51.496 454.628 52.192 452.292 52.192C450.836 52.192 449.548 51.912 448.428 51.352C447.308 50.776 446.444 49.984 445.836 48.976C445.228 47.968 444.924 46.824 444.924 45.544C444.924 44.28 445.22 43.144 445.812 42.136C446.42 41.112 447.244 40.32 448.284 39.76C449.34 39.184 450.516 38.896 451.812 38.896C453.076 38.896 454.22 39.168 455.244 39.712C456.268 40.256 457.068 41.04 457.644 42.064C458.236 43.072 458.532 44.248 458.532 45.592ZM451.836 41.728C450.988 41.728 450.276 41.968 449.7 42.448C449.124 42.928 448.772 43.584 448.644 44.416H455.004C454.876 43.6 454.524 42.952 453.948 42.472C453.372 41.976 452.668 41.728 451.836 41.728ZM465.129 39.376H468.441V42.256H465.225V52H461.481V42.256H459.489V39.376H461.481V38.8C461.481 37.328 461.913 36.16 462.777 35.296C463.657 34.432 464.889 34 466.473 34C467.033 34 467.561 34.064 468.057 34.192C468.569 34.304 468.993 34.472 469.329 34.696L468.345 37.408C467.913 37.104 467.409 36.952 466.833 36.952C465.697 36.952 465.129 37.576 465.129 38.824V39.376ZM478.634 51.376C478.266 51.648 477.81 51.856 477.266 52C476.738 52.128 476.178 52.192 475.586 52.192C474.05 52.192 472.858 51.8 472.01 51.016C471.178 50.232 470.762 49.08 470.762 47.56V42.256H468.77V39.376H470.762V36.232H474.506V39.376H477.722V42.256H474.506V47.512C474.506 48.056 474.642 48.48 474.914 48.784C475.202 49.072 475.602 49.216 476.114 49.216C476.706 49.216 477.21 49.056 477.626 48.736L478.634 51.376ZM495.861 51.376C495.493 51.648 495.037 51.856 494.493 52C493.965 52.128 493.405 52.192 492.813 52.192C491.277 52.192 490.085 51.8 489.237 51.016C488.405 50.232 487.989 49.08 487.989 47.56V42.256H485.997V39.376H487.989V36.232H491.733V39.376H494.949V42.256H491.733V47.512C491.733 48.056 491.869 48.48 492.141 48.784C492.429 49.072 492.829 49.216 493.341 49.216C493.933 49.216 494.437 49.056 494.853 48.736L495.861 51.376ZM505.81 38.896C507.41 38.896 508.698 39.376 509.674 40.336C510.666 41.296 511.162 42.72 511.162 44.608V52H507.418V45.184C507.418 44.16 507.194 43.4 506.746 42.904C506.298 42.392 505.65 42.136 504.802 42.136C503.858 42.136 503.106 42.432 502.546 43.024C501.986 43.6 501.706 44.464 501.706 45.616V52H497.962V34.192H501.706V40.432C502.202 39.936 502.802 39.56 503.506 39.304C504.21 39.032 504.978 38.896 505.81 38.896ZM527.345 45.592C527.345 45.64 527.321 45.976 527.273 46.6H517.505C517.681 47.4 518.097 48.032 518.753 48.496C519.409 48.96 520.225 49.192 521.201 49.192C521.873 49.192 522.465 49.096 522.977 48.904C523.505 48.696 523.993 48.376 524.441 47.944L526.433 50.104C525.217 51.496 523.441 52.192 521.105 52.192C519.649 52.192 518.361 51.912 517.241 51.352C516.121 50.776 515.257 49.984 514.649 48.976C514.041 47.968 513.737 46.824 513.737 45.544C513.737 44.28 514.033 43.144 514.625 42.136C515.233 41.112 516.057 40.32 517.097 39.76C518.153 39.184 519.329 38.896 520.625 38.896C521.889 38.896 523.033 39.168 524.057 39.712C525.081 40.256 525.881 41.04 526.457 42.064C527.049 43.072 527.345 44.248 527.345 45.592ZM520.649 41.728C519.801 41.728 519.089 41.968 518.513 42.448C517.937 42.928 517.585 43.584 517.457 44.416H523.817C523.689 43.6 523.337 42.952 522.761 42.472C522.185 41.976 521.481 41.728 520.649 41.728ZM549.954 39.088V49.84C549.954 52.208 549.338 53.968 548.106 55.12C546.874 56.272 545.074 56.848 542.706 56.848C541.458 56.848 540.274 56.696 539.154 56.392C538.034 56.088 537.106 55.648 536.37 55.072L537.858 52.384C538.402 52.832 539.09 53.184 539.922 53.44C540.754 53.712 541.586 53.848 542.418 53.848C543.714 53.848 544.666 53.552 545.274 52.96C545.898 52.384 546.21 51.504 546.21 50.32V49.768C545.234 50.84 543.874 51.376 542.13 51.376C540.946 51.376 539.858 51.12 538.866 50.608C537.89 50.08 537.114 49.344 536.538 48.4C535.962 47.456 535.674 46.368 535.674 45.136C535.674 43.904 535.962 42.816 536.538 41.872C537.114 40.928 537.89 40.2 538.866 39.688C539.858 39.16 540.946 38.896 542.13 38.896C544.002 38.896 545.426 39.512 546.402 40.744V39.088H549.954ZM542.874 48.304C543.866 48.304 544.674 48.016 545.298 47.44C545.938 46.848 546.258 46.08 546.258 45.136C546.258 44.192 545.938 43.432 545.298 42.856C544.674 42.264 543.866 41.968 542.874 41.968C541.882 41.968 541.066 42.264 540.426 42.856C539.786 43.432 539.466 44.192 539.466 45.136C539.466 46.08 539.786 46.848 540.426 47.44C541.066 48.016 541.882 48.304 542.874 48.304ZM557.015 40.792C557.463 40.168 558.063 39.696 558.815 39.376C559.583 39.056 560.463 38.896 561.455 38.896V42.352C561.039 42.32 560.759 42.304 560.615 42.304C559.543 42.304 558.703 42.608 558.095 43.216C557.487 43.808 557.183 44.704 557.183 45.904V52H553.439V39.088H557.015V40.792ZM569.708 52.192C568.348 52.192 567.124 51.912 566.036 51.352C564.964 50.776 564.124 49.984 563.516 48.976C562.908 47.968 562.604 46.824 562.604 45.544C562.604 44.264 562.908 43.12 563.516 42.112C564.124 41.104 564.964 40.32 566.036 39.76C567.124 39.184 568.348 38.896 569.708 38.896C571.068 38.896 572.284 39.184 573.356 39.76C574.428 40.32 575.268 41.104 575.876 42.112C576.484 43.12 576.788 44.264 576.788 45.544C576.788 46.824 576.484 47.968 575.876 48.976C575.268 49.984 574.428 50.776 573.356 51.352C572.284 51.912 571.068 52.192 569.708 52.192ZM569.708 49.12C570.668 49.12 571.452 48.8 572.06 48.16C572.684 47.504 572.996 46.632 572.996 45.544C572.996 44.456 572.684 43.592 572.06 42.952C571.452 42.296 570.668 41.968 569.708 41.968C568.748 41.968 567.956 42.296 567.332 42.952C566.708 43.592 566.396 44.456 566.396 45.544C566.396 46.632 566.708 47.504 567.332 48.16C567.956 48.8 568.748 49.12 569.708 49.12ZM592.299 39.088V52H588.747V50.464C588.251 51.024 587.659 51.456 586.971 51.76C586.283 52.048 585.539 52.192 584.739 52.192C583.043 52.192 581.699 51.704 580.707 50.728C579.715 49.752 579.219 48.304 579.219 46.384V39.088H582.963V45.832C582.963 47.912 583.835 48.952 585.579 48.952C586.475 48.952 587.195 48.664 587.739 48.088C588.283 47.496 588.555 46.624 588.555 45.472V39.088H592.299ZM603.615 38.896C605.215 38.896 606.503 39.376 607.479 40.336C608.471 41.296 608.967 42.72 608.967 44.608V52H605.223V45.184C605.223 44.16 604.999 43.4 604.551 42.904C604.103 42.392 603.455 42.136 602.607 42.136C601.663 42.136 600.911 42.432 600.351 43.024C599.791 43.6 599.511 44.464 599.511 45.616V52H595.767V39.088H599.343V40.6C599.839 40.056 600.455 39.64 601.191 39.352C601.927 39.048 602.735 38.896 603.615 38.896ZM625.653 34.192V52H622.077V50.512C621.149 51.632 619.805 52.192 618.045 52.192C616.829 52.192 615.725 51.92 614.733 51.376C613.757 50.832 612.989 50.056 612.429 49.048C611.869 48.04 611.589 46.872 611.589 45.544C611.589 44.216 611.869 43.048 612.429 42.04C612.989 41.032 613.757 40.256 614.733 39.712C615.725 39.168 616.829 38.896 618.045 38.896C619.693 38.896 620.981 39.416 621.909 40.456V34.192H625.653ZM618.693 49.12C619.637 49.12 620.421 48.8 621.045 48.16C621.669 47.504 621.981 46.632 621.981 45.544C621.981 44.456 621.669 43.592 621.045 42.952C620.421 42.296 619.637 41.968 618.693 41.968C617.733 41.968 616.941 42.296 616.317 42.952C615.693 43.592 615.381 44.456 615.381 45.544C615.381 46.632 615.693 47.504 616.317 48.16C616.941 48.8 617.733 49.12 618.693 49.12ZM630.535 52.192C629.879 52.192 629.327 51.968 628.879 51.52C628.431 51.072 628.207 50.512 628.207 49.84C628.207 49.152 628.431 48.6 628.879 48.184C629.327 47.752 629.879 47.536 630.535 47.536C631.191 47.536 631.743 47.752 632.191 48.184C632.639 48.6 632.863 49.152 632.863 49.84C632.863 50.512 632.639 51.072 632.191 51.52C631.743 51.968 631.191 52.192 630.535 52.192Z" fill="black"/>
</svg>
