<svg width="588" height="59" viewBox="0 0 588 59" fill="none" xmlns="http://www.w3.org/2000/svg">
<rect width="588" height="59" fill="white" fill-opacity="0.13"/>
<rect x="2" width="586" height="58.0991" fill="white"/>
<path d="M7.832 6.944L6.416 14.096H15.536L15.392 14.84H6.272L4.784 22.256H15.344L15.176 23H3.824L7.184 6.2H18.176L18.032 6.944H7.832ZM24.1139 16.616L27.8819 23H26.9939L23.6099 17.144L17.9459 23H16.9379L23.2259 16.568L19.7219 10.544H20.5859L23.7779 16.016L29.0819 10.544H30.0419L24.1139 16.616ZM32.87 19.544C32.79 19.944 32.75 20.264 32.75 20.504C32.75 21.752 33.43 22.376 34.79 22.376C35.574 22.376 36.278 22.128 36.902 21.632L37.214 22.208C36.862 22.496 36.462 22.712 36.014 22.856C35.566 23 35.11 23.072 34.646 23.072C33.782 23.072 33.118 22.856 32.654 22.424C32.19 21.992 31.958 21.384 31.958 20.6C31.958 20.264 31.99 19.944 32.054 19.64L33.734 11.24H31.382L31.502 10.544H33.854L34.406 7.808H35.198L34.646 10.544H38.75L38.63 11.24H34.526L32.87 19.544ZM43.2524 13.448C44.3724 11.448 46.1804 10.448 48.6764 10.448L48.5324 11.24H48.2444C46.7564 11.24 45.5404 11.688 44.5964 12.584C43.6524 13.48 43.0044 14.8 42.6524 16.544L41.3564 23H40.5644L43.0364 10.544H43.8284L43.2524 13.448ZM62.861 10.544L60.389 23H59.597L60.173 20.168C59.565 21.08 58.781 21.792 57.821 22.304C56.861 22.816 55.789 23.072 54.605 23.072C52.973 23.072 51.669 22.616 50.693 21.704C49.733 20.776 49.253 19.528 49.253 17.96C49.253 16.536 49.557 15.256 50.165 14.12C50.773 12.984 51.613 12.088 52.685 11.432C53.757 10.776 54.965 10.448 56.309 10.448C57.701 10.448 58.829 10.768 59.693 11.408C60.557 12.048 61.109 12.952 61.349 14.12L62.069 10.544H62.861ZM54.749 22.352C55.933 22.352 56.989 22.064 57.917 21.488C58.861 20.912 59.597 20.112 60.125 19.088C60.669 18.048 60.941 16.888 60.941 15.608C60.941 14.2 60.525 13.112 59.693 12.344C58.877 11.576 57.733 11.192 56.261 11.192C55.077 11.192 54.013 11.488 53.069 12.08C52.125 12.656 51.381 13.456 50.837 14.48C50.309 15.504 50.045 16.656 50.045 17.936C50.045 19.344 50.453 20.432 51.269 21.2C52.101 21.968 53.261 22.352 54.749 22.352ZM65.9054 16.256H71.9774L71.8334 16.976H65.7614L65.9054 16.256ZM78.3821 5.192H79.1741L75.6221 23H74.8301L78.3821 5.192ZM83.4193 10.544H84.2113L81.7393 23H80.9473L83.4193 10.544ZM84.5713 7.28C84.3633 7.28 84.1873 7.208 84.0433 7.064C83.9153 6.92 83.8513 6.752 83.8513 6.56C83.8513 6.336 83.9313 6.144 84.0913 5.984C84.2513 5.808 84.4433 5.72 84.6673 5.72C84.8753 5.72 85.0513 5.792 85.1953 5.936C85.3393 6.08 85.4113 6.248 85.4113 6.44C85.4113 6.664 85.3233 6.864 85.1473 7.04C84.9873 7.2 84.7953 7.28 84.5713 7.28ZM100.552 10.544L98.3204 21.8C97.9044 23.88 97.1364 25.384 96.0164 26.312C94.9124 27.256 93.3604 27.728 91.3604 27.728C90.2244 27.728 89.2004 27.552 88.2884 27.2C87.3924 26.848 86.6564 26.352 86.0804 25.712L86.6564 25.136C87.1364 25.744 87.7924 26.208 88.6244 26.528C89.4564 26.848 90.3844 27.008 91.4084 27.008C93.1524 27.008 94.5124 26.592 95.4884 25.76C96.4804 24.944 97.1524 23.664 97.5044 21.92L97.9844 19.568C97.3764 20.496 96.5764 21.232 95.5844 21.776C94.5924 22.304 93.4804 22.568 92.2484 22.568C90.5844 22.568 89.2644 22.128 88.2884 21.248C87.3124 20.368 86.8244 19.176 86.8244 17.672C86.8244 16.312 87.1284 15.08 87.7364 13.976C88.3444 12.872 89.1844 12.008 90.2564 11.384C91.3444 10.76 92.5684 10.448 93.9284 10.448C95.3364 10.448 96.4884 10.768 97.3844 11.408C98.2804 12.048 98.8404 12.952 99.0644 14.12L99.7844 10.544H100.552ZM92.3444 21.848C93.5284 21.848 94.6004 21.568 95.5604 21.008C96.5204 20.448 97.2644 19.68 97.7924 18.704C98.3364 17.728 98.6084 16.632 98.6084 15.416C98.6084 14.072 98.1924 13.032 97.3604 12.296C96.5444 11.56 95.3844 11.192 93.8804 11.192C92.6964 11.192 91.6244 11.472 90.6644 12.032C89.7204 12.592 88.9764 13.36 88.4324 14.336C87.8884 15.312 87.6164 16.408 87.6164 17.624C87.6164 18.968 88.0324 20.008 88.8644 20.744C89.6964 21.48 90.8564 21.848 92.3444 21.848ZM111.466 10.448C112.89 10.448 113.978 10.8 114.73 11.504C115.482 12.192 115.858 13.144 115.858 14.36C115.858 14.776 115.81 15.224 115.714 15.704L114.25 23H113.458L114.922 15.704C115.002 15.336 115.042 14.928 115.042 14.48C115.042 13.424 114.722 12.616 114.082 12.056C113.458 11.48 112.53 11.192 111.298 11.192C109.778 11.192 108.514 11.616 107.506 12.464C106.498 13.312 105.834 14.536 105.514 16.136L104.146 23H103.354L106.906 5.192H107.698L106.09 13.208C106.682 12.28 107.434 11.592 108.346 11.144C109.274 10.68 110.314 10.448 111.466 10.448ZM121.136 19.544C121.056 19.944 121.016 20.264 121.016 20.504C121.016 21.752 121.696 22.376 123.056 22.376C123.84 22.376 124.544 22.128 125.168 21.632L125.48 22.208C125.128 22.496 124.728 22.712 124.28 22.856C123.832 23 123.376 23.072 122.912 23.072C122.048 23.072 121.384 22.856 120.92 22.424C120.456 21.992 120.224 21.384 120.224 20.6C120.224 20.264 120.256 19.944 120.32 19.64L122 11.24H119.648L119.768 10.544H122.12L122.672 7.808H123.464L122.912 10.544H127.016L126.896 11.24H122.792L121.136 19.544ZM138.668 6.2H139.484L136.124 23H135.308L138.668 6.2ZM143.565 19.544C143.485 19.944 143.445 20.264 143.445 20.504C143.445 21.752 144.125 22.376 145.485 22.376C146.269 22.376 146.973 22.128 147.597 21.632L147.909 22.208C147.557 22.496 147.157 22.712 146.709 22.856C146.261 23 145.805 23.072 145.341 23.072C144.477 23.072 143.813 22.856 143.349 22.424C142.885 21.992 142.653 21.384 142.653 20.6C142.653 20.264 142.685 19.944 142.749 19.64L144.429 11.24H142.077L142.197 10.544H144.549L145.101 7.808H145.893L145.341 10.544H149.445L149.325 11.24H145.221L143.565 19.544ZM164.111 10.544L161.639 23H160.847L161.423 20.168C160.815 21.08 160.031 21.792 159.071 22.304C158.111 22.816 157.039 23.072 155.855 23.072C154.223 23.072 152.919 22.616 151.943 21.704C150.983 20.776 150.503 19.528 150.503 17.96C150.503 16.536 150.807 15.256 151.415 14.12C152.023 12.984 152.863 12.088 153.935 11.432C155.007 10.776 156.215 10.448 157.559 10.448C158.951 10.448 160.079 10.768 160.943 11.408C161.807 12.048 162.359 12.952 162.599 14.12L163.319 10.544H164.111ZM155.999 22.352C157.183 22.352 158.239 22.064 159.167 21.488C160.111 20.912 160.847 20.112 161.375 19.088C161.919 18.048 162.191 16.888 162.191 15.608C162.191 14.2 161.775 13.112 160.943 12.344C160.127 11.576 158.983 11.192 157.511 11.192C156.327 11.192 155.263 11.488 154.319 12.08C153.375 12.656 152.631 13.456 152.087 14.48C151.559 15.504 151.295 16.656 151.295 17.936C151.295 19.344 151.703 20.432 152.519 21.2C153.351 21.968 154.511 22.352 155.999 22.352ZM170.491 5.192H171.283L167.731 23H166.939L170.491 5.192ZM175.529 10.544H176.321L173.849 23H173.057L175.529 10.544ZM176.681 7.28C176.473 7.28 176.297 7.208 176.153 7.064C176.025 6.92 175.961 6.752 175.961 6.56C175.961 6.336 176.041 6.144 176.201 5.984C176.361 5.808 176.553 5.72 176.777 5.72C176.985 5.72 177.161 5.792 177.305 5.936C177.449 6.08 177.521 6.248 177.521 6.44C177.521 6.664 177.433 6.864 177.257 7.04C177.097 7.2 176.905 7.28 176.681 7.28ZM184.406 23.072C182.694 23.072 181.342 22.616 180.35 21.704C179.374 20.792 178.886 19.544 178.886 17.96C178.886 16.536 179.19 15.256 179.798 14.12C180.406 12.968 181.246 12.072 182.318 11.432C183.406 10.776 184.63 10.448 185.99 10.448C187.062 10.448 187.99 10.64 188.774 11.024C189.558 11.392 190.158 11.936 190.574 12.656L189.95 13.088C189.15 11.824 187.814 11.192 185.942 11.192C184.758 11.192 183.686 11.488 182.726 12.08C181.766 12.656 181.014 13.456 180.47 14.48C179.942 15.504 179.678 16.656 179.678 17.936C179.678 19.344 180.094 20.432 180.926 21.2C181.758 21.968 182.942 22.352 184.478 22.352C185.342 22.352 186.15 22.192 186.902 21.872C187.654 21.552 188.278 21.096 188.774 20.504L189.302 20.984C188.774 21.64 188.07 22.152 187.19 22.52C186.326 22.888 185.398 23.072 184.406 23.072ZM198.2 22.256H208.28L208.136 23H196.76L196.88 22.424L205.64 15.224C206.92 14.152 207.808 13.224 208.304 12.44C208.8 11.656 209.048 10.832 209.048 9.968C209.048 8.992 208.704 8.232 208.016 7.688C207.328 7.128 206.296 6.848 204.92 6.848C203.912 6.848 202.96 7.024 202.064 7.376C201.168 7.728 200.424 8.224 199.832 8.864L199.256 8.336C199.944 7.632 200.784 7.088 201.776 6.704C202.784 6.304 203.856 6.104 204.992 6.104C206.576 6.104 207.776 6.448 208.592 7.136C209.424 7.808 209.84 8.728 209.84 9.896C209.84 10.872 209.568 11.808 209.024 12.704C208.48 13.6 207.536 14.6 206.192 15.704L198.2 22.256ZM216.986 23.096C215.37 23.096 214.106 22.568 213.194 21.512C212.282 20.456 211.826 19 211.826 17.144C211.826 15.256 212.162 13.472 212.834 11.792C213.522 10.096 214.49 8.728 215.738 7.688C217.002 6.632 218.458 6.104 220.106 6.104C221.722 6.104 222.986 6.632 223.898 7.688C224.81 8.744 225.266 10.2 225.266 12.056C225.266 13.944 224.922 15.736 224.234 17.432C223.562 19.112 222.594 20.48 221.33 21.536C220.082 22.576 218.634 23.096 216.986 23.096ZM217.082 22.352C218.57 22.352 219.874 21.848 220.994 20.84C222.13 19.832 222.994 18.536 223.586 16.952C224.194 15.368 224.498 13.736 224.498 12.056C224.498 10.408 224.106 9.128 223.322 8.216C222.538 7.304 221.434 6.848 220.01 6.848C218.522 6.848 217.21 7.352 216.074 8.36C214.954 9.368 214.09 10.664 213.482 12.248C212.89 13.832 212.594 15.464 212.594 17.144C212.594 18.792 212.986 20.072 213.77 20.984C214.554 21.896 215.658 22.352 217.082 22.352ZM232.689 23.096C231.073 23.096 229.809 22.568 228.897 21.512C227.985 20.456 227.529 19 227.529 17.144C227.529 15.256 227.865 13.472 228.537 11.792C229.225 10.096 230.193 8.728 231.441 7.688C232.705 6.632 234.161 6.104 235.809 6.104C237.425 6.104 238.689 6.632 239.601 7.688C240.513 8.744 240.969 10.2 240.969 12.056C240.969 13.944 240.625 15.736 239.937 17.432C239.265 19.112 238.297 20.48 237.033 21.536C235.785 22.576 234.337 23.096 232.689 23.096ZM232.785 22.352C234.273 22.352 235.577 21.848 236.697 20.84C237.833 19.832 238.697 18.536 239.289 16.952C239.897 15.368 240.201 13.736 240.201 12.056C240.201 10.408 239.809 9.128 239.025 8.216C238.241 7.304 237.137 6.848 235.713 6.848C234.225 6.848 232.913 7.352 231.777 8.36C230.657 9.368 229.793 10.664 229.185 12.248C228.593 13.832 228.297 15.464 228.297 17.144C228.297 18.792 228.689 20.072 229.473 20.984C230.257 21.896 231.361 22.352 232.785 22.352ZM15.176 47.08H5.072L1.832 52H0.92L12.056 35.2H12.848L17.264 52H16.448L15.176 47.08ZM14.984 46.384L12.32 36.088L5.528 46.384H14.984ZM23.6789 34.192H24.4709L20.9189 52H20.1269L23.6789 34.192ZM43.9561 39.448C45.3641 39.448 46.4281 39.8 47.1481 40.504C47.8841 41.192 48.2521 42.144 48.2521 43.36C48.2521 43.776 48.2041 44.224 48.1081 44.704L46.6441 52H45.8521L47.3161 44.704C47.4121 44.24 47.4601 43.816 47.4601 43.432C47.4601 42.408 47.1481 41.616 46.5241 41.056C45.9161 40.48 45.0201 40.192 43.8361 40.192C42.3961 40.192 41.1801 40.592 40.1881 41.392C39.2121 42.176 38.5801 43.312 38.2921 44.8L36.8281 52H36.0361L37.5001 44.704C37.5961 44.24 37.6441 43.816 37.6441 43.432C37.6441 42.392 37.3401 41.592 36.7321 41.032C36.1241 40.472 35.2281 40.192 34.0441 40.192C32.5721 40.192 31.3401 40.616 30.3481 41.464C29.3721 42.312 28.7241 43.536 28.4041 45.136L27.0361 52H26.2441L28.7161 39.544H29.5081L28.9801 42.208C30.1481 40.368 31.8841 39.448 34.1881 39.448C35.4041 39.448 36.3641 39.72 37.0681 40.264C37.7881 40.808 38.2281 41.568 38.3881 42.544C38.9961 41.52 39.7721 40.752 40.7161 40.24C41.6761 39.712 42.7561 39.448 43.9561 39.448ZM56.9733 52.072C55.3093 52.072 53.9893 51.616 53.0133 50.704C52.0533 49.776 51.5733 48.528 51.5733 46.96C51.5733 45.536 51.8773 44.256 52.4853 43.12C53.0933 41.984 53.9333 41.088 55.0053 40.432C56.0773 39.776 57.2933 39.448 58.6533 39.448C60.3013 39.448 61.6133 39.912 62.5893 40.84C63.5653 41.768 64.0533 43.016 64.0533 44.584C64.0533 46.008 63.7493 47.288 63.1413 48.424C62.5333 49.56 61.6933 50.456 60.6213 51.112C59.5493 51.752 58.3333 52.072 56.9733 52.072ZM57.0693 51.352C58.2533 51.352 59.3093 51.064 60.2373 50.488C61.1813 49.912 61.9173 49.112 62.4453 48.088C62.9893 47.048 63.2613 45.888 63.2613 44.608C63.2613 43.2 62.8453 42.112 62.0133 41.344C61.1973 40.576 60.0533 40.192 58.5813 40.192C57.3973 40.192 56.3333 40.488 55.3893 41.08C54.4453 41.656 53.7013 42.456 53.1573 43.48C52.6293 44.504 52.3653 45.656 52.3653 46.936C52.3653 48.344 52.7733 49.432 53.5893 50.2C54.4213 50.968 55.5813 51.352 57.0693 51.352ZM69.7955 52.072C68.8515 52.072 67.9395 51.928 67.0595 51.64C66.1955 51.336 65.5315 50.944 65.0675 50.464L65.5475 49.84C66.0275 50.304 66.6515 50.68 67.4195 50.968C68.1875 51.24 68.9955 51.376 69.8435 51.376C71.2195 51.376 72.2915 51.12 73.0595 50.608C73.8275 50.096 74.2115 49.392 74.2115 48.496C74.2115 47.984 74.0595 47.584 73.7555 47.296C73.4515 46.992 73.0755 46.768 72.6275 46.624C72.1795 46.464 71.5795 46.304 70.8275 46.144C69.9795 45.968 69.2915 45.792 68.7635 45.616C68.2515 45.424 67.8115 45.128 67.4435 44.728C67.0915 44.328 66.9155 43.792 66.9155 43.12C66.9155 42.016 67.3715 41.128 68.2835 40.456C69.2115 39.784 70.4355 39.448 71.9555 39.448C72.7395 39.448 73.4915 39.568 74.2115 39.808C74.9475 40.032 75.5315 40.336 75.9635 40.72L75.5315 41.32C75.0835 40.952 74.5395 40.672 73.8995 40.48C73.2595 40.272 72.5875 40.168 71.8835 40.168C70.6035 40.168 69.5875 40.432 68.8355 40.96C68.0835 41.488 67.7075 42.192 67.7075 43.072C67.7075 43.6 67.8595 44.016 68.1635 44.32C68.4675 44.624 68.8355 44.848 69.2675 44.992C69.7155 45.136 70.3395 45.296 71.1395 45.472C72.0035 45.664 72.6835 45.848 73.1795 46.024C73.6915 46.2 74.1235 46.48 74.4755 46.864C74.8275 47.248 75.0035 47.768 75.0035 48.424C75.0035 49.56 74.5315 50.456 73.5875 51.112C72.6595 51.752 71.3955 52.072 69.7955 52.072ZM79.5809 48.544C79.5009 48.944 79.4609 49.264 79.4609 49.504C79.4609 50.752 80.1409 51.376 81.5009 51.376C82.2849 51.376 82.9889 51.128 83.6129 50.632L83.9249 51.208C83.5729 51.496 83.1729 51.712 82.7249 51.856C82.2769 52 81.8209 52.072 81.3569 52.072C80.4929 52.072 79.8289 51.856 79.3649 51.424C78.9009 50.992 78.6689 50.384 78.6689 49.6C78.6689 49.264 78.7009 48.944 78.7649 48.64L80.4449 40.24H78.0929L78.2129 39.544H80.5649L81.1169 36.808H81.9089L81.3569 39.544H85.4609L85.3409 40.24H81.2369L79.5809 48.544ZM101.602 39.448C103.234 39.448 104.53 39.912 105.49 40.84C106.466 41.752 106.954 43 106.954 44.584C106.954 45.992 106.65 47.272 106.042 48.424C105.434 49.56 104.594 50.456 103.522 51.112C102.45 51.752 101.242 52.072 99.8977 52.072C98.5057 52.072 97.3697 51.752 96.4897 51.112C95.6257 50.472 95.0737 49.56 94.8337 48.376L94.1137 52H93.3457L96.8977 34.192H97.6897L96.0577 42.328C96.6817 41.416 97.4657 40.712 98.4097 40.216C99.3697 39.704 100.434 39.448 101.602 39.448ZM99.9457 51.352C101.13 51.352 102.194 51.064 103.138 50.488C104.082 49.896 104.818 49.088 105.346 48.064C105.89 47.04 106.162 45.888 106.162 44.608C106.162 43.2 105.746 42.112 104.914 41.344C104.098 40.576 102.946 40.192 101.458 40.192C100.274 40.192 99.2097 40.48 98.2657 41.056C97.3377 41.632 96.6017 42.44 96.0577 43.48C95.5297 44.504 95.2657 45.656 95.2657 46.936C95.2657 48.344 95.6737 49.432 96.4897 50.2C97.3217 50.968 98.4737 51.352 99.9457 51.352ZM110.046 45.88C110.014 46.328 109.998 46.664 109.998 46.888C109.998 48.328 110.414 49.432 111.246 50.2C112.078 50.968 113.286 51.352 114.87 51.352C115.766 51.352 116.598 51.2 117.366 50.896C118.134 50.576 118.774 50.136 119.286 49.576L119.67 50.128C119.158 50.736 118.47 51.216 117.606 51.568C116.742 51.904 115.806 52.072 114.798 52.072C113.054 52.072 111.686 51.624 110.694 50.728C109.718 49.816 109.23 48.544 109.23 46.912C109.23 45.52 109.518 44.256 110.094 43.12C110.686 41.968 111.494 41.072 112.518 40.432C113.542 39.776 114.686 39.448 115.95 39.448C117.55 39.448 118.806 39.904 119.718 40.816C120.646 41.728 121.11 42.984 121.11 44.584C121.11 45.016 121.07 45.448 120.99 45.88H110.046ZM115.926 40.168C114.486 40.168 113.238 40.632 112.182 41.56C111.142 42.488 110.47 43.704 110.166 45.208H120.342C120.374 44.856 120.39 44.6 120.39 44.44C120.39 43.096 119.982 42.048 119.166 41.296C118.35 40.544 117.27 40.168 115.926 40.168ZM130.609 34.12C131.089 34.12 131.537 34.2 131.953 34.36C132.385 34.504 132.721 34.712 132.961 34.984L132.505 35.536C132.057 35.056 131.417 34.816 130.585 34.816C129.753 34.816 129.097 35.032 128.617 35.464C128.137 35.896 127.801 36.584 127.609 37.528L127.201 39.544H131.305L131.185 40.24H127.081L124.729 52H123.937L126.289 40.24H123.937L124.057 39.544H126.433L126.865 37.384C127.073 36.312 127.489 35.504 128.113 34.96C128.753 34.4 129.585 34.12 130.609 34.12ZM136.239 52.072C134.575 52.072 133.255 51.616 132.279 50.704C131.319 49.776 130.839 48.528 130.839 46.96C130.839 45.536 131.143 44.256 131.751 43.12C132.359 41.984 133.199 41.088 134.271 40.432C135.343 39.776 136.559 39.448 137.919 39.448C139.567 39.448 140.879 39.912 141.855 40.84C142.831 41.768 143.319 43.016 143.319 44.584C143.319 46.008 143.015 47.288 142.407 48.424C141.799 49.56 140.959 50.456 139.887 51.112C138.815 51.752 137.599 52.072 136.239 52.072ZM136.335 51.352C137.519 51.352 138.575 51.064 139.503 50.488C140.447 49.912 141.183 49.112 141.711 48.088C142.255 47.048 142.527 45.888 142.527 44.608C142.527 43.2 142.111 42.112 141.279 41.344C140.463 40.576 139.319 40.192 137.847 40.192C136.663 40.192 135.599 40.488 134.655 41.08C133.711 41.656 132.967 42.456 132.423 43.48C131.895 44.504 131.631 45.656 131.631 46.936C131.631 48.344 132.039 49.432 132.855 50.2C133.687 50.968 134.847 51.352 136.335 51.352ZM148.557 42.448C149.677 40.448 151.485 39.448 153.981 39.448L153.837 40.24H153.549C152.061 40.24 150.845 40.688 149.901 41.584C148.957 42.48 148.309 43.8 147.957 45.544L146.661 52H145.869L148.341 39.544H149.133L148.557 42.448ZM155.398 45.88C155.366 46.328 155.35 46.664 155.35 46.888C155.35 48.328 155.766 49.432 156.598 50.2C157.43 50.968 158.638 51.352 160.222 51.352C161.118 51.352 161.95 51.2 162.718 50.896C163.486 50.576 164.126 50.136 164.638 49.576L165.022 50.128C164.51 50.736 163.822 51.216 162.958 51.568C162.094 51.904 161.158 52.072 160.15 52.072C158.406 52.072 157.038 51.624 156.046 50.728C155.07 49.816 154.582 48.544 154.582 46.912C154.582 45.52 154.87 44.256 155.446 43.12C156.038 41.968 156.846 41.072 157.87 40.432C158.894 39.776 160.038 39.448 161.302 39.448C162.902 39.448 164.158 39.904 165.07 40.816C165.998 41.728 166.462 42.984 166.462 44.584C166.462 45.016 166.422 45.448 166.342 45.88H155.398ZM161.278 40.168C159.838 40.168 158.59 40.632 157.534 41.56C156.494 42.488 155.822 43.704 155.518 45.208H165.694C165.726 44.856 165.742 44.6 165.742 44.44C165.742 43.096 165.334 42.048 164.518 41.296C163.702 40.544 162.622 40.168 161.278 40.168ZM195.135 39.544L188.079 52H187.335L184.935 40.624L178.407 52H177.663L175.119 39.544H175.863L178.167 51.088L184.767 39.544H185.439L187.839 51.064L194.319 39.544H195.135ZM195.64 45.88C195.608 46.328 195.592 46.664 195.592 46.888C195.592 48.328 196.008 49.432 196.84 50.2C197.672 50.968 198.88 51.352 200.464 51.352C201.36 51.352 202.192 51.2 202.96 50.896C203.728 50.576 204.368 50.136 204.88 49.576L205.264 50.128C204.752 50.736 204.064 51.216 203.2 51.568C202.336 51.904 201.4 52.072 200.392 52.072C198.648 52.072 197.28 51.624 196.288 50.728C195.312 49.816 194.824 48.544 194.824 46.912C194.824 45.52 195.112 44.256 195.688 43.12C196.28 41.968 197.088 41.072 198.112 40.432C199.136 39.776 200.28 39.448 201.544 39.448C203.144 39.448 204.4 39.904 205.312 40.816C206.24 41.728 206.704 42.984 206.704 44.584C206.704 45.016 206.664 45.448 206.584 45.88H195.64ZM201.52 40.168C200.08 40.168 198.832 40.632 197.776 41.56C196.736 42.488 196.064 43.704 195.76 45.208H205.936C205.968 44.856 205.984 44.6 205.984 44.44C205.984 43.096 205.576 42.048 204.76 41.296C203.944 40.544 202.864 40.168 201.52 40.168ZM221.697 44.56L226.209 52H225.273L221.073 45.04L216.921 48.232L216.177 52H215.385L218.937 34.192H219.729L217.137 47.176L227.001 39.544H228.177L221.697 44.56ZM236.856 39.448C238.28 39.448 239.368 39.8 240.12 40.504C240.872 41.192 241.248 42.144 241.248 43.36C241.248 43.776 241.2 44.224 241.104 44.704L239.64 52H238.848L240.312 44.704C240.392 44.336 240.432 43.928 240.432 43.48C240.432 42.424 240.112 41.616 239.472 41.056C238.848 40.48 237.92 40.192 236.688 40.192C235.168 40.192 233.904 40.616 232.896 41.464C231.888 42.312 231.224 43.536 230.904 45.136L229.536 52H228.744L231.216 39.544H232.008L231.48 42.232C232.072 41.288 232.824 40.592 233.736 40.144C234.664 39.68 235.704 39.448 236.856 39.448ZM245.398 45.88C245.366 46.328 245.35 46.664 245.35 46.888C245.35 48.328 245.766 49.432 246.598 50.2C247.43 50.968 248.638 51.352 250.222 51.352C251.118 51.352 251.95 51.2 252.718 50.896C253.486 50.576 254.126 50.136 254.638 49.576L255.022 50.128C254.51 50.736 253.822 51.216 252.958 51.568C252.094 51.904 251.158 52.072 250.15 52.072C248.406 52.072 247.038 51.624 246.046 50.728C245.07 49.816 244.582 48.544 244.582 46.912C244.582 45.52 244.87 44.256 245.446 43.12C246.038 41.968 246.846 41.072 247.87 40.432C248.894 39.776 250.038 39.448 251.302 39.448C252.902 39.448 254.158 39.904 255.07 40.816C255.998 41.728 256.462 42.984 256.462 44.584C256.462 45.016 256.422 45.448 256.342 45.88H245.398ZM251.278 40.168C249.838 40.168 248.59 40.632 247.534 41.56C246.494 42.488 245.822 43.704 245.518 45.208H255.694C255.726 44.856 255.742 44.6 255.742 44.44C255.742 43.096 255.334 42.048 254.518 41.296C253.702 40.544 252.622 40.168 251.278 40.168ZM278.83 39.544L271.774 52H271.03L268.63 40.624L262.102 52H261.358L258.814 39.544H259.558L261.862 51.088L268.462 39.544H269.134L271.534 51.064L278.014 39.544H278.83ZM287.677 39.544H288.469L285.997 52H285.205L287.677 39.544ZM288.829 36.28C288.621 36.28 288.445 36.208 288.301 36.064C288.173 35.92 288.109 35.752 288.109 35.56C288.109 35.336 288.189 35.144 288.349 34.984C288.509 34.808 288.701 34.72 288.925 34.72C289.133 34.72 289.309 34.792 289.453 34.936C289.597 35.08 289.669 35.248 289.669 35.44C289.669 35.664 289.581 35.864 289.405 36.04C289.245 36.2 289.053 36.28 288.829 36.28ZM293.026 48.544C292.946 48.944 292.906 49.264 292.906 49.504C292.906 50.752 293.586 51.376 294.946 51.376C295.73 51.376 296.434 51.128 297.058 50.632L297.37 51.208C297.018 51.496 296.618 51.712 296.17 51.856C295.722 52 295.266 52.072 294.802 52.072C293.938 52.072 293.274 51.856 292.81 51.424C292.346 50.992 292.114 50.384 292.114 49.6C292.114 49.264 292.146 48.944 292.21 48.64L293.89 40.24H291.538L291.658 39.544H294.01L294.562 36.808H295.354L294.802 39.544H298.906L298.786 40.24H294.682L293.026 48.544ZM300.739 50.488C300.947 50.488 301.123 50.568 301.267 50.728C301.427 50.888 301.507 51.072 301.507 51.28C301.507 51.44 301.467 51.608 301.387 51.784C301.307 51.96 301.259 52.072 301.243 52.12L299.683 55.384H299.059L300.475 52.048C300.315 52 300.179 51.912 300.067 51.784C299.971 51.64 299.923 51.48 299.923 51.304C299.923 51.08 300.003 50.888 300.163 50.728C300.323 50.568 300.515 50.488 300.739 50.488ZM331.588 39.544L324.532 52H323.788L321.388 40.624L314.86 52H314.116L311.572 39.544H312.316L314.62 51.088L321.22 39.544H321.892L324.292 51.064L330.772 39.544H331.588ZM332.093 45.88C332.061 46.328 332.045 46.664 332.045 46.888C332.045 48.328 332.461 49.432 333.293 50.2C334.125 50.968 335.333 51.352 336.917 51.352C337.813 51.352 338.645 51.2 339.413 50.896C340.181 50.576 340.821 50.136 341.333 49.576L341.717 50.128C341.205 50.736 340.517 51.216 339.653 51.568C338.789 51.904 337.853 52.072 336.845 52.072C335.101 52.072 333.733 51.624 332.741 50.728C331.765 49.816 331.277 48.544 331.277 46.912C331.277 45.52 331.565 44.256 332.141 43.12C332.733 41.968 333.541 41.072 334.565 40.432C335.589 39.776 336.733 39.448 337.997 39.448C339.597 39.448 340.853 39.904 341.765 40.816C342.693 41.728 343.157 42.984 343.157 44.584C343.157 45.016 343.117 45.448 343.037 45.88H332.093ZM337.973 40.168C336.533 40.168 335.285 40.632 334.229 41.56C333.189 42.488 332.517 43.704 332.213 45.208H342.389C342.421 44.856 342.437 44.6 342.437 44.44C342.437 43.096 342.029 42.048 341.213 41.296C340.397 40.544 339.317 40.168 337.973 40.168ZM359.95 39.448C361.374 39.448 362.462 39.8 363.214 40.504C363.966 41.192 364.342 42.144 364.342 43.36C364.342 43.776 364.294 44.224 364.198 44.704L362.734 52H361.942L363.406 44.704C363.486 44.336 363.526 43.928 363.526 43.48C363.526 42.424 363.206 41.616 362.566 41.056C361.942 40.48 361.014 40.192 359.782 40.192C358.262 40.192 356.998 40.616 355.99 41.464C354.982 42.312 354.318 43.536 353.998 45.136L352.63 52H351.838L355.39 34.192H356.182L354.574 42.208C355.166 41.28 355.918 40.592 356.83 40.144C357.758 39.68 358.798 39.448 359.95 39.448ZM381.259 39.544L378.787 52H377.995L378.571 49.168C377.963 50.08 377.179 50.792 376.219 51.304C375.259 51.816 374.187 52.072 373.003 52.072C371.371 52.072 370.067 51.616 369.091 50.704C368.131 49.776 367.651 48.528 367.651 46.96C367.651 45.536 367.955 44.256 368.563 43.12C369.171 41.984 370.011 41.088 371.083 40.432C372.155 39.776 373.363 39.448 374.707 39.448C376.099 39.448 377.227 39.768 378.091 40.408C378.955 41.048 379.507 41.952 379.747 43.12L380.467 39.544H381.259ZM373.147 51.352C374.331 51.352 375.387 51.064 376.315 50.488C377.259 49.912 377.995 49.112 378.523 48.088C379.067 47.048 379.339 45.888 379.339 44.608C379.339 43.2 378.923 42.112 378.091 41.344C377.275 40.576 376.131 40.192 374.659 40.192C373.475 40.192 372.411 40.488 371.467 41.08C370.523 41.656 369.779 42.456 369.235 43.48C368.707 44.504 368.443 45.656 368.443 46.936C368.443 48.344 368.851 49.432 369.667 50.2C370.499 50.968 371.659 51.352 373.147 51.352ZM398.488 34.192L394.936 52H394.144L394.72 49.168C394.112 50.08 393.328 50.792 392.368 51.304C391.408 51.816 390.336 52.072 389.152 52.072C387.52 52.072 386.216 51.616 385.24 50.704C384.28 49.776 383.8 48.528 383.8 46.96C383.8 45.536 384.104 44.256 384.712 43.12C385.32 41.984 386.16 41.088 387.232 40.432C388.304 39.776 389.512 39.448 390.856 39.448C392.248 39.448 393.376 39.768 394.24 40.408C395.104 41.048 395.656 41.96 395.896 43.144L397.696 34.192H398.488ZM389.296 51.352C390.48 51.352 391.536 51.064 392.464 50.488C393.408 49.912 394.144 49.112 394.672 48.088C395.216 47.048 395.488 45.888 395.488 44.608C395.488 43.2 395.072 42.112 394.24 41.344C393.424 40.576 392.28 40.192 390.808 40.192C389.624 40.192 388.56 40.488 387.616 41.08C386.672 41.656 385.928 42.456 385.384 43.48C384.856 44.504 384.592 45.656 384.592 46.936C384.592 48.344 385 49.432 385.816 50.2C386.648 50.968 387.808 51.352 389.296 51.352ZM409.859 34.192H410.651L407.099 52H406.307L409.859 34.192ZM412.976 45.88C412.944 46.328 412.928 46.664 412.928 46.888C412.928 48.328 413.344 49.432 414.176 50.2C415.008 50.968 416.216 51.352 417.8 51.352C418.696 51.352 419.528 51.2 420.296 50.896C421.064 50.576 421.704 50.136 422.216 49.576L422.6 50.128C422.088 50.736 421.4 51.216 420.536 51.568C419.672 51.904 418.736 52.072 417.728 52.072C415.984 52.072 414.616 51.624 413.624 50.728C412.648 49.816 412.16 48.544 412.16 46.912C412.16 45.52 412.448 44.256 413.024 43.12C413.616 41.968 414.424 41.072 415.448 40.432C416.472 39.776 417.616 39.448 418.88 39.448C420.48 39.448 421.736 39.904 422.648 40.816C423.576 41.728 424.04 42.984 424.04 44.584C424.04 45.016 424 45.448 423.92 45.88H412.976ZM418.856 40.168C417.416 40.168 416.168 40.632 415.112 41.56C414.072 42.488 413.4 43.704 413.096 45.208H423.272C423.304 44.856 423.32 44.6 423.32 44.44C423.32 43.096 422.912 42.048 422.096 41.296C421.28 40.544 420.2 40.168 418.856 40.168ZM433.538 34.12C434.018 34.12 434.466 34.2 434.882 34.36C435.314 34.504 435.65 34.712 435.89 34.984L435.434 35.536C434.986 35.056 434.346 34.816 433.514 34.816C432.682 34.816 432.026 35.032 431.546 35.464C431.066 35.896 430.73 36.584 430.538 37.528L430.13 39.544H434.234L434.114 40.24H430.01L427.658 52H426.866L429.218 40.24H426.866L426.986 39.544H429.362L429.794 37.384C430.002 36.312 430.418 35.504 431.042 34.96C431.682 34.4 432.514 34.12 433.538 34.12ZM435.995 48.544C435.915 48.944 435.875 49.264 435.875 49.504C435.875 50.752 436.555 51.376 437.915 51.376C438.699 51.376 439.403 51.128 440.027 50.632L440.339 51.208C439.987 51.496 439.587 51.712 439.139 51.856C438.691 52 438.235 52.072 437.771 52.072C436.907 52.072 436.243 51.856 435.779 51.424C435.315 50.992 435.083 50.384 435.083 49.6C435.083 49.264 435.115 48.944 435.179 48.64L436.859 40.24H434.507L434.627 39.544H436.979L437.531 36.808H438.323L437.771 39.544H441.875L441.755 40.24H437.651L435.995 48.544ZM451.464 48.544C451.384 48.944 451.344 49.264 451.344 49.504C451.344 50.752 452.024 51.376 453.384 51.376C454.168 51.376 454.872 51.128 455.496 50.632L455.808 51.208C455.456 51.496 455.056 51.712 454.608 51.856C454.16 52 453.704 52.072 453.24 52.072C452.376 52.072 451.712 51.856 451.248 51.424C450.784 50.992 450.552 50.384 450.552 49.6C450.552 49.264 450.584 48.944 450.648 48.64L452.328 40.24H449.976L450.096 39.544H452.448L453 36.808H453.792L453.24 39.544H457.344L457.224 40.24H453.12L451.464 48.544ZM467.27 39.448C468.694 39.448 469.782 39.8 470.534 40.504C471.286 41.192 471.662 42.144 471.662 43.36C471.662 43.776 471.614 44.224 471.518 44.704L470.054 52H469.262L470.726 44.704C470.806 44.336 470.846 43.928 470.846 43.48C470.846 42.424 470.526 41.616 469.886 41.056C469.262 40.48 468.334 40.192 467.102 40.192C465.582 40.192 464.318 40.616 463.31 41.464C462.302 42.312 461.638 43.536 461.318 45.136L459.95 52H459.158L462.71 34.192H463.502L461.894 42.208C462.486 41.28 463.238 40.592 464.15 40.144C465.078 39.68 466.118 39.448 467.27 39.448ZM475.812 45.88C475.78 46.328 475.764 46.664 475.764 46.888C475.764 48.328 476.18 49.432 477.012 50.2C477.844 50.968 479.052 51.352 480.636 51.352C481.532 51.352 482.364 51.2 483.132 50.896C483.9 50.576 484.54 50.136 485.052 49.576L485.436 50.128C484.924 50.736 484.236 51.216 483.372 51.568C482.508 51.904 481.572 52.072 480.564 52.072C478.82 52.072 477.452 51.624 476.46 50.728C475.484 49.816 474.996 48.544 474.996 46.912C474.996 45.52 475.284 44.256 475.86 43.12C476.452 41.968 477.26 41.072 478.284 40.432C479.308 39.776 480.452 39.448 481.716 39.448C483.316 39.448 484.572 39.904 485.484 40.816C486.412 41.728 486.876 42.984 486.876 44.584C486.876 45.016 486.836 45.448 486.756 45.88H475.812ZM481.692 40.168C480.252 40.168 479.004 40.632 477.948 41.56C476.908 42.488 476.236 43.704 475.932 45.208H486.108C486.14 44.856 486.156 44.6 486.156 44.44C486.156 43.096 485.748 42.048 484.932 41.296C484.116 40.544 483.036 40.168 481.692 40.168ZM509.045 39.544L506.813 50.8C506.397 52.88 505.629 54.384 504.509 55.312C503.405 56.256 501.853 56.728 499.853 56.728C498.717 56.728 497.693 56.552 496.781 56.2C495.885 55.848 495.149 55.352 494.573 54.712L495.149 54.136C495.629 54.744 496.285 55.208 497.117 55.528C497.949 55.848 498.877 56.008 499.901 56.008C501.645 56.008 503.005 55.592 503.981 54.76C504.973 53.944 505.645 52.664 505.997 50.92L506.477 48.568C505.869 49.496 505.069 50.232 504.077 50.776C503.085 51.304 501.973 51.568 500.741 51.568C499.077 51.568 497.757 51.128 496.781 50.248C495.805 49.368 495.317 48.176 495.317 46.672C495.317 45.312 495.621 44.08 496.229 42.976C496.837 41.872 497.677 41.008 498.749 40.384C499.837 39.76 501.061 39.448 502.421 39.448C503.829 39.448 504.981 39.768 505.877 40.408C506.773 41.048 507.333 41.952 507.557 43.12L508.277 39.544H509.045ZM500.837 50.848C502.021 50.848 503.093 50.568 504.053 50.008C505.013 49.448 505.757 48.68 506.285 47.704C506.829 46.728 507.101 45.632 507.101 44.416C507.101 43.072 506.685 42.032 505.853 41.296C505.037 40.56 503.877 40.192 502.373 40.192C501.189 40.192 500.117 40.472 499.157 41.032C498.213 41.592 497.469 42.36 496.925 43.336C496.381 44.312 496.109 45.408 496.109 46.624C496.109 47.968 496.525 49.008 497.357 49.744C498.189 50.48 499.349 50.848 500.837 50.848ZM514.534 42.448C515.654 40.448 517.462 39.448 519.958 39.448L519.814 40.24H519.526C518.038 40.24 516.822 40.688 515.878 41.584C514.934 42.48 514.286 43.8 513.934 45.544L512.638 52H511.846L514.318 39.544H515.11L514.534 42.448ZM525.934 52.072C524.27 52.072 522.95 51.616 521.974 50.704C521.014 49.776 520.534 48.528 520.534 46.96C520.534 45.536 520.838 44.256 521.446 43.12C522.054 41.984 522.894 41.088 523.966 40.432C525.038 39.776 526.254 39.448 527.614 39.448C529.262 39.448 530.574 39.912 531.55 40.84C532.526 41.768 533.014 43.016 533.014 44.584C533.014 46.008 532.71 47.288 532.102 48.424C531.494 49.56 530.654 50.456 529.582 51.112C528.51 51.752 527.294 52.072 525.934 52.072ZM526.03 51.352C527.214 51.352 528.27 51.064 529.198 50.488C530.142 49.912 530.878 49.112 531.406 48.088C531.95 47.048 532.222 45.888 532.222 44.608C532.222 43.2 531.806 42.112 530.974 41.344C530.158 40.576 529.014 40.192 527.542 40.192C526.358 40.192 525.294 40.488 524.35 41.08C523.406 41.656 522.662 42.456 522.118 43.48C521.59 44.504 521.326 45.656 521.326 46.936C521.326 48.344 521.734 49.432 522.55 50.2C523.382 50.968 524.542 51.352 526.03 51.352ZM548.716 39.544L546.244 52H545.476L546.028 49.264C545.436 50.208 544.676 50.912 543.748 51.376C542.836 51.84 541.804 52.072 540.652 52.072C539.244 52.072 538.172 51.728 537.436 51.04C536.7 50.352 536.332 49.4 536.332 48.184C536.332 47.752 536.38 47.296 536.476 46.816L537.916 39.544H538.708L537.268 46.84C537.172 47.288 537.124 47.712 537.124 48.112C537.124 49.152 537.436 49.952 538.06 50.512C538.684 51.072 539.604 51.352 540.82 51.352C542.34 51.352 543.596 50.928 544.588 50.08C545.58 49.232 546.244 48.008 546.58 46.408L547.924 39.544H548.716ZM559.661 39.448C561.085 39.448 562.173 39.8 562.925 40.504C563.677 41.192 564.053 42.144 564.053 43.36C564.053 43.776 564.005 44.224 563.909 44.704L562.445 52H561.653L563.117 44.704C563.197 44.336 563.237 43.928 563.237 43.48C563.237 42.424 562.917 41.616 562.277 41.056C561.653 40.48 560.725 40.192 559.493 40.192C557.973 40.192 556.709 40.616 555.701 41.464C554.693 42.312 554.029 43.536 553.709 45.136L552.341 52H551.549L554.021 39.544H554.813L554.285 42.232C554.877 41.288 555.629 40.592 556.541 40.144C557.469 39.68 558.509 39.448 559.661 39.448ZM582.05 34.192L578.498 52H577.706L578.282 49.168C577.674 50.08 576.89 50.792 575.93 51.304C574.97 51.816 573.898 52.072 572.714 52.072C571.082 52.072 569.778 51.616 568.802 50.704C567.842 49.776 567.362 48.528 567.362 46.96C567.362 45.536 567.666 44.256 568.274 43.12C568.882 41.984 569.722 41.088 570.794 40.432C571.866 39.776 573.074 39.448 574.418 39.448C575.81 39.448 576.938 39.768 577.802 40.408C578.666 41.048 579.218 41.96 579.458 43.144L581.258 34.192H582.05ZM572.858 51.352C574.042 51.352 575.098 51.064 576.026 50.488C576.97 49.912 577.706 49.112 578.234 48.088C578.778 47.048 579.05 45.888 579.05 44.608C579.05 43.2 578.634 42.112 577.802 41.344C576.986 40.576 575.842 40.192 574.37 40.192C573.186 40.192 572.122 40.488 571.178 41.08C570.234 41.656 569.49 42.456 568.946 43.48C568.418 44.504 568.154 45.656 568.154 46.936C568.154 48.344 568.562 49.432 569.378 50.2C570.21 50.968 571.37 51.352 572.858 51.352ZM583.535 52.072C583.327 52.072 583.143 52 582.983 51.856C582.839 51.696 582.767 51.512 582.767 51.304C582.767 51.08 582.847 50.888 583.007 50.728C583.167 50.568 583.359 50.488 583.583 50.488C583.791 50.488 583.967 50.568 584.111 50.728C584.271 50.888 584.351 51.072 584.351 51.28C584.351 51.504 584.271 51.696 584.111 51.856C583.951 52 583.759 52.072 583.535 52.072Z" fill="black"/>
</svg>
