<svg width="583" height="58" viewBox="0 0 583 58" fill="none" xmlns="http://www.w3.org/2000/svg">
<rect width="583" height="58" fill="white" fill-opacity="0.13"/>
<rect width="583" height="58" fill="white"/>
<path d="M14.424 22.256V23H3.072V6.2H14.088V6.944H3.888V14.096H13.008V14.84H3.888V22.256H14.424ZM26.1699 23L21.6579 17.144L17.1459 23H16.2099L21.2019 16.568L16.4739 10.544H17.4099L21.6579 15.992L25.8819 10.544H26.7939L22.1139 16.568L27.1539 23H26.1699ZM36.294 22.208C36.006 22.48 35.638 22.696 35.19 22.856C34.742 23 34.278 23.072 33.798 23.072C32.79 23.072 32.006 22.792 31.446 22.232C30.902 21.656 30.63 20.872 30.63 19.88V11.24H28.278V10.544H30.63V7.808H31.422V10.544H35.526V11.24H31.422V19.76C31.422 20.608 31.63 21.256 32.046 21.704C32.462 22.152 33.07 22.376 33.87 22.376C34.67 22.376 35.342 22.128 35.886 21.632L36.294 22.208ZM40.5804 13.544C40.9484 12.552 41.5404 11.792 42.3564 11.264C43.1884 10.72 44.2124 10.448 45.4284 10.448V11.24H45.2124C43.7724 11.24 42.6444 11.696 41.8284 12.608C41.0124 13.52 40.6044 14.776 40.6044 16.376V23H39.8124V10.544H40.5804V13.544ZM52.9628 10.448C54.4508 10.448 55.5868 10.832 56.3708 11.6C57.1708 12.368 57.5708 13.48 57.5708 14.936V23H56.8028V20.504C56.4028 21.304 55.8028 21.936 55.0028 22.4C54.2188 22.848 53.2748 23.072 52.1708 23.072C50.7788 23.072 49.6828 22.752 48.8828 22.112C48.0988 21.472 47.7068 20.624 47.7068 19.568C47.7068 18.56 48.0668 17.744 48.7868 17.12C49.5068 16.48 50.6588 16.16 52.2428 16.16H56.7788V14.936C56.7788 13.704 56.4508 12.768 55.7948 12.128C55.1548 11.488 54.2028 11.168 52.9388 11.168C52.0588 11.168 51.2348 11.32 50.4668 11.624C49.6988 11.928 49.0428 12.336 48.4988 12.848L48.0668 12.272C48.6748 11.696 49.4028 11.248 50.2508 10.928C51.1148 10.608 52.0188 10.448 52.9628 10.448ZM52.2188 22.4C54.4588 22.4 55.9788 21.4 56.7788 19.4V16.808H52.2428C50.9468 16.808 49.9948 17.056 49.3867 17.552C48.7948 18.032 48.4988 18.688 48.4988 19.52C48.4988 20.416 48.8268 21.12 49.4828 21.632C50.1548 22.144 51.0668 22.4 52.2188 22.4ZM61.6298 16.256H67.7018V16.976H61.6298V16.256ZM71.8984 5.192H72.6904V23H71.8984V5.192ZM78.0156 10.544H78.8076V23H78.0156V10.544ZM78.3996 7.28C78.1916 7.28 78.0076 7.208 77.8476 7.064C77.6876 6.904 77.6076 6.72 77.6076 6.512C77.6076 6.288 77.6796 6.104 77.8236 5.96C77.9836 5.8 78.1756 5.72 78.3996 5.72C78.6076 5.72 78.7916 5.8 78.9516 5.96C79.1116 6.104 79.1916 6.28 79.1916 6.488C79.1916 6.696 79.1116 6.88 78.9516 7.04C78.7916 7.2 78.6076 7.28 78.3996 7.28ZM95.1008 10.544V21.8C95.1008 23.816 94.6128 25.304 93.6368 26.264C92.6608 27.24 91.1888 27.728 89.2208 27.728C88.0688 27.728 86.9968 27.552 86.0048 27.2C85.0128 26.848 84.2208 26.352 83.6288 25.712L84.0848 25.112C84.7248 25.72 85.4768 26.184 86.3408 26.504C87.2208 26.84 88.1728 27.008 89.1968 27.008C90.9408 27.008 92.2288 26.592 93.0608 25.76C93.8928 24.944 94.3088 23.656 94.3088 21.896V19.256C93.8448 20.28 93.1328 21.088 92.1728 21.68C91.2128 22.272 90.1168 22.568 88.8848 22.568C87.7168 22.568 86.6608 22.312 85.7168 21.8C84.7888 21.272 84.0528 20.552 83.5088 19.64C82.9808 18.712 82.7168 17.664 82.7168 16.496C82.7168 15.328 82.9808 14.288 83.5088 13.376C84.0528 12.448 84.7888 11.728 85.7168 11.216C86.6608 10.704 87.7168 10.448 88.8848 10.448C90.1168 10.448 91.2128 10.744 92.1728 11.336C93.1488 11.928 93.8688 12.744 94.3328 13.784V10.544H95.1008ZM88.9088 21.848C89.9328 21.848 90.8528 21.624 91.6688 21.176C92.5008 20.712 93.1488 20.072 93.6128 19.256C94.0928 18.44 94.3328 17.52 94.3328 16.496C94.3328 15.472 94.0928 14.56 93.6128 13.76C93.1488 12.944 92.5008 12.312 91.6688 11.864C90.8528 11.416 89.9328 11.192 88.9088 11.192C87.8848 11.192 86.9568 11.416 86.1248 11.864C85.3088 12.312 84.6688 12.944 84.2048 13.76C83.7408 14.56 83.5088 15.472 83.5088 16.496C83.5088 17.536 83.7408 18.464 84.2048 19.28C84.6688 20.08 85.3088 20.712 86.1248 21.176C86.9568 21.624 87.8848 21.848 88.9088 21.848ZM106.302 10.448C107.854 10.448 109.078 10.904 109.974 11.816C110.87 12.712 111.318 14 111.318 15.68V23H110.526V15.728C110.526 14.256 110.15 13.136 109.398 12.368C108.662 11.584 107.606 11.192 106.23 11.192C104.678 11.192 103.454 11.656 102.558 12.584C101.662 13.496 101.214 14.728 101.214 16.28V23H100.422V5.192H101.214V13.52C101.63 12.56 102.278 11.808 103.158 11.264C104.038 10.72 105.086 10.448 106.302 10.448ZM122.38 22.208C122.092 22.48 121.724 22.696 121.276 22.856C120.828 23 120.364 23.072 119.884 23.072C118.876 23.072 118.092 22.792 117.532 22.232C116.988 21.656 116.716 20.872 116.716 19.88V11.24H114.364V10.544H116.716V7.808H117.508V10.544H121.612V11.24H117.508V19.76C117.508 20.608 117.716 21.256 118.132 21.704C118.548 22.152 119.156 22.376 119.956 22.376C120.756 22.376 121.428 22.128 121.972 21.632L122.38 22.208ZM141.689 22.256V23H130.313V22.424L137.513 15.176C138.489 14.2 139.145 13.368 139.481 12.68C139.833 11.976 140.009 11.256 140.009 10.52C140.009 9.384 139.617 8.488 138.833 7.832C138.065 7.176 136.961 6.848 135.521 6.848C134.401 6.848 133.425 7.016 132.593 7.352C131.777 7.672 131.073 8.176 130.481 8.864L129.929 8.336C131.225 6.848 133.097 6.104 135.545 6.104C137.161 6.104 138.441 6.496 139.385 7.28C140.329 8.064 140.801 9.128 140.801 10.472C140.801 11.32 140.609 12.136 140.225 12.92C139.841 13.704 139.129 14.616 138.089 15.656L131.537 22.256H141.689ZM150.418 23.096C149.154 23.096 148.026 22.752 147.034 22.064C146.058 21.36 145.298 20.368 144.754 19.088C144.21 17.792 143.938 16.296 143.938 14.6C143.938 12.904 144.21 11.416 144.754 10.136C145.298 8.84 146.058 7.848 147.034 7.16C148.026 6.456 149.154 6.104 150.418 6.104C151.698 6.104 152.826 6.456 153.802 7.16C154.778 7.848 155.538 8.84 156.082 10.136C156.626 11.416 156.898 12.904 156.898 14.6C156.898 16.296 156.626 17.792 156.082 19.088C155.538 20.368 154.778 21.36 153.802 22.064C152.826 22.752 151.698 23.096 150.418 23.096ZM150.418 22.352C151.538 22.352 152.53 22.04 153.394 21.416C154.258 20.792 154.922 19.896 155.386 18.728C155.866 17.56 156.106 16.184 156.106 14.6C156.106 13.016 155.866 11.64 155.386 10.472C154.922 9.304 154.258 8.408 153.394 7.784C152.53 7.16 151.538 6.848 150.418 6.848C149.298 6.848 148.306 7.16 147.442 7.784C146.594 8.408 145.93 9.304 145.45 10.472C144.986 11.64 144.754 13.016 144.754 14.6C144.754 16.184 144.986 17.56 145.45 18.728C145.93 19.896 146.594 20.792 147.442 21.416C148.306 22.04 149.298 22.352 150.418 22.352ZM166.145 23.096C164.881 23.096 163.753 22.752 162.761 22.064C161.785 21.36 161.025 20.368 160.481 19.088C159.937 17.792 159.665 16.296 159.665 14.6C159.665 12.904 159.937 11.416 160.481 10.136C161.025 8.84 161.785 7.848 162.761 7.16C163.753 6.456 164.881 6.104 166.145 6.104C167.425 6.104 168.553 6.456 169.529 7.16C170.505 7.848 171.265 8.84 171.809 10.136C172.353 11.416 172.625 12.904 172.625 14.6C172.625 16.296 172.353 17.792 171.809 19.088C171.265 20.368 170.505 21.36 169.529 22.064C168.553 22.752 167.425 23.096 166.145 23.096ZM166.145 22.352C167.265 22.352 168.257 22.04 169.121 21.416C169.985 20.792 170.649 19.896 171.113 18.728C171.593 17.56 171.833 16.184 171.833 14.6C171.833 13.016 171.593 11.64 171.113 10.472C170.649 9.304 169.985 8.408 169.121 7.784C168.257 7.16 167.265 6.848 166.145 6.848C165.025 6.848 164.033 7.16 163.169 7.784C162.321 8.408 161.657 9.304 161.177 10.472C160.713 11.64 160.481 13.016 160.481 14.6C160.481 16.184 160.713 17.56 161.177 18.728C161.657 19.896 162.321 20.792 163.169 21.416C164.033 22.04 165.025 22.352 166.145 22.352ZM13.368 47.08H3.312L1.056 52H0.168L7.944 35.2H8.736L16.512 52H15.624L13.368 47.08ZM13.056 46.384L8.352 36.136L3.624 46.384H13.056ZM19.3749 34.192H20.1669V52H19.3749V34.192ZM40.9961 39.448C42.5161 39.448 43.7081 39.896 44.5721 40.792C45.4521 41.688 45.8921 42.984 45.8921 44.68V52H45.1001V44.728C45.1001 43.256 44.7401 42.136 44.0201 41.368C43.3001 40.584 42.2761 40.192 40.9481 40.192C39.4601 40.192 38.2761 40.656 37.3961 41.584C36.5161 42.512 36.0761 43.744 36.0761 45.28V52H35.2841V44.728C35.2841 43.256 34.9241 42.136 34.2041 41.368C33.4841 40.584 32.4681 40.192 31.1561 40.192C29.6521 40.192 28.4601 40.656 27.5801 41.584C26.7161 42.496 26.2841 43.728 26.2841 45.28V52H25.4921V39.544H26.2601V42.544C26.6441 41.584 27.2601 40.832 28.1081 40.288C28.9721 39.728 30.0041 39.448 31.2041 39.448C32.4041 39.448 33.4121 39.736 34.2281 40.312C35.0441 40.888 35.5881 41.728 35.8601 42.832C36.2281 41.792 36.8601 40.968 37.7561 40.36C38.6521 39.752 39.7321 39.448 40.9961 39.448ZM55.8133 52.072C54.6613 52.072 53.6133 51.808 52.6693 51.28C51.7413 50.736 51.0133 49.984 50.4853 49.024C49.9573 48.064 49.6933 46.976 49.6933 45.76C49.6933 44.544 49.9573 43.456 50.4853 42.496C51.0133 41.536 51.7413 40.792 52.6693 40.264C53.6133 39.72 54.6613 39.448 55.8133 39.448C56.9813 39.448 58.0293 39.72 58.9573 40.264C59.8853 40.792 60.6133 41.536 61.1413 42.496C61.6693 43.456 61.9333 44.544 61.9333 45.76C61.9333 46.976 61.6693 48.064 61.1413 49.024C60.6133 49.984 59.8853 50.736 58.9573 51.28C58.0293 51.808 56.9813 52.072 55.8133 52.072ZM55.8133 51.352C56.8213 51.352 57.7253 51.12 58.5253 50.656C59.3413 50.176 59.9813 49.512 60.4453 48.664C60.9093 47.816 61.1413 46.848 61.1413 45.76C61.1413 44.672 60.9093 43.712 60.4453 42.88C59.9813 42.032 59.3413 41.376 58.5253 40.912C57.7253 40.432 56.8213 40.192 55.8133 40.192C54.8053 40.192 53.8933 40.432 53.0773 40.912C52.2773 41.376 51.6453 42.032 51.1813 42.88C50.7173 43.712 50.4853 44.672 50.4853 45.76C50.4853 46.848 50.7173 47.816 51.1813 48.664C51.6453 49.512 52.2773 50.176 53.0773 50.656C53.8933 51.12 54.8053 51.352 55.8133 51.352ZM68.8515 52.072C67.8435 52.072 66.8915 51.92 65.9955 51.616C65.1155 51.312 64.4275 50.912 63.9315 50.416L64.3155 49.792C64.8275 50.24 65.4835 50.616 66.2835 50.92C67.0995 51.224 67.9635 51.376 68.8755 51.376C70.2195 51.376 71.2115 51.152 71.8515 50.704C72.4915 50.24 72.8115 49.6 72.8115 48.784C72.8115 48.208 72.6355 47.752 72.2835 47.416C71.9475 47.08 71.5235 46.832 71.0115 46.672C70.4995 46.512 69.8115 46.352 68.9475 46.192C67.9395 46 67.1315 45.808 66.5235 45.616C65.9315 45.408 65.4275 45.08 65.0115 44.632C64.5955 44.184 64.3875 43.56 64.3875 42.76C64.3875 41.816 64.7715 41.032 65.5395 40.408C66.3235 39.768 67.4595 39.448 68.9475 39.448C69.7155 39.448 70.4835 39.568 71.2515 39.808C72.0195 40.032 72.6435 40.336 73.1235 40.72L72.7155 41.344C72.2195 40.96 71.6355 40.672 70.9635 40.48C70.3075 40.272 69.6275 40.168 68.9235 40.168C67.6915 40.168 66.7635 40.408 66.1395 40.888C65.5155 41.352 65.2035 41.968 65.2035 42.736C65.2035 43.344 65.3795 43.824 65.7315 44.176C66.0835 44.528 66.5155 44.792 67.0275 44.968C67.5555 45.128 68.2675 45.296 69.1635 45.472C70.1235 45.648 70.8995 45.84 71.4915 46.048C72.0835 46.24 72.5795 46.552 72.9795 46.984C73.3955 47.416 73.6035 48.016 73.6035 48.784C73.6035 49.792 73.1955 50.592 72.3795 51.184C71.5635 51.776 70.3875 52.072 68.8515 52.072ZM83.0049 51.208C82.7169 51.48 82.3489 51.696 81.9009 51.856C81.4529 52 80.9889 52.072 80.5089 52.072C79.5009 52.072 78.7169 51.792 78.1569 51.232C77.6129 50.656 77.3409 49.872 77.3409 48.88V40.24H74.9889V39.544H77.3409V36.808H78.1329V39.544H82.2369V40.24H78.1329V48.76C78.1329 49.608 78.3409 50.256 78.7569 50.704C79.1729 51.152 79.7809 51.376 80.5809 51.376C81.3809 51.376 82.0529 51.128 82.5969 50.632L83.0049 51.208ZM98.7377 39.448C99.8737 39.448 100.906 39.72 101.834 40.264C102.762 40.792 103.49 41.536 104.018 42.496C104.562 43.456 104.834 44.544 104.834 45.76C104.834 46.976 104.562 48.064 104.018 49.024C103.49 49.984 102.762 50.736 101.834 51.28C100.906 51.808 99.8737 52.072 98.7377 52.072C97.5217 52.072 96.4337 51.768 95.4737 51.16C94.5297 50.536 93.8257 49.68 93.3617 48.592V52H92.5937V34.192H93.3857V42.88C93.8497 41.808 94.5537 40.968 95.4977 40.36C96.4577 39.752 97.5377 39.448 98.7377 39.448ZM98.7137 51.352C99.7217 51.352 100.626 51.12 101.426 50.656C102.242 50.176 102.882 49.512 103.346 48.664C103.81 47.816 104.042 46.848 104.042 45.76C104.042 44.672 103.81 43.712 103.346 42.88C102.882 42.032 102.242 41.376 101.426 40.912C100.626 40.432 99.7217 40.192 98.7137 40.192C97.7057 40.192 96.7937 40.432 95.9777 40.912C95.1777 41.376 94.5457 42.032 94.0817 42.88C93.6177 43.712 93.3857 44.672 93.3857 45.76C93.3857 46.848 93.6177 47.816 94.0817 48.664C94.5457 49.512 95.1777 50.176 95.9777 50.656C96.7937 51.12 97.7057 51.352 98.7137 51.352ZM119.014 45.88H108.094C108.11 46.936 108.358 47.88 108.838 48.712C109.318 49.544 109.974 50.192 110.806 50.656C111.654 51.12 112.598 51.352 113.638 51.352C114.486 51.352 115.27 51.2 115.99 50.896C116.71 50.576 117.302 50.112 117.766 49.504L118.27 50.032C117.71 50.688 117.03 51.192 116.23 51.544C115.43 51.896 114.566 52.072 113.638 52.072C112.422 52.072 111.334 51.808 110.374 51.28C109.43 50.736 108.686 49.984 108.142 49.024C107.598 48.064 107.326 46.976 107.326 45.76C107.326 44.544 107.574 43.456 108.07 42.496C108.582 41.536 109.286 40.792 110.182 40.264C111.078 39.72 112.078 39.448 113.182 39.448C114.27 39.448 115.254 39.712 116.134 40.24C117.03 40.768 117.734 41.504 118.246 42.448C118.758 43.392 119.014 44.464 119.014 45.664V45.88ZM113.182 40.168C112.254 40.168 111.414 40.384 110.662 40.816C109.91 41.248 109.31 41.856 108.862 42.64C108.414 43.408 108.166 44.272 108.118 45.232H118.27C118.206 44.272 117.942 43.408 117.478 42.64C117.03 41.856 116.43 41.248 115.678 40.816C114.942 40.384 114.11 40.168 113.182 40.168ZM126.378 34.816C125.562 34.816 124.946 35.04 124.53 35.488C124.13 35.92 123.93 36.568 123.93 37.432V39.544H128.034V40.24H123.93V52H123.138V40.24H120.786V39.544H123.138V37.336C123.138 36.344 123.418 35.56 123.978 34.984C124.538 34.408 125.322 34.12 126.33 34.12C126.81 34.12 127.266 34.192 127.698 34.336C128.146 34.48 128.514 34.688 128.802 34.96L128.394 35.56C127.85 35.064 127.178 34.816 126.378 34.816ZM135.032 52.072C133.88 52.072 132.832 51.808 131.888 51.28C130.96 50.736 130.232 49.984 129.704 49.024C129.176 48.064 128.912 46.976 128.912 45.76C128.912 44.544 129.176 43.456 129.704 42.496C130.232 41.536 130.96 40.792 131.888 40.264C132.832 39.72 133.88 39.448 135.032 39.448C136.2 39.448 137.248 39.72 138.176 40.264C139.104 40.792 139.832 41.536 140.36 42.496C140.888 43.456 141.152 44.544 141.152 45.76C141.152 46.976 140.888 48.064 140.36 49.024C139.832 49.984 139.104 50.736 138.176 51.28C137.248 51.808 136.2 52.072 135.032 52.072ZM135.032 51.352C136.04 51.352 136.944 51.12 137.744 50.656C138.56 50.176 139.2 49.512 139.664 48.664C140.128 47.816 140.36 46.848 140.36 45.76C140.36 44.672 140.128 43.712 139.664 42.88C139.2 42.032 138.56 41.376 137.744 40.912C136.944 40.432 136.04 40.192 135.032 40.192C134.024 40.192 133.112 40.432 132.296 40.912C131.496 41.376 130.864 42.032 130.4 42.88C129.936 43.712 129.704 44.672 129.704 45.76C129.704 46.848 129.936 47.816 130.4 48.664C130.864 49.512 131.496 50.176 132.296 50.656C133.112 51.12 134.024 51.352 135.032 51.352ZM145.838 42.544C146.206 41.552 146.798 40.792 147.614 40.264C148.446 39.72 149.47 39.448 150.686 39.448V40.24H150.47C149.03 40.24 147.902 40.696 147.086 41.608C146.27 42.52 145.862 43.776 145.862 45.376V52H145.07V39.544H145.838V42.544ZM164.319 45.88H153.399C153.415 46.936 153.663 47.88 154.143 48.712C154.623 49.544 155.279 50.192 156.111 50.656C156.959 51.12 157.903 51.352 158.943 51.352C159.791 51.352 160.575 51.2 161.295 50.896C162.015 50.576 162.607 50.112 163.071 49.504L163.575 50.032C163.015 50.688 162.335 51.192 161.535 51.544C160.735 51.896 159.871 52.072 158.943 52.072C157.727 52.072 156.639 51.808 155.679 51.28C154.735 50.736 153.991 49.984 153.447 49.024C152.903 48.064 152.631 46.976 152.631 45.76C152.631 44.544 152.879 43.456 153.375 42.496C153.887 41.536 154.591 40.792 155.487 40.264C156.383 39.72 157.383 39.448 158.487 39.448C159.575 39.448 160.559 39.712 161.439 40.24C162.335 40.768 163.039 41.504 163.551 42.448C164.063 43.392 164.319 44.464 164.319 45.664V45.88ZM158.487 40.168C157.559 40.168 156.719 40.384 155.967 40.816C155.215 41.248 154.615 41.856 154.167 42.64C153.719 43.408 153.471 44.272 153.423 45.232H163.575C163.511 44.272 163.247 43.408 162.783 42.64C162.335 41.856 161.735 41.248 160.983 40.816C160.247 40.384 159.415 40.168 158.487 40.168ZM191.721 39.544L186.969 52H186.225L181.809 40.6L177.369 52H176.673L171.897 39.544H172.665L177.009 51.088L181.449 39.544H182.169L186.585 51.088L190.953 39.544H191.721ZM204.561 45.88H193.641C193.657 46.936 193.905 47.88 194.385 48.712C194.865 49.544 195.521 50.192 196.353 50.656C197.201 51.12 198.145 51.352 199.185 51.352C200.033 51.352 200.817 51.2 201.537 50.896C202.257 50.576 202.849 50.112 203.313 49.504L203.817 50.032C203.257 50.688 202.577 51.192 201.777 51.544C200.977 51.896 200.113 52.072 199.185 52.072C197.969 52.072 196.881 51.808 195.921 51.28C194.977 50.736 194.233 49.984 193.689 49.024C193.145 48.064 192.873 46.976 192.873 45.76C192.873 44.544 193.121 43.456 193.617 42.496C194.129 41.536 194.833 40.792 195.729 40.264C196.625 39.72 197.625 39.448 198.729 39.448C199.817 39.448 200.801 39.712 201.681 40.24C202.577 40.768 203.281 41.504 203.793 42.448C204.305 43.392 204.561 44.464 204.561 45.664V45.88ZM198.729 40.168C197.801 40.168 196.961 40.384 196.209 40.816C195.457 41.248 194.857 41.856 194.409 42.64C193.961 43.408 193.713 44.272 193.665 45.232H203.817C203.753 44.272 203.489 43.408 203.025 42.64C202.577 41.856 201.977 41.248 201.225 40.816C200.489 40.384 199.657 40.168 198.729 40.168ZM218.811 45.016L215.331 48.208V52H214.539V34.192H215.331V47.248L223.779 39.544H224.835L219.435 44.536L225.387 52H224.379L218.811 45.016ZM234.083 39.448C235.635 39.448 236.859 39.904 237.755 40.816C238.651 41.712 239.099 43 239.099 44.68V52H238.307V44.728C238.307 43.256 237.931 42.136 237.179 41.368C236.443 40.584 235.387 40.192 234.011 40.192C232.459 40.192 231.235 40.656 230.339 41.584C229.443 42.496 228.995 43.728 228.995 45.28V52H228.203V39.544H228.971V42.592C229.371 41.616 230.011 40.848 230.891 40.288C231.787 39.728 232.851 39.448 234.083 39.448ZM254.577 45.88H243.657C243.673 46.936 243.921 47.88 244.401 48.712C244.881 49.544 245.537 50.192 246.369 50.656C247.217 51.12 248.161 51.352 249.201 51.352C250.049 51.352 250.833 51.2 251.553 50.896C252.273 50.576 252.865 50.112 253.329 49.504L253.833 50.032C253.273 50.688 252.593 51.192 251.793 51.544C250.993 51.896 250.129 52.072 249.201 52.072C247.985 52.072 246.897 51.808 245.937 51.28C244.993 50.736 244.249 49.984 243.705 49.024C243.161 48.064 242.889 46.976 242.889 45.76C242.889 44.544 243.137 43.456 243.633 42.496C244.145 41.536 244.849 40.792 245.745 40.264C246.641 39.72 247.641 39.448 248.745 39.448C249.833 39.448 250.817 39.712 251.697 40.24C252.593 40.768 253.297 41.504 253.809 42.448C254.321 43.392 254.577 44.464 254.577 45.664V45.88ZM248.745 40.168C247.817 40.168 246.977 40.384 246.225 40.816C245.473 41.248 244.873 41.856 244.425 42.64C243.977 43.408 243.729 44.272 243.681 45.232H253.833C253.769 44.272 253.505 43.408 253.041 42.64C252.593 41.856 251.993 41.248 251.241 40.816C250.505 40.384 249.673 40.168 248.745 40.168ZM275.674 39.544L270.922 52H270.178L265.762 40.6L261.322 52H260.626L255.85 39.544H256.618L260.962 51.088L265.402 39.544H266.122L270.538 51.088L274.906 39.544H275.674ZM284.664 39.544H285.456V52H284.664V39.544ZM285.048 36.28C284.84 36.28 284.656 36.208 284.496 36.064C284.336 35.904 284.256 35.72 284.256 35.512C284.256 35.288 284.328 35.104 284.472 34.96C284.632 34.8 284.824 34.72 285.048 34.72C285.256 34.72 285.44 34.8 285.6 34.96C285.76 35.104 285.84 35.28 285.84 35.488C285.84 35.696 285.76 35.88 285.6 36.04C285.44 36.2 285.256 36.28 285.048 36.28ZM296.661 51.208C296.373 51.48 296.005 51.696 295.557 51.856C295.109 52 294.645 52.072 294.165 52.072C293.157 52.072 292.373 51.792 291.813 51.232C291.269 50.656 290.997 49.872 290.997 48.88V40.24H288.645V39.544H290.997V36.808H291.789V39.544H295.893V40.24H291.789V48.76C291.789 49.608 291.997 50.256 292.413 50.704C292.829 51.152 293.437 51.376 294.237 51.376C295.037 51.376 295.709 51.128 296.253 50.632L296.661 51.208ZM300.03 50.488C300.254 50.488 300.438 50.568 300.582 50.728C300.742 50.888 300.822 51.072 300.822 51.28C300.822 51.424 300.798 51.584 300.75 51.76C300.718 51.92 300.694 52.056 300.678 52.168L299.814 55.384H299.19L299.934 52.072C299.726 52.04 299.558 51.952 299.43 51.808C299.302 51.664 299.238 51.488 299.238 51.28C299.238 51.056 299.31 50.872 299.454 50.728C299.614 50.568 299.806 50.488 300.03 50.488ZM328.479 39.544L323.727 52H322.983L318.567 40.6L314.127 52H313.431L308.655 39.544H309.423L313.767 51.088L318.207 39.544H318.927L323.343 51.088L327.711 39.544H328.479ZM341.319 45.88H330.399C330.415 46.936 330.663 47.88 331.143 48.712C331.623 49.544 332.279 50.192 333.111 50.656C333.959 51.12 334.903 51.352 335.943 51.352C336.791 51.352 337.575 51.2 338.295 50.896C339.015 50.576 339.607 50.112 340.071 49.504L340.575 50.032C340.015 50.688 339.335 51.192 338.535 51.544C337.735 51.896 336.871 52.072 335.943 52.072C334.727 52.072 333.639 51.808 332.679 51.28C331.735 50.736 330.991 49.984 330.447 49.024C329.903 48.064 329.631 46.976 329.631 45.76C329.631 44.544 329.879 43.456 330.375 42.496C330.887 41.536 331.591 40.792 332.487 40.264C333.383 39.72 334.383 39.448 335.487 39.448C336.575 39.448 337.559 39.712 338.439 40.24C339.335 40.768 340.039 41.504 340.551 42.448C341.063 43.392 341.319 44.464 341.319 45.664V45.88ZM335.487 40.168C334.559 40.168 333.719 40.384 332.967 40.816C332.215 41.248 331.615 41.856 331.167 42.64C330.719 43.408 330.471 44.272 330.423 45.232H340.575C340.511 44.272 340.247 43.408 339.783 42.64C339.335 41.856 338.735 41.248 337.983 40.816C337.247 40.384 336.415 40.168 335.487 40.168ZM357.177 39.448C358.729 39.448 359.953 39.904 360.849 40.816C361.745 41.712 362.193 43 362.193 44.68V52H361.401V44.728C361.401 43.256 361.025 42.136 360.273 41.368C359.537 40.584 358.481 40.192 357.105 40.192C355.553 40.192 354.329 40.656 353.433 41.584C352.537 42.496 352.089 43.728 352.089 45.28V52H351.297V34.192H352.089V42.52C352.505 41.56 353.153 40.808 354.033 40.264C354.913 39.72 355.961 39.448 357.177 39.448ZM371.455 39.448C372.943 39.448 374.079 39.832 374.863 40.6C375.663 41.368 376.063 42.48 376.063 43.936V52H375.295V49.504C374.895 50.304 374.295 50.936 373.495 51.4C372.711 51.848 371.767 52.072 370.663 52.072C369.271 52.072 368.175 51.752 367.375 51.112C366.591 50.472 366.199 49.624 366.199 48.568C366.199 47.56 366.559 46.744 367.279 46.12C367.999 45.48 369.151 45.16 370.735 45.16H375.271V43.936C375.271 42.704 374.943 41.768 374.287 41.128C373.647 40.488 372.695 40.168 371.431 40.168C370.551 40.168 369.727 40.32 368.959 40.624C368.191 40.928 367.535 41.336 366.991 41.848L366.559 41.272C367.167 40.696 367.895 40.248 368.743 39.928C369.607 39.608 370.511 39.448 371.455 39.448ZM370.711 51.4C372.951 51.4 374.471 50.4 375.271 48.4V45.808H370.735C369.439 45.808 368.487 46.056 367.879 46.552C367.287 47.032 366.991 47.688 366.991 48.52C366.991 49.416 367.319 50.12 367.975 50.632C368.647 51.144 369.559 51.4 370.711 51.4ZM392.097 34.192V52H391.329V48.592C390.865 49.68 390.153 50.536 389.193 51.16C388.249 51.768 387.169 52.072 385.953 52.072C384.817 52.072 383.785 51.808 382.857 51.28C381.929 50.736 381.193 49.984 380.649 49.024C380.121 48.064 379.857 46.976 379.857 45.76C379.857 44.544 380.121 43.456 380.649 42.496C381.193 41.536 381.929 40.792 382.857 40.264C383.785 39.72 384.817 39.448 385.953 39.448C387.153 39.448 388.225 39.752 389.169 40.36C390.129 40.968 390.841 41.808 391.305 42.88V34.192H392.097ZM385.977 51.352C386.985 51.352 387.889 51.12 388.689 50.656C389.505 50.176 390.145 49.512 390.609 48.664C391.073 47.816 391.305 46.848 391.305 45.76C391.305 44.672 391.073 43.712 390.609 42.88C390.145 42.032 389.505 41.376 388.689 40.912C387.889 40.432 386.985 40.192 385.977 40.192C384.969 40.192 384.057 40.432 383.241 40.912C382.441 41.376 381.809 42.032 381.345 42.88C380.881 43.712 380.649 44.672 380.649 45.76C380.649 46.848 380.881 47.816 381.345 48.664C381.809 49.512 382.441 50.176 383.241 50.656C384.057 51.12 384.969 51.352 385.977 51.352ZM403.492 34.192H404.284V52H403.492V34.192ZM419.881 45.88H408.961C408.977 46.936 409.225 47.88 409.705 48.712C410.185 49.544 410.841 50.192 411.673 50.656C412.521 51.12 413.465 51.352 414.505 51.352C415.353 51.352 416.137 51.2 416.857 50.896C417.577 50.576 418.169 50.112 418.633 49.504L419.137 50.032C418.577 50.688 417.897 51.192 417.097 51.544C416.297 51.896 415.433 52.072 414.505 52.072C413.289 52.072 412.201 51.808 411.241 51.28C410.297 50.736 409.553 49.984 409.009 49.024C408.465 48.064 408.193 46.976 408.193 45.76C408.193 44.544 408.441 43.456 408.937 42.496C409.449 41.536 410.153 40.792 411.049 40.264C411.945 39.72 412.945 39.448 414.049 39.448C415.137 39.448 416.121 39.712 417.001 40.24C417.897 40.768 418.601 41.504 419.113 42.448C419.625 43.392 419.881 44.464 419.881 45.664V45.88ZM414.049 40.168C413.121 40.168 412.281 40.384 411.529 40.816C410.777 41.248 410.177 41.856 409.729 42.64C409.281 43.408 409.033 44.272 408.985 45.232H419.137C419.073 44.272 418.809 43.408 418.345 42.64C417.897 41.856 417.297 41.248 416.545 40.816C415.809 40.384 414.977 40.168 414.049 40.168ZM427.245 34.816C426.429 34.816 425.813 35.04 425.397 35.488C424.997 35.92 424.797 36.568 424.797 37.432V39.544H428.901V40.24H424.797V52H424.005V40.24H421.653V39.544H424.005V37.336C424.005 36.344 424.285 35.56 424.845 34.984C425.405 34.408 426.189 34.12 427.197 34.12C427.677 34.12 428.133 34.192 428.565 34.336C429.013 34.48 429.381 34.688 429.669 34.96L429.261 35.56C428.717 35.064 428.045 34.816 427.245 34.816ZM437.31 51.208C437.022 51.48 436.654 51.696 436.206 51.856C435.758 52 435.294 52.072 434.814 52.072C433.806 52.072 433.022 51.792 432.462 51.232C431.918 50.656 431.646 49.872 431.646 48.88V40.24H429.294V39.544H431.646V36.808H432.438V39.544H436.542V40.24H432.438V48.76C432.438 49.608 432.646 50.256 433.062 50.704C433.478 51.152 434.086 51.376 434.886 51.376C435.686 51.376 436.358 51.128 436.902 50.632L437.31 51.208ZM452.778 51.208C452.49 51.48 452.122 51.696 451.674 51.856C451.226 52 450.762 52.072 450.282 52.072C449.274 52.072 448.49 51.792 447.93 51.232C447.386 50.656 447.114 49.872 447.114 48.88V40.24H444.762V39.544H447.114V36.808H447.906V39.544H452.01V40.24H447.906V48.76C447.906 49.608 448.114 50.256 448.53 50.704C448.946 51.152 449.554 51.376 450.354 51.376C451.154 51.376 451.826 51.128 452.37 50.632L452.778 51.208ZM462.177 39.448C463.729 39.448 464.953 39.904 465.849 40.816C466.745 41.712 467.193 43 467.193 44.68V52H466.401V44.728C466.401 43.256 466.025 42.136 465.273 41.368C464.537 40.584 463.481 40.192 462.105 40.192C460.553 40.192 459.329 40.656 458.433 41.584C457.537 42.496 457.089 43.728 457.089 45.28V52H456.297V34.192H457.089V42.52C457.505 41.56 458.153 40.808 459.033 40.264C459.913 39.72 460.961 39.448 462.177 39.448ZM482.67 45.88H471.75C471.766 46.936 472.014 47.88 472.494 48.712C472.974 49.544 473.63 50.192 474.462 50.656C475.31 51.12 476.254 51.352 477.294 51.352C478.142 51.352 478.926 51.2 479.646 50.896C480.366 50.576 480.958 50.112 481.422 49.504L481.926 50.032C481.366 50.688 480.686 51.192 479.886 51.544C479.086 51.896 478.222 52.072 477.294 52.072C476.078 52.072 474.99 51.808 474.03 51.28C473.086 50.736 472.342 49.984 471.798 49.024C471.254 48.064 470.982 46.976 470.982 45.76C470.982 44.544 471.23 43.456 471.726 42.496C472.238 41.536 472.942 40.792 473.838 40.264C474.734 39.72 475.734 39.448 476.838 39.448C477.926 39.448 478.91 39.712 479.79 40.24C480.686 40.768 481.39 41.504 481.902 42.448C482.414 43.392 482.67 44.464 482.67 45.664V45.88ZM476.838 40.168C475.91 40.168 475.07 40.384 474.318 40.816C473.566 41.248 472.966 41.856 472.518 42.64C472.07 43.408 471.822 44.272 471.774 45.232H481.926C481.862 44.272 481.598 43.408 481.134 42.64C480.686 41.856 480.086 41.248 479.334 40.816C478.598 40.384 477.766 40.168 476.838 40.168ZM503.616 39.544V50.8C503.616 52.816 503.128 54.304 502.152 55.264C501.176 56.24 499.704 56.728 497.736 56.728C496.584 56.728 495.512 56.552 494.52 56.2C493.528 55.848 492.736 55.352 492.144 54.712L492.6 54.112C493.24 54.72 493.992 55.184 494.856 55.504C495.736 55.84 496.688 56.008 497.712 56.008C499.456 56.008 500.744 55.592 501.576 54.76C502.408 53.944 502.824 52.656 502.824 50.896V48.256C502.36 49.28 501.648 50.088 500.688 50.68C499.728 51.272 498.632 51.568 497.4 51.568C496.232 51.568 495.176 51.312 494.232 50.8C493.304 50.272 492.568 49.552 492.024 48.64C491.496 47.712 491.232 46.664 491.232 45.496C491.232 44.328 491.496 43.288 492.024 42.376C492.568 41.448 493.304 40.728 494.232 40.216C495.176 39.704 496.232 39.448 497.4 39.448C498.632 39.448 499.728 39.744 500.688 40.336C501.664 40.928 502.384 41.744 502.848 42.784V39.544H503.616ZM497.424 50.848C498.448 50.848 499.368 50.624 500.184 50.176C501.016 49.712 501.664 49.072 502.128 48.256C502.608 47.44 502.848 46.52 502.848 45.496C502.848 44.472 502.608 43.56 502.128 42.76C501.664 41.944 501.016 41.312 500.184 40.864C499.368 40.416 498.448 40.192 497.424 40.192C496.4 40.192 495.472 40.416 494.64 40.864C493.824 41.312 493.184 41.944 492.72 42.76C492.256 43.56 492.024 44.472 492.024 45.496C492.024 46.536 492.256 47.464 492.72 48.28C493.184 49.08 493.824 49.712 494.64 50.176C495.472 50.624 496.4 50.848 497.424 50.848ZM509.705 42.544C510.073 41.552 510.665 40.792 511.481 40.264C512.313 39.72 513.337 39.448 514.553 39.448V40.24H514.337C512.897 40.24 511.769 40.696 510.953 41.608C510.137 42.52 509.729 43.776 509.729 45.376V52H508.937V39.544H509.705V42.544ZM522.618 52.072C521.466 52.072 520.418 51.808 519.474 51.28C518.546 50.736 517.818 49.984 517.29 49.024C516.762 48.064 516.498 46.976 516.498 45.76C516.498 44.544 516.762 43.456 517.29 42.496C517.818 41.536 518.546 40.792 519.474 40.264C520.418 39.72 521.466 39.448 522.618 39.448C523.786 39.448 524.834 39.72 525.762 40.264C526.69 40.792 527.418 41.536 527.946 42.496C528.474 43.456 528.738 44.544 528.738 45.76C528.738 46.976 528.474 48.064 527.946 49.024C527.418 49.984 526.69 50.736 525.762 51.28C524.834 51.808 523.786 52.072 522.618 52.072ZM522.618 51.352C523.626 51.352 524.53 51.12 525.33 50.656C526.146 50.176 526.786 49.512 527.25 48.664C527.714 47.816 527.946 46.848 527.946 45.76C527.946 44.672 527.714 43.712 527.25 42.88C526.786 42.032 526.146 41.376 525.33 40.912C524.53 40.432 523.626 40.192 522.618 40.192C521.61 40.192 520.698 40.432 519.882 40.912C519.082 41.376 518.45 42.032 517.986 42.88C517.522 43.712 517.29 44.672 517.29 45.76C517.29 46.848 517.522 47.816 517.986 48.664C518.45 49.512 519.082 50.176 519.882 50.656C520.698 51.12 521.61 51.352 522.618 51.352ZM543.312 39.544V52H542.544V48.976C542.16 49.952 541.544 50.712 540.696 51.256C539.848 51.8 538.84 52.072 537.672 52.072C536.056 52.072 534.792 51.624 533.88 50.728C532.968 49.832 532.512 48.544 532.512 46.864V39.544H533.304V46.816C533.304 48.288 533.68 49.416 534.432 50.2C535.2 50.968 536.288 51.352 537.696 51.352C539.184 51.352 540.36 50.896 541.224 49.984C542.088 49.056 542.52 47.816 542.52 46.264V39.544H543.312ZM554.521 39.448C556.073 39.448 557.297 39.904 558.193 40.816C559.089 41.712 559.537 43 559.537 44.68V52H558.745V44.728C558.745 43.256 558.369 42.136 557.617 41.368C556.881 40.584 555.825 40.192 554.449 40.192C552.897 40.192 551.673 40.656 550.777 41.584C549.881 42.496 549.433 43.728 549.433 45.28V52H548.641V39.544H549.409V42.592C549.809 41.616 550.449 40.848 551.329 40.288C552.225 39.728 553.289 39.448 554.521 39.448ZM575.566 34.192V52H574.798V48.592C574.334 49.68 573.622 50.536 572.662 51.16C571.718 51.768 570.638 52.072 569.422 52.072C568.286 52.072 567.254 51.808 566.326 51.28C565.398 50.736 564.662 49.984 564.118 49.024C563.59 48.064 563.326 46.976 563.326 45.76C563.326 44.544 563.59 43.456 564.118 42.496C564.662 41.536 565.398 40.792 566.326 40.264C567.254 39.72 568.286 39.448 569.422 39.448C570.622 39.448 571.694 39.752 572.638 40.36C573.598 40.968 574.31 41.808 574.774 42.88V34.192H575.566ZM569.446 51.352C570.454 51.352 571.358 51.12 572.158 50.656C572.974 50.176 573.614 49.512 574.078 48.664C574.542 47.816 574.774 46.848 574.774 45.76C574.774 44.672 574.542 43.712 574.078 42.88C573.614 42.032 572.974 41.376 572.158 40.912C571.358 40.432 570.454 40.192 569.446 40.192C568.438 40.192 567.526 40.432 566.71 40.912C565.91 41.376 565.278 42.032 564.814 42.88C564.35 43.712 564.118 44.672 564.118 45.76C564.118 46.848 564.35 47.816 564.814 48.664C565.278 49.512 565.91 50.176 566.71 50.656C567.526 51.12 568.438 51.352 569.446 51.352ZM580.507 52.072C580.283 52.072 580.091 52 579.931 51.856C579.787 51.696 579.715 51.504 579.715 51.28C579.715 51.056 579.795 50.872 579.955 50.728C580.115 50.568 580.299 50.488 580.507 50.488C580.731 50.488 580.915 50.568 581.059 50.728C581.219 50.872 581.299 51.056 581.299 51.28C581.299 51.504 581.219 51.696 581.059 51.856C580.915 52 580.731 52.072 580.507 52.072Z" fill="black"/>
</svg>
