<svg width="651" height="65" viewBox="0 0 651 65" fill="none" xmlns="http://www.w3.org/2000/svg">
<rect width="651" height="65" fill="white" fill-opacity="0.13"/>
<rect x="1" width="650" height="64.4444" fill="white"/>
<path d="M16.168 19.328V23H2.68V6.2H15.856V9.872H7.384V12.704H14.848V16.256H7.384V19.328H16.168ZM26.7747 23L24.4467 19.592L21.9507 23H17.0067L21.9507 16.496L17.1507 9.992H22.2867L24.5907 13.28L26.9907 9.992H31.8147L27.0147 16.328L31.9827 23H26.7747ZM42.3541 22.472C41.9701 22.712 41.4981 22.896 40.9381 23.024C40.3941 23.152 39.8101 23.216 39.1861 23.216C37.4901 23.216 36.1861 22.8 35.2741 21.968C34.3621 21.136 33.9061 19.896 33.9061 18.248V13.88H32.0101V10.472H33.9061V7.088H38.4661V10.472H41.4421V13.88H38.4661V18.2C38.4661 18.664 38.5861 19.032 38.8261 19.304C39.0821 19.56 39.4181 19.688 39.8341 19.688C40.3621 19.688 40.8261 19.552 41.2261 19.28L42.3541 22.472ZM48.4564 11.552C48.9204 10.96 49.5204 10.52 50.2564 10.232C51.0084 9.928 51.8644 9.776 52.8244 9.776V13.88C52.4084 13.832 52.0644 13.808 51.7924 13.808C50.8164 13.808 50.0484 14.072 49.4884 14.6C48.9444 15.128 48.6724 15.936 48.6724 17.024V23H44.1124V9.992H48.4564V11.552ZM60.1564 9.776C62.3164 9.776 63.9644 10.272 65.1004 11.264C66.2364 12.24 66.8044 13.744 66.8044 15.776V23H62.5564V21.32C61.9004 22.584 60.6204 23.216 58.7164 23.216C57.7084 23.216 56.8364 23.04 56.1004 22.688C55.3644 22.336 54.8044 21.864 54.4204 21.272C54.0524 20.664 53.8684 19.976 53.8684 19.208C53.8684 17.976 54.3404 17.024 55.2844 16.352C56.2284 15.664 57.6844 15.32 59.6524 15.32H62.2444C62.1644 13.944 61.2444 13.256 59.4844 13.256C58.8604 13.256 58.2284 13.36 57.5884 13.568C56.9484 13.76 56.4044 14.032 55.9564 14.384L54.4204 11.288C55.1404 10.808 56.0124 10.44 57.0364 10.184C58.0764 9.912 59.1164 9.776 60.1564 9.776ZM59.9884 20.336C60.5164 20.336 60.9804 20.208 61.3804 19.952C61.7804 19.696 62.0684 19.32 62.2444 18.824V17.696H60.2764C58.9484 17.696 58.2844 18.136 58.2844 19.016C58.2844 19.416 58.4364 19.736 58.7404 19.976C59.0444 20.216 59.4604 20.336 59.9884 20.336ZM69.3708 14.408H76.3788V17.912H69.3708V14.408ZM87.1714 9.776C88.3554 9.776 89.4274 10.048 90.3874 10.592C91.3634 11.136 92.1314 11.92 92.6914 12.944C93.2674 13.952 93.5554 15.128 93.5554 16.472C93.5554 17.816 93.2674 19 92.6914 20.024C92.1314 21.048 91.3634 21.84 90.3874 22.4C89.4274 22.944 88.3554 23.216 87.1714 23.216C85.4594 23.216 84.1794 22.712 83.3314 21.704V23H78.9874V5.192H83.5474V11.12C84.4274 10.224 85.6354 9.776 87.1714 9.776ZM86.2114 19.592C87.0114 19.592 87.6674 19.32 88.1794 18.776C88.6914 18.216 88.9474 17.448 88.9474 16.472C88.9474 15.512 88.6914 14.76 88.1794 14.216C87.6674 13.672 87.0114 13.4 86.2114 13.4C85.4114 13.4 84.7554 13.672 84.2434 14.216C83.7314 14.76 83.4754 15.512 83.4754 16.472C83.4754 17.448 83.7314 18.216 84.2434 18.776C84.7554 19.32 85.4114 19.592 86.2114 19.592ZM102.203 23.216C100.811 23.216 99.5549 22.928 98.4349 22.352C97.3149 21.776 96.4349 20.976 95.7949 19.952C95.1709 18.928 94.8589 17.768 94.8589 16.472C94.8589 15.192 95.1709 14.04 95.7949 13.016C96.4349 11.992 97.3069 11.2 98.4109 10.64C99.5309 10.064 100.795 9.776 102.203 9.776C103.611 9.776 104.875 10.064 105.995 10.64C107.115 11.2 107.987 11.992 108.611 13.016C109.235 14.024 109.547 15.176 109.547 16.472C109.547 17.768 109.235 18.928 108.611 19.952C107.987 20.976 107.115 21.776 105.995 22.352C104.875 22.928 103.611 23.216 102.203 23.216ZM102.203 19.592C103.003 19.592 103.659 19.32 104.171 18.776C104.683 18.216 104.939 17.448 104.939 16.472C104.939 15.512 104.683 14.76 104.171 14.216C103.659 13.672 103.003 13.4 102.203 13.4C101.403 13.4 100.747 13.672 100.235 14.216C99.7229 14.76 99.4669 15.512 99.4669 16.472C99.4669 17.448 99.7229 18.216 100.235 18.776C100.747 19.32 101.403 19.592 102.203 19.592ZM111.659 5.192H116.219V23H111.659V5.192ZM133.007 5.192V23H128.663V21.704C127.815 22.712 126.543 23.216 124.847 23.216C123.663 23.216 122.583 22.944 121.607 22.4C120.631 21.84 119.855 21.048 119.279 20.024C118.719 19 118.439 17.816 118.439 16.472C118.439 15.128 118.719 13.952 119.279 12.944C119.855 11.92 120.631 11.136 121.607 10.592C122.583 10.048 123.663 9.776 124.847 9.776C126.399 9.776 127.599 10.224 128.447 11.12V5.192H133.007ZM125.807 19.592C126.591 19.592 127.239 19.32 127.751 18.776C128.263 18.216 128.519 17.448 128.519 16.472C128.519 15.512 128.263 14.76 127.751 14.216C127.255 13.672 126.607 13.4 125.807 13.4C125.007 13.4 124.351 13.672 123.839 14.216C123.327 14.76 123.071 15.512 123.071 16.472C123.071 17.448 123.327 18.216 123.839 18.776C124.351 19.32 125.007 19.592 125.807 19.592ZM154.373 14.144C155.141 14.592 155.733 15.144 156.149 15.8C156.565 16.456 156.773 17.208 156.773 18.056C156.773 19.112 156.469 20.04 155.861 20.84C155.253 21.64 154.397 22.256 153.293 22.688C152.189 23.12 150.917 23.336 149.477 23.336C148.037 23.336 146.765 23.12 145.661 22.688C144.557 22.256 143.701 21.64 143.093 20.84C142.485 20.04 142.181 19.112 142.181 18.056C142.181 17.208 142.389 16.456 142.805 15.8C143.221 15.144 143.813 14.592 144.581 14.144C144.005 13.744 143.557 13.256 143.237 12.68C142.933 12.104 142.781 11.464 142.781 10.76C142.781 9.784 143.061 8.928 143.621 8.192C144.181 7.44 144.965 6.864 145.973 6.464C146.997 6.064 148.165 5.864 149.477 5.864C150.789 5.864 151.949 6.064 152.957 6.464C153.981 6.864 154.773 7.44 155.333 8.192C155.893 8.928 156.173 9.784 156.173 10.76C156.173 11.464 156.013 12.104 155.693 12.68C155.389 13.256 154.949 13.744 154.373 14.144ZM149.477 9.2C148.885 9.2 148.405 9.36 148.037 9.68C147.669 9.984 147.485 10.416 147.485 10.976C147.485 11.52 147.661 11.952 148.013 12.272C148.381 12.576 148.869 12.728 149.477 12.728C150.085 12.728 150.573 12.576 150.941 12.272C151.309 11.952 151.493 11.52 151.493 10.976C151.493 10.416 151.309 9.984 150.941 9.68C150.573 9.36 150.085 9.2 149.477 9.2ZM149.477 20C150.245 20 150.853 19.816 151.301 19.448C151.765 19.064 151.997 18.552 151.997 17.912C151.997 17.272 151.765 16.768 151.301 16.4C150.853 16.016 150.245 15.824 149.477 15.824C148.709 15.824 148.093 16.016 147.629 16.4C147.181 16.768 146.957 17.272 146.957 17.912C146.957 18.552 147.181 19.064 147.629 19.448C148.093 19.816 148.709 20 149.477 20ZM165.748 23.336C164.308 23.336 163.028 22.992 161.908 22.304C160.788 21.616 159.908 20.616 159.268 19.304C158.644 17.976 158.332 16.408 158.332 14.6C158.332 12.792 158.644 11.232 159.268 9.92C159.908 8.592 160.788 7.584 161.908 6.896C163.028 6.208 164.308 5.864 165.748 5.864C167.172 5.864 168.444 6.208 169.564 6.896C170.684 7.584 171.556 8.592 172.18 9.92C172.82 11.232 173.14 12.792 173.14 14.6C173.14 16.408 172.82 17.976 172.18 19.304C171.556 20.616 170.684 21.616 169.564 22.304C168.444 22.992 167.172 23.336 165.748 23.336ZM165.748 19.448C166.548 19.448 167.18 19.064 167.644 18.296C168.124 17.512 168.364 16.28 168.364 14.6C168.364 12.92 168.124 11.696 167.644 10.928C167.18 10.144 166.548 9.752 165.748 9.752C164.932 9.752 164.284 10.144 163.804 10.928C163.34 11.696 163.108 12.92 163.108 14.6C163.108 16.28 163.34 17.512 163.804 18.296C164.284 19.064 164.932 19.448 165.748 19.448ZM182.177 23.336C180.737 23.336 179.457 22.992 178.337 22.304C177.217 21.616 176.337 20.616 175.697 19.304C175.073 17.976 174.761 16.408 174.761 14.6C174.761 12.792 175.073 11.232 175.697 9.92C176.337 8.592 177.217 7.584 178.337 6.896C179.457 6.208 180.737 5.864 182.177 5.864C183.601 5.864 184.873 6.208 185.993 6.896C187.113 7.584 187.985 8.592 188.609 9.92C189.249 11.232 189.569 12.792 189.569 14.6C189.569 16.408 189.249 17.976 188.609 19.304C187.985 20.616 187.113 21.616 185.993 22.304C184.873 22.992 183.601 23.336 182.177 23.336ZM182.177 19.448C182.977 19.448 183.609 19.064 184.073 18.296C184.553 17.512 184.793 16.28 184.793 14.6C184.793 12.92 184.553 11.696 184.073 10.928C183.609 10.144 182.977 9.752 182.177 9.752C181.361 9.752 180.713 10.144 180.233 10.928C179.769 11.696 179.537 12.92 179.537 14.6C179.537 16.28 179.769 17.512 180.233 18.296C180.713 19.064 181.361 19.448 182.177 19.448ZM13.936 48.736H6.832L5.512 52H0.664L8.08 35.2H12.76L20.2 52H15.256L13.936 48.736ZM12.544 45.232L10.384 39.856L8.224 45.232H12.544ZM21.3312 34.192H25.8912V52H21.3312V34.192ZM45.7986 38.776C47.3986 38.776 48.6706 39.256 49.6146 40.216C50.5746 41.176 51.0546 42.624 51.0546 44.56V52H46.4946V45.304C46.4946 44.392 46.3186 43.72 45.9666 43.288C45.6306 42.856 45.1506 42.64 44.5266 42.64C43.8386 42.64 43.2866 42.88 42.8706 43.36C42.4546 43.84 42.2466 44.568 42.2466 45.544V52H37.6866V45.304C37.6866 43.528 37.0306 42.64 35.7186 42.64C35.0146 42.64 34.4546 42.88 34.0386 43.36C33.6226 43.84 33.4146 44.568 33.4146 45.544V52H28.8546V38.992H33.1986V40.36C33.6786 39.832 34.2466 39.44 34.9026 39.184C35.5746 38.912 36.3026 38.776 37.0866 38.776C37.9986 38.776 38.8146 38.944 39.5346 39.28C40.2546 39.616 40.8386 40.128 41.2866 40.816C41.7986 40.16 42.4466 39.656 43.2306 39.304C44.0146 38.952 44.8706 38.776 45.7986 38.776ZM60.6483 52.216C59.2563 52.216 58.0003 51.928 56.8803 51.352C55.7603 50.776 54.8803 49.976 54.2402 48.952C53.6163 47.928 53.3043 46.768 53.3043 45.472C53.3043 44.192 53.6163 43.04 54.2402 42.016C54.8803 40.992 55.7523 40.2 56.8563 39.64C57.9763 39.064 59.2403 38.776 60.6483 38.776C62.0563 38.776 63.3203 39.064 64.4403 39.64C65.5603 40.2 66.4323 40.992 67.0563 42.016C67.6803 43.024 67.9923 44.176 67.9923 45.472C67.9923 46.768 67.6803 47.928 67.0563 48.952C66.4323 49.976 65.5603 50.776 64.4403 51.352C63.3203 51.928 62.0563 52.216 60.6483 52.216ZM60.6483 48.592C61.4483 48.592 62.1043 48.32 62.6163 47.776C63.1283 47.216 63.3843 46.448 63.3843 45.472C63.3843 44.512 63.1283 43.76 62.6163 43.216C62.1043 42.672 61.4483 42.4 60.6483 42.4C59.8483 42.4 59.1923 42.672 58.6803 43.216C58.1683 43.76 57.9123 44.512 57.9123 45.472C57.9123 46.448 58.1683 47.216 58.6803 47.776C59.1923 48.32 59.8483 48.592 60.6483 48.592ZM74.8326 52.216C73.7446 52.216 72.6726 52.096 71.6166 51.856C70.5606 51.6 69.7126 51.272 69.0726 50.872L70.4406 47.752C71.0326 48.12 71.7366 48.416 72.5526 48.64C73.3686 48.848 74.1766 48.952 74.9766 48.952C75.7126 48.952 76.2326 48.88 76.5366 48.736C76.8566 48.576 77.0166 48.352 77.0166 48.064C77.0166 47.776 76.8246 47.576 76.4406 47.464C76.0726 47.336 75.4806 47.216 74.6646 47.104C73.6246 46.976 72.7366 46.808 72.0006 46.6C71.2806 46.392 70.6566 46.008 70.1286 45.448C69.6006 44.888 69.3366 44.104 69.3366 43.096C69.3366 42.264 69.5846 41.528 70.0806 40.888C70.5766 40.232 71.2966 39.72 72.2406 39.352C73.2006 38.968 74.3446 38.776 75.6726 38.776C76.6166 38.776 77.5526 38.872 78.4806 39.064C79.4086 39.256 80.1846 39.528 80.8086 39.88L79.4406 42.976C78.2886 42.336 77.0406 42.016 75.6966 42.016C74.9766 42.016 74.4486 42.104 74.1126 42.28C73.7766 42.44 73.6086 42.656 73.6086 42.928C73.6086 43.232 73.7926 43.448 74.1606 43.576C74.5286 43.688 75.1366 43.808 75.9846 43.936C77.0566 44.096 77.9446 44.28 78.6486 44.488C79.3526 44.696 79.9606 45.08 80.4726 45.64C81.0006 46.184 81.2646 46.952 81.2646 47.944C81.2646 48.76 81.0166 49.496 80.5206 50.152C80.0246 50.792 79.2886 51.296 78.3126 51.664C77.3526 52.032 76.1926 52.216 74.8326 52.216ZM92.2056 51.472C91.8216 51.712 91.3496 51.896 90.7896 52.024C90.2456 52.152 89.6616 52.216 89.0376 52.216C87.3416 52.216 86.0376 51.8 85.1256 50.968C84.2136 50.136 83.7576 48.896 83.7576 47.248V42.88H81.8616V39.472H83.7576V36.088H88.3176V39.472H91.2936V42.88H88.3176V47.2C88.3176 47.664 88.4376 48.032 88.6776 48.304C88.9336 48.56 89.2696 48.688 89.6856 48.688C90.2136 48.688 90.6776 48.552 91.0776 48.28L92.2056 51.472ZM109.132 38.776C110.316 38.776 111.388 39.048 112.348 39.592C113.324 40.136 114.092 40.92 114.652 41.944C115.228 42.952 115.516 44.128 115.516 45.472C115.516 46.816 115.228 48 114.652 49.024C114.092 50.048 113.324 50.84 112.348 51.4C111.388 51.944 110.316 52.216 109.132 52.216C107.42 52.216 106.14 51.712 105.292 50.704V52H100.948V34.192H105.508V40.12C106.388 39.224 107.596 38.776 109.132 38.776ZM108.172 48.592C108.972 48.592 109.628 48.32 110.14 47.776C110.652 47.216 110.908 46.448 110.908 45.472C110.908 44.512 110.652 43.76 110.14 43.216C109.628 42.672 108.972 42.4 108.172 42.4C107.372 42.4 106.716 42.672 106.204 43.216C105.692 43.76 105.436 44.512 105.436 45.472C105.436 46.448 105.692 47.216 106.204 47.776C106.716 48.32 107.372 48.592 108.172 48.592ZM130.932 45.52C130.932 45.552 130.908 45.928 130.86 46.648H121.404C121.596 47.32 121.964 47.84 122.508 48.208C123.068 48.56 123.764 48.736 124.596 48.736C125.22 48.736 125.756 48.648 126.204 48.472C126.668 48.296 127.132 48.008 127.596 47.608L129.996 50.104C128.732 51.512 126.884 52.216 124.452 52.216C122.932 52.216 121.596 51.928 120.444 51.352C119.292 50.776 118.396 49.976 117.756 48.952C117.132 47.928 116.82 46.768 116.82 45.472C116.82 44.192 117.124 43.048 117.732 42.04C118.356 41.016 119.212 40.216 120.3 39.64C121.388 39.064 122.612 38.776 123.972 38.776C125.268 38.776 126.444 39.048 127.5 39.592C128.556 40.12 129.388 40.896 129.996 41.92C130.62 42.928 130.932 44.128 130.932 45.52ZM123.996 42.016C123.292 42.016 122.7 42.216 122.22 42.616C121.756 43.016 121.46 43.56 121.332 44.248H126.66C126.532 43.56 126.228 43.016 125.748 42.616C125.284 42.216 124.7 42.016 123.996 42.016ZM138.002 39.472H141.098V42.88H138.122V52H133.562V42.88H131.666V39.472H133.562V39.136C133.562 37.552 134.034 36.296 134.978 35.368C135.938 34.44 137.274 33.976 138.986 33.976C139.562 33.976 140.122 34.032 140.666 34.144C141.21 34.256 141.658 34.424 142.01 34.648L140.882 37.864C140.434 37.608 139.978 37.48 139.514 37.48C139.034 37.48 138.658 37.624 138.386 37.912C138.13 38.2 138.002 38.624 138.002 39.184V39.472ZM149.172 52.216C147.78 52.216 146.524 51.928 145.404 51.352C144.284 50.776 143.404 49.976 142.764 48.952C142.14 47.928 141.828 46.768 141.828 45.472C141.828 44.192 142.14 43.04 142.764 42.016C143.404 40.992 144.276 40.2 145.38 39.64C146.5 39.064 147.764 38.776 149.172 38.776C150.58 38.776 151.844 39.064 152.964 39.64C154.084 40.2 154.956 40.992 155.58 42.016C156.204 43.024 156.516 44.176 156.516 45.472C156.516 46.768 156.204 47.928 155.58 48.952C154.956 49.976 154.084 50.776 152.964 51.352C151.844 51.928 150.58 52.216 149.172 52.216ZM149.172 48.592C149.972 48.592 150.628 48.32 151.14 47.776C151.652 47.216 151.908 46.448 151.908 45.472C151.908 44.512 151.652 43.76 151.14 43.216C150.628 42.672 149.972 42.4 149.172 42.4C148.372 42.4 147.716 42.672 147.204 43.216C146.692 43.76 146.436 44.512 146.436 45.472C146.436 46.448 146.692 47.216 147.204 47.776C147.716 48.32 148.372 48.592 149.172 48.592ZM162.972 40.552C163.436 39.96 164.036 39.52 164.772 39.232C165.524 38.928 166.38 38.776 167.34 38.776V42.88C166.924 42.832 166.58 42.808 166.308 42.808C165.332 42.808 164.564 43.072 164.004 43.6C163.46 44.128 163.188 44.936 163.188 46.024V52H158.628V38.992H162.972V40.552ZM182.401 45.52C182.401 45.552 182.377 45.928 182.329 46.648H172.873C173.065 47.32 173.433 47.84 173.977 48.208C174.537 48.56 175.233 48.736 176.065 48.736C176.689 48.736 177.225 48.648 177.673 48.472C178.137 48.296 178.601 48.008 179.065 47.608L181.465 50.104C180.201 51.512 178.353 52.216 175.921 52.216C174.401 52.216 173.065 51.928 171.913 51.352C170.761 50.776 169.865 49.976 169.225 48.952C168.601 47.928 168.289 46.768 168.289 45.472C168.289 44.192 168.593 43.048 169.201 42.04C169.825 41.016 170.681 40.216 171.769 39.64C172.857 39.064 174.081 38.776 175.441 38.776C176.737 38.776 177.913 39.048 178.969 39.592C180.025 40.12 180.857 40.896 181.465 41.92C182.089 42.928 182.401 44.128 182.401 45.52ZM175.465 42.016C174.761 42.016 174.169 42.216 173.689 42.616C173.225 43.016 172.929 43.56 172.801 44.248H178.129C178.001 43.56 177.697 43.016 177.217 42.616C176.753 42.216 176.169 42.016 175.465 42.016ZM213.039 38.992L208.407 52H203.991L201.543 44.92L198.999 52H194.583L189.951 38.992H194.271L196.935 46.864L199.695 38.992H203.583L206.271 46.936L209.031 38.992H213.039ZM227.377 45.52C227.377 45.552 227.353 45.928 227.305 46.648H217.849C218.041 47.32 218.409 47.84 218.953 48.208C219.513 48.56 220.209 48.736 221.041 48.736C221.665 48.736 222.201 48.648 222.649 48.472C223.113 48.296 223.577 48.008 224.041 47.608L226.441 50.104C225.177 51.512 223.329 52.216 220.897 52.216C219.377 52.216 218.041 51.928 216.889 51.352C215.737 50.776 214.841 49.976 214.201 48.952C213.577 47.928 213.265 46.768 213.265 45.472C213.265 44.192 213.569 43.048 214.177 42.04C214.801 41.016 215.657 40.216 216.745 39.64C217.833 39.064 219.057 38.776 220.417 38.776C221.713 38.776 222.889 39.048 223.945 39.592C225.001 40.12 225.833 40.896 226.441 41.92C227.065 42.928 227.377 44.128 227.377 45.52ZM220.441 42.016C219.737 42.016 219.145 42.216 218.665 42.616C218.201 43.016 217.905 43.56 217.777 44.248H223.105C222.977 43.56 222.673 43.016 222.193 42.616C221.729 42.216 221.145 42.016 220.441 42.016ZM242.368 47.44L241.024 48.808V52H236.464V34.192H241.024V43.528L245.68 38.992H251.08L245.68 44.56L251.536 52H246.016L242.368 47.44ZM261.342 38.776C262.958 38.776 264.254 39.256 265.23 40.216C266.222 41.176 266.718 42.624 266.718 44.56V52H262.158V45.304C262.158 43.528 261.446 42.64 260.022 42.64C259.238 42.64 258.606 42.896 258.126 43.408C257.662 43.92 257.43 44.688 257.43 45.712V52H252.87V38.992H257.214V40.408C257.726 39.88 258.334 39.48 259.038 39.208C259.742 38.92 260.51 38.776 261.342 38.776ZM283.065 45.52C283.065 45.552 283.041 45.928 282.993 46.648H273.537C273.729 47.32 274.097 47.84 274.641 48.208C275.201 48.56 275.897 48.736 276.729 48.736C277.353 48.736 277.889 48.648 278.337 48.472C278.801 48.296 279.265 48.008 279.729 47.608L282.129 50.104C280.865 51.512 279.017 52.216 276.585 52.216C275.065 52.216 273.729 51.928 272.577 51.352C271.425 50.776 270.529 49.976 269.889 48.952C269.265 47.928 268.953 46.768 268.953 45.472C268.953 44.192 269.257 43.048 269.865 42.04C270.489 41.016 271.345 40.216 272.433 39.64C273.521 39.064 274.745 38.776 276.105 38.776C277.401 38.776 278.577 39.048 279.633 39.592C280.689 40.12 281.521 40.896 282.129 41.92C282.753 42.928 283.065 44.128 283.065 45.52ZM276.129 42.016C275.425 42.016 274.833 42.216 274.353 42.616C273.889 43.016 273.593 43.56 273.465 44.248H278.793C278.665 43.56 278.361 43.016 277.881 42.616C277.417 42.216 276.833 42.016 276.129 42.016ZM306.485 38.992L301.853 52H297.437L294.989 44.92L292.445 52H288.029L283.397 38.992H287.717L290.381 46.864L293.141 38.992H297.029L299.717 46.936L302.477 38.992H306.485ZM314.862 38.992H319.422V52H314.862V38.992ZM317.142 37.552C316.31 37.552 315.638 37.32 315.126 36.856C314.614 36.392 314.358 35.816 314.358 35.128C314.358 34.44 314.614 33.864 315.126 33.4C315.638 32.936 316.31 32.704 317.142 32.704C317.974 32.704 318.646 32.928 319.158 33.376C319.67 33.808 319.926 34.368 319.926 35.056C319.926 35.776 319.67 36.376 319.158 36.856C318.646 37.32 317.974 37.552 317.142 37.552ZM331.362 51.472C330.978 51.712 330.506 51.896 329.946 52.024C329.402 52.152 328.818 52.216 328.194 52.216C326.498 52.216 325.194 51.8 324.282 50.968C323.37 50.136 322.914 48.896 322.914 47.248V42.88H321.018V39.472H322.914V36.088H327.474V39.472H330.45V42.88H327.474V47.2C327.474 47.664 327.594 48.032 327.834 48.304C328.09 48.56 328.426 48.688 328.842 48.688C329.37 48.688 329.834 48.552 330.234 48.28L331.362 51.472ZM335.299 46.816C336.083 46.816 336.731 47.064 337.243 47.56C337.755 48.056 338.011 48.704 338.011 49.504C338.011 49.872 337.963 50.24 337.867 50.608C337.771 50.976 337.555 51.528 337.219 52.264L335.707 55.768H332.851L333.979 51.856C333.531 51.648 333.179 51.344 332.923 50.944C332.683 50.528 332.563 50.048 332.563 49.504C332.563 48.704 332.819 48.056 333.331 47.56C333.843 47.064 334.499 46.816 335.299 46.816ZM368.688 38.992L364.056 52H359.64L357.192 44.92L354.648 52H350.232L345.6 38.992H349.92L352.584 46.864L355.344 38.992H359.232L361.92 46.936L364.68 38.992H368.688ZM383.026 45.52C383.026 45.552 383.002 45.928 382.954 46.648H373.498C373.69 47.32 374.058 47.84 374.602 48.208C375.162 48.56 375.858 48.736 376.69 48.736C377.314 48.736 377.85 48.648 378.298 48.472C378.762 48.296 379.226 48.008 379.69 47.608L382.09 50.104C380.826 51.512 378.978 52.216 376.546 52.216C375.026 52.216 373.69 51.928 372.538 51.352C371.386 50.776 370.49 49.976 369.85 48.952C369.226 47.928 368.914 46.768 368.914 45.472C368.914 44.192 369.218 43.048 369.826 42.04C370.45 41.016 371.306 40.216 372.394 39.64C373.482 39.064 374.706 38.776 376.066 38.776C377.362 38.776 378.538 39.048 379.594 39.592C380.65 40.12 381.482 40.896 382.09 41.92C382.714 42.928 383.026 44.128 383.026 45.52ZM376.09 42.016C375.386 42.016 374.794 42.216 374.314 42.616C373.85 43.016 373.554 43.56 373.426 44.248H378.754C378.626 43.56 378.322 43.016 377.842 42.616C377.378 42.216 376.794 42.016 376.09 42.016ZM400.584 38.776C402.2 38.776 403.496 39.256 404.472 40.216C405.464 41.176 405.96 42.624 405.96 44.56V52H401.4V45.304C401.4 43.528 400.688 42.64 399.264 42.64C398.48 42.64 397.848 42.896 397.368 43.408C396.904 43.92 396.672 44.688 396.672 45.712V52H392.112V34.192H396.672V40.192C397.168 39.728 397.752 39.376 398.424 39.136C399.096 38.896 399.816 38.776 400.584 38.776ZM414.367 38.776C416.527 38.776 418.175 39.272 419.311 40.264C420.447 41.24 421.015 42.744 421.015 44.776V52H416.767V50.32C416.111 51.584 414.831 52.216 412.927 52.216C411.919 52.216 411.047 52.04 410.311 51.688C409.575 51.336 409.015 50.864 408.631 50.272C408.263 49.664 408.079 48.976 408.079 48.208C408.079 46.976 408.551 46.024 409.495 45.352C410.439 44.664 411.895 44.32 413.863 44.32H416.455C416.375 42.944 415.455 42.256 413.695 42.256C413.071 42.256 412.439 42.36 411.799 42.568C411.159 42.76 410.615 43.032 410.167 43.384L408.631 40.288C409.351 39.808 410.223 39.44 411.247 39.184C412.287 38.912 413.327 38.776 414.367 38.776ZM414.199 49.336C414.727 49.336 415.191 49.208 415.591 48.952C415.991 48.696 416.279 48.32 416.455 47.824V46.696H414.487C413.159 46.696 412.495 47.136 412.495 48.016C412.495 48.416 412.647 48.736 412.951 48.976C413.255 49.216 413.671 49.336 414.199 49.336ZM437.905 34.192V52H433.561V50.704C432.713 51.712 431.441 52.216 429.745 52.216C428.561 52.216 427.481 51.944 426.505 51.4C425.529 50.84 424.753 50.048 424.177 49.024C423.617 48 423.337 46.816 423.337 45.472C423.337 44.128 423.617 42.952 424.177 41.944C424.753 40.92 425.529 40.136 426.505 39.592C427.481 39.048 428.561 38.776 429.745 38.776C431.297 38.776 432.497 39.224 433.345 40.12V34.192H437.905ZM430.705 48.592C431.489 48.592 432.137 48.32 432.649 47.776C433.161 47.216 433.417 46.448 433.417 45.472C433.417 44.512 433.161 43.76 432.649 43.216C432.153 42.672 431.505 42.4 430.705 42.4C429.905 42.4 429.249 42.672 428.737 43.216C428.225 43.76 427.969 44.512 427.969 45.472C427.969 46.448 428.225 47.216 428.737 47.776C429.249 48.32 429.905 48.592 430.705 48.592ZM447.823 34.192H452.383V52H447.823V34.192ZM468.643 45.52C468.643 45.552 468.619 45.928 468.571 46.648H459.115C459.307 47.32 459.675 47.84 460.219 48.208C460.779 48.56 461.475 48.736 462.307 48.736C462.931 48.736 463.467 48.648 463.915 48.472C464.379 48.296 464.843 48.008 465.307 47.608L467.707 50.104C466.443 51.512 464.595 52.216 462.163 52.216C460.643 52.216 459.307 51.928 458.155 51.352C457.003 50.776 456.107 49.976 455.467 48.952C454.843 47.928 454.531 46.768 454.531 45.472C454.531 44.192 454.835 43.048 455.443 42.04C456.067 41.016 456.923 40.216 458.011 39.64C459.099 39.064 460.323 38.776 461.683 38.776C462.979 38.776 464.155 39.048 465.211 39.592C466.267 40.12 467.099 40.896 467.707 41.92C468.331 42.928 468.643 44.128 468.643 45.52ZM461.707 42.016C461.003 42.016 460.411 42.216 459.931 42.616C459.467 43.016 459.171 43.56 459.043 44.248H464.371C464.243 43.56 463.939 43.016 463.459 42.616C462.995 42.216 462.411 42.016 461.707 42.016ZM475.713 39.472H478.809V42.88H475.833V52H471.273V42.88H469.377V39.472H471.273V39.136C471.273 37.552 471.745 36.296 472.689 35.368C473.649 34.44 474.985 33.976 476.697 33.976C477.273 33.976 477.833 34.032 478.377 34.144C478.921 34.256 479.369 34.424 479.721 34.648L478.593 37.864C478.145 37.608 477.689 37.48 477.225 37.48C476.745 37.48 476.369 37.624 476.097 37.912C475.841 38.2 475.713 38.624 475.713 39.184V39.472ZM489.471 51.472C489.087 51.712 488.615 51.896 488.055 52.024C487.511 52.152 486.927 52.216 486.303 52.216C484.607 52.216 483.303 51.8 482.391 50.968C481.479 50.136 481.023 48.896 481.023 47.248V42.88H479.127V39.472H481.023V36.088H485.583V39.472H488.559V42.88H485.583V47.2C485.583 47.664 485.703 48.032 485.943 48.304C486.199 48.56 486.535 48.688 486.951 48.688C487.479 48.688 487.943 48.552 488.343 48.28L489.471 51.472ZM507.19 51.472C506.806 51.712 506.334 51.896 505.774 52.024C505.23 52.152 504.646 52.216 504.022 52.216C502.326 52.216 501.022 51.8 500.11 50.968C499.198 50.136 498.742 48.896 498.742 47.248V42.88H496.846V39.472H498.742V36.088H503.302V39.472H506.278V42.88H503.302V47.2C503.302 47.664 503.422 48.032 503.662 48.304C503.918 48.56 504.254 48.688 504.67 48.688C505.198 48.688 505.662 48.552 506.062 48.28L507.19 51.472ZM517.42 38.776C519.036 38.776 520.332 39.256 521.308 40.216C522.3 41.176 522.796 42.624 522.796 44.56V52H518.236V45.304C518.236 43.528 517.524 42.64 516.1 42.64C515.316 42.64 514.684 42.896 514.204 43.408C513.74 43.92 513.508 44.688 513.508 45.712V52H508.948V34.192H513.508V40.192C514.004 39.728 514.588 39.376 515.26 39.136C515.932 38.896 516.652 38.776 517.42 38.776ZM539.143 45.52C539.143 45.552 539.119 45.928 539.071 46.648H529.615C529.807 47.32 530.175 47.84 530.719 48.208C531.279 48.56 531.975 48.736 532.807 48.736C533.431 48.736 533.967 48.648 534.415 48.472C534.879 48.296 535.343 48.008 535.807 47.608L538.207 50.104C536.943 51.512 535.095 52.216 532.663 52.216C531.143 52.216 529.807 51.928 528.655 51.352C527.503 50.776 526.607 49.976 525.967 48.952C525.343 47.928 525.031 46.768 525.031 45.472C525.031 44.192 525.335 43.048 525.943 42.04C526.567 41.016 527.423 40.216 528.511 39.64C529.599 39.064 530.823 38.776 532.183 38.776C533.479 38.776 534.655 39.048 535.711 39.592C536.767 40.12 537.599 40.896 538.207 41.92C538.831 42.928 539.143 44.128 539.143 45.52ZM532.207 42.016C531.503 42.016 530.911 42.216 530.431 42.616C529.967 43.016 529.671 43.56 529.543 44.248H534.871C534.743 43.56 534.439 43.016 533.959 42.616C533.495 42.216 532.911 42.016 532.207 42.016ZM562.222 38.992V49.624C562.222 52.04 561.566 53.848 560.254 55.048C558.942 56.264 557.054 56.872 554.59 56.872C553.31 56.872 552.11 56.728 550.99 56.44C549.87 56.152 548.918 55.728 548.134 55.168L549.79 51.976C550.318 52.408 550.982 52.744 551.782 52.984C552.598 53.24 553.398 53.368 554.182 53.368C555.382 53.368 556.262 53.104 556.822 52.576C557.382 52.048 557.662 51.264 557.662 50.224V49.792C556.782 50.816 555.494 51.328 553.798 51.328C552.646 51.328 551.582 51.072 550.606 50.56C549.63 50.032 548.854 49.296 548.278 48.352C547.702 47.392 547.414 46.288 547.414 45.04C547.414 43.808 547.702 42.72 548.278 41.776C548.854 40.816 549.63 40.08 550.606 39.568C551.582 39.04 552.646 38.776 553.798 38.776C555.654 38.776 557.014 39.376 557.878 40.576V38.992H562.222ZM554.878 47.704C555.694 47.704 556.366 47.456 556.894 46.96C557.438 46.464 557.71 45.824 557.71 45.04C557.71 44.256 557.446 43.624 556.918 43.144C556.39 42.648 555.71 42.4 554.878 42.4C554.046 42.4 553.358 42.648 552.814 43.144C552.286 43.624 552.022 44.256 552.022 45.04C552.022 45.824 552.294 46.464 552.838 46.96C553.382 47.456 554.062 47.704 554.878 47.704ZM569.496 40.552C569.96 39.96 570.56 39.52 571.296 39.232C572.048 38.928 572.904 38.776 573.864 38.776V42.88C573.448 42.832 573.104 42.808 572.832 42.808C571.856 42.808 571.088 43.072 570.528 43.6C569.984 44.128 569.712 44.936 569.712 46.024V52H565.152V38.992H569.496V40.552ZM582.156 52.216C580.764 52.216 579.508 51.928 578.388 51.352C577.268 50.776 576.388 49.976 575.748 48.952C575.124 47.928 574.812 46.768 574.812 45.472C574.812 44.192 575.124 43.04 575.748 42.016C576.388 40.992 577.26 40.2 578.364 39.64C579.484 39.064 580.748 38.776 582.156 38.776C583.564 38.776 584.828 39.064 585.948 39.64C587.068 40.2 587.94 40.992 588.564 42.016C589.188 43.024 589.5 44.176 589.5 45.472C589.5 46.768 589.188 47.928 588.564 48.952C587.94 49.976 587.068 50.776 585.948 51.352C584.828 51.928 583.564 52.216 582.156 52.216ZM582.156 48.592C582.956 48.592 583.612 48.32 584.124 47.776C584.636 47.216 584.892 46.448 584.892 45.472C584.892 44.512 584.636 43.76 584.124 43.216C583.612 42.672 582.956 42.4 582.156 42.4C581.356 42.4 580.7 42.672 580.188 43.216C579.676 43.76 579.42 44.512 579.42 45.472C579.42 46.448 579.676 47.216 580.188 47.776C580.7 48.32 581.356 48.592 582.156 48.592ZM605.292 38.992V52H600.948V50.608C600.468 51.136 599.892 51.536 599.22 51.808C598.548 52.08 597.836 52.216 597.084 52.216C595.404 52.216 594.06 51.72 593.052 50.728C592.06 49.736 591.564 48.248 591.564 46.264V38.992H596.124V45.52C596.124 46.496 596.308 47.208 596.676 47.656C597.044 48.104 597.58 48.328 598.284 48.328C599.004 48.328 599.588 48.08 600.036 47.584C600.5 47.072 600.732 46.296 600.732 45.256V38.992H605.292ZM616.702 38.776C618.318 38.776 619.614 39.256 620.59 40.216C621.582 41.176 622.078 42.624 622.078 44.56V52H617.518V45.304C617.518 43.528 616.806 42.64 615.382 42.64C614.598 42.64 613.966 42.896 613.486 43.408C613.022 43.92 612.79 44.688 612.79 45.712V52H608.23V38.992H612.574V40.408C613.086 39.88 613.694 39.48 614.398 39.208C615.102 38.92 615.87 38.776 616.702 38.776ZM638.952 34.192V52H634.608V50.704C633.76 51.712 632.488 52.216 630.792 52.216C629.608 52.216 628.528 51.944 627.552 51.4C626.576 50.84 625.8 50.048 625.224 49.024C624.664 48 624.384 46.816 624.384 45.472C624.384 44.128 624.664 42.952 625.224 41.944C625.8 40.92 626.576 40.136 627.552 39.592C628.528 39.048 629.608 38.776 630.792 38.776C632.344 38.776 633.544 39.224 634.392 40.12V34.192H638.952ZM631.752 48.592C632.536 48.592 633.184 48.32 633.696 47.776C634.208 47.216 634.464 46.448 634.464 45.472C634.464 44.512 634.208 43.76 633.696 43.216C633.2 42.672 632.552 42.4 631.752 42.4C630.952 42.4 630.296 42.672 629.784 43.216C629.272 43.76 629.016 44.512 629.016 45.472C629.016 46.448 629.272 47.216 629.784 47.776C630.296 48.32 630.952 48.592 631.752 48.592ZM643.806 52.216C643.038 52.216 642.39 51.96 641.862 51.448C641.334 50.936 641.07 50.288 641.07 49.504C641.07 48.704 641.326 48.056 641.838 47.56C642.366 47.064 643.022 46.816 643.806 46.816C644.606 46.816 645.262 47.064 645.774 47.56C646.286 48.056 646.542 48.704 646.542 49.504C646.542 50.288 646.278 50.936 645.75 51.448C645.238 51.96 644.59 52.216 643.806 52.216Z" fill="black"/>
</svg>
