<svg width="652" height="65" viewBox="0 0 652 65" fill="none" xmlns="http://www.w3.org/2000/svg">
<rect width="652" height="65" fill="white" fill-opacity="0.13"/>
<rect x="2" width="650" height="64.4444" fill="white"/>
<path d="M9.68 9.872L9.128 12.704H16.592L15.896 16.256H8.408L7.808 19.328H16.616L15.848 23H2.384L5.744 6.2H18.896L18.152 9.872H9.68ZM28.0147 16.544L31.5427 23H26.6947L24.9187 19.592L21.7747 23H16.6147L23.1187 16.328L19.6867 9.992H24.4627L26.1907 13.304L29.2867 9.992H34.3027L28.0147 16.544ZM39.1301 18.152C39.0981 18.376 39.0821 18.52 39.0821 18.584C39.0821 19.32 39.4821 19.688 40.2821 19.688C40.7141 19.688 41.1701 19.56 41.6501 19.304L42.2261 22.448C41.3301 22.96 40.2021 23.216 38.8421 23.216C37.4981 23.216 36.4261 22.88 35.6261 22.208C34.8421 21.536 34.4501 20.6 34.4501 19.4C34.4501 18.936 34.4901 18.528 34.5701 18.176L35.4341 13.88H33.5141L34.2101 10.472H36.1061L36.7781 7.088H41.3381L40.6661 10.472H43.6181L42.9461 13.88H39.9941L39.1301 18.152ZM50.4404 11.432C51.5284 10.328 53.0964 9.776 55.1444 9.776L54.3524 13.88C53.9524 13.832 53.6084 13.808 53.3204 13.808C52.2964 13.808 51.4724 14.056 50.8484 14.552C50.2404 15.032 49.8324 15.8 49.6244 16.856L48.3764 23H43.8164L46.4084 9.992H50.7284L50.4404 11.432ZM70.637 9.992L68.045 23H63.725L63.989 21.776C62.949 22.736 61.693 23.216 60.221 23.216C59.261 23.216 58.357 22.984 57.509 22.52C56.677 22.04 56.005 21.352 55.493 20.456C54.981 19.56 54.725 18.504 54.725 17.288C54.725 15.88 55.037 14.608 55.661 13.472C56.301 12.32 57.157 11.416 58.229 10.76C59.317 10.104 60.501 9.776 61.781 9.776C63.669 9.776 64.997 10.368 65.765 11.552L66.077 9.992H70.637ZM61.805 19.544C62.717 19.544 63.461 19.208 64.037 18.536C64.613 17.864 64.901 16.992 64.901 15.92C64.901 15.152 64.677 14.544 64.229 14.096C63.797 13.648 63.197 13.424 62.429 13.424C61.517 13.424 60.773 13.76 60.197 14.432C59.621 15.104 59.333 15.984 59.333 17.072C59.333 17.84 59.549 18.448 59.981 18.896C60.429 19.328 61.037 19.544 61.805 19.544ZM72.3965 14.408H79.3805L78.6845 17.912H71.7005L72.3965 14.408ZM90.7012 9.776C91.6612 9.776 92.5572 10.016 93.3892 10.496C94.2372 10.96 94.9172 11.64 95.4292 12.536C95.9412 13.432 96.1972 14.48 96.1972 15.68C96.1972 17.104 95.8772 18.392 95.2372 19.544C94.6132 20.68 93.7572 21.576 92.6692 22.232C91.5972 22.888 90.4212 23.216 89.1412 23.216C87.1252 23.216 85.7412 22.528 84.9892 21.152L84.6292 23H80.2852L83.8372 5.192H88.3972L87.2452 10.976C88.2212 10.176 89.3732 9.776 90.7012 9.776ZM88.4932 19.544C89.4052 19.544 90.1492 19.208 90.7252 18.536C91.3012 17.864 91.5892 16.992 91.5892 15.92C91.5892 15.152 91.3652 14.544 90.9172 14.096C90.4852 13.648 89.8852 13.424 89.1172 13.424C88.2052 13.424 87.4612 13.76 86.8852 14.432C86.3092 15.104 86.0212 15.984 86.0212 17.072C86.0212 17.84 86.2372 18.448 86.6692 18.896C87.1172 19.328 87.7252 19.544 88.4932 19.544ZM104.197 23.216C102.821 23.216 101.621 22.976 100.597 22.496C99.5727 22 98.7807 21.304 98.2207 20.408C97.6607 19.512 97.3807 18.472 97.3807 17.288C97.3807 15.864 97.7247 14.584 98.4127 13.448C99.1007 12.312 100.053 11.416 101.269 10.76C102.485 10.104 103.853 9.776 105.373 9.776C106.749 9.776 107.949 10.024 108.973 10.52C109.997 11 110.789 11.688 111.349 12.584C111.909 13.464 112.189 14.496 112.189 15.68C112.189 17.104 111.845 18.392 111.157 19.544C110.469 20.68 109.517 21.576 108.301 22.232C107.101 22.888 105.733 23.216 104.197 23.216ZM104.461 19.544C105.373 19.544 106.117 19.208 106.693 18.536C107.269 17.864 107.557 16.992 107.557 15.92C107.557 15.152 107.341 14.544 106.909 14.096C106.477 13.648 105.877 13.424 105.109 13.424C104.197 13.424 103.453 13.76 102.877 14.432C102.301 15.104 102.013 15.984 102.013 17.072C102.013 17.84 102.229 18.448 102.661 18.896C103.093 19.328 103.693 19.544 104.461 19.544ZM116.486 5.192H121.046L117.494 23H112.934L116.486 5.192ZM137.833 5.192L134.281 23H129.961L130.225 21.728C129.185 22.72 127.929 23.216 126.457 23.216C125.497 23.216 124.593 22.984 123.745 22.52C122.913 22.04 122.241 21.352 121.729 20.456C121.217 19.56 120.961 18.504 120.961 17.288C120.961 15.88 121.273 14.608 121.897 13.472C122.537 12.32 123.401 11.416 124.489 10.76C125.577 10.104 126.761 9.776 128.041 9.776C129.897 9.776 131.217 10.352 132.001 11.504L133.273 5.192H137.833ZM128.041 19.544C128.953 19.544 129.697 19.208 130.273 18.536C130.849 17.864 131.137 16.992 131.137 15.92C131.137 15.152 130.921 14.544 130.489 14.096C130.057 13.648 129.457 13.424 128.689 13.424C127.777 13.424 127.033 13.76 126.457 14.432C125.881 15.104 125.593 15.984 125.593 17.072C125.593 17.84 125.809 18.448 126.241 18.896C126.673 19.328 127.273 19.544 128.041 19.544ZM147.775 6.2H152.527L149.167 23H144.415L147.775 6.2ZM158.38 18.152C158.348 18.376 158.332 18.52 158.332 18.584C158.332 19.32 158.732 19.688 159.532 19.688C159.964 19.688 160.42 19.56 160.9 19.304L161.476 22.448C160.58 22.96 159.452 23.216 158.092 23.216C156.748 23.216 155.676 22.88 154.876 22.208C154.092 21.536 153.7 20.6 153.7 19.4C153.7 18.936 153.74 18.528 153.82 18.176L154.684 13.88H152.764L153.46 10.472H155.356L156.028 7.088H160.588L159.916 10.472H162.868L162.196 13.88H159.244L158.38 18.152ZM179.035 9.992L176.443 23H172.123L172.387 21.776C171.347 22.736 170.091 23.216 168.619 23.216C167.659 23.216 166.755 22.984 165.907 22.52C165.075 22.04 164.403 21.352 163.891 20.456C163.379 19.56 163.123 18.504 163.123 17.288C163.123 15.88 163.435 14.608 164.059 13.472C164.699 12.32 165.555 11.416 166.627 10.76C167.715 10.104 168.899 9.776 170.179 9.776C172.067 9.776 173.395 10.368 174.163 11.552L174.475 9.992H179.035ZM170.203 19.544C171.115 19.544 171.859 19.208 172.435 18.536C173.011 17.864 173.299 16.992 173.299 15.92C173.299 15.152 173.075 14.544 172.627 14.096C172.195 13.648 171.595 13.424 170.827 13.424C169.915 13.424 169.171 13.76 168.595 14.432C168.019 15.104 167.731 15.984 167.731 17.072C167.731 17.84 167.947 18.448 168.379 18.896C168.827 19.328 169.435 19.544 170.203 19.544ZM182.931 5.192H187.491L183.939 23H179.379L182.931 5.192ZM189.494 9.992H194.03L191.438 23H186.902L189.494 9.992ZM192.398 8.552C191.614 8.552 190.982 8.336 190.502 7.904C190.022 7.472 189.782 6.936 189.782 6.296C189.782 5.544 190.046 4.928 190.574 4.448C191.118 3.952 191.83 3.704 192.71 3.704C193.51 3.704 194.15 3.912 194.63 4.328C195.11 4.728 195.35 5.248 195.35 5.888C195.35 6.672 195.078 7.312 194.534 7.808C193.99 8.304 193.278 8.552 192.398 8.552ZM201.651 23.216C200.275 23.216 199.067 22.976 198.027 22.496C197.003 22 196.203 21.304 195.627 20.408C195.067 19.512 194.787 18.472 194.787 17.288C194.787 15.864 195.131 14.584 195.819 13.448C196.507 12.312 197.467 11.416 198.699 10.76C199.931 10.104 201.315 9.776 202.851 9.776C204.323 9.776 205.595 10.088 206.667 10.712C207.739 11.32 208.523 12.184 209.019 13.304L205.131 15.152C204.651 14 203.811 13.424 202.611 13.424C201.683 13.424 200.915 13.76 200.307 14.432C199.715 15.104 199.419 15.968 199.419 17.024C199.419 17.792 199.635 18.408 200.067 18.872C200.515 19.32 201.147 19.544 201.963 19.544C202.571 19.544 203.107 19.408 203.571 19.136C204.035 18.864 204.435 18.432 204.771 17.84L208.107 19.856C207.483 20.912 206.603 21.736 205.467 22.328C204.347 22.92 203.075 23.216 201.651 23.216ZM228.905 14.48C230.041 15.312 230.609 16.384 230.609 17.696C230.609 18.848 230.289 19.848 229.649 20.696C229.025 21.544 228.145 22.2 227.009 22.664C225.873 23.112 224.569 23.336 223.097 23.336C221.689 23.336 220.449 23.136 219.377 22.736C218.321 22.336 217.497 21.776 216.905 21.056C216.329 20.32 216.041 19.472 216.041 18.512C216.041 17.44 216.321 16.504 216.881 15.704C217.457 14.904 218.265 14.28 219.305 13.832C218.473 13.096 218.057 12.192 218.057 11.12C218.057 10.048 218.345 9.12 218.921 8.336C219.513 7.536 220.329 6.928 221.369 6.512C222.425 6.08 223.625 5.864 224.969 5.864C226.249 5.864 227.377 6.048 228.353 6.416C229.345 6.784 230.113 7.312 230.657 8C231.201 8.672 231.473 9.448 231.473 10.328C231.473 11.256 231.249 12.072 230.801 12.776C230.353 13.48 229.721 14.048 228.905 14.48ZM224.897 9.2C224.257 9.2 223.745 9.376 223.361 9.728C222.977 10.064 222.785 10.536 222.785 11.144C222.785 11.64 222.953 12.032 223.289 12.32C223.625 12.592 224.081 12.728 224.657 12.728C225.281 12.728 225.785 12.552 226.169 12.2C226.569 11.848 226.769 11.376 226.769 10.784C226.769 10.288 226.593 9.904 226.241 9.632C225.905 9.344 225.457 9.2 224.897 9.2ZM223.169 20C223.969 20 224.609 19.8 225.089 19.4C225.585 18.984 225.833 18.432 225.833 17.744C225.833 17.152 225.617 16.688 225.185 16.352C224.769 16 224.201 15.824 223.481 15.824C222.681 15.824 222.033 16.032 221.537 16.448C221.041 16.848 220.793 17.392 220.793 18.08C220.793 18.672 221.009 19.144 221.441 19.496C221.889 19.832 222.465 20 223.169 20ZM238.96 23.336C237.024 23.336 235.488 22.768 234.352 21.632C233.232 20.48 232.672 18.888 232.672 16.856C232.672 14.808 233.048 12.952 233.8 11.288C234.568 9.608 235.632 8.288 236.992 7.328C238.352 6.352 239.888 5.864 241.6 5.864C243.536 5.864 245.064 6.44 246.184 7.592C247.32 8.728 247.888 10.312 247.888 12.344C247.888 14.392 247.504 16.256 246.736 17.936C245.984 19.6 244.928 20.92 243.568 21.896C242.208 22.856 240.672 23.336 238.96 23.336ZM239.416 19.448C240.184 19.448 240.848 19.072 241.408 18.32C241.968 17.568 242.392 16.648 242.68 15.56C242.968 14.472 243.112 13.44 243.112 12.464C243.112 11.536 242.936 10.856 242.584 10.424C242.248 9.976 241.768 9.752 241.144 9.752C240.376 9.752 239.712 10.128 239.152 10.88C238.592 11.632 238.168 12.552 237.88 13.64C237.592 14.728 237.448 15.76 237.448 16.736C237.448 18.544 238.104 19.448 239.416 19.448ZM255.389 23.336C253.453 23.336 251.917 22.768 250.781 21.632C249.661 20.48 249.101 18.888 249.101 16.856C249.101 14.808 249.477 12.952 250.229 11.288C250.997 9.608 252.061 8.288 253.421 7.328C254.781 6.352 256.317 5.864 258.029 5.864C259.965 5.864 261.493 6.44 262.613 7.592C263.749 8.728 264.317 10.312 264.317 12.344C264.317 14.392 263.933 16.256 263.165 17.936C262.413 19.6 261.357 20.92 259.997 21.896C258.637 22.856 257.101 23.336 255.389 23.336ZM255.845 19.448C256.613 19.448 257.277 19.072 257.837 18.32C258.397 17.568 258.821 16.648 259.109 15.56C259.397 14.472 259.541 13.44 259.541 12.464C259.541 11.536 259.365 10.856 259.013 10.424C258.677 9.976 258.197 9.752 257.573 9.752C256.805 9.752 256.141 10.128 255.581 10.88C255.021 11.632 254.597 12.552 254.309 13.64C254.021 14.728 253.877 15.76 253.877 16.736C253.877 18.544 254.533 19.448 255.845 19.448ZM14.48 48.736H7.328L5.384 52H0.368L11.144 35.2H15.824L19.88 52H15.152L14.48 48.736ZM13.76 45.232L12.632 39.784L9.416 45.232H13.76ZM24.5872 34.192H29.1472L25.5952 52H21.0352L24.5872 34.192ZM47.7826 38.776C49.1586 38.776 50.2626 39.16 51.0946 39.928C51.9266 40.696 52.3426 41.784 52.3426 43.192C52.3426 43.72 52.2866 44.256 52.1746 44.8L50.7586 52H46.1986L47.5426 45.28C47.6066 44.976 47.6386 44.672 47.6386 44.368C47.6386 43.792 47.4946 43.36 47.2066 43.072C46.9346 42.784 46.5346 42.64 46.0066 42.64C44.5506 42.64 43.6306 43.576 43.2466 45.448L41.9266 52H37.3666L38.7346 45.28C38.7986 45.008 38.8306 44.712 38.8306 44.392C38.8306 43.816 38.6866 43.384 38.3986 43.096C38.1266 42.792 37.7266 42.64 37.1986 42.64C35.7266 42.64 34.7986 43.592 34.4146 45.496L33.1186 52H28.5586L31.1506 38.992H35.4706L35.2066 40.312C36.2786 39.288 37.5746 38.776 39.0946 38.776C39.9586 38.776 40.7346 38.96 41.4226 39.328C42.1106 39.68 42.6386 40.2 43.0066 40.888C43.6146 40.2 44.3186 39.68 45.1186 39.328C45.9346 38.96 46.8226 38.776 47.7826 38.776ZM61.0483 52.216C59.6723 52.216 58.4723 51.976 57.4483 51.496C56.4243 51 55.6323 50.304 55.0723 49.408C54.5123 48.512 54.2323 47.472 54.2323 46.288C54.2323 44.864 54.5763 43.584 55.2643 42.448C55.9523 41.312 56.9043 40.416 58.1203 39.76C59.3363 39.104 60.7043 38.776 62.2243 38.776C63.6003 38.776 64.8003 39.024 65.8243 39.52C66.8483 40 67.6403 40.688 68.2003 41.584C68.7603 42.464 69.0403 43.496 69.0403 44.68C69.0403 46.104 68.6963 47.392 68.0083 48.544C67.3203 49.68 66.3683 50.576 65.1523 51.232C63.9523 51.888 62.5843 52.216 61.0483 52.216ZM61.3123 48.544C62.2243 48.544 62.9683 48.208 63.5443 47.536C64.1203 46.864 64.4083 45.992 64.4083 44.92C64.4083 44.152 64.1923 43.544 63.7603 43.096C63.3283 42.648 62.7283 42.424 61.9603 42.424C61.0483 42.424 60.3043 42.76 59.7283 43.432C59.1523 44.104 58.8643 44.984 58.8643 46.072C58.8643 46.84 59.0803 47.448 59.5123 47.896C59.9443 48.328 60.5443 48.544 61.3123 48.544ZM74.8732 52.216C73.7532 52.216 72.6732 52.096 71.6332 51.856C70.6092 51.616 69.8092 51.312 69.2332 50.944L70.8892 47.752C71.4812 48.12 72.1852 48.416 73.0012 48.64C73.8172 48.848 74.6172 48.952 75.4012 48.952C76.7932 48.952 77.4892 48.64 77.4892 48.016C77.4892 47.76 77.3212 47.576 76.9852 47.464C76.6652 47.336 76.1452 47.216 75.4252 47.104C74.4652 46.928 73.6732 46.744 73.0492 46.552C72.4412 46.344 71.9052 46 71.4412 45.52C70.9772 45.04 70.7452 44.368 70.7452 43.504C70.7452 42 71.3852 40.84 72.6652 40.024C73.9612 39.192 75.6332 38.776 77.6812 38.776C78.6092 38.776 79.5052 38.872 80.3692 39.064C81.2332 39.24 81.9852 39.488 82.6252 39.808L81.0172 43C79.9292 42.344 78.6412 42.016 77.1532 42.016C76.4492 42.016 75.9212 42.112 75.5692 42.304C75.2332 42.48 75.0652 42.712 75.0652 43C75.0652 43.256 75.2252 43.448 75.5452 43.576C75.8812 43.688 76.4252 43.816 77.1772 43.96C78.1052 44.12 78.8732 44.304 79.4812 44.512C80.1052 44.72 80.6412 45.064 81.0892 45.544C81.5532 46.024 81.7852 46.68 81.7852 47.512C81.7852 49.016 81.1372 50.176 79.8412 50.992C78.5452 51.808 76.8892 52.216 74.8732 52.216ZM88.9582 47.152C88.9262 47.376 88.9102 47.52 88.9102 47.584C88.9102 48.32 89.3102 48.688 90.1102 48.688C90.5422 48.688 90.9982 48.56 91.4782 48.304L92.0542 51.448C91.1582 51.96 90.0302 52.216 88.6702 52.216C87.3262 52.216 86.2542 51.88 85.4542 51.208C84.6702 50.536 84.2782 49.6 84.2782 48.4C84.2782 47.936 84.3182 47.528 84.3982 47.176L85.2622 42.88H83.3422L84.0382 39.472H85.9342L86.6062 36.088H91.1662L90.4942 39.472H93.4462L92.7742 42.88H89.8222L88.9582 47.152ZM111.045 38.776C112.005 38.776 112.901 39.016 113.733 39.496C114.581 39.96 115.261 40.64 115.773 41.536C116.285 42.432 116.541 43.48 116.541 44.68C116.541 46.104 116.221 47.392 115.581 48.544C114.957 49.68 114.101 50.576 113.013 51.232C111.941 51.888 110.765 52.216 109.485 52.216C107.469 52.216 106.085 51.528 105.333 50.152L104.973 52H100.629L104.181 34.192H108.741L107.589 39.976C108.565 39.176 109.717 38.776 111.045 38.776ZM108.837 48.544C109.749 48.544 110.493 48.208 111.069 47.536C111.645 46.864 111.933 45.992 111.933 44.92C111.933 44.152 111.709 43.544 111.261 43.096C110.829 42.648 110.229 42.424 109.461 42.424C108.549 42.424 107.805 42.76 107.229 43.432C106.653 44.104 106.365 44.984 106.365 46.072C106.365 46.84 106.581 47.448 107.013 47.896C107.461 48.328 108.069 48.544 108.837 48.544ZM132.028 44.488C132.028 45.112 131.94 45.824 131.764 46.624H122.212C122.372 48.032 123.356 48.736 125.164 48.736C125.74 48.736 126.3 48.648 126.844 48.472C127.388 48.296 127.876 48.032 128.308 47.68L130.204 50.536C128.684 51.656 126.836 52.216 124.66 52.216C123.284 52.216 122.068 51.976 121.012 51.496C119.972 51 119.164 50.312 118.588 49.432C118.028 48.536 117.748 47.488 117.748 46.288C117.748 44.864 118.076 43.584 118.732 42.448C119.404 41.296 120.332 40.4 121.516 39.76C122.716 39.104 124.084 38.776 125.62 38.776C126.916 38.776 128.044 39.016 129.004 39.496C129.98 39.96 130.724 40.624 131.236 41.488C131.764 42.352 132.028 43.352 132.028 44.488ZM125.404 42.016C124.668 42.016 124.052 42.216 123.556 42.616C123.06 43 122.7 43.536 122.476 44.224H127.828C127.844 43.536 127.628 43 127.18 42.616C126.732 42.216 126.14 42.016 125.404 42.016ZM141.933 37.48C141.437 37.48 141.045 37.624 140.757 37.912C140.469 38.184 140.261 38.616 140.133 39.208L140.085 39.472H143.157L142.485 42.88H139.533L137.709 52H133.149L134.973 42.88H133.053L133.749 39.472H135.669L135.765 38.944C136.069 37.408 136.741 36.2 137.781 35.32C138.821 34.424 140.189 33.976 141.885 33.976C143.181 33.976 144.229 34.208 145.029 34.672L143.277 37.864C142.861 37.608 142.413 37.48 141.933 37.48ZM149.455 52.216C148.079 52.216 146.879 51.976 145.855 51.496C144.831 51 144.039 50.304 143.479 49.408C142.919 48.512 142.639 47.472 142.639 46.288C142.639 44.864 142.983 43.584 143.671 42.448C144.359 41.312 145.311 40.416 146.527 39.76C147.743 39.104 149.111 38.776 150.631 38.776C152.007 38.776 153.207 39.024 154.231 39.52C155.255 40 156.047 40.688 156.607 41.584C157.167 42.464 157.447 43.496 157.447 44.68C157.447 46.104 157.103 47.392 156.415 48.544C155.727 49.68 154.775 50.576 153.559 51.232C152.359 51.888 150.991 52.216 149.455 52.216ZM149.719 48.544C150.631 48.544 151.375 48.208 151.951 47.536C152.527 46.864 152.815 45.992 152.815 44.92C152.815 44.152 152.599 43.544 152.167 43.096C151.735 42.648 151.135 42.424 150.367 42.424C149.455 42.424 148.711 42.76 148.135 43.432C147.559 44.104 147.271 44.984 147.271 46.072C147.271 46.84 147.487 47.448 147.919 47.896C148.351 48.328 148.951 48.544 149.719 48.544ZM164.815 40.432C165.903 39.328 167.471 38.776 169.519 38.776L168.727 42.88C168.327 42.832 167.983 42.808 167.695 42.808C166.671 42.808 165.847 43.056 165.223 43.552C164.615 44.032 164.207 44.8 163.999 45.856L162.751 52H158.191L160.783 38.992H165.103L164.815 40.432ZM183.38 44.488C183.38 45.112 183.292 45.824 183.116 46.624H173.564C173.724 48.032 174.708 48.736 176.516 48.736C177.092 48.736 177.652 48.648 178.196 48.472C178.74 48.296 179.228 48.032 179.66 47.68L181.556 50.536C180.036 51.656 178.188 52.216 176.012 52.216C174.636 52.216 173.42 51.976 172.364 51.496C171.324 51 170.516 50.312 169.94 49.432C169.38 48.536 169.1 47.488 169.1 46.288C169.1 44.864 169.428 43.584 170.084 42.448C170.756 41.296 171.684 40.4 172.868 39.76C174.068 39.104 175.436 38.776 176.972 38.776C178.268 38.776 179.396 39.016 180.356 39.496C181.332 39.96 182.076 40.624 182.588 41.488C183.116 42.352 183.38 43.352 183.38 44.488ZM176.756 42.016C176.02 42.016 175.404 42.216 174.908 42.616C174.412 43 174.052 43.536 173.828 44.224H179.18C179.196 43.536 178.98 43 178.532 42.616C178.084 42.216 177.492 42.016 176.756 42.016ZM215.293 38.992L208.189 52H203.677L202.453 44.92L198.637 52H194.173L191.965 38.992H196.141L197.317 46.816L201.613 38.992H205.525L206.725 46.816L211.021 38.992H215.293ZM228.38 44.488C228.38 45.112 228.292 45.824 228.116 46.624H218.564C218.724 48.032 219.708 48.736 221.516 48.736C222.092 48.736 222.652 48.648 223.196 48.472C223.74 48.296 224.228 48.032 224.66 47.68L226.556 50.536C225.036 51.656 223.188 52.216 221.012 52.216C219.636 52.216 218.42 51.976 217.364 51.496C216.324 51 215.516 50.312 214.94 49.432C214.38 48.536 214.1 47.488 214.1 46.288C214.1 44.864 214.428 43.584 215.084 42.448C215.756 41.296 216.684 40.4 217.868 39.76C219.068 39.104 220.436 38.776 221.972 38.776C223.268 38.776 224.396 39.016 225.356 39.496C226.332 39.96 227.076 40.624 227.588 41.488C228.116 42.352 228.38 43.352 228.38 44.488ZM221.756 42.016C221.02 42.016 220.404 42.216 219.908 42.616C219.412 43 219.052 43.536 218.828 44.224H224.18C224.196 43.536 223.98 43 223.532 42.616C223.084 42.216 222.492 42.016 221.756 42.016ZM246.565 44.752L250.933 52H245.605L242.941 47.56L241.069 49.192L240.517 52H235.957L239.509 34.192H244.069L242.221 43.432L247.477 38.992H253.237L246.565 44.752ZM262.646 38.776C264.07 38.776 265.206 39.16 266.054 39.928C266.918 40.68 267.35 41.768 267.35 43.192C267.35 43.72 267.294 44.256 267.182 44.8L265.742 52H261.182L262.526 45.232C262.59 44.96 262.622 44.672 262.622 44.368C262.622 43.216 262.022 42.64 260.822 42.64C260.022 42.64 259.366 42.888 258.854 43.384C258.342 43.864 257.982 44.592 257.774 45.568L256.478 52H251.918L254.51 38.992H258.83L258.566 40.336C259.126 39.808 259.758 39.416 260.462 39.16C261.166 38.904 261.894 38.776 262.646 38.776ZM283.528 44.488C283.528 45.112 283.44 45.824 283.264 46.624H273.712C273.872 48.032 274.856 48.736 276.664 48.736C277.24 48.736 277.8 48.648 278.344 48.472C278.888 48.296 279.376 48.032 279.808 47.68L281.704 50.536C280.184 51.656 278.336 52.216 276.16 52.216C274.784 52.216 273.568 51.976 272.512 51.496C271.472 51 270.664 50.312 270.088 49.432C269.528 48.536 269.248 47.488 269.248 46.288C269.248 44.864 269.576 43.584 270.232 42.448C270.904 41.296 271.832 40.4 273.016 39.76C274.216 39.104 275.584 38.776 277.12 38.776C278.416 38.776 279.544 39.016 280.504 39.496C281.48 39.96 282.224 40.624 282.736 41.488C283.264 42.352 283.528 43.352 283.528 44.488ZM276.904 42.016C276.168 42.016 275.552 42.216 275.056 42.616C274.56 43 274.2 43.536 273.976 44.224H279.328C279.344 43.536 279.128 43 278.68 42.616C278.232 42.216 277.64 42.016 276.904 42.016ZM308.223 38.992L301.119 52H296.607L295.383 44.92L291.567 52H287.103L284.895 38.992H289.071L290.247 46.816L294.543 38.992H298.455L299.655 46.816L303.951 38.992H308.223ZM316.526 38.992H321.062L318.47 52H313.934L316.526 38.992ZM319.43 37.552C318.646 37.552 318.014 37.336 317.534 36.904C317.054 36.472 316.814 35.936 316.814 35.296C316.814 34.544 317.078 33.928 317.606 33.448C318.15 32.952 318.862 32.704 319.742 32.704C320.542 32.704 321.182 32.912 321.662 33.328C322.142 33.728 322.382 34.248 322.382 34.888C322.382 35.672 322.11 36.312 321.566 36.808C321.022 37.304 320.31 37.552 319.43 37.552ZM327.458 47.152C327.426 47.376 327.41 47.52 327.41 47.584C327.41 48.32 327.81 48.688 328.61 48.688C329.042 48.688 329.498 48.56 329.978 48.304L330.554 51.448C329.658 51.96 328.53 52.216 327.17 52.216C325.826 52.216 324.754 51.88 323.954 51.208C323.17 50.536 322.778 49.6 322.778 48.4C322.778 47.936 322.818 47.528 322.898 47.176L323.762 42.88H321.842L322.538 39.472H324.434L325.106 36.088H329.666L328.994 39.472H331.946L331.274 42.88H328.322L327.458 47.152ZM334.971 46.816C335.739 46.816 336.355 47.048 336.819 47.512C337.299 47.96 337.539 48.56 337.539 49.312C337.539 49.696 337.467 50.064 337.323 50.416C337.179 50.752 336.923 51.2 336.555 51.76L333.963 55.768H331.107L333.075 51.76C332.755 51.536 332.499 51.248 332.307 50.896C332.131 50.544 332.043 50.152 332.043 49.72C332.043 48.856 332.323 48.16 332.883 47.632C333.459 47.088 334.155 46.816 334.971 46.816ZM370.496 38.992L363.392 52H358.88L357.656 44.92L353.84 52H349.376L347.168 38.992H351.344L352.52 46.816L356.816 38.992H360.728L361.928 46.816L366.224 38.992H370.496ZM383.583 44.488C383.583 45.112 383.495 45.824 383.319 46.624H373.767C373.927 48.032 374.911 48.736 376.719 48.736C377.295 48.736 377.855 48.648 378.399 48.472C378.943 48.296 379.431 48.032 379.863 47.68L381.759 50.536C380.239 51.656 378.391 52.216 376.215 52.216C374.839 52.216 373.623 51.976 372.567 51.496C371.527 51 370.719 50.312 370.143 49.432C369.583 48.536 369.303 47.488 369.303 46.288C369.303 44.864 369.631 43.584 370.287 42.448C370.959 41.296 371.887 40.4 373.071 39.76C374.271 39.104 375.639 38.776 377.175 38.776C378.471 38.776 379.599 39.016 380.559 39.496C381.535 39.96 382.279 40.624 382.791 41.488C383.319 42.352 383.583 43.352 383.583 44.488ZM376.959 42.016C376.223 42.016 375.607 42.216 375.111 42.616C374.615 43 374.255 43.536 374.031 44.224H379.383C379.399 43.536 379.183 43 378.735 42.616C378.287 42.216 377.695 42.016 376.959 42.016ZM401.888 38.776C403.296 38.776 404.432 39.16 405.296 39.928C406.16 40.696 406.592 41.8 406.592 43.24C406.592 43.768 406.536 44.288 406.424 44.8L404.984 52H400.424L401.768 45.232C401.832 44.96 401.864 44.672 401.864 44.368C401.864 43.216 401.264 42.64 400.064 42.64C399.264 42.64 398.608 42.888 398.096 43.384C397.584 43.864 397.224 44.592 397.016 45.568L395.72 52H391.16L394.712 34.192H399.272L398.096 40.072C399.2 39.208 400.464 38.776 401.888 38.776ZM424.403 38.992L421.811 52H417.491L417.755 50.776C416.715 51.736 415.459 52.216 413.987 52.216C413.027 52.216 412.123 51.984 411.275 51.52C410.443 51.04 409.771 50.352 409.259 49.456C408.747 48.56 408.491 47.504 408.491 46.288C408.491 44.88 408.803 43.608 409.427 42.472C410.067 41.32 410.923 40.416 411.995 39.76C413.083 39.104 414.267 38.776 415.547 38.776C417.435 38.776 418.763 39.368 419.531 40.552L419.843 38.992H424.403ZM415.571 48.544C416.483 48.544 417.227 48.208 417.803 47.536C418.379 46.864 418.667 45.992 418.667 44.92C418.667 44.152 418.443 43.544 417.995 43.096C417.563 42.648 416.963 42.424 416.195 42.424C415.283 42.424 414.539 42.76 413.963 43.432C413.387 44.104 413.099 44.984 413.099 46.072C413.099 46.84 413.315 47.448 413.747 47.896C414.195 48.328 414.803 48.544 415.571 48.544ZM442.122 34.192L438.57 52H434.25L434.514 50.728C433.474 51.72 432.218 52.216 430.746 52.216C429.786 52.216 428.882 51.984 428.034 51.52C427.202 51.04 426.53 50.352 426.018 49.456C425.506 48.56 425.25 47.504 425.25 46.288C425.25 44.88 425.562 43.608 426.186 42.472C426.826 41.32 427.69 40.416 428.778 39.76C429.866 39.104 431.05 38.776 432.33 38.776C434.186 38.776 435.506 39.352 436.29 40.504L437.562 34.192H442.122ZM432.33 48.544C433.242 48.544 433.986 48.208 434.562 47.536C435.138 46.864 435.426 45.992 435.426 44.92C435.426 44.152 435.21 43.544 434.778 43.096C434.346 42.648 433.746 42.424 432.978 42.424C432.066 42.424 431.322 42.76 430.746 43.432C430.17 44.104 429.882 44.984 429.882 46.072C429.882 46.84 430.098 47.448 430.53 47.896C430.962 48.328 431.562 48.544 432.33 48.544ZM452.04 34.192H456.6L453.048 52H448.488L452.04 34.192ZM470.724 44.488C470.724 45.112 470.636 45.824 470.46 46.624H460.908C461.068 48.032 462.052 48.736 463.86 48.736C464.436 48.736 464.996 48.648 465.54 48.472C466.084 48.296 466.572 48.032 467.004 47.68L468.9 50.536C467.38 51.656 465.532 52.216 463.356 52.216C461.98 52.216 460.764 51.976 459.708 51.496C458.668 51 457.86 50.312 457.284 49.432C456.724 48.536 456.444 47.488 456.444 46.288C456.444 44.864 456.772 43.584 457.428 42.448C458.1 41.296 459.028 40.4 460.212 39.76C461.412 39.104 462.78 38.776 464.316 38.776C465.612 38.776 466.74 39.016 467.7 39.496C468.676 39.96 469.42 40.624 469.932 41.488C470.46 42.352 470.724 43.352 470.724 44.488ZM464.1 42.016C463.364 42.016 462.748 42.216 462.252 42.616C461.756 43 461.396 43.536 461.172 44.224H466.524C466.54 43.536 466.324 43 465.876 42.616C465.428 42.216 464.836 42.016 464.1 42.016ZM480.628 37.48C480.132 37.48 479.74 37.624 479.452 37.912C479.164 38.184 478.956 38.616 478.828 39.208L478.78 39.472H481.852L481.18 42.88H478.228L476.404 52H471.844L473.668 42.88H471.748L472.444 39.472H474.364L474.46 38.944C474.764 37.408 475.436 36.2 476.476 35.32C477.516 34.424 478.884 33.976 480.58 33.976C481.876 33.976 482.924 34.208 483.724 34.672L481.972 37.864C481.556 37.608 481.108 37.48 480.628 37.48ZM487.114 47.152C487.082 47.376 487.066 47.52 487.066 47.584C487.066 48.32 487.466 48.688 488.266 48.688C488.698 48.688 489.154 48.56 489.634 48.304L490.21 51.448C489.314 51.96 488.186 52.216 486.826 52.216C485.482 52.216 484.41 51.88 483.61 51.208C482.826 50.536 482.434 49.6 482.434 48.4C482.434 47.936 482.474 47.528 482.554 47.176L483.418 42.88H481.498L482.194 39.472H484.09L484.762 36.088H489.322L488.65 39.472H491.602L490.93 42.88H487.978L487.114 47.152ZM504.833 47.152C504.801 47.376 504.785 47.52 504.785 47.584C504.785 48.32 505.185 48.688 505.985 48.688C506.417 48.688 506.873 48.56 507.353 48.304L507.929 51.448C507.033 51.96 505.905 52.216 504.545 52.216C503.201 52.216 502.129 51.88 501.329 51.208C500.545 50.536 500.153 49.6 500.153 48.4C500.153 47.936 500.193 47.528 500.273 47.176L501.137 42.88H499.217L499.913 39.472H501.809L502.481 36.088H507.041L506.369 39.472H509.321L508.649 42.88H505.697L504.833 47.152ZM520.248 38.776C521.656 38.776 522.792 39.16 523.656 39.928C524.52 40.696 524.952 41.8 524.952 43.24C524.952 43.768 524.896 44.288 524.784 44.8L523.344 52H518.784L520.128 45.232C520.192 44.96 520.224 44.672 520.224 44.368C520.224 43.216 519.624 42.64 518.424 42.64C517.624 42.64 516.968 42.888 516.456 43.384C515.944 43.864 515.584 44.592 515.376 45.568L514.08 52H509.52L513.072 34.192H517.632L516.456 40.072C517.56 39.208 518.824 38.776 520.248 38.776ZM541.13 44.488C541.13 45.112 541.042 45.824 540.866 46.624H531.314C531.474 48.032 532.458 48.736 534.266 48.736C534.842 48.736 535.402 48.648 535.946 48.472C536.49 48.296 536.978 48.032 537.41 47.68L539.306 50.536C537.786 51.656 535.938 52.216 533.762 52.216C532.386 52.216 531.17 51.976 530.114 51.496C529.074 51 528.266 50.312 527.69 49.432C527.13 48.536 526.85 47.488 526.85 46.288C526.85 44.864 527.178 43.584 527.834 42.448C528.506 41.296 529.434 40.4 530.618 39.76C531.818 39.104 533.186 38.776 534.722 38.776C536.018 38.776 537.146 39.016 538.106 39.496C539.082 39.96 539.826 40.624 540.338 41.488C540.866 42.352 541.13 43.352 541.13 44.488ZM534.506 42.016C533.77 42.016 533.154 42.216 532.658 42.616C532.162 43 531.802 43.536 531.578 44.224H536.93C536.946 43.536 536.73 43 536.282 42.616C535.834 42.216 535.242 42.016 534.506 42.016ZM565.291 38.992L563.179 49.6C562.683 52.112 561.715 53.952 560.275 55.12C558.835 56.288 556.939 56.872 554.587 56.872C551.963 56.872 549.851 56.312 548.251 55.192L550.291 52.024C550.819 52.44 551.475 52.768 552.259 53.008C553.043 53.248 553.859 53.368 554.707 53.368C555.843 53.368 556.699 53.12 557.275 52.624C557.867 52.144 558.259 51.416 558.451 50.44L558.547 50.008C557.571 50.888 556.363 51.328 554.923 51.328C553.883 51.328 552.931 51.104 552.067 50.656C551.203 50.208 550.515 49.568 550.003 48.736C549.491 47.888 549.235 46.904 549.235 45.784C549.235 44.504 549.547 43.328 550.171 42.256C550.795 41.184 551.651 40.336 552.739 39.712C553.827 39.088 555.035 38.776 556.363 38.776C557.355 38.776 558.211 38.96 558.931 39.328C559.667 39.696 560.203 40.272 560.539 41.056L560.947 38.992H565.291ZM556.267 47.68C557.179 47.68 557.915 47.392 558.475 46.816C559.051 46.24 559.339 45.488 559.339 44.56C559.339 43.92 559.123 43.408 558.691 43.024C558.259 42.624 557.667 42.424 556.915 42.424C556.003 42.424 555.259 42.72 554.683 43.312C554.107 43.888 553.819 44.64 553.819 45.568C553.819 46.208 554.035 46.72 554.467 47.104C554.899 47.488 555.499 47.68 556.267 47.68ZM572.253 40.432C573.341 39.328 574.909 38.776 576.957 38.776L576.165 42.88C575.765 42.832 575.421 42.808 575.133 42.808C574.109 42.808 573.285 43.056 572.661 43.552C572.053 44.032 571.645 44.8 571.437 45.856L570.189 52H565.629L568.221 38.992H572.541L572.253 40.432ZM583.33 52.216C581.954 52.216 580.754 51.976 579.73 51.496C578.706 51 577.914 50.304 577.354 49.408C576.794 48.512 576.514 47.472 576.514 46.288C576.514 44.864 576.858 43.584 577.546 42.448C578.234 41.312 579.186 40.416 580.402 39.76C581.618 39.104 582.986 38.776 584.506 38.776C585.882 38.776 587.082 39.024 588.106 39.52C589.13 40 589.922 40.688 590.482 41.584C591.042 42.464 591.322 43.496 591.322 44.68C591.322 46.104 590.978 47.392 590.29 48.544C589.602 49.68 588.65 50.576 587.434 51.232C586.234 51.888 584.866 52.216 583.33 52.216ZM583.594 48.544C584.506 48.544 585.25 48.208 585.826 47.536C586.402 46.864 586.69 45.992 586.69 44.92C586.69 44.152 586.474 43.544 586.042 43.096C585.61 42.648 585.01 42.424 584.242 42.424C583.33 42.424 582.586 42.76 582.01 43.432C581.434 44.104 581.146 44.984 581.146 46.072C581.146 46.84 581.362 47.448 581.794 47.896C582.226 48.328 582.826 48.544 583.594 48.544ZM608.338 38.992L605.746 52H601.426L601.69 50.656C601.13 51.184 600.498 51.576 599.794 51.832C599.106 52.088 598.394 52.216 597.658 52.216C596.234 52.216 595.098 51.832 594.25 51.064C593.418 50.296 593.002 49.2 593.002 47.776C593.002 47.248 593.058 46.712 593.17 46.168L594.61 38.992H599.17L597.826 45.736C597.762 46.04 597.73 46.336 597.73 46.624C597.73 47.76 598.314 48.328 599.482 48.328C600.266 48.328 600.914 48.088 601.426 47.608C601.938 47.112 602.29 46.384 602.482 45.424L603.778 38.992H608.338ZM619.412 38.776C620.836 38.776 621.972 39.16 622.82 39.928C623.684 40.68 624.116 41.768 624.116 43.192C624.116 43.72 624.06 44.256 623.948 44.8L622.508 52H617.948L619.292 45.232C619.356 44.96 619.388 44.672 619.388 44.368C619.388 43.216 618.788 42.64 617.588 42.64C616.788 42.64 616.132 42.888 615.62 43.384C615.108 43.864 614.748 44.592 614.54 45.568L613.244 52H608.684L611.276 38.992H615.596L615.332 40.336C615.892 39.808 616.524 39.416 617.228 39.16C617.932 38.904 618.66 38.776 619.412 38.776ZM642.958 34.192L639.406 52H635.086L635.35 50.728C634.31 51.72 633.054 52.216 631.582 52.216C630.622 52.216 629.718 51.984 628.87 51.52C628.038 51.04 627.366 50.352 626.854 49.456C626.342 48.56 626.086 47.504 626.086 46.288C626.086 44.88 626.398 43.608 627.022 42.472C627.662 41.32 628.526 40.416 629.614 39.76C630.702 39.104 631.886 38.776 633.166 38.776C635.022 38.776 636.342 39.352 637.126 40.504L638.398 34.192H642.958ZM633.166 48.544C634.078 48.544 634.822 48.208 635.398 47.536C635.974 46.864 636.262 45.992 636.262 44.92C636.262 44.152 636.046 43.544 635.614 43.096C635.182 42.648 634.582 42.424 633.814 42.424C632.902 42.424 632.158 42.76 631.582 43.432C631.006 44.104 630.718 44.984 630.718 46.072C630.718 46.84 630.934 47.448 631.366 47.896C631.798 48.328 632.398 48.544 633.166 48.544ZM644.596 52.216C643.844 52.216 643.22 51.984 642.724 51.52C642.244 51.04 642.004 50.44 642.004 49.72C642.004 48.856 642.284 48.16 642.844 47.632C643.42 47.088 644.116 46.816 644.932 46.816C645.7 46.816 646.316 47.048 646.78 47.512C647.26 47.96 647.5 48.56 647.5 49.312C647.5 50.16 647.212 50.856 646.636 51.4C646.076 51.944 645.396 52.216 644.596 52.216Z" fill="black"/>
</svg>
