<svg width="598" height="60" viewBox="0 0 598 60" fill="none" xmlns="http://www.w3.org/2000/svg">
<rect width="598" height="60" fill="white" fill-opacity="0.13"/>
<rect x="2" width="596" height="59.0906" fill="white"/>
<path d="M7.04 6.2H8.264L5.12 21.896H14.792L14.552 23H3.68L7.04 6.2ZM19.8071 10.472H21.0071L18.5111 23H17.3111L19.8071 10.472ZM21.1511 7.424C20.8951 7.424 20.6791 7.336 20.5031 7.16C20.3271 6.984 20.2391 6.776 20.2391 6.536C20.2391 6.248 20.3351 6 20.5271 5.792C20.7351 5.584 20.9911 5.48 21.2951 5.48C21.5511 5.48 21.7671 5.568 21.9431 5.744C22.1351 5.92 22.2311 6.128 22.2311 6.368C22.2311 6.672 22.1271 6.928 21.9191 7.136C21.7111 7.328 21.4551 7.424 21.1511 7.424ZM37.3929 10.472L35.1609 21.656C34.7449 23.784 33.9609 25.328 32.8089 26.288C31.6569 27.264 30.0649 27.752 28.0329 27.752C26.8809 27.752 25.8409 27.576 24.9129 27.224C23.9849 26.888 23.2169 26.408 22.6089 25.784L23.3769 24.896C23.8889 25.456 24.5529 25.888 25.3689 26.192C26.1849 26.512 27.1049 26.672 28.1289 26.672C29.7929 26.672 31.0969 26.28 32.0409 25.496C32.9849 24.712 33.6169 23.496 33.9369 21.848L34.3209 19.976C33.6969 20.792 32.9209 21.424 31.9929 21.872C31.0649 22.32 30.0329 22.544 28.8969 22.544C27.2169 22.544 25.8809 22.096 24.8889 21.2C23.9129 20.304 23.4249 19.088 23.4249 17.552C23.4249 16.208 23.7289 14.992 24.3369 13.904C24.9449 12.8 25.7929 11.936 26.8809 11.312C27.9689 10.688 29.1929 10.376 30.5529 10.376C31.8649 10.376 32.9609 10.656 33.8409 11.216C34.7209 11.776 35.3129 12.592 35.6169 13.664L36.2409 10.472H37.3929ZM29.1129 21.464C30.2489 21.464 31.2649 21.208 32.1609 20.696C33.0569 20.168 33.7609 19.448 34.2729 18.536C34.7849 17.608 35.0409 16.568 35.0409 15.416C35.0409 14.168 34.6409 13.2 33.8409 12.512C33.0569 11.808 31.9609 11.456 30.5529 11.456C29.4169 11.456 28.4009 11.72 27.5049 12.248C26.6089 12.76 25.9049 13.48 25.3929 14.408C24.8809 15.32 24.6249 16.352 24.6249 17.504C24.6249 18.752 25.0169 19.728 25.8009 20.432C26.6009 21.12 27.7049 21.464 29.1129 21.464ZM48.3043 10.376C49.7283 10.376 50.8243 10.736 51.5923 11.456C52.3603 12.16 52.7443 13.136 52.7443 14.384C52.7443 14.816 52.6963 15.272 52.6003 15.752L51.1603 23H49.9603L51.4003 15.752C51.4803 15.384 51.5203 14.984 51.5203 14.552C51.5203 13.56 51.2163 12.8 50.6083 12.272C50.0163 11.728 49.1443 11.456 47.9923 11.456C46.5523 11.456 45.3523 11.864 44.3923 12.68C43.4323 13.48 42.8003 14.648 42.4963 16.184L41.1283 23H39.9283L43.4803 5.192H44.6803L43.1683 12.8C44.3523 11.184 46.0643 10.376 48.3043 10.376ZM58.2607 19.376C58.1967 19.68 58.1647 19.976 58.1647 20.264C58.1647 21.464 58.8047 22.064 60.0847 22.064C60.8527 22.064 61.5327 21.832 62.1247 21.368L62.4847 22.256C61.7967 22.816 60.9007 23.096 59.7967 23.096C58.9007 23.096 58.1967 22.864 57.6847 22.4C57.1887 21.92 56.9407 21.264 56.9407 20.432C56.9407 20.096 56.9727 19.776 57.0367 19.472L58.6447 11.504H56.3167L56.5087 10.472H58.8367L59.3887 7.736H60.5887L60.0367 10.472H64.0207L63.8287 11.504H59.8447L58.2607 19.376ZM75.5713 6.2H76.7953L73.4353 23H72.2113L75.5713 6.2ZM81.0654 19.376C81.0014 19.68 80.9694 19.976 80.9694 20.264C80.9694 21.464 81.6094 22.064 82.8894 22.064C83.6574 22.064 84.3374 21.832 84.9294 21.368L85.2894 22.256C84.6014 22.816 83.7054 23.096 82.6014 23.096C81.7054 23.096 81.0014 22.864 80.4894 22.4C79.9934 21.92 79.7454 21.264 79.7454 20.432C79.7454 20.096 79.7774 19.776 79.8414 19.472L81.4494 11.504H79.1214L79.3134 10.472H81.6414L82.1934 7.736H83.3934L82.8414 10.472H86.8254L86.6334 11.504H82.6494L81.0654 19.376ZM101.655 10.472L99.1586 23H98.0066L98.4866 20.552C97.8786 21.352 97.1186 21.976 96.2066 22.424C95.3106 22.872 94.3106 23.096 93.2066 23.096C91.5746 23.096 90.2626 22.632 89.2706 21.704C88.2946 20.76 87.8066 19.488 87.8066 17.888C87.8066 16.464 88.1106 15.184 88.7186 14.048C89.3266 12.896 90.1666 12 91.2386 11.36C92.3266 10.704 93.5426 10.376 94.8866 10.376C96.1826 10.376 97.2546 10.656 98.1026 11.216C98.9506 11.776 99.5266 12.568 99.8306 13.592L100.455 10.472H101.655ZM93.4466 22.016C94.5666 22.016 95.5666 21.744 96.4466 21.2C97.3426 20.656 98.0466 19.904 98.5586 18.944C99.0706 17.968 99.3266 16.872 99.3266 15.656C99.3266 14.328 98.9346 13.296 98.1506 12.56C97.3826 11.824 96.2946 11.456 94.8866 11.456C93.7666 11.456 92.7586 11.736 91.8626 12.296C90.9826 12.84 90.2866 13.6 89.7746 14.576C89.2626 15.536 89.0066 16.616 89.0066 17.816C89.0066 19.144 89.3906 20.176 90.1586 20.912C90.9426 21.648 92.0386 22.016 93.4466 22.016ZM107.746 5.192H108.946L105.394 23H104.194L107.746 5.192ZM112.948 10.472H114.148L111.652 23H110.452L112.948 10.472ZM114.292 7.424C114.036 7.424 113.82 7.336 113.644 7.16C113.468 6.984 113.38 6.776 113.38 6.536C113.38 6.248 113.476 6 113.668 5.792C113.876 5.584 114.132 5.48 114.436 5.48C114.692 5.48 114.908 5.568 115.084 5.744C115.276 5.92 115.372 6.128 115.372 6.368C115.372 6.672 115.268 6.928 115.06 7.136C114.852 7.328 114.596 7.424 114.292 7.424ZM122.158 23.096C120.43 23.096 119.054 22.624 118.03 21.68C117.022 20.736 116.518 19.472 116.518 17.888C116.518 16.464 116.822 15.184 117.43 14.048C118.054 12.896 118.91 12 119.998 11.36C121.102 10.704 122.342 10.376 123.718 10.376C124.838 10.376 125.798 10.576 126.598 10.976C127.398 11.36 128.022 11.944 128.47 12.728L127.486 13.328C126.734 12.08 125.454 11.456 123.646 11.456C122.51 11.456 121.494 11.736 120.598 12.296C119.702 12.84 118.998 13.592 118.486 14.552C117.974 15.512 117.718 16.6 117.718 17.816C117.718 19.144 118.11 20.176 118.894 20.912C119.678 21.648 120.798 22.016 122.254 22.016C123.086 22.016 123.862 21.856 124.582 21.536C125.318 21.216 125.926 20.768 126.406 20.192L127.246 20.864C126.702 21.568 125.974 22.12 125.062 22.52C124.166 22.904 123.198 23.096 122.158 23.096ZM148.33 7.064L142.018 13.544C143.57 13.608 144.754 14.008 145.57 14.744C146.386 15.464 146.794 16.456 146.794 17.72C146.794 18.776 146.514 19.712 145.954 20.528C145.41 21.344 144.626 21.984 143.602 22.448C142.594 22.896 141.434 23.12 140.122 23.12C138.842 23.12 137.698 22.92 136.69 22.52C135.698 22.104 134.954 21.544 134.458 20.84L135.202 19.928C135.618 20.552 136.258 21.056 137.122 21.44C138.002 21.808 139.026 21.992 140.194 21.992C141.842 21.992 143.146 21.616 144.106 20.864C145.066 20.096 145.546 19.064 145.546 17.768C145.546 15.624 144.09 14.552 141.178 14.552H140.266L140.458 13.664L146.65 7.304H137.746L137.962 6.2H148.474L148.33 7.064ZM155.089 23.12C153.425 23.12 152.121 22.592 151.177 21.536C150.249 20.48 149.785 19.008 149.785 17.12C149.785 15.216 150.129 13.424 150.817 11.744C151.505 10.048 152.481 8.68 153.745 7.64C155.009 6.6 156.473 6.08 158.137 6.08C159.801 6.08 161.097 6.608 162.025 7.664C162.953 8.72 163.417 10.192 163.417 12.08C163.417 13.984 163.073 15.784 162.385 17.48C161.713 19.16 160.745 20.52 159.481 21.56C158.217 22.6 156.753 23.12 155.089 23.12ZM155.209 21.992C156.617 21.992 157.849 21.504 158.905 20.528C159.977 19.552 160.793 18.304 161.353 16.784C161.929 15.264 162.217 13.704 162.217 12.104C162.217 10.536 161.849 9.328 161.113 8.48C160.377 7.632 159.345 7.208 158.017 7.208C156.593 7.208 155.353 7.696 154.297 8.672C153.241 9.648 152.425 10.896 151.849 12.416C151.289 13.936 151.009 15.496 151.009 17.096C151.009 18.664 151.369 19.872 152.089 20.72C152.825 21.568 153.865 21.992 155.209 21.992ZM170.886 23.12C169.222 23.12 167.918 22.592 166.974 21.536C166.046 20.48 165.582 19.008 165.582 17.12C165.582 15.216 165.926 13.424 166.614 11.744C167.302 10.048 168.278 8.68 169.542 7.64C170.806 6.6 172.27 6.08 173.934 6.08C175.598 6.08 176.894 6.608 177.822 7.664C178.75 8.72 179.214 10.192 179.214 12.08C179.214 13.984 178.87 15.784 178.182 17.48C177.51 19.16 176.542 20.52 175.278 21.56C174.014 22.6 172.55 23.12 170.886 23.12ZM171.006 21.992C172.414 21.992 173.646 21.504 174.702 20.528C175.774 19.552 176.59 18.304 177.15 16.784C177.726 15.264 178.014 13.704 178.014 12.104C178.014 10.536 177.646 9.328 176.91 8.48C176.174 7.632 175.142 7.208 173.814 7.208C172.39 7.208 171.15 7.696 170.094 8.672C169.038 9.648 168.222 10.896 167.646 12.416C167.086 13.936 166.806 15.496 166.806 17.096C166.806 18.664 167.166 19.872 167.886 20.72C168.622 21.568 169.662 21.992 171.006 21.992ZM15.104 47.272H5.336L2.24 52H0.872L11.96 35.2H13.184L17.552 52H16.304L15.104 47.272ZM14.84 46.24L12.368 36.496L6.008 46.24H14.84ZM23.7459 34.192H24.9459L21.3939 52H20.1939L23.7459 34.192ZM44.2837 39.376C45.6917 39.376 46.7717 39.728 47.5237 40.432C48.2757 41.12 48.6517 42.088 48.6517 43.336C48.6517 43.768 48.6037 44.24 48.5077 44.752L47.0437 52H45.8437L47.3077 44.752C47.3877 44.384 47.4277 43.976 47.4277 43.528C47.4277 42.552 47.1397 41.8 46.5637 41.272C45.9877 40.728 45.1477 40.456 44.0437 40.456C42.6677 40.456 41.5157 40.84 40.5877 41.608C39.6757 42.36 39.0757 43.456 38.7877 44.896L37.3477 52H36.1477L37.6117 44.752C37.6917 44.384 37.7317 43.976 37.7317 43.528C37.7317 42.552 37.4437 41.8 36.8677 41.272C36.2917 40.728 35.4517 40.456 34.3477 40.456C32.9557 40.456 31.7957 40.864 30.8677 41.68C29.9397 42.48 29.3237 43.648 29.0197 45.184L27.6517 52H26.4517L28.9477 39.472H30.1237L29.6437 41.824C30.2357 40.992 30.9557 40.376 31.8037 39.976C32.6517 39.576 33.6037 39.376 34.6597 39.376C35.8117 39.376 36.7397 39.624 37.4437 40.12C38.1477 40.6 38.6117 41.288 38.8357 42.184C39.4597 41.256 40.2357 40.56 41.1637 40.096C42.0917 39.616 43.1317 39.376 44.2837 39.376ZM57.374 52.096C55.678 52.096 54.326 51.624 53.318 50.68C52.326 49.736 51.83 48.472 51.83 46.888C51.83 45.464 52.134 44.184 52.742 43.048C53.366 41.912 54.222 41.016 55.31 40.36C56.398 39.704 57.63 39.376 59.006 39.376C60.702 39.376 62.046 39.848 63.038 40.792C64.046 41.72 64.55 42.984 64.55 44.584C64.55 46.008 64.238 47.296 63.614 48.448C63.006 49.584 62.158 50.48 61.07 51.136C59.982 51.776 58.75 52.096 57.374 52.096ZM57.47 51.016C58.59 51.016 59.59 50.744 60.47 50.2C61.366 49.656 62.07 48.904 62.582 47.944C63.094 46.968 63.35 45.872 63.35 44.656C63.35 43.328 62.958 42.296 62.174 41.56C61.406 40.824 60.318 40.456 58.91 40.456C57.79 40.456 56.782 40.736 55.886 41.296C55.006 41.84 54.31 42.6 53.798 43.576C53.286 44.536 53.03 45.616 53.03 46.816C53.03 48.144 53.414 49.176 54.182 49.912C54.966 50.648 56.062 51.016 57.47 51.016ZM70.3368 52.096C69.3608 52.096 68.4248 51.952 67.5288 51.664C66.6488 51.36 65.9608 50.976 65.4648 50.512L66.1128 49.576C66.5768 50.024 67.1928 50.384 67.9608 50.656C68.7448 50.912 69.5688 51.04 70.4328 51.04C71.7288 51.04 72.7288 50.816 73.4328 50.368C74.1528 49.904 74.5128 49.264 74.5128 48.448C74.5128 47.984 74.3688 47.616 74.0808 47.344C73.7928 47.072 73.4408 46.872 73.0248 46.744C72.6088 46.6 72.0328 46.448 71.2968 46.288C70.4328 46.112 69.7288 45.928 69.1848 45.736C68.6568 45.544 68.2088 45.248 67.8408 44.848C67.4728 44.432 67.2888 43.872 67.2888 43.168C67.2888 42.016 67.7608 41.096 68.7048 40.408C69.6648 39.72 70.9368 39.376 72.5208 39.376C73.3208 39.376 74.0968 39.488 74.8488 39.712C75.6008 39.92 76.2008 40.216 76.6488 40.6L76.0968 41.536C75.6328 41.168 75.0728 40.896 74.4168 40.72C73.7768 40.528 73.1128 40.432 72.4248 40.432C71.2088 40.432 70.2408 40.672 69.5208 41.152C68.8168 41.632 68.4648 42.264 68.4648 43.048C68.4648 43.528 68.6088 43.912 68.8968 44.2C69.1848 44.472 69.5448 44.68 69.9768 44.824C70.4248 44.968 71.0168 45.12 71.7528 45.28C72.6168 45.456 73.3048 45.64 73.8168 45.832C74.3448 46.008 74.7928 46.296 75.1608 46.696C75.5288 47.096 75.7128 47.64 75.7128 48.328C75.7128 49.496 75.2248 50.416 74.2488 51.088C73.2728 51.76 71.9688 52.096 70.3368 52.096ZM80.5498 48.376C80.4858 48.68 80.4538 48.976 80.4538 49.264C80.4538 50.464 81.0938 51.064 82.3738 51.064C83.1418 51.064 83.8218 50.832 84.4138 50.368L84.7738 51.256C84.0858 51.816 83.1898 52.096 82.0858 52.096C81.1898 52.096 80.4858 51.864 79.9738 51.4C79.4778 50.92 79.2298 50.264 79.2298 49.432C79.2298 49.096 79.2618 48.776 79.3258 48.472L80.9338 40.504H78.6058L78.7978 39.472H81.1258L81.6778 36.736H82.8778L82.3258 39.472H86.3098L86.1178 40.504H82.1338L80.5498 48.376ZM102.54 39.376C104.172 39.376 105.484 39.848 106.476 40.792C107.468 41.72 107.964 42.984 107.964 44.584C107.964 46.008 107.652 47.296 107.028 48.448C106.42 49.584 105.572 50.48 104.484 51.136C103.412 51.776 102.204 52.096 100.86 52.096C99.5483 52.096 98.4683 51.816 97.6203 51.256C96.7723 50.68 96.1963 49.864 95.8923 48.808L95.2683 52H94.0923L97.6443 34.192H98.8443L97.3323 41.824C97.9403 41.04 98.6843 40.44 99.5643 40.024C100.46 39.592 101.452 39.376 102.54 39.376ZM100.884 51.016C102.004 51.016 103.004 50.744 103.884 50.2C104.78 49.64 105.476 48.88 105.972 47.92C106.484 46.96 106.74 45.872 106.74 44.656C106.74 43.328 106.348 42.296 105.564 41.56C104.796 40.824 103.708 40.456 102.3 40.456C101.18 40.456 100.172 40.728 99.2763 41.272C98.3963 41.816 97.7003 42.576 97.1883 43.552C96.6763 44.512 96.4203 45.6 96.4203 46.816C96.4203 48.144 96.8123 49.176 97.5963 49.912C98.3803 50.648 99.4763 51.016 100.884 51.016ZM111.32 46C111.288 46.352 111.272 46.616 111.272 46.792C111.272 48.152 111.664 49.2 112.448 49.936C113.232 50.656 114.384 51.016 115.904 51.016C116.784 51.016 117.592 50.872 118.328 50.584C119.08 50.28 119.704 49.864 120.2 49.336L120.752 50.176C120.192 50.784 119.472 51.256 118.592 51.592C117.728 51.928 116.8 52.096 115.808 52.096C114.032 52.096 112.632 51.632 111.608 50.704C110.6 49.776 110.096 48.488 110.096 46.84C110.096 45.432 110.392 44.16 110.984 43.024C111.576 41.888 112.392 41 113.432 40.36C114.472 39.704 115.64 39.376 116.936 39.376C118.568 39.376 119.864 39.84 120.824 40.768C121.784 41.696 122.264 42.976 122.264 44.608C122.264 44.992 122.216 45.456 122.12 46H111.32ZM116.912 40.408C115.552 40.408 114.376 40.832 113.384 41.68C112.408 42.528 111.768 43.656 111.464 45.064H121.112C121.128 44.92 121.136 44.712 121.136 44.44C121.136 43.176 120.752 42.192 119.984 41.488C119.216 40.768 118.192 40.408 116.912 40.408ZM131.759 35.128C130.975 35.128 130.351 35.336 129.887 35.752C129.423 36.168 129.103 36.832 128.927 37.744L128.567 39.472H132.575L132.383 40.504H128.375L126.095 52H124.895L127.199 40.504H124.871L125.063 39.472H127.391L127.775 37.576C127.999 36.44 128.447 35.576 129.119 34.984C129.807 34.392 130.695 34.096 131.783 34.096C132.279 34.096 132.743 34.168 133.175 34.312C133.607 34.456 133.951 34.664 134.207 34.936L133.631 35.8C133.151 35.352 132.527 35.128 131.759 35.128ZM137.647 52.096C135.951 52.096 134.599 51.624 133.591 50.68C132.599 49.736 132.103 48.472 132.103 46.888C132.103 45.464 132.407 44.184 133.015 43.048C133.639 41.912 134.495 41.016 135.583 40.36C136.671 39.704 137.903 39.376 139.279 39.376C140.975 39.376 142.319 39.848 143.311 40.792C144.319 41.72 144.823 42.984 144.823 44.584C144.823 46.008 144.511 47.296 143.887 48.448C143.279 49.584 142.431 50.48 141.343 51.136C140.255 51.776 139.023 52.096 137.647 52.096ZM137.743 51.016C138.863 51.016 139.863 50.744 140.743 50.2C141.639 49.656 142.343 48.904 142.855 47.944C143.367 46.968 143.623 45.872 143.623 44.656C143.623 43.328 143.231 42.296 142.447 41.56C141.679 40.824 140.591 40.456 139.183 40.456C138.063 40.456 137.055 40.736 136.159 41.296C135.279 41.84 134.583 42.6 134.071 43.576C133.559 44.536 133.303 45.616 133.303 46.816C133.303 48.144 133.687 49.176 134.455 49.912C135.239 50.648 136.335 51.016 137.743 51.016ZM150.322 42.112C150.882 41.2 151.594 40.52 152.458 40.072C153.338 39.608 154.402 39.376 155.65 39.376L155.434 40.552L155.05 40.528C153.626 40.528 152.458 40.952 151.546 41.8C150.634 42.648 150.01 43.904 149.674 45.568L148.378 52H147.178L149.674 39.472H150.85L150.322 42.112ZM157.327 46C157.295 46.352 157.279 46.616 157.279 46.792C157.279 48.152 157.671 49.2 158.455 49.936C159.239 50.656 160.391 51.016 161.911 51.016C162.791 51.016 163.599 50.872 164.335 50.584C165.087 50.28 165.711 49.864 166.207 49.336L166.759 50.176C166.199 50.784 165.479 51.256 164.599 51.592C163.735 51.928 162.807 52.096 161.815 52.096C160.039 52.096 158.639 51.632 157.615 50.704C156.607 49.776 156.103 48.488 156.103 46.84C156.103 45.432 156.399 44.16 156.991 43.024C157.583 41.888 158.399 41 159.439 40.36C160.479 39.704 161.647 39.376 162.943 39.376C164.575 39.376 165.871 39.84 166.831 40.768C167.791 41.696 168.271 42.976 168.271 44.608C168.271 44.992 168.223 45.456 168.127 46H157.327ZM162.919 40.408C161.559 40.408 160.383 40.832 159.391 41.68C158.415 42.528 157.775 43.656 157.471 45.064H167.119C167.135 44.92 167.143 44.712 167.143 44.44C167.143 43.176 166.759 42.192 165.991 41.488C165.223 40.768 164.199 40.408 162.919 40.408ZM197.323 39.472L190.243 52H189.091L186.811 41.104L180.571 52H179.419L176.923 39.472H178.027L180.211 50.656L186.571 39.472H187.603L189.859 50.632L196.147 39.472H197.323ZM198.156 46C198.124 46.352 198.108 46.616 198.108 46.792C198.108 48.152 198.5 49.2 199.284 49.936C200.068 50.656 201.22 51.016 202.74 51.016C203.62 51.016 204.428 50.872 205.164 50.584C205.916 50.28 206.54 49.864 207.036 49.336L207.588 50.176C207.028 50.784 206.308 51.256 205.428 51.592C204.564 51.928 203.636 52.096 202.644 52.096C200.868 52.096 199.468 51.632 198.444 50.704C197.436 49.776 196.932 48.488 196.932 46.84C196.932 45.432 197.228 44.16 197.82 43.024C198.412 41.888 199.228 41 200.268 40.36C201.308 39.704 202.476 39.376 203.772 39.376C205.404 39.376 206.7 39.84 207.66 40.768C208.62 41.696 209.1 42.976 209.1 44.608C209.1 44.992 209.052 45.456 208.956 46H198.156ZM203.748 40.408C202.388 40.408 201.212 40.832 200.22 41.68C199.244 42.528 198.604 43.656 198.3 45.064H207.948C207.964 44.92 207.972 44.712 207.972 44.44C207.972 43.176 207.588 42.192 206.82 41.488C206.052 40.768 205.028 40.408 203.748 40.408ZM224.399 44.584L228.911 52H227.519L223.463 45.304L219.575 48.304L218.831 52H217.631L221.183 34.192H222.383L219.887 46.744L229.223 39.472H230.975L224.399 44.584ZM239.625 39.376C241.049 39.376 242.145 39.736 242.913 40.456C243.681 41.16 244.065 42.136 244.065 43.384C244.065 43.816 244.017 44.272 243.921 44.752L242.481 52H241.281L242.721 44.752C242.801 44.384 242.841 43.984 242.841 43.552C242.841 42.56 242.537 41.8 241.929 41.272C241.337 40.728 240.465 40.456 239.313 40.456C237.873 40.456 236.673 40.864 235.713 41.68C234.753 42.48 234.121 43.648 233.817 45.184L232.449 52H231.249L233.745 39.472H234.921L234.441 41.848C235.033 41.016 235.769 40.4 236.649 40C237.545 39.584 238.537 39.376 239.625 39.376ZM248.452 46C248.42 46.352 248.404 46.616 248.404 46.792C248.404 48.152 248.796 49.2 249.58 49.936C250.364 50.656 251.516 51.016 253.036 51.016C253.916 51.016 254.724 50.872 255.46 50.584C256.212 50.28 256.836 49.864 257.332 49.336L257.884 50.176C257.324 50.784 256.604 51.256 255.724 51.592C254.86 51.928 253.932 52.096 252.94 52.096C251.164 52.096 249.764 51.632 248.74 50.704C247.732 49.776 247.228 48.488 247.228 46.84C247.228 45.432 247.524 44.16 248.116 43.024C248.708 41.888 249.524 41 250.564 40.36C251.604 39.704 252.772 39.376 254.068 39.376C255.7 39.376 256.996 39.84 257.956 40.768C258.916 41.696 259.396 42.976 259.396 44.608C259.396 44.992 259.348 45.456 259.252 46H248.452ZM254.044 40.408C252.684 40.408 251.508 40.832 250.516 41.68C249.54 42.528 248.9 43.656 248.596 45.064H258.244C258.26 44.92 258.268 44.712 258.268 44.44C258.268 43.176 257.884 42.192 257.116 41.488C256.348 40.768 255.324 40.408 254.044 40.408ZM282.05 39.472L274.97 52H273.818L271.538 41.104L265.298 52H264.146L261.65 39.472H262.754L264.938 50.656L271.298 39.472H272.33L274.586 50.632L280.874 39.472H282.05ZM290.862 39.472H292.062L289.566 52H288.366L290.862 39.472ZM292.206 36.424C291.95 36.424 291.734 36.336 291.558 36.16C291.382 35.984 291.294 35.776 291.294 35.536C291.294 35.248 291.39 35 291.582 34.792C291.79 34.584 292.046 34.48 292.35 34.48C292.606 34.48 292.822 34.568 292.998 34.744C293.19 34.92 293.286 35.128 293.286 35.368C293.286 35.672 293.182 35.928 292.974 36.136C292.766 36.328 292.51 36.424 292.206 36.424ZM296.808 48.376C296.744 48.68 296.712 48.976 296.712 49.264C296.712 50.464 297.352 51.064 298.632 51.064C299.4 51.064 300.08 50.832 300.672 50.368L301.032 51.256C300.344 51.816 299.448 52.096 298.344 52.096C297.448 52.096 296.744 51.864 296.232 51.4C295.736 50.92 295.488 50.264 295.488 49.432C295.488 49.096 295.52 48.776 295.584 48.472L297.192 40.504H294.864L295.056 39.472H297.384L297.936 36.736H299.136L298.584 39.472H302.568L302.376 40.504H298.392L296.808 48.376ZM304.516 50.056C304.788 50.056 305.02 50.152 305.212 50.344C305.404 50.536 305.5 50.768 305.5 51.04C305.5 51.184 305.468 51.328 305.404 51.472C305.356 51.616 305.3 51.744 305.236 51.856C305.188 51.952 305.156 52.024 305.14 52.072L303.46 55.432H302.596L304.06 52.024C303.884 51.944 303.74 51.824 303.628 51.664C303.516 51.488 303.46 51.304 303.46 51.112C303.46 50.808 303.564 50.56 303.772 50.368C303.98 50.16 304.228 50.056 304.516 50.056ZM335.909 39.472L328.829 52H327.677L325.397 41.104L319.157 52H318.005L315.509 39.472H316.613L318.797 50.656L325.157 39.472H326.189L328.445 50.632L334.733 39.472H335.909ZM336.742 46C336.71 46.352 336.694 46.616 336.694 46.792C336.694 48.152 337.086 49.2 337.87 49.936C338.654 50.656 339.806 51.016 341.326 51.016C342.206 51.016 343.014 50.872 343.75 50.584C344.502 50.28 345.126 49.864 345.622 49.336L346.174 50.176C345.614 50.784 344.894 51.256 344.014 51.592C343.15 51.928 342.222 52.096 341.23 52.096C339.454 52.096 338.054 51.632 337.03 50.704C336.022 49.776 335.518 48.488 335.518 46.84C335.518 45.432 335.814 44.16 336.406 43.024C336.998 41.888 337.814 41 338.854 40.36C339.894 39.704 341.062 39.376 342.358 39.376C343.99 39.376 345.286 39.84 346.246 40.768C347.206 41.696 347.686 42.976 347.686 44.608C347.686 44.992 347.638 45.456 347.542 46H336.742ZM342.334 40.408C340.974 40.408 339.798 40.832 338.806 41.68C337.83 42.528 337.19 43.656 336.886 45.064H346.534C346.549 44.92 346.557 44.712 346.557 44.44C346.557 43.176 346.174 42.192 345.406 41.488C344.638 40.768 343.614 40.408 342.334 40.408ZM364.593 39.376C366.017 39.376 367.113 39.736 367.881 40.456C368.649 41.16 369.033 42.136 369.033 43.384C369.033 43.816 368.985 44.272 368.889 44.752L367.449 52H366.249L367.689 44.752C367.769 44.384 367.809 43.984 367.809 43.552C367.809 42.56 367.505 41.8 366.897 41.272C366.305 40.728 365.433 40.456 364.281 40.456C362.841 40.456 361.641 40.864 360.681 41.68C359.721 42.48 359.089 43.648 358.785 45.184L357.417 52H356.217L359.769 34.192H360.969L359.457 41.8C360.641 40.184 362.353 39.376 364.593 39.376ZM386.045 39.472L383.549 52H382.397L382.877 49.552C382.269 50.352 381.509 50.976 380.597 51.424C379.701 51.872 378.701 52.096 377.597 52.096C375.965 52.096 374.653 51.632 373.661 50.704C372.685 49.76 372.197 48.488 372.197 46.888C372.197 45.464 372.501 44.184 373.109 43.048C373.717 41.896 374.557 41 375.629 40.36C376.717 39.704 377.933 39.376 379.277 39.376C380.573 39.376 381.645 39.656 382.493 40.216C383.341 40.776 383.917 41.568 384.221 42.592L384.845 39.472H386.045ZM377.837 51.016C378.957 51.016 379.957 50.744 380.837 50.2C381.733 49.656 382.437 48.904 382.949 47.944C383.461 46.968 383.717 45.872 383.717 44.656C383.717 43.328 383.325 42.296 382.541 41.56C381.773 40.824 380.685 40.456 379.277 40.456C378.157 40.456 377.149 40.736 376.253 41.296C375.373 41.84 374.677 42.6 374.165 43.576C373.653 44.536 373.397 45.616 373.397 46.816C373.397 48.144 373.781 49.176 374.549 49.912C375.333 50.648 376.429 51.016 377.837 51.016ZM403.297 34.192L399.745 52H398.593L399.073 49.552C398.465 50.352 397.705 50.976 396.793 51.424C395.897 51.872 394.897 52.096 393.793 52.096C392.161 52.096 390.849 51.632 389.857 50.704C388.881 49.76 388.393 48.488 388.393 46.888C388.393 45.464 388.697 44.184 389.305 43.048C389.913 41.896 390.753 41 391.825 40.36C392.913 39.704 394.129 39.376 395.473 39.376C396.769 39.376 397.841 39.656 398.689 40.216C399.537 40.776 400.113 41.576 400.417 42.616L402.097 34.192H403.297ZM394.033 51.016C395.153 51.016 396.153 50.744 397.033 50.2C397.929 49.656 398.633 48.904 399.145 47.944C399.657 46.968 399.913 45.872 399.913 44.656C399.913 43.328 399.521 42.296 398.737 41.56C397.969 40.824 396.881 40.456 395.473 40.456C394.353 40.456 393.345 40.736 392.449 41.296C391.569 41.84 390.873 42.6 390.361 43.576C389.849 44.536 389.593 45.616 389.593 46.816C389.593 48.144 389.977 49.176 390.745 49.912C391.529 50.648 392.625 51.016 394.033 51.016ZM414.496 34.192H415.696L412.144 52H410.944L414.496 34.192ZM418.234 46C418.202 46.352 418.186 46.616 418.186 46.792C418.186 48.152 418.578 49.2 419.362 49.936C420.146 50.656 421.298 51.016 422.818 51.016C423.698 51.016 424.506 50.872 425.242 50.584C425.994 50.28 426.618 49.864 427.114 49.336L427.666 50.176C427.106 50.784 426.386 51.256 425.506 51.592C424.642 51.928 423.714 52.096 422.722 52.096C420.946 52.096 419.546 51.632 418.522 50.704C417.514 49.776 417.01 48.488 417.01 46.84C417.01 45.432 417.306 44.16 417.898 43.024C418.49 41.888 419.306 41 420.346 40.36C421.386 39.704 422.554 39.376 423.85 39.376C425.482 39.376 426.778 39.84 427.738 40.768C428.698 41.696 429.178 42.976 429.178 44.608C429.178 44.992 429.13 45.456 429.034 46H418.234ZM423.826 40.408C422.466 40.408 421.29 40.832 420.298 41.68C419.322 42.528 418.682 43.656 418.378 45.064H428.026C428.042 44.92 428.05 44.712 428.05 44.44C428.05 43.176 427.666 42.192 426.898 41.488C426.13 40.768 425.106 40.408 423.826 40.408ZM438.673 35.128C437.889 35.128 437.265 35.336 436.801 35.752C436.337 36.168 436.017 36.832 435.841 37.744L435.481 39.472H439.489L439.297 40.504H435.289L433.009 52H431.809L434.113 40.504H431.785L431.977 39.472H434.305L434.689 37.576C434.913 36.44 435.361 35.576 436.033 34.984C436.721 34.392 437.609 34.096 438.697 34.096C439.193 34.096 439.657 34.168 440.089 34.312C440.521 34.456 440.865 34.664 441.121 34.936L440.545 35.8C440.065 35.352 439.441 35.128 438.673 35.128ZM441.604 48.376C441.54 48.68 441.508 48.976 441.508 49.264C441.508 50.464 442.148 51.064 443.428 51.064C444.196 51.064 444.876 50.832 445.468 50.368L445.828 51.256C445.14 51.816 444.244 52.096 443.14 52.096C442.244 52.096 441.54 51.864 441.028 51.4C440.532 50.92 440.284 50.264 440.284 49.432C440.284 49.096 440.316 48.776 440.38 48.472L441.988 40.504H439.66L439.852 39.472H442.18L442.732 36.736H443.932L443.38 39.472H447.364L447.172 40.504H443.188L441.604 48.376ZM457.331 48.376C457.267 48.68 457.235 48.976 457.235 49.264C457.235 50.464 457.875 51.064 459.155 51.064C459.923 51.064 460.603 50.832 461.195 50.368L461.555 51.256C460.867 51.816 459.971 52.096 458.867 52.096C457.971 52.096 457.267 51.864 456.755 51.4C456.259 50.92 456.011 50.264 456.011 49.432C456.011 49.096 456.043 48.776 456.107 48.472L457.715 40.504H455.387L455.579 39.472H457.907L458.459 36.736H459.659L459.107 39.472H463.091L462.899 40.504H458.915L457.331 48.376ZM473.086 39.376C474.51 39.376 475.606 39.736 476.374 40.456C477.142 41.16 477.526 42.136 477.526 43.384C477.526 43.816 477.478 44.272 477.382 44.752L475.942 52H474.742L476.182 44.752C476.262 44.384 476.302 43.984 476.302 43.552C476.302 42.56 475.998 41.8 475.39 41.272C474.798 40.728 473.926 40.456 472.774 40.456C471.334 40.456 470.134 40.864 469.174 41.68C468.214 42.48 467.582 43.648 467.278 45.184L465.91 52H464.71L468.262 34.192H469.462L467.95 41.8C469.134 40.184 470.846 39.376 473.086 39.376ZM481.913 46C481.881 46.352 481.865 46.616 481.865 46.792C481.865 48.152 482.257 49.2 483.041 49.936C483.825 50.656 484.977 51.016 486.497 51.016C487.377 51.016 488.185 50.872 488.921 50.584C489.673 50.28 490.297 49.864 490.793 49.336L491.345 50.176C490.785 50.784 490.065 51.256 489.185 51.592C488.321 51.928 487.393 52.096 486.401 52.096C484.625 52.096 483.225 51.632 482.201 50.704C481.193 49.776 480.689 48.488 480.689 46.84C480.689 45.432 480.985 44.16 481.577 43.024C482.169 41.888 482.985 41 484.025 40.36C485.065 39.704 486.233 39.376 487.529 39.376C489.161 39.376 490.457 39.84 491.417 40.768C492.377 41.696 492.857 42.976 492.857 44.608C492.857 44.992 492.809 45.456 492.713 46H481.913ZM487.505 40.408C486.145 40.408 484.969 40.832 483.977 41.68C483.001 42.528 482.361 43.656 482.057 45.064H491.705C491.721 44.92 491.729 44.712 491.729 44.44C491.729 43.176 491.345 42.192 490.577 41.488C489.809 40.768 488.785 40.408 487.505 40.408ZM515.213 39.472L512.981 50.656C512.565 52.784 511.781 54.328 510.629 55.288C509.477 56.264 507.885 56.752 505.853 56.752C504.701 56.752 503.661 56.576 502.733 56.224C501.805 55.888 501.037 55.408 500.429 54.784L501.197 53.896C501.709 54.456 502.373 54.888 503.189 55.192C504.005 55.512 504.925 55.672 505.949 55.672C507.613 55.672 508.917 55.28 509.861 54.496C510.805 53.712 511.437 52.496 511.757 50.848L512.141 48.976C511.517 49.792 510.741 50.424 509.813 50.872C508.885 51.32 507.853 51.544 506.717 51.544C505.037 51.544 503.701 51.096 502.709 50.2C501.733 49.304 501.245 48.088 501.245 46.552C501.245 45.208 501.549 43.992 502.157 42.904C502.765 41.8 503.613 40.936 504.701 40.312C505.789 39.688 507.013 39.376 508.373 39.376C509.685 39.376 510.781 39.656 511.661 40.216C512.541 40.776 513.133 41.592 513.437 42.664L514.061 39.472H515.213ZM506.933 50.464C508.069 50.464 509.085 50.208 509.981 49.696C510.877 49.168 511.581 48.448 512.093 47.536C512.605 46.608 512.861 45.568 512.861 44.416C512.861 43.168 512.461 42.2 511.661 41.512C510.877 40.808 509.781 40.456 508.373 40.456C507.237 40.456 506.221 40.72 505.325 41.248C504.429 41.76 503.725 42.48 503.213 43.408C502.701 44.32 502.445 45.352 502.445 46.504C502.445 47.752 502.837 48.728 503.621 49.432C504.421 50.12 505.525 50.464 506.933 50.464ZM520.893 42.112C521.453 41.2 522.165 40.52 523.029 40.072C523.909 39.608 524.973 39.376 526.221 39.376L526.005 40.552L525.621 40.528C524.197 40.528 523.029 40.952 522.117 41.8C521.205 42.648 520.581 43.904 520.245 45.568L518.949 52H517.749L520.245 39.472H521.421L520.893 42.112ZM532.218 52.096C530.522 52.096 529.17 51.624 528.162 50.68C527.17 49.736 526.674 48.472 526.674 46.888C526.674 45.464 526.978 44.184 527.586 43.048C528.21 41.912 529.066 41.016 530.154 40.36C531.242 39.704 532.474 39.376 533.85 39.376C535.546 39.376 536.89 39.848 537.882 40.792C538.89 41.72 539.394 42.984 539.394 44.584C539.394 46.008 539.082 47.296 538.458 48.448C537.85 49.584 537.002 50.48 535.914 51.136C534.826 51.776 533.594 52.096 532.218 52.096ZM532.314 51.016C533.434 51.016 534.434 50.744 535.314 50.2C536.21 49.656 536.914 48.904 537.426 47.944C537.938 46.968 538.194 45.872 538.194 44.656C538.194 43.328 537.802 42.296 537.018 41.56C536.25 40.824 535.162 40.456 533.754 40.456C532.634 40.456 531.626 40.736 530.73 41.296C529.85 41.84 529.154 42.6 528.642 43.576C528.13 44.536 527.874 45.616 527.874 46.816C527.874 48.144 528.258 49.176 529.026 49.912C529.81 50.648 530.906 51.016 532.314 51.016ZM555.261 39.472L552.765 52H551.589L552.069 49.624C550.901 51.272 549.189 52.096 546.933 52.096C545.525 52.096 544.437 51.744 543.669 51.04C542.917 50.32 542.541 49.336 542.541 48.088C542.541 47.656 542.589 47.2 542.685 46.72L544.125 39.472H545.325L543.885 46.72C543.805 47.072 543.765 47.472 543.765 47.92C543.765 48.912 544.053 49.68 544.629 50.224C545.221 50.752 546.093 51.016 547.245 51.016C548.685 51.016 549.877 50.616 550.821 49.816C551.765 49 552.389 47.824 552.693 46.288L554.061 39.472H555.261ZM566.179 39.376C567.603 39.376 568.699 39.736 569.467 40.456C570.235 41.16 570.619 42.136 570.619 43.384C570.619 43.816 570.571 44.272 570.475 44.752L569.035 52H567.835L569.275 44.752C569.355 44.384 569.395 43.984 569.395 43.552C569.395 42.56 569.091 41.8 568.483 41.272C567.891 40.728 567.019 40.456 565.867 40.456C564.427 40.456 563.227 40.864 562.267 41.68C561.307 42.48 560.675 43.648 560.371 45.184L559.003 52H557.803L560.299 39.472H561.475L560.995 41.848C561.587 41.016 562.323 40.4 563.203 40C564.099 39.584 565.091 39.376 566.179 39.376ZM588.687 34.192L585.135 52H583.983L584.463 49.552C583.855 50.352 583.095 50.976 582.183 51.424C581.287 51.872 580.287 52.096 579.183 52.096C577.551 52.096 576.239 51.632 575.247 50.704C574.271 49.76 573.783 48.488 573.783 46.888C573.783 45.464 574.087 44.184 574.695 43.048C575.303 41.896 576.143 41 577.215 40.36C578.303 39.704 579.519 39.376 580.863 39.376C582.159 39.376 583.231 39.656 584.079 40.216C584.927 40.776 585.503 41.576 585.807 42.616L587.487 34.192H588.687ZM579.423 51.016C580.543 51.016 581.543 50.744 582.423 50.2C583.319 49.656 584.023 48.904 584.535 47.944C585.047 46.968 585.303 45.872 585.303 44.656C585.303 43.328 584.911 42.296 584.127 41.56C583.359 40.824 582.271 40.456 580.863 40.456C579.743 40.456 578.735 40.736 577.839 41.296C576.959 41.84 576.263 42.6 575.751 43.576C575.239 44.536 574.983 45.616 574.983 46.816C574.983 48.144 575.367 49.176 576.135 49.912C576.919 50.648 578.015 51.016 579.423 51.016ZM590.194 52.096C589.922 52.096 589.69 52 589.498 51.808C589.306 51.616 589.21 51.384 589.21 51.112C589.21 50.808 589.314 50.56 589.522 50.368C589.73 50.16 589.978 50.056 590.266 50.056C590.538 50.056 590.77 50.152 590.962 50.344C591.154 50.536 591.25 50.768 591.25 51.04C591.25 51.328 591.146 51.576 590.938 51.784C590.73 51.992 590.482 52.096 590.194 52.096Z" fill="black"/>
</svg>
