<svg width="596" height="60" viewBox="0 0 596 60" fill="none" xmlns="http://www.w3.org/2000/svg">
<rect width="596" height="60" fill="white" fill-opacity="0.13"/>
<rect width="596" height="59.0906" fill="white"/>
<path d="M2.928 6.2H4.152V21.896H13.824V23H2.928V6.2ZM16.5831 10.472H17.7831V23H16.5831V10.472ZM17.1831 7.424C16.9111 7.424 16.6791 7.336 16.4871 7.16C16.2951 6.968 16.1991 6.736 16.1991 6.464C16.1991 6.192 16.2951 5.96 16.4871 5.768C16.6791 5.576 16.9111 5.48 17.1831 5.48C17.4551 5.48 17.6871 5.576 17.8791 5.768C18.0711 5.944 18.1671 6.168 18.1671 6.44C18.1671 6.712 18.0711 6.944 17.8791 7.136C17.6871 7.328 17.4551 7.424 17.1831 7.424ZM34.1209 10.472V21.656C34.1209 23.736 33.6169 25.272 32.6089 26.264C31.6009 27.256 30.0809 27.752 28.0489 27.752C26.8969 27.752 25.8089 27.576 24.7849 27.224C23.7609 26.872 22.9369 26.384 22.3129 25.76L22.9609 24.848C23.5849 25.424 24.3369 25.872 25.2169 26.192C26.0969 26.512 27.0329 26.672 28.0249 26.672C29.6889 26.672 30.9209 26.272 31.7209 25.472C32.5209 24.688 32.9209 23.464 32.9209 21.8V19.688C32.4089 20.6 31.6969 21.304 30.7849 21.8C29.8729 22.296 28.8489 22.544 27.7129 22.544C26.5449 22.544 25.4809 22.288 24.5209 21.776C23.5769 21.248 22.8329 20.52 22.2889 19.592C21.7449 18.664 21.4729 17.616 21.4729 16.448C21.4729 15.28 21.7449 14.232 22.2889 13.304C22.8329 12.376 23.5769 11.656 24.5209 11.144C25.4809 10.632 26.5449 10.376 27.7129 10.376C28.8649 10.376 29.9049 10.632 30.8329 11.144C31.7609 11.656 32.4729 12.376 32.9689 13.304V10.472H34.1209ZM27.8089 21.464C28.7849 21.464 29.6649 21.256 30.4489 20.84C31.2329 20.408 31.8409 19.816 32.2729 19.064C32.7209 18.296 32.9449 17.424 32.9449 16.448C32.9449 15.472 32.7209 14.608 32.2729 13.856C31.8409 13.104 31.2329 12.52 30.4489 12.104C29.6649 11.672 28.7849 11.456 27.8089 11.456C26.8329 11.456 25.9529 11.672 25.1689 12.104C24.4009 12.52 23.7929 13.104 23.3449 13.856C22.9129 14.608 22.6969 15.472 22.6969 16.448C22.6969 17.424 22.9129 18.296 23.3449 19.064C23.7929 19.816 24.4009 20.408 25.1689 20.84C25.9529 21.256 26.8329 21.464 27.8089 21.464ZM45.3203 10.376C46.8883 10.376 48.1283 10.832 49.0403 11.744C49.9523 12.656 50.4083 13.968 50.4083 15.68V23H49.2083V15.776C49.2083 14.368 48.8483 13.296 48.1283 12.56C47.4243 11.824 46.4323 11.456 45.1523 11.456C43.6803 11.456 42.5203 11.896 41.6723 12.776C40.8243 13.656 40.4003 14.84 40.4003 16.328V23H39.2003V5.192H40.4003V13.088C40.8323 12.224 41.4723 11.56 42.3203 11.096C43.1683 10.616 44.1683 10.376 45.3203 10.376ZM61.5647 22.208C61.2607 22.496 60.8767 22.72 60.4127 22.88C59.9647 23.024 59.4927 23.096 58.9967 23.096C57.9087 23.096 57.0687 22.8 56.4767 22.208C55.8847 21.6 55.5887 20.76 55.5887 19.688V11.504H53.2847V10.472H55.5887V7.736H56.7887V10.472H60.7727V11.504H56.7887V19.568C56.7887 20.384 56.9807 21.008 57.3647 21.44C57.7647 21.856 58.3487 22.064 59.1167 22.064C59.9007 22.064 60.5487 21.832 61.0607 21.368L61.5647 22.208ZM74.9633 13.52C76.8193 13.568 78.2273 14.024 79.1873 14.888C80.1633 15.736 80.6512 16.864 80.6512 18.272C80.6512 19.216 80.4273 20.056 79.9793 20.792C79.5313 21.512 78.8593 22.08 77.9633 22.496C77.0833 22.912 76.0193 23.12 74.7713 23.12C73.5553 23.12 72.4113 22.92 71.3393 22.52C70.2673 22.104 69.4353 21.552 68.8433 20.864L69.4673 19.928C70.0113 20.536 70.7473 21.032 71.6753 21.416C72.6193 21.8 73.6513 21.992 74.7713 21.992C76.2593 21.992 77.4033 21.664 78.2033 21.008C79.0033 20.336 79.4033 19.424 79.4033 18.272C79.4033 17.104 78.9953 16.192 78.1793 15.536C77.3633 14.88 76.1393 14.552 74.5073 14.552H73.4513V13.664L78.4193 7.304H69.4673V6.2H80.0033V7.064L74.9633 13.52ZM89.8101 23.12C88.5301 23.12 87.3861 22.776 86.3781 22.088C85.3861 21.384 84.6101 20.392 84.0501 19.112C83.5061 17.832 83.2341 16.328 83.2341 14.6C83.2341 12.872 83.5061 11.368 84.0501 10.088C84.6101 8.808 85.3861 7.824 86.3781 7.136C87.3861 6.432 88.5301 6.08 89.8101 6.08C91.0901 6.08 92.2261 6.432 93.2181 7.136C94.2261 7.824 95.0021 8.808 95.5461 10.088C96.1061 11.368 96.3861 12.872 96.3861 14.6C96.3861 16.328 96.1061 17.832 95.5461 19.112C95.0021 20.392 94.2261 21.384 93.2181 22.088C92.2261 22.776 91.0901 23.12 89.8101 23.12ZM89.8101 21.992C90.8661 21.992 91.7941 21.704 92.5941 21.128C93.4101 20.536 94.0421 19.688 94.4901 18.584C94.9381 17.464 95.1621 16.136 95.1621 14.6C95.1621 13.064 94.9381 11.744 94.4901 10.64C94.0421 9.52 93.4101 8.672 92.5941 8.096C91.7941 7.504 90.8661 7.208 89.8101 7.208C88.7541 7.208 87.8181 7.504 87.0021 8.096C86.2021 8.672 85.5781 9.52 85.1301 10.64C84.6821 11.744 84.4581 13.064 84.4581 14.6C84.4581 16.136 84.6821 17.464 85.1301 18.584C85.5781 19.688 86.2021 20.536 87.0021 21.128C87.8181 21.704 88.7541 21.992 89.8101 21.992ZM105.607 23.12C104.327 23.12 103.183 22.776 102.175 22.088C101.183 21.384 100.407 20.392 99.8469 19.112C99.3029 17.832 99.0309 16.328 99.0309 14.6C99.0309 12.872 99.3029 11.368 99.8469 10.088C100.407 8.808 101.183 7.824 102.175 7.136C103.183 6.432 104.327 6.08 105.607 6.08C106.887 6.08 108.023 6.432 109.015 7.136C110.023 7.824 110.799 8.808 111.343 10.088C111.903 11.368 112.183 12.872 112.183 14.6C112.183 16.328 111.903 17.832 111.343 19.112C110.799 20.392 110.023 21.384 109.015 22.088C108.023 22.776 106.887 23.12 105.607 23.12ZM105.607 21.992C106.663 21.992 107.591 21.704 108.391 21.128C109.207 20.536 109.839 19.688 110.287 18.584C110.735 17.464 110.959 16.136 110.959 14.6C110.959 13.064 110.735 11.744 110.287 10.64C109.839 9.52 109.207 8.672 108.391 8.096C107.591 7.504 106.663 7.208 105.607 7.208C104.551 7.208 103.615 7.504 102.799 8.096C101.999 8.672 101.375 9.52 100.927 10.64C100.479 11.744 100.255 13.064 100.255 14.6C100.255 16.136 100.479 17.464 100.927 18.584C101.375 19.688 101.999 20.536 102.799 21.128C103.615 21.704 104.551 21.992 105.607 21.992ZM13.32 47.272H3.576L1.44 52H0.12L7.848 35.2H9.072L16.8 52H15.48L13.32 47.272ZM12.864 46.24L8.448 36.544L4.056 46.24H12.864ZM19.4659 34.192H20.6659V52H19.4659V34.192ZM41.3237 39.376C42.8757 39.376 44.0917 39.832 44.9717 40.744C45.8677 41.656 46.3157 42.968 46.3157 44.68V52H45.1157V44.776C45.1157 43.368 44.7717 42.296 44.0837 41.56C43.3957 40.824 42.4357 40.456 41.2037 40.456C39.7957 40.456 38.6757 40.896 37.8437 41.776C37.0277 42.656 36.6197 43.84 36.6197 45.328V52H35.4197V44.776C35.4197 43.368 35.0757 42.296 34.3877 41.56C33.6997 40.824 32.7397 40.456 31.5077 40.456C30.0997 40.456 28.9797 40.896 28.1477 41.776C27.3317 42.656 26.9237 43.84 26.9237 45.328V52H25.7237V39.472H26.8757V42.16C27.2917 41.28 27.9077 40.6 28.7237 40.12C29.5557 39.624 30.5397 39.376 31.6757 39.376C32.8117 39.376 33.7717 39.632 34.5557 40.144C35.3557 40.656 35.9237 41.408 36.2597 42.4C36.6757 41.472 37.3237 40.736 38.2037 40.192C39.0997 39.648 40.1397 39.376 41.3237 39.376ZM56.19 52.096C55.006 52.096 53.934 51.824 52.974 51.28C52.03 50.736 51.286 49.984 50.742 49.024C50.198 48.048 49.926 46.952 49.926 45.736C49.926 44.52 50.198 43.432 50.742 42.472C51.286 41.496 52.03 40.736 52.974 40.192C53.934 39.648 55.006 39.376 56.19 39.376C57.374 39.376 58.438 39.648 59.382 40.192C60.342 40.736 61.094 41.496 61.638 42.472C62.182 43.432 62.454 44.52 62.454 45.736C62.454 46.952 62.182 48.048 61.638 49.024C61.094 49.984 60.342 50.736 59.382 51.28C58.438 51.824 57.374 52.096 56.19 52.096ZM56.19 51.016C57.15 51.016 58.006 50.792 58.758 50.344C59.526 49.896 60.126 49.272 60.558 48.472C61.006 47.672 61.23 46.76 61.23 45.736C61.23 44.712 61.006 43.8 60.558 43C60.126 42.2 59.526 41.576 58.758 41.128C58.006 40.68 57.15 40.456 56.19 40.456C55.23 40.456 54.366 40.68 53.598 41.128C52.846 41.576 52.246 42.2 51.798 43C51.366 43.8 51.15 44.712 51.15 45.736C51.15 46.76 51.366 47.672 51.798 48.472C52.246 49.272 52.846 49.896 53.598 50.344C54.366 50.792 55.23 51.016 56.19 51.016ZM69.3448 52.096C68.3368 52.096 67.3768 51.944 66.4648 51.64C65.5528 51.336 64.8408 50.952 64.3288 50.488L64.8808 49.528C65.3928 49.96 66.0488 50.32 66.8488 50.608C67.6648 50.896 68.5128 51.04 69.3928 51.04C70.6568 51.04 71.5848 50.832 72.1768 50.416C72.7848 50 73.0888 49.424 73.0888 48.688C73.0888 48.16 72.9208 47.744 72.5848 47.44C72.2648 47.136 71.8648 46.912 71.3848 46.768C70.9048 46.624 70.2408 46.472 69.3928 46.312C68.4008 46.136 67.6008 45.944 66.9928 45.736C66.3848 45.528 65.8648 45.192 65.4328 44.728C65.0008 44.264 64.7848 43.624 64.7848 42.808C64.7848 41.816 65.1928 41 66.0088 40.36C66.8408 39.704 68.0168 39.376 69.5368 39.376C70.3368 39.376 71.1288 39.488 71.9128 39.712C72.6968 39.936 73.3368 40.232 73.8328 40.6L73.2808 41.56C72.7688 41.192 72.1848 40.912 71.5288 40.72C70.8728 40.528 70.2008 40.432 69.5128 40.432C68.3448 40.432 67.4648 40.648 66.8728 41.08C66.2808 41.512 65.9848 42.08 65.9848 42.784C65.9848 43.344 66.1528 43.784 66.4888 44.104C66.8248 44.408 67.2328 44.64 67.7128 44.8C68.2088 44.944 68.8968 45.104 69.7768 45.28C70.7528 45.456 71.5368 45.648 72.1288 45.856C72.7368 46.048 73.2488 46.368 73.6648 46.816C74.0808 47.264 74.2888 47.88 74.2888 48.664C74.2888 49.704 73.8568 50.536 72.9928 51.16C72.1288 51.784 70.9128 52.096 69.3448 52.096ZM83.8538 51.208C83.5498 51.496 83.1658 51.72 82.7018 51.88C82.2538 52.024 81.7818 52.096 81.2858 52.096C80.1978 52.096 79.3578 51.8 78.7658 51.208C78.1738 50.6 77.8778 49.76 77.8778 48.688V40.504H75.5738V39.472H77.8778V36.736H79.0778V39.472H83.0618V40.504H79.0778V48.568C79.0778 49.384 79.2698 50.008 79.6538 50.44C80.0538 50.856 80.6378 51.064 81.4058 51.064C82.1898 51.064 82.8378 50.832 83.3498 50.368L83.8538 51.208ZM99.6523 39.376C100.82 39.376 101.876 39.648 102.82 40.192C103.764 40.72 104.5 41.472 105.028 42.448C105.572 43.408 105.844 44.504 105.844 45.736C105.844 46.968 105.572 48.064 105.028 49.024C104.5 49.984 103.764 50.736 102.82 51.28C101.876 51.824 100.82 52.096 99.6523 52.096C98.5323 52.096 97.5163 51.832 96.6043 51.304C95.7083 50.76 95.0123 50.008 94.5163 49.048V52H93.3643V34.192H94.5643V42.328C95.0603 41.4 95.7563 40.68 96.6523 40.168C97.5483 39.64 98.5483 39.376 99.6523 39.376ZM99.5803 51.016C100.54 51.016 101.404 50.792 102.172 50.344C102.94 49.896 103.54 49.272 103.972 48.472C104.42 47.672 104.644 46.76 104.644 45.736C104.644 44.712 104.42 43.8 103.972 43C103.54 42.2 102.94 41.576 102.172 41.128C101.404 40.68 100.54 40.456 99.5803 40.456C98.6203 40.456 97.7563 40.68 96.9883 41.128C96.2363 41.576 95.6363 42.2 95.1883 43C94.7563 43.8 94.5403 44.712 94.5403 45.736C94.5403 46.76 94.7563 47.672 95.1883 48.472C95.6363 49.272 96.2363 49.896 96.9883 50.344C97.7563 50.792 98.6203 51.016 99.5803 51.016ZM120.144 46.024H109.368C109.4 47 109.648 47.872 110.112 48.64C110.576 49.392 111.2 49.976 111.984 50.392C112.784 50.808 113.68 51.016 114.672 51.016C115.488 51.016 116.24 50.872 116.928 50.584C117.632 50.28 118.216 49.84 118.68 49.264L119.376 50.056C118.832 50.712 118.144 51.216 117.312 51.568C116.496 51.92 115.608 52.096 114.648 52.096C113.4 52.096 112.288 51.824 111.312 51.28C110.336 50.736 109.568 49.984 109.008 49.024C108.464 48.064 108.192 46.968 108.192 45.736C108.192 44.52 108.448 43.432 108.96 42.472C109.488 41.496 110.208 40.736 111.12 40.192C112.032 39.648 113.056 39.376 114.192 39.376C115.328 39.376 116.344 39.648 117.24 40.192C118.152 40.72 118.864 41.464 119.376 42.424C119.904 43.384 120.168 44.472 120.168 45.688L120.144 46.024ZM114.192 40.432C113.312 40.432 112.52 40.632 111.816 41.032C111.112 41.416 110.544 41.968 110.112 42.688C109.696 43.392 109.456 44.192 109.392 45.088H118.992C118.944 44.192 118.704 43.392 118.272 42.688C117.84 41.984 117.272 41.432 116.568 41.032C115.864 40.632 115.072 40.432 114.192 40.432ZM127.648 35.128C126.08 35.128 125.296 35.968 125.296 37.648V39.472H129.304V40.504H125.32V52H124.12V40.504H121.816V39.472H124.12V37.552C124.12 36.496 124.424 35.656 125.032 35.032C125.64 34.408 126.496 34.096 127.6 34.096C128.08 34.096 128.536 34.168 128.968 34.312C129.416 34.44 129.784 34.64 130.072 34.912L129.592 35.824C129.08 35.36 128.432 35.128 127.648 35.128ZM136.44 52.096C135.256 52.096 134.184 51.824 133.224 51.28C132.28 50.736 131.536 49.984 130.992 49.024C130.448 48.048 130.176 46.952 130.176 45.736C130.176 44.52 130.448 43.432 130.992 42.472C131.536 41.496 132.28 40.736 133.224 40.192C134.184 39.648 135.256 39.376 136.44 39.376C137.624 39.376 138.688 39.648 139.632 40.192C140.592 40.736 141.344 41.496 141.888 42.472C142.432 43.432 142.704 44.52 142.704 45.736C142.704 46.952 142.432 48.048 141.888 49.024C141.344 49.984 140.592 50.736 139.632 51.28C138.688 51.824 137.624 52.096 136.44 52.096ZM136.44 51.016C137.4 51.016 138.256 50.792 139.008 50.344C139.776 49.896 140.376 49.272 140.808 48.472C141.256 47.672 141.48 46.76 141.48 45.736C141.48 44.712 141.256 43.8 140.808 43C140.376 42.2 139.776 41.576 139.008 41.128C138.256 40.68 137.4 40.456 136.44 40.456C135.48 40.456 134.616 40.68 133.848 41.128C133.096 41.576 132.496 42.2 132.048 43C131.616 43.8 131.4 44.712 131.4 45.736C131.4 46.76 131.616 47.672 132.048 48.472C132.496 49.272 133.096 49.896 133.848 50.344C134.616 50.792 135.48 51.016 136.44 51.016ZM147.579 42.208C147.963 41.296 148.563 40.6 149.379 40.12C150.195 39.624 151.187 39.376 152.355 39.376V40.552L152.067 40.528C150.675 40.528 149.587 40.968 148.803 41.848C148.019 42.712 147.627 43.92 147.627 45.472V52H146.427V39.472H147.579V42.208ZM166.128 46.024H155.352C155.384 47 155.632 47.872 156.096 48.64C156.56 49.392 157.184 49.976 157.968 50.392C158.768 50.808 159.664 51.016 160.656 51.016C161.472 51.016 162.224 50.872 162.912 50.584C163.616 50.28 164.2 49.84 164.664 49.264L165.36 50.056C164.816 50.712 164.128 51.216 163.296 51.568C162.48 51.92 161.592 52.096 160.632 52.096C159.384 52.096 158.272 51.824 157.296 51.28C156.32 50.736 155.552 49.984 154.992 49.024C154.448 48.064 154.176 46.968 154.176 45.736C154.176 44.52 154.432 43.432 154.944 42.472C155.472 41.496 156.192 40.736 157.104 40.192C158.016 39.648 159.04 39.376 160.176 39.376C161.312 39.376 162.328 39.648 163.224 40.192C164.136 40.72 164.848 41.464 165.36 42.424C165.888 43.384 166.152 44.472 166.152 45.688L166.128 46.024ZM160.176 40.432C159.296 40.432 158.504 40.632 157.8 41.032C157.096 41.416 156.528 41.968 156.096 42.688C155.68 43.392 155.44 44.192 155.376 45.088H164.976C164.928 44.192 164.688 43.392 164.256 42.688C163.824 41.984 163.256 41.432 162.552 41.032C161.848 40.632 161.056 40.432 160.176 40.432ZM193.932 39.472L189.18 52H188.052L183.828 41.128L179.58 52H178.476L173.724 39.472H174.876L179.052 50.656L183.324 39.472H184.356L188.604 50.632L192.828 39.472H193.932ZM206.956 46.024H196.18C196.212 47 196.46 47.872 196.924 48.64C197.388 49.392 198.012 49.976 198.796 50.392C199.596 50.808 200.492 51.016 201.484 51.016C202.3 51.016 203.052 50.872 203.74 50.584C204.444 50.28 205.028 49.84 205.492 49.264L206.188 50.056C205.644 50.712 204.956 51.216 204.124 51.568C203.308 51.92 202.42 52.096 201.46 52.096C200.212 52.096 199.1 51.824 198.124 51.28C197.148 50.736 196.38 49.984 195.82 49.024C195.276 48.064 195.004 46.968 195.004 45.736C195.004 44.52 195.26 43.432 195.772 42.472C196.3 41.496 197.02 40.736 197.932 40.192C198.844 39.648 199.868 39.376 201.004 39.376C202.14 39.376 203.156 39.648 204.052 40.192C204.964 40.72 205.676 41.464 206.188 42.424C206.716 43.384 206.98 44.472 206.98 45.688L206.956 46.024ZM201.004 40.432C200.124 40.432 199.332 40.632 198.628 41.032C197.924 41.416 197.356 41.968 196.924 42.688C196.508 43.392 196.268 44.192 196.204 45.088H205.804C205.756 44.192 205.516 43.392 205.084 42.688C204.652 41.984 204.084 41.432 203.38 41.032C202.676 40.632 201.884 40.432 201.004 40.432ZM221.321 45.304L218.057 48.28V52H216.857V34.192H218.057V46.792L226.073 39.472H227.609L222.209 44.536L228.137 52H226.648L221.321 45.304ZM236.875 39.376C238.443 39.376 239.683 39.832 240.595 40.744C241.507 41.656 241.963 42.968 241.963 44.68V52H240.763V44.776C240.763 43.368 240.403 42.296 239.683 41.56C238.979 40.824 237.987 40.456 236.707 40.456C235.235 40.456 234.075 40.896 233.227 41.776C232.379 42.656 231.955 43.84 231.955 45.328V52H230.755V39.472H231.907V42.184C232.339 41.304 232.979 40.616 233.827 40.12C234.691 39.624 235.707 39.376 236.875 39.376ZM257.511 46.024H246.735C246.767 47 247.015 47.872 247.479 48.64C247.943 49.392 248.567 49.976 249.351 50.392C250.151 50.808 251.047 51.016 252.039 51.016C252.855 51.016 253.607 50.872 254.295 50.584C254.999 50.28 255.583 49.84 256.047 49.264L256.743 50.056C256.199 50.712 255.511 51.216 254.679 51.568C253.863 51.92 252.975 52.096 252.015 52.096C250.767 52.096 249.655 51.824 248.679 51.28C247.703 50.736 246.935 49.984 246.375 49.024C245.831 48.064 245.559 46.968 245.559 45.736C245.559 44.52 245.815 43.432 246.327 42.472C246.855 41.496 247.575 40.736 248.487 40.192C249.399 39.648 250.423 39.376 251.559 39.376C252.695 39.376 253.711 39.648 254.607 40.192C255.519 40.72 256.231 41.464 256.743 42.424C257.271 43.384 257.535 44.472 257.535 45.688L257.511 46.024ZM251.559 40.432C250.679 40.432 249.887 40.632 249.183 41.032C248.479 41.416 247.911 41.968 247.479 42.688C247.063 43.392 246.823 44.192 246.759 45.088H256.359C256.311 44.192 256.071 43.392 255.639 42.688C255.207 41.984 254.639 41.432 253.935 41.032C253.231 40.632 252.439 40.432 251.559 40.432ZM278.917 39.472L274.165 52H273.037L268.813 41.128L264.565 52H263.461L258.709 39.472H259.861L264.037 50.656L268.309 39.472H269.341L273.589 50.632L277.813 39.472H278.917ZM287.872 39.472H289.072V52H287.872V39.472ZM288.472 36.424C288.2 36.424 287.968 36.336 287.776 36.16C287.584 35.968 287.488 35.736 287.488 35.464C287.488 35.192 287.584 34.96 287.776 34.768C287.968 34.576 288.2 34.48 288.472 34.48C288.744 34.48 288.976 34.576 289.168 34.768C289.36 34.944 289.456 35.168 289.456 35.44C289.456 35.712 289.36 35.944 289.168 36.136C288.976 36.328 288.744 36.424 288.472 36.424ZM300.346 51.208C300.042 51.496 299.658 51.72 299.194 51.88C298.746 52.024 298.274 52.096 297.778 52.096C296.69 52.096 295.85 51.8 295.258 51.208C294.666 50.6 294.37 49.76 294.37 48.688V40.504H292.066V39.472H294.37V36.736H295.57V39.472H299.554V40.504H295.57V48.568C295.57 49.384 295.762 50.008 296.146 50.44C296.546 50.856 297.13 51.064 297.898 51.064C298.682 51.064 299.33 50.832 299.842 50.368L300.346 51.208ZM303.783 50.056C304.071 50.056 304.311 50.16 304.503 50.368C304.695 50.56 304.791 50.792 304.791 51.064C304.791 51.224 304.767 51.392 304.719 51.568C304.687 51.744 304.639 51.944 304.575 52.168L303.639 55.432H302.775L303.567 52.048C303.327 51.984 303.135 51.872 302.991 51.712C302.847 51.536 302.775 51.32 302.775 51.064C302.775 50.776 302.871 50.536 303.063 50.344C303.255 50.152 303.495 50.056 303.783 50.056ZM332.8 39.472L328.048 52H326.92L322.696 41.128L318.448 52H317.344L312.592 39.472H313.744L317.92 50.656L322.192 39.472H323.224L327.472 50.632L331.696 39.472H332.8ZM345.823 46.024H335.047C335.079 47 335.327 47.872 335.791 48.64C336.255 49.392 336.879 49.976 337.663 50.392C338.463 50.808 339.359 51.016 340.351 51.016C341.167 51.016 341.919 50.872 342.607 50.584C343.311 50.28 343.895 49.84 344.359 49.264L345.055 50.056C344.511 50.712 343.823 51.216 342.991 51.568C342.175 51.92 341.287 52.096 340.327 52.096C339.079 52.096 337.967 51.824 336.991 51.28C336.015 50.736 335.247 49.984 334.687 49.024C334.143 48.064 333.871 46.968 333.871 45.736C333.871 44.52 334.127 43.432 334.639 42.472C335.167 41.496 335.887 40.736 336.799 40.192C337.711 39.648 338.735 39.376 339.871 39.376C341.007 39.376 342.023 39.648 342.919 40.192C343.831 40.72 344.543 41.464 345.055 42.424C345.583 43.384 345.847 44.472 345.847 45.688L345.823 46.024ZM339.871 40.432C338.991 40.432 338.199 40.632 337.495 41.032C336.791 41.416 336.223 41.968 335.791 42.688C335.375 43.392 335.135 44.192 335.071 45.088H344.671C344.623 44.192 344.383 43.392 343.951 42.688C343.519 41.984 342.951 41.432 342.247 41.032C341.543 40.632 340.751 40.432 339.871 40.432ZM361.844 39.376C363.412 39.376 364.652 39.832 365.564 40.744C366.476 41.656 366.932 42.968 366.932 44.68V52H365.732V44.776C365.732 43.368 365.372 42.296 364.652 41.56C363.948 40.824 362.956 40.456 361.676 40.456C360.204 40.456 359.044 40.896 358.196 41.776C357.348 42.656 356.924 43.84 356.924 45.328V52H355.724V34.192H356.924V42.088C357.356 41.224 357.996 40.56 358.844 40.096C359.692 39.616 360.692 39.376 361.844 39.376ZM376.096 39.376C377.648 39.376 378.84 39.776 379.672 40.576C380.504 41.36 380.92 42.52 380.92 44.056V52H379.768V49.768C379.368 50.504 378.784 51.08 378.016 51.496C377.248 51.896 376.328 52.096 375.256 52.096C373.864 52.096 372.76 51.768 371.944 51.112C371.144 50.456 370.744 49.592 370.744 48.52C370.744 47.48 371.112 46.64 371.848 46C372.6 45.344 373.792 45.016 375.424 45.016H379.72V44.008C379.72 42.84 379.4 41.952 378.76 41.344C378.136 40.736 377.216 40.432 376 40.432C375.168 40.432 374.368 40.576 373.6 40.864C372.848 41.152 372.208 41.536 371.68 42.016L371.08 41.152C371.704 40.592 372.456 40.16 373.336 39.856C374.216 39.536 375.136 39.376 376.096 39.376ZM375.424 51.112C376.464 51.112 377.344 50.872 378.064 50.392C378.8 49.912 379.352 49.216 379.72 48.304V45.952H375.448C374.216 45.952 373.32 46.176 372.76 46.624C372.216 47.072 371.944 47.688 371.944 48.472C371.944 49.288 372.248 49.936 372.856 50.416C373.464 50.88 374.32 51.112 375.424 51.112ZM397.024 34.192V52H395.848V49.048C395.352 50.024 394.656 50.776 393.76 51.304C392.864 51.832 391.848 52.096 390.712 52.096C389.544 52.096 388.488 51.824 387.544 51.28C386.6 50.736 385.856 49.984 385.312 49.024C384.784 48.064 384.52 46.968 384.52 45.736C384.52 44.504 384.784 43.408 385.312 42.448C385.856 41.472 386.6 40.72 387.544 40.192C388.488 39.648 389.544 39.376 390.712 39.376C391.832 39.376 392.832 39.64 393.712 40.168C394.608 40.696 395.312 41.432 395.824 42.376V34.192H397.024ZM390.784 51.016C391.744 51.016 392.6 50.792 393.352 50.344C394.12 49.896 394.72 49.272 395.152 48.472C395.6 47.672 395.824 46.76 395.824 45.736C395.824 44.712 395.6 43.8 395.152 43C394.72 42.2 394.12 41.576 393.352 41.128C392.6 40.68 391.744 40.456 390.784 40.456C389.824 40.456 388.96 40.68 388.192 41.128C387.44 41.576 386.84 42.2 386.392 43C385.96 43.8 385.744 44.712 385.744 45.736C385.744 46.76 385.96 47.672 386.392 48.472C386.84 49.272 387.44 49.896 388.192 50.344C388.96 50.792 389.824 51.016 390.784 51.016ZM408.247 34.192H409.447V52H408.247V34.192ZM425.089 46.024H414.313C414.345 47 414.593 47.872 415.057 48.64C415.521 49.392 416.145 49.976 416.929 50.392C417.729 50.808 418.625 51.016 419.617 51.016C420.433 51.016 421.185 50.872 421.873 50.584C422.577 50.28 423.161 49.84 423.625 49.264L424.321 50.056C423.777 50.712 423.089 51.216 422.257 51.568C421.441 51.92 420.553 52.096 419.593 52.096C418.345 52.096 417.233 51.824 416.257 51.28C415.281 50.736 414.513 49.984 413.953 49.024C413.409 48.064 413.137 46.968 413.137 45.736C413.137 44.52 413.393 43.432 413.905 42.472C414.433 41.496 415.153 40.736 416.065 40.192C416.977 39.648 418.001 39.376 419.137 39.376C420.273 39.376 421.289 39.648 422.185 40.192C423.097 40.72 423.809 41.464 424.321 42.424C424.849 43.384 425.113 44.472 425.113 45.688L425.089 46.024ZM419.137 40.432C418.257 40.432 417.465 40.632 416.761 41.032C416.057 41.416 415.489 41.968 415.057 42.688C414.641 43.392 414.401 44.192 414.337 45.088H423.937C423.889 44.192 423.649 43.392 423.217 42.688C422.785 41.984 422.217 41.432 421.513 41.032C420.809 40.632 420.017 40.432 419.137 40.432ZM432.593 35.128C431.025 35.128 430.241 35.968 430.241 37.648V39.472H434.249V40.504H430.265V52H429.065V40.504H426.761V39.472H429.065V37.552C429.065 36.496 429.369 35.656 429.977 35.032C430.585 34.408 431.441 34.096 432.545 34.096C433.025 34.096 433.481 34.168 433.913 34.312C434.361 34.44 434.729 34.64 435.017 34.912L434.537 35.824C434.025 35.36 433.377 35.128 432.593 35.128ZM442.916 51.208C442.612 51.496 442.228 51.72 441.764 51.88C441.316 52.024 440.844 52.096 440.348 52.096C439.26 52.096 438.42 51.8 437.828 51.208C437.236 50.6 436.94 49.76 436.94 48.688V40.504H434.636V39.472H436.94V36.736H438.14V39.472H442.124V40.504H438.14V48.568C438.14 49.384 438.332 50.008 438.716 50.44C439.116 50.856 439.7 51.064 440.468 51.064C441.252 51.064 441.9 50.832 442.412 50.368L442.916 51.208ZM458.643 51.208C458.339 51.496 457.955 51.72 457.491 51.88C457.043 52.024 456.571 52.096 456.075 52.096C454.987 52.096 454.147 51.8 453.555 51.208C452.963 50.6 452.667 49.76 452.667 48.688V40.504H450.363V39.472H452.667V36.736H453.867V39.472H457.851V40.504H453.867V48.568C453.867 49.384 454.059 50.008 454.443 50.44C454.843 50.856 455.427 51.064 456.195 51.064C456.979 51.064 457.627 50.832 458.139 50.368L458.643 51.208ZM468.109 39.376C469.677 39.376 470.917 39.832 471.829 40.744C472.741 41.656 473.197 42.968 473.197 44.68V52H471.997V44.776C471.997 43.368 471.637 42.296 470.917 41.56C470.213 40.824 469.221 40.456 467.941 40.456C466.469 40.456 465.309 40.896 464.461 41.776C463.613 42.656 463.189 43.84 463.189 45.328V52H461.989V34.192H463.189V42.088C463.621 41.224 464.261 40.56 465.109 40.096C465.957 39.616 466.957 39.376 468.109 39.376ZM488.745 46.024H477.969C478.001 47 478.249 47.872 478.713 48.64C479.177 49.392 479.801 49.976 480.585 50.392C481.385 50.808 482.281 51.016 483.273 51.016C484.089 51.016 484.841 50.872 485.529 50.584C486.233 50.28 486.817 49.84 487.281 49.264L487.977 50.056C487.433 50.712 486.745 51.216 485.913 51.568C485.097 51.92 484.209 52.096 483.249 52.096C482.001 52.096 480.889 51.824 479.913 51.28C478.937 50.736 478.169 49.984 477.609 49.024C477.065 48.064 476.793 46.968 476.793 45.736C476.793 44.52 477.049 43.432 477.561 42.472C478.089 41.496 478.809 40.736 479.721 40.192C480.633 39.648 481.657 39.376 482.793 39.376C483.929 39.376 484.945 39.648 485.841 40.192C486.753 40.72 487.465 41.464 487.977 42.424C488.505 43.384 488.769 44.472 488.769 45.688L488.745 46.024ZM482.793 40.432C481.913 40.432 481.121 40.632 480.417 41.032C479.713 41.416 479.145 41.968 478.713 42.688C478.297 43.392 478.057 44.192 477.993 45.088H487.593C487.545 44.192 487.305 43.392 486.873 42.688C486.441 41.984 485.873 41.432 485.169 41.032C484.465 40.632 483.673 40.432 482.793 40.432ZM509.926 39.472V50.656C509.926 52.736 509.422 54.272 508.414 55.264C507.406 56.256 505.886 56.752 503.854 56.752C502.702 56.752 501.614 56.576 500.59 56.224C499.566 55.872 498.742 55.384 498.118 54.76L498.766 53.848C499.39 54.424 500.142 54.872 501.022 55.192C501.902 55.512 502.838 55.672 503.83 55.672C505.494 55.672 506.726 55.272 507.526 54.472C508.326 53.688 508.726 52.464 508.726 50.8V48.688C508.214 49.6 507.502 50.304 506.59 50.8C505.678 51.296 504.654 51.544 503.518 51.544C502.35 51.544 501.286 51.288 500.326 50.776C499.382 50.248 498.638 49.52 498.094 48.592C497.55 47.664 497.278 46.616 497.278 45.448C497.278 44.28 497.55 43.232 498.094 42.304C498.638 41.376 499.382 40.656 500.326 40.144C501.286 39.632 502.35 39.376 503.518 39.376C504.67 39.376 505.71 39.632 506.638 40.144C507.566 40.656 508.278 41.376 508.774 42.304V39.472H509.926ZM503.614 50.464C504.59 50.464 505.47 50.256 506.254 49.84C507.038 49.408 507.646 48.816 508.078 48.064C508.526 47.296 508.75 46.424 508.75 45.448C508.75 44.472 508.526 43.608 508.078 42.856C507.646 42.104 507.038 41.52 506.254 41.104C505.47 40.672 504.59 40.456 503.614 40.456C502.638 40.456 501.758 40.672 500.974 41.104C500.206 41.52 499.598 42.104 499.15 42.856C498.718 43.608 498.502 44.472 498.502 45.448C498.502 46.424 498.718 47.296 499.15 48.064C499.598 48.816 500.206 49.408 500.974 49.84C501.758 50.256 502.638 50.464 503.614 50.464ZM516.157 42.208C516.541 41.296 517.141 40.6 517.957 40.12C518.773 39.624 519.765 39.376 520.933 39.376V40.552L520.645 40.528C519.253 40.528 518.165 40.968 517.381 41.848C516.597 42.712 516.205 43.92 516.205 45.472V52H515.005V39.472H516.157V42.208ZM529.018 52.096C527.834 52.096 526.762 51.824 525.802 51.28C524.858 50.736 524.114 49.984 523.57 49.024C523.026 48.048 522.754 46.952 522.754 45.736C522.754 44.52 523.026 43.432 523.57 42.472C524.114 41.496 524.858 40.736 525.802 40.192C526.762 39.648 527.834 39.376 529.018 39.376C530.202 39.376 531.266 39.648 532.21 40.192C533.17 40.736 533.922 41.496 534.466 42.472C535.01 43.432 535.282 44.52 535.282 45.736C535.282 46.952 535.01 48.048 534.466 49.024C533.922 49.984 533.17 50.736 532.21 51.28C531.266 51.824 530.202 52.096 529.018 52.096ZM529.018 51.016C529.978 51.016 530.834 50.792 531.586 50.344C532.354 49.896 532.954 49.272 533.386 48.472C533.834 47.672 534.058 46.76 534.058 45.736C534.058 44.712 533.834 43.8 533.386 43C532.954 42.2 532.354 41.576 531.586 41.128C530.834 40.68 529.978 40.456 529.018 40.456C528.058 40.456 527.194 40.68 526.426 41.128C525.674 41.576 525.074 42.2 524.626 43C524.194 43.8 523.978 44.712 523.978 45.736C523.978 46.76 524.194 47.672 524.626 48.472C525.074 49.272 525.674 49.896 526.426 50.344C527.194 50.792 528.058 51.016 529.018 51.016ZM549.973 39.472V52H548.821V49.312C548.405 50.192 547.789 50.88 546.973 51.376C546.157 51.856 545.197 52.096 544.093 52.096C542.461 52.096 541.181 51.64 540.253 50.728C539.325 49.816 538.861 48.504 538.861 46.792V39.472H540.061V46.696C540.061 48.104 540.421 49.176 541.141 49.912C541.861 50.648 542.877 51.016 544.189 51.016C545.597 51.016 546.709 50.576 547.525 49.696C548.357 48.816 548.773 47.632 548.773 46.144V39.472H549.973ZM561.18 39.376C562.748 39.376 563.988 39.832 564.9 40.744C565.812 41.656 566.268 42.968 566.268 44.68V52H565.068V44.776C565.068 43.368 564.708 42.296 563.988 41.56C563.284 40.824 562.292 40.456 561.012 40.456C559.54 40.456 558.38 40.896 557.532 41.776C556.684 42.656 556.26 43.84 556.26 45.328V52H555.06V39.472H556.212V42.184C556.644 41.304 557.284 40.616 558.132 40.12C558.996 39.624 560.012 39.376 561.18 39.376ZM582.368 34.192V52H581.192V49.048C580.696 50.024 580 50.776 579.104 51.304C578.208 51.832 577.192 52.096 576.056 52.096C574.888 52.096 573.832 51.824 572.888 51.28C571.944 50.736 571.2 49.984 570.656 49.024C570.128 48.064 569.864 46.968 569.864 45.736C569.864 44.504 570.128 43.408 570.656 42.448C571.2 41.472 571.944 40.72 572.888 40.192C573.832 39.648 574.888 39.376 576.056 39.376C577.176 39.376 578.176 39.64 579.056 40.168C579.952 40.696 580.656 41.432 581.168 42.376V34.192H582.368ZM576.128 51.016C577.088 51.016 577.944 50.792 578.696 50.344C579.464 49.896 580.064 49.272 580.496 48.472C580.944 47.672 581.168 46.76 581.168 45.736C581.168 44.712 580.944 43.8 580.496 43C580.064 42.2 579.464 41.576 578.696 41.128C577.944 40.68 577.088 40.456 576.128 40.456C575.168 40.456 574.304 40.68 573.536 41.128C572.784 41.576 572.184 42.2 571.736 43C571.304 43.8 571.088 44.712 571.088 45.736C571.088 46.76 571.304 47.672 571.736 48.472C572.184 49.272 572.784 49.896 573.536 50.344C574.304 50.792 575.168 51.016 576.128 51.016ZM587.283 52.096C587.011 52.096 586.771 52 586.563 51.808C586.371 51.6 586.275 51.352 586.275 51.064C586.275 50.776 586.371 50.536 586.563 50.344C586.771 50.152 587.011 50.056 587.283 50.056C587.555 50.056 587.787 50.152 587.979 50.344C588.187 50.536 588.291 50.776 588.291 51.064C588.291 51.352 588.187 51.6 587.979 51.808C587.787 52 587.555 52.096 587.283 52.096Z" fill="black"/>
</svg>
