<svg width="616" height="61" viewBox="0 0 616 61" fill="none" xmlns="http://www.w3.org/2000/svg">
<rect width="616" height="61" fill="white" fill-opacity="0.13"/>
<rect x="1" width="615" height="60.9744" fill="white"/>
<path d="M19.096 23L19.072 10.76L13 20.96H11.896L5.824 10.832V23H3.52V6.2H5.488L12.496 18.008L19.408 6.2H21.376L21.4 23H19.096ZM37.6019 16.712C37.6019 16.888 37.5859 17.12 37.5539 17.408H27.2339C27.3779 18.528 27.8659 19.432 28.6979 20.12C29.5459 20.792 30.5939 21.128 31.8419 21.128C33.3619 21.128 34.5859 20.616 35.5139 19.592L36.7859 21.08C36.2099 21.752 35.4899 22.264 34.6259 22.616C33.7779 22.968 32.8259 23.144 31.7699 23.144C30.4259 23.144 29.2339 22.872 28.1939 22.328C27.1539 21.768 26.3459 20.992 25.7699 20C25.2099 19.008 24.9299 17.888 24.9299 16.64C24.9299 15.408 25.2019 14.296 25.7459 13.304C26.3059 12.312 27.0659 11.544 28.0259 11C29.0019 10.44 30.0979 10.16 31.3139 10.16C32.5299 10.16 33.6099 10.44 34.5539 11C35.5139 11.544 36.2579 12.312 36.7859 13.304C37.3299 14.296 37.6019 15.432 37.6019 16.712ZM31.3139 12.104C30.2099 12.104 29.2819 12.44 28.5299 13.112C27.7939 13.784 27.3619 14.664 27.2339 15.752H35.3939C35.2659 14.68 34.8259 13.808 34.0739 13.136C33.3379 12.448 32.4179 12.104 31.3139 12.104ZM52.8012 5.192V23H50.5932V20.984C50.0812 21.688 49.4332 22.224 48.6492 22.592C47.8652 22.96 47.0012 23.144 46.0572 23.144C44.8252 23.144 43.7212 22.872 42.7452 22.328C41.7692 21.784 41.0012 21.024 40.4412 20.048C39.8972 19.056 39.6252 17.92 39.6252 16.64C39.6252 15.36 39.8972 14.232 40.4412 13.256C41.0012 12.28 41.7692 11.52 42.7452 10.976C43.7212 10.432 44.8252 10.16 46.0572 10.16C46.9692 10.16 47.8092 10.336 48.5772 10.688C49.3452 11.024 49.9852 11.528 50.4972 12.2V5.192H52.8012ZM46.2492 21.128C47.0492 21.128 47.7772 20.944 48.4332 20.576C49.0892 20.192 49.6012 19.664 49.9692 18.992C50.3372 18.304 50.5212 17.52 50.5212 16.64C50.5212 15.76 50.3372 14.984 49.9692 14.312C49.6012 13.624 49.0892 13.096 48.4332 12.728C47.7772 12.36 47.0492 12.176 46.2492 12.176C45.4332 12.176 44.6972 12.36 44.0412 12.728C43.4012 13.096 42.8892 13.624 42.5052 14.312C42.1372 14.984 41.9532 15.76 41.9532 16.64C41.9532 17.52 42.1372 18.304 42.5052 18.992C42.8892 19.664 43.4012 20.192 44.0412 20.576C44.6972 20.944 45.4332 21.128 46.2492 21.128ZM57.1606 10.28H59.4646V23H57.1606V10.28ZM58.3126 7.832C57.8646 7.832 57.4886 7.688 57.1846 7.4C56.8966 7.112 56.7526 6.76 56.7526 6.344C56.7526 5.928 56.8966 5.576 57.1846 5.288C57.4886 4.984 57.8646 4.832 58.3126 4.832C58.7606 4.832 59.1286 4.976 59.4166 5.264C59.7206 5.536 59.8726 5.88 59.8726 6.296C59.8726 6.728 59.7206 7.096 59.4166 7.4C59.1286 7.688 58.7606 7.832 58.3126 7.832ZM75.7197 10.28V23H73.5357V21.08C73.0717 21.736 72.4557 22.248 71.6877 22.616C70.9357 22.968 70.1117 23.144 69.2157 23.144C67.5197 23.144 66.1837 22.68 65.2077 21.752C64.2317 20.808 63.7437 19.424 63.7437 17.6V10.28H66.0477V17.336C66.0477 18.568 66.3437 19.504 66.9357 20.144C67.5277 20.768 68.3757 21.08 69.4797 21.08C70.6957 21.08 71.6557 20.712 72.3597 19.976C73.0637 19.24 73.4157 18.2 73.4157 16.856V10.28H75.7197ZM96.0179 10.16C97.6179 10.16 98.8819 10.624 99.8099 11.552C100.754 12.48 101.226 13.856 101.226 15.68V23H98.9219V15.944C98.9219 14.712 98.6339 13.784 98.0579 13.16C97.4979 12.536 96.6899 12.224 95.6339 12.224C94.4659 12.224 93.5379 12.592 92.8499 13.328C92.1619 14.048 91.8179 15.088 91.8179 16.448V23H89.5139V15.944C89.5139 14.712 89.2259 13.784 88.6499 13.16C88.0899 12.536 87.2819 12.224 86.2259 12.224C85.0579 12.224 84.1299 12.592 83.4419 13.328C82.7539 14.048 82.4099 15.088 82.4099 16.448V23H80.1059V10.28H82.3139V12.176C82.7779 11.52 83.3859 11.024 84.1379 10.688C84.8899 10.336 85.7459 10.16 86.7059 10.16C87.6979 10.16 88.5779 10.36 89.3459 10.76C90.1139 11.16 90.7059 11.744 91.1219 12.512C91.6019 11.776 92.2659 11.2 93.1139 10.784C93.9779 10.368 94.9459 10.16 96.0179 10.16ZM115.679 12.896C118.079 12.896 119.839 13.352 120.959 14.264C122.095 15.16 122.663 16.392 122.663 17.96C122.663 18.952 122.423 19.848 121.943 20.648C121.479 21.432 120.767 22.056 119.807 22.52C118.863 22.968 117.695 23.192 116.303 23.192C115.119 23.192 113.975 23.016 112.871 22.664C111.767 22.296 110.855 21.792 110.135 21.152L111.239 19.256C111.815 19.8 112.551 20.24 113.447 20.576C114.343 20.896 115.287 21.056 116.279 21.056C117.543 21.056 118.519 20.792 119.207 20.264C119.911 19.72 120.263 18.984 120.263 18.056C120.263 17.048 119.879 16.288 119.111 15.776C118.343 15.248 117.031 14.984 115.175 14.984H111.359L112.247 6.2H121.727V8.288H114.263L113.807 12.896H115.679ZM131.524 23.192C130.196 23.192 129.012 22.856 127.972 22.184C126.948 21.496 126.14 20.504 125.548 19.208C124.956 17.912 124.66 16.376 124.66 14.6C124.66 12.824 124.956 11.288 125.548 9.992C126.14 8.696 126.948 7.712 127.972 7.04C129.012 6.352 130.196 6.008 131.524 6.008C132.836 6.008 134.004 6.352 135.028 7.04C136.068 7.712 136.884 8.696 137.476 9.992C138.068 11.288 138.364 12.824 138.364 14.6C138.364 16.376 138.068 17.912 137.476 19.208C136.884 20.504 136.068 21.496 135.028 22.184C134.004 22.856 132.836 23.192 131.524 23.192ZM131.524 21.056C132.868 21.056 133.94 20.504 134.74 19.4C135.556 18.296 135.964 16.696 135.964 14.6C135.964 12.504 135.556 10.904 134.74 9.8C133.94 8.696 132.868 8.144 131.524 8.144C130.164 8.144 129.076 8.696 128.26 9.8C127.46 10.904 127.06 12.504 127.06 14.6C127.06 16.696 127.46 18.296 128.26 19.4C129.076 20.504 130.164 21.056 131.524 21.056ZM147.532 23.192C146.204 23.192 145.02 22.856 143.98 22.184C142.956 21.496 142.148 20.504 141.556 19.208C140.964 17.912 140.668 16.376 140.668 14.6C140.668 12.824 140.964 11.288 141.556 9.992C142.148 8.696 142.956 7.712 143.98 7.04C145.02 6.352 146.204 6.008 147.532 6.008C148.844 6.008 150.012 6.352 151.036 7.04C152.076 7.712 152.892 8.696 153.484 9.992C154.076 11.288 154.372 12.824 154.372 14.6C154.372 16.376 154.076 17.912 153.484 19.208C152.892 20.504 152.076 21.496 151.036 22.184C150.012 22.856 148.844 23.192 147.532 23.192ZM147.532 21.056C148.876 21.056 149.948 20.504 150.748 19.4C151.564 18.296 151.972 16.696 151.972 14.6C151.972 12.504 151.564 10.904 150.748 9.8C149.948 8.696 148.876 8.144 147.532 8.144C146.172 8.144 145.084 8.696 144.268 9.8C143.468 10.904 143.068 12.504 143.068 14.6C143.068 16.696 143.468 18.296 144.268 19.4C145.084 20.504 146.172 21.056 147.532 21.056ZM14.224 47.8H5.296L3.448 52H0.976L8.584 35.2H10.96L18.592 52H16.072L14.224 47.8ZM13.384 45.88L9.76 37.648L6.136 45.88H13.384ZM20.7621 34.192H23.0661V52H20.7621V34.192ZM43.3773 39.16C44.9773 39.16 46.2413 39.624 47.1693 40.552C48.1133 41.48 48.5853 42.856 48.5853 44.68V52H46.2813V44.944C46.2813 43.712 45.9933 42.784 45.4173 42.16C44.8573 41.536 44.0493 41.224 42.9933 41.224C41.8253 41.224 40.8973 41.592 40.2093 42.328C39.5213 43.048 39.1773 44.088 39.1773 45.448V52H36.8733V44.944C36.8733 43.712 36.5853 42.784 36.0093 42.16C35.4493 41.536 34.6413 41.224 33.5853 41.224C32.4173 41.224 31.4893 41.592 30.8013 42.328C30.1133 43.048 29.7693 44.088 29.7693 45.448V52H27.4653V39.28H29.6733V41.176C30.1373 40.52 30.7453 40.024 31.4973 39.688C32.2493 39.336 33.1053 39.16 34.0653 39.16C35.0573 39.16 35.9373 39.36 36.7053 39.76C37.4733 40.16 38.0653 40.744 38.4813 41.512C38.9613 40.776 39.6253 40.2 40.4733 39.784C41.3373 39.368 42.3053 39.16 43.3773 39.16ZM58.3429 52.144C57.0789 52.144 55.9429 51.864 54.9349 51.304C53.9269 50.744 53.1349 49.976 52.5589 49C51.9989 48.008 51.7189 46.888 51.7189 45.64C51.7189 44.392 51.9989 43.28 52.5589 42.304C53.1349 41.312 53.9269 40.544 54.9349 40C55.9429 39.44 57.0789 39.16 58.3429 39.16C59.6069 39.16 60.7349 39.44 61.7269 40C62.7349 40.544 63.5189 41.312 64.0789 42.304C64.6549 43.28 64.9429 44.392 64.9429 45.64C64.9429 46.888 64.6549 48.008 64.0789 49C63.5189 49.976 62.7349 50.744 61.7269 51.304C60.7349 51.864 59.6069 52.144 58.3429 52.144ZM58.3429 50.128C59.1589 50.128 59.8869 49.944 60.5269 49.576C61.1829 49.192 61.6949 48.664 62.0629 47.992C62.4309 47.304 62.6149 46.52 62.6149 45.64C62.6149 44.76 62.4309 43.984 62.0629 43.312C61.6949 42.624 61.1829 42.096 60.5269 41.728C59.8869 41.36 59.1589 41.176 58.3429 41.176C57.5269 41.176 56.7909 41.36 56.1349 41.728C55.4949 42.096 54.9829 42.624 54.5989 43.312C54.2309 43.984 54.0469 44.76 54.0469 45.64C54.0469 46.52 54.2309 47.304 54.5989 47.992C54.9829 48.664 55.4949 49.192 56.1349 49.576C56.7909 49.944 57.5269 50.128 58.3429 50.128ZM71.7773 52.144C70.7373 52.144 69.7373 52.008 68.7773 51.736C67.8173 51.448 67.0653 51.088 66.5213 50.656L67.4813 48.832C68.0413 49.232 68.7213 49.552 69.5213 49.792C70.3213 50.032 71.1293 50.152 71.9453 50.152C73.9613 50.152 74.9693 49.576 74.9693 48.424C74.9693 48.04 74.8333 47.736 74.5613 47.512C74.2893 47.288 73.9453 47.128 73.5293 47.032C73.1293 46.92 72.5533 46.8 71.8013 46.672C70.7773 46.512 69.9373 46.328 69.2813 46.12C68.6413 45.912 68.0893 45.56 67.6253 45.064C67.1613 44.568 66.9293 43.872 66.9293 42.976C66.9293 41.824 67.4093 40.904 68.3693 40.216C69.3293 39.512 70.6173 39.16 72.2333 39.16C73.0813 39.16 73.9293 39.264 74.7773 39.472C75.6253 39.68 76.3213 39.96 76.8653 40.312L75.8813 42.136C74.8413 41.464 73.6173 41.128 72.2093 41.128C71.2333 41.128 70.4893 41.288 69.9773 41.608C69.4653 41.928 69.2093 42.352 69.2093 42.88C69.2093 43.296 69.3533 43.624 69.6413 43.864C69.9293 44.104 70.2813 44.28 70.6973 44.392C71.1293 44.504 71.7293 44.632 72.4973 44.776C73.5213 44.952 74.3453 45.144 74.9693 45.352C75.6093 45.544 76.1533 45.88 76.6013 46.36C77.0493 46.84 77.2733 47.512 77.2733 48.376C77.2733 49.528 76.7773 50.448 75.7853 51.136C74.8093 51.808 73.4733 52.144 71.7773 52.144ZM87.3048 51.256C86.9688 51.544 86.5528 51.768 86.0568 51.928C85.5608 52.072 85.0488 52.144 84.5208 52.144C83.2408 52.144 82.2488 51.8 81.5448 51.112C80.8408 50.424 80.4888 49.44 80.4888 48.16V41.176H78.3288V39.28H80.4888V36.496H82.7928V39.28H86.4408V41.176H82.7928V48.064C82.7928 48.752 82.9608 49.28 83.2968 49.648C83.6488 50.016 84.1448 50.2 84.7848 50.2C85.4888 50.2 86.0888 50 86.5848 49.6L87.3048 51.256ZM103.28 39.16C104.512 39.16 105.616 39.432 106.592 39.976C107.568 40.52 108.328 41.28 108.872 42.256C109.432 43.232 109.712 44.36 109.712 45.64C109.712 46.92 109.432 48.056 108.872 49.048C108.328 50.024 107.568 50.784 106.592 51.328C105.616 51.872 104.512 52.144 103.28 52.144C102.336 52.144 101.472 51.96 100.688 51.592C99.9036 51.224 99.2556 50.688 98.7436 49.984V52H96.5356V34.192H98.8396V41.2C99.3516 40.528 99.9916 40.024 100.76 39.688C101.528 39.336 102.368 39.16 103.28 39.16ZM103.088 50.128C103.904 50.128 104.632 49.944 105.272 49.576C105.928 49.192 106.44 48.664 106.808 47.992C107.192 47.304 107.384 46.52 107.384 45.64C107.384 44.76 107.192 43.984 106.808 43.312C106.44 42.624 105.928 42.096 105.272 41.728C104.632 41.36 103.904 41.176 103.088 41.176C102.288 41.176 101.56 41.36 100.904 41.728C100.248 42.096 99.7356 42.624 99.3676 43.312C98.9996 43.984 98.8156 44.76 98.8156 45.64C98.8156 46.52 98.9996 47.304 99.3676 47.992C99.7356 48.664 100.248 49.192 100.904 49.576C101.56 49.944 102.288 50.128 103.088 50.128ZM124.391 45.712C124.391 45.888 124.375 46.12 124.343 46.408H114.023C114.167 47.528 114.655 48.432 115.487 49.12C116.335 49.792 117.383 50.128 118.631 50.128C120.151 50.128 121.375 49.616 122.303 48.592L123.575 50.08C122.999 50.752 122.279 51.264 121.415 51.616C120.567 51.968 119.615 52.144 118.559 52.144C117.215 52.144 116.023 51.872 114.983 51.328C113.943 50.768 113.135 49.992 112.559 49C111.999 48.008 111.719 46.888 111.719 45.64C111.719 44.408 111.991 43.296 112.535 42.304C113.095 41.312 113.855 40.544 114.815 40C115.791 39.44 116.887 39.16 118.103 39.16C119.319 39.16 120.399 39.44 121.343 40C122.303 40.544 123.047 41.312 123.575 42.304C124.119 43.296 124.391 44.432 124.391 45.712ZM118.103 41.104C116.999 41.104 116.071 41.44 115.319 42.112C114.583 42.784 114.151 43.664 114.023 44.752H122.183C122.055 43.68 121.615 42.808 120.863 42.136C120.127 41.448 119.207 41.104 118.103 41.104ZM132.246 35.944C130.87 35.944 130.182 36.688 130.182 38.176V39.28H133.878V41.176H130.23V52H127.926V41.176H125.766V39.28H127.926V38.152C127.926 36.888 128.294 35.888 129.03 35.152C129.766 34.416 130.798 34.048 132.126 34.048C132.638 34.048 133.118 34.112 133.566 34.24C134.014 34.368 134.398 34.552 134.718 34.792L134.022 36.544C133.494 36.144 132.902 35.944 132.246 35.944ZM141.312 52.144C140.048 52.144 138.912 51.864 137.904 51.304C136.896 50.744 136.104 49.976 135.528 49C134.968 48.008 134.688 46.888 134.688 45.64C134.688 44.392 134.968 43.28 135.528 42.304C136.104 41.312 136.896 40.544 137.904 40C138.912 39.44 140.048 39.16 141.312 39.16C142.576 39.16 143.704 39.44 144.696 40C145.704 40.544 146.488 41.312 147.048 42.304C147.624 43.28 147.912 44.392 147.912 45.64C147.912 46.888 147.624 48.008 147.048 49C146.488 49.976 145.704 50.744 144.696 51.304C143.704 51.864 142.576 52.144 141.312 52.144ZM141.312 50.128C142.128 50.128 142.856 49.944 143.496 49.576C144.152 49.192 144.664 48.664 145.032 47.992C145.4 47.304 145.584 46.52 145.584 45.64C145.584 44.76 145.4 43.984 145.032 43.312C144.664 42.624 144.152 42.096 143.496 41.728C142.856 41.36 142.128 41.176 141.312 41.176C140.496 41.176 139.76 41.36 139.104 41.728C138.464 42.096 137.952 42.624 137.568 43.312C137.2 43.984 137.016 44.76 137.016 45.64C137.016 46.52 137.2 47.304 137.568 47.992C137.952 48.664 138.464 49.192 139.104 49.576C139.76 49.944 140.496 50.128 141.312 50.128ZM153.306 41.416C153.706 40.68 154.298 40.12 155.082 39.736C155.866 39.352 156.818 39.16 157.938 39.16V41.392C157.81 41.376 157.634 41.368 157.41 41.368C156.162 41.368 155.178 41.744 154.458 42.496C153.754 43.232 153.402 44.288 153.402 45.664V52H151.098V39.28H153.306V41.416ZM172.157 45.712C172.157 45.888 172.141 46.12 172.109 46.408H161.789C161.933 47.528 162.421 48.432 163.253 49.12C164.101 49.792 165.149 50.128 166.397 50.128C167.917 50.128 169.141 49.616 170.069 48.592L171.341 50.08C170.765 50.752 170.045 51.264 169.181 51.616C168.333 51.968 167.381 52.144 166.325 52.144C164.981 52.144 163.789 51.872 162.749 51.328C161.709 50.768 160.901 49.992 160.325 49C159.765 48.008 159.485 46.888 159.485 45.64C159.485 44.408 159.757 43.296 160.301 42.304C160.861 41.312 161.621 40.544 162.581 40C163.557 39.44 164.653 39.16 165.869 39.16C167.085 39.16 168.165 39.44 169.109 40C170.069 40.544 170.813 41.312 171.341 42.304C171.885 43.296 172.157 44.432 172.157 45.712ZM165.869 41.104C164.765 41.104 163.837 41.44 163.085 42.112C162.349 42.784 161.917 43.664 161.789 44.752H169.949C169.821 43.68 169.381 42.808 168.629 42.136C167.893 41.448 166.973 41.104 165.869 41.104ZM201.049 39.28L196.297 52H194.089L190.417 42.352L186.697 52H184.489L179.761 39.28H181.945L185.641 49.408L189.481 39.28H191.425L195.193 49.456L198.985 39.28H201.049ZM214.532 45.712C214.532 45.888 214.516 46.12 214.484 46.408H204.164C204.308 47.528 204.796 48.432 205.628 49.12C206.476 49.792 207.524 50.128 208.772 50.128C210.292 50.128 211.516 49.616 212.444 48.592L213.716 50.08C213.14 50.752 212.42 51.264 211.556 51.616C210.708 51.968 209.756 52.144 208.7 52.144C207.356 52.144 206.164 51.872 205.124 51.328C204.084 50.768 203.276 49.992 202.7 49C202.14 48.008 201.86 46.888 201.86 45.64C201.86 44.408 202.132 43.296 202.676 42.304C203.236 41.312 203.996 40.544 204.956 40C205.932 39.44 207.028 39.16 208.244 39.16C209.46 39.16 210.54 39.44 211.484 40C212.444 40.544 213.188 41.312 213.716 42.304C214.26 43.296 214.532 44.432 214.532 45.712ZM208.244 41.104C207.14 41.104 206.212 41.44 205.46 42.112C204.724 42.784 204.292 43.664 204.164 44.752H212.324C212.196 43.68 211.756 42.808 211.004 42.136C210.268 41.448 209.348 41.104 208.244 41.104ZM229.12 46.072L226.48 48.52V52H224.176V34.192H226.48V45.616L233.416 39.28H236.2L230.848 44.536L236.728 52H233.896L229.12 46.072ZM245.593 39.16C247.209 39.16 248.489 39.632 249.433 40.576C250.393 41.504 250.873 42.872 250.873 44.68V52H248.569V44.944C248.569 43.712 248.273 42.784 247.681 42.16C247.089 41.536 246.241 41.224 245.137 41.224C243.889 41.224 242.905 41.592 242.185 42.328C241.465 43.048 241.105 44.088 241.105 45.448V52H238.801V39.28H241.009V41.2C241.473 40.544 242.097 40.04 242.881 39.688C243.681 39.336 244.585 39.16 245.593 39.16ZM266.703 45.712C266.703 45.888 266.687 46.12 266.655 46.408H256.335C256.479 47.528 256.967 48.432 257.799 49.12C258.647 49.792 259.695 50.128 260.943 50.128C262.463 50.128 263.687 49.616 264.615 48.592L265.887 50.08C265.311 50.752 264.591 51.264 263.727 51.616C262.879 51.968 261.927 52.144 260.871 52.144C259.527 52.144 258.335 51.872 257.295 51.328C256.255 50.768 255.447 49.992 254.871 49C254.311 48.008 254.031 46.888 254.031 45.64C254.031 44.408 254.303 43.296 254.847 42.304C255.407 41.312 256.167 40.544 257.127 40C258.103 39.44 259.199 39.16 260.415 39.16C261.631 39.16 262.711 39.44 263.655 40C264.615 40.544 265.359 41.312 265.887 42.304C266.431 43.296 266.703 44.432 266.703 45.712ZM260.415 41.104C259.311 41.104 258.383 41.44 257.631 42.112C256.895 42.784 256.463 43.664 256.335 44.752H264.495C264.367 43.68 263.927 42.808 263.175 42.136C262.439 41.448 261.519 41.104 260.415 41.104ZM288.916 39.28L284.164 52H281.956L278.284 42.352L274.564 52H272.356L267.628 39.28H269.812L273.508 49.408L277.348 39.28H279.292L283.06 49.456L286.852 39.28H288.916ZM297.7 39.28H300.004V52H297.7V39.28ZM298.852 36.832C298.404 36.832 298.028 36.688 297.724 36.4C297.436 36.112 297.292 35.76 297.292 35.344C297.292 34.928 297.436 34.576 297.724 34.288C298.028 33.984 298.404 33.832 298.852 33.832C299.3 33.832 299.668 33.976 299.956 34.264C300.26 34.536 300.412 34.88 300.412 35.296C300.412 35.728 300.26 36.096 299.956 36.4C299.668 36.688 299.3 36.832 298.852 36.832ZM311.555 51.256C311.219 51.544 310.803 51.768 310.307 51.928C309.811 52.072 309.299 52.144 308.771 52.144C307.491 52.144 306.499 51.8 305.795 51.112C305.091 50.424 304.739 49.44 304.739 48.16V41.176H302.579V39.28H304.739V36.496H307.043V39.28H310.691V41.176H307.043V48.064C307.043 48.752 307.211 49.28 307.547 49.648C307.899 50.016 308.395 50.2 309.035 50.2C309.739 50.2 310.339 50 310.835 49.6L311.555 51.256ZM315.151 48.856C315.599 48.856 315.967 49.016 316.255 49.336C316.559 49.64 316.711 50.024 316.711 50.488C316.711 50.728 316.679 50.96 316.615 51.184C316.567 51.408 316.463 51.752 316.303 52.216L315.175 55.552H313.663L314.551 51.976C314.247 51.864 313.999 51.68 313.807 51.424C313.631 51.152 313.543 50.84 313.543 50.488C313.543 50.008 313.695 49.616 313.999 49.312C314.303 49.008 314.687 48.856 315.151 48.856ZM345.705 39.28L340.953 52H338.745L335.073 42.352L331.353 52H329.145L324.417 39.28H326.601L330.297 49.408L334.137 39.28H336.081L339.849 49.456L343.641 39.28H345.705ZM359.188 45.712C359.188 45.888 359.172 46.12 359.14 46.408H348.82C348.964 47.528 349.452 48.432 350.284 49.12C351.132 49.792 352.18 50.128 353.428 50.128C354.948 50.128 356.172 49.616 357.1 48.592L358.372 50.08C357.796 50.752 357.076 51.264 356.212 51.616C355.364 51.968 354.412 52.144 353.356 52.144C352.012 52.144 350.82 51.872 349.78 51.328C348.74 50.768 347.932 49.992 347.356 49C346.796 48.008 346.516 46.888 346.516 45.64C346.516 44.408 346.788 43.296 347.332 42.304C347.892 41.312 348.652 40.544 349.612 40C350.588 39.44 351.684 39.16 352.9 39.16C354.116 39.16 355.196 39.44 356.14 40C357.1 40.544 357.844 41.312 358.372 42.304C358.916 43.296 359.188 44.432 359.188 45.712ZM352.9 41.104C351.796 41.104 350.868 41.44 350.116 42.112C349.38 42.784 348.948 43.664 348.82 44.752H356.98C356.852 43.68 356.412 42.808 355.66 42.136C354.924 41.448 354.004 41.104 352.9 41.104ZM375.624 39.16C377.24 39.16 378.52 39.632 379.464 40.576C380.424 41.504 380.904 42.872 380.904 44.68V52H378.6V44.944C378.6 43.712 378.304 42.784 377.712 42.16C377.12 41.536 376.272 41.224 375.168 41.224C373.92 41.224 372.936 41.592 372.216 42.328C371.496 43.048 371.136 44.088 371.136 45.448V52H368.832V34.192H371.136V41.08C371.616 40.472 372.24 40 373.008 39.664C373.792 39.328 374.664 39.16 375.624 39.16ZM389.8 39.16C391.56 39.16 392.904 39.592 393.832 40.456C394.776 41.32 395.248 42.608 395.248 44.32V52H393.064V50.32C392.68 50.912 392.128 51.368 391.408 51.688C390.704 51.992 389.864 52.144 388.888 52.144C387.464 52.144 386.32 51.8 385.456 51.112C384.608 50.424 384.184 49.52 384.184 48.4C384.184 47.28 384.592 46.384 385.408 45.712C386.224 45.024 387.52 44.68 389.296 44.68H392.944V44.224C392.944 43.232 392.656 42.472 392.08 41.944C391.504 41.416 390.656 41.152 389.536 41.152C388.784 41.152 388.048 41.28 387.328 41.536C386.608 41.776 386 42.104 385.504 42.52L384.544 40.792C385.2 40.264 385.984 39.864 386.896 39.592C387.808 39.304 388.776 39.16 389.8 39.16ZM389.272 50.368C390.152 50.368 390.912 50.176 391.552 49.792C392.192 49.392 392.656 48.832 392.944 48.112V46.336H389.392C387.44 46.336 386.464 46.992 386.464 48.304C386.464 48.944 386.712 49.448 387.208 49.816C387.704 50.184 388.392 50.368 389.272 50.368ZM411.582 34.192V52H409.374V49.984C408.862 50.688 408.214 51.224 407.43 51.592C406.646 51.96 405.782 52.144 404.838 52.144C403.606 52.144 402.502 51.872 401.526 51.328C400.55 50.784 399.782 50.024 399.222 49.048C398.678 48.056 398.406 46.92 398.406 45.64C398.406 44.36 398.678 43.232 399.222 42.256C399.782 41.28 400.55 40.52 401.526 39.976C402.502 39.432 403.606 39.16 404.838 39.16C405.75 39.16 406.59 39.336 407.358 39.688C408.126 40.024 408.766 40.528 409.278 41.2V34.192H411.582ZM405.03 50.128C405.83 50.128 406.558 49.944 407.214 49.576C407.87 49.192 408.382 48.664 408.75 47.992C409.118 47.304 409.302 46.52 409.302 45.64C409.302 44.76 409.118 43.984 408.75 43.312C408.382 42.624 407.87 42.096 407.214 41.728C406.558 41.36 405.83 41.176 405.03 41.176C404.214 41.176 403.478 41.36 402.822 41.728C402.182 42.096 401.67 42.624 401.286 43.312C400.918 43.984 400.734 44.76 400.734 45.64C400.734 46.52 400.918 47.304 401.286 47.992C401.67 48.664 402.182 49.192 402.822 49.576C403.478 49.944 404.214 50.128 405.03 50.128ZM422.387 34.192H424.691V52H422.387V34.192ZM440.586 45.712C440.586 45.888 440.57 46.12 440.538 46.408H430.218C430.362 47.528 430.85 48.432 431.682 49.12C432.53 49.792 433.578 50.128 434.826 50.128C436.346 50.128 437.57 49.616 438.498 48.592L439.77 50.08C439.194 50.752 438.474 51.264 437.61 51.616C436.762 51.968 435.81 52.144 434.754 52.144C433.41 52.144 432.218 51.872 431.178 51.328C430.138 50.768 429.33 49.992 428.754 49C428.194 48.008 427.914 46.888 427.914 45.64C427.914 44.408 428.186 43.296 428.73 42.304C429.29 41.312 430.05 40.544 431.01 40C431.986 39.44 433.082 39.16 434.298 39.16C435.514 39.16 436.594 39.44 437.538 40C438.498 40.544 439.242 41.312 439.77 42.304C440.314 43.296 440.586 44.432 440.586 45.712ZM434.298 41.104C433.194 41.104 432.266 41.44 431.514 42.112C430.778 42.784 430.346 43.664 430.218 44.752H438.378C438.25 43.68 437.81 42.808 437.058 42.136C436.322 41.448 435.402 41.104 434.298 41.104ZM448.442 35.944C447.066 35.944 446.378 36.688 446.378 38.176V39.28H450.074V41.176H446.426V52H444.122V41.176H441.962V39.28H444.122V38.152C444.122 36.888 444.49 35.888 445.226 35.152C445.962 34.416 446.994 34.048 448.322 34.048C448.834 34.048 449.314 34.112 449.762 34.24C450.21 34.368 450.594 34.552 450.914 34.792L450.218 36.544C449.69 36.144 449.098 35.944 448.442 35.944ZM459.399 51.256C459.063 51.544 458.647 51.768 458.151 51.928C457.655 52.072 457.143 52.144 456.615 52.144C455.335 52.144 454.343 51.8 453.639 51.112C452.935 50.424 452.583 49.44 452.583 48.16V41.176H450.423V39.28H452.583V36.496H454.887V39.28H458.535V41.176H454.887V48.064C454.887 48.752 455.055 49.28 455.391 49.648C455.743 50.016 456.239 50.2 456.879 50.2C457.583 50.2 458.183 50 458.679 49.6L459.399 51.256ZM475.781 51.256C475.445 51.544 475.029 51.768 474.533 51.928C474.037 52.072 473.525 52.144 472.997 52.144C471.717 52.144 470.725 51.8 470.021 51.112C469.317 50.424 468.965 49.44 468.965 48.16V41.176H466.805V39.28H468.965V36.496H471.269V39.28H474.917V41.176H471.269V48.064C471.269 48.752 471.437 49.28 471.773 49.648C472.125 50.016 472.621 50.2 473.261 50.2C473.965 50.2 474.565 50 475.061 49.6L475.781 51.256ZM485.359 39.16C486.975 39.16 488.255 39.632 489.199 40.576C490.159 41.504 490.639 42.872 490.639 44.68V52H488.335V44.944C488.335 43.712 488.039 42.784 487.447 42.16C486.855 41.536 486.007 41.224 484.903 41.224C483.655 41.224 482.671 41.592 481.951 42.328C481.231 43.048 480.871 44.088 480.871 45.448V52H478.567V34.192H480.871V41.08C481.351 40.472 481.975 40 482.743 39.664C483.527 39.328 484.399 39.16 485.359 39.16ZM506.469 45.712C506.469 45.888 506.453 46.12 506.421 46.408H496.101C496.245 47.528 496.733 48.432 497.565 49.12C498.413 49.792 499.461 50.128 500.709 50.128C502.229 50.128 503.453 49.616 504.381 48.592L505.653 50.08C505.077 50.752 504.357 51.264 503.493 51.616C502.645 51.968 501.693 52.144 500.637 52.144C499.293 52.144 498.101 51.872 497.061 51.328C496.021 50.768 495.213 49.992 494.637 49C494.077 48.008 493.797 46.888 493.797 45.64C493.797 44.408 494.069 43.296 494.613 42.304C495.173 41.312 495.933 40.544 496.893 40C497.869 39.44 498.965 39.16 500.181 39.16C501.397 39.16 502.477 39.44 503.421 40C504.381 40.544 505.125 41.312 505.653 42.304C506.197 43.296 506.469 44.432 506.469 45.712ZM500.181 41.104C499.077 41.104 498.149 41.44 497.397 42.112C496.661 42.784 496.229 43.664 496.101 44.752H504.261C504.133 43.68 503.693 42.808 502.941 42.136C502.205 41.448 501.285 41.104 500.181 41.104ZM528.282 39.28V50.272C528.282 52.496 527.73 54.136 526.626 55.192C525.522 56.264 523.874 56.8 521.682 56.8C520.482 56.8 519.338 56.632 518.25 56.296C517.162 55.976 516.282 55.512 515.61 54.904L516.714 53.128C517.306 53.64 518.034 54.04 518.898 54.328C519.778 54.632 520.682 54.784 521.61 54.784C523.098 54.784 524.194 54.432 524.898 53.728C525.618 53.024 525.978 51.952 525.978 50.512V49.504C525.434 50.16 524.762 50.656 523.962 50.992C523.178 51.312 522.322 51.472 521.394 51.472C520.178 51.472 519.074 51.216 518.082 50.704C517.106 50.176 516.338 49.448 515.778 48.52C515.218 47.576 514.938 46.504 514.938 45.304C514.938 44.104 515.218 43.04 515.778 42.112C516.338 41.168 517.106 40.44 518.082 39.928C519.074 39.416 520.178 39.16 521.394 39.16C522.354 39.16 523.242 39.336 524.058 39.688C524.89 40.04 525.57 40.56 526.098 41.248V39.28H528.282ZM521.658 49.456C522.49 49.456 523.234 49.28 523.89 48.928C524.562 48.576 525.082 48.088 525.45 47.464C525.834 46.824 526.026 46.104 526.026 45.304C526.026 44.072 525.618 43.08 524.802 42.328C523.986 41.56 522.938 41.176 521.658 41.176C520.362 41.176 519.306 41.56 518.49 42.328C517.674 43.08 517.266 44.072 517.266 45.304C517.266 46.104 517.45 46.824 517.818 47.464C518.202 48.088 518.722 48.576 519.378 48.928C520.05 49.28 520.81 49.456 521.658 49.456ZM534.892 41.416C535.292 40.68 535.884 40.12 536.668 39.736C537.452 39.352 538.404 39.16 539.524 39.16V41.392C539.396 41.376 539.22 41.368 538.996 41.368C537.748 41.368 536.764 41.744 536.044 42.496C535.34 43.232 534.988 44.288 534.988 45.664V52H532.684V39.28H534.892V41.416ZM547.695 52.144C546.431 52.144 545.295 51.864 544.287 51.304C543.279 50.744 542.487 49.976 541.911 49C541.351 48.008 541.071 46.888 541.071 45.64C541.071 44.392 541.351 43.28 541.911 42.304C542.487 41.312 543.279 40.544 544.287 40C545.295 39.44 546.431 39.16 547.695 39.16C548.959 39.16 550.087 39.44 551.079 40C552.087 40.544 552.871 41.312 553.431 42.304C554.007 43.28 554.295 44.392 554.295 45.64C554.295 46.888 554.007 48.008 553.431 49C552.871 49.976 552.087 50.744 551.079 51.304C550.087 51.864 548.959 52.144 547.695 52.144ZM547.695 50.128C548.511 50.128 549.239 49.944 549.879 49.576C550.535 49.192 551.047 48.664 551.415 47.992C551.783 47.304 551.967 46.52 551.967 45.64C551.967 44.76 551.783 43.984 551.415 43.312C551.047 42.624 550.535 42.096 549.879 41.728C549.239 41.36 548.511 41.176 547.695 41.176C546.879 41.176 546.143 41.36 545.487 41.728C544.847 42.096 544.335 42.624 543.951 43.312C543.583 43.984 543.399 44.76 543.399 45.64C543.399 46.52 543.583 47.304 543.951 47.992C544.335 48.664 544.847 49.192 545.487 49.576C546.143 49.944 546.879 50.128 547.695 50.128ZM569.337 39.28V52H567.153V50.08C566.689 50.736 566.073 51.248 565.305 51.616C564.553 51.968 563.729 52.144 562.833 52.144C561.137 52.144 559.801 51.68 558.825 50.752C557.849 49.808 557.361 48.424 557.361 46.6V39.28H559.665V46.336C559.665 47.568 559.961 48.504 560.553 49.144C561.145 49.768 561.993 50.08 563.097 50.08C564.313 50.08 565.273 49.712 565.977 48.976C566.681 48.24 567.033 47.2 567.033 45.856V39.28H569.337ZM580.515 39.16C582.131 39.16 583.411 39.632 584.355 40.576C585.315 41.504 585.795 42.872 585.795 44.68V52H583.491V44.944C583.491 43.712 583.195 42.784 582.603 42.16C582.011 41.536 581.163 41.224 580.059 41.224C578.811 41.224 577.827 41.592 577.107 42.328C576.387 43.048 576.027 44.088 576.027 45.448V52H573.723V39.28H575.931V41.2C576.395 40.544 577.019 40.04 577.803 39.688C578.603 39.336 579.507 39.16 580.515 39.16ZM602.129 34.192V52H599.921V49.984C599.409 50.688 598.761 51.224 597.977 51.592C597.193 51.96 596.329 52.144 595.385 52.144C594.153 52.144 593.049 51.872 592.073 51.328C591.097 50.784 590.329 50.024 589.769 49.048C589.225 48.056 588.953 46.92 588.953 45.64C588.953 44.36 589.225 43.232 589.769 42.256C590.329 41.28 591.097 40.52 592.073 39.976C593.049 39.432 594.153 39.16 595.385 39.16C596.297 39.16 597.137 39.336 597.905 39.688C598.673 40.024 599.313 40.528 599.825 41.2V34.192H602.129ZM595.577 50.128C596.377 50.128 597.105 49.944 597.761 49.576C598.417 49.192 598.929 48.664 599.297 47.992C599.665 47.304 599.849 46.52 599.849 45.64C599.849 44.76 599.665 43.984 599.297 43.312C598.929 42.624 598.417 42.096 597.761 41.728C597.105 41.36 596.377 41.176 595.577 41.176C594.761 41.176 594.025 41.36 593.369 41.728C592.729 42.096 592.217 42.624 591.833 43.312C591.465 43.984 591.281 44.76 591.281 45.64C591.281 46.52 591.465 47.304 591.833 47.992C592.217 48.664 592.729 49.192 593.369 49.576C594.025 49.944 594.761 50.128 595.577 50.128ZM607.041 52.144C606.593 52.144 606.209 51.992 605.889 51.688C605.569 51.368 605.409 50.968 605.409 50.488C605.409 50.024 605.569 49.64 605.889 49.336C606.209 49.016 606.593 48.856 607.041 48.856C607.489 48.856 607.865 49.008 608.169 49.312C608.473 49.616 608.625 50.008 608.625 50.488C608.625 50.968 608.465 51.368 608.145 51.688C607.841 51.992 607.473 52.144 607.041 52.144Z" fill="black"/>
</svg>
