<svg width="617" height="61" viewBox="0 0 617 61" fill="none" xmlns="http://www.w3.org/2000/svg">
<rect width="617" height="61" fill="white" fill-opacity="0.13"/>
<rect x="2" width="615" height="60.9744" fill="white"/>
<path d="M24.488 6.2L21.128 23H18.824L21.272 10.856L13.328 20.96H12.224L8.024 10.616L5.552 23H3.248L6.608 6.2H8.552L13.232 18.032L22.424 6.2H24.488ZM28.0899 17.36V17.504C28.0899 18.688 28.4259 19.592 29.0979 20.216C29.7699 20.824 30.7779 21.128 32.1219 21.128C32.9059 21.128 33.6419 21 34.3299 20.744C35.0179 20.472 35.5939 20.112 36.0579 19.664L37.0419 21.32C36.4179 21.896 35.6579 22.344 34.7619 22.664C33.8659 22.984 32.9219 23.144 31.9299 23.144C30.6819 23.144 29.6019 22.92 28.6899 22.472C27.7779 22.024 27.0739 21.384 26.5779 20.552C26.0819 19.72 25.8339 18.744 25.8339 17.624C25.8339 16.2 26.1379 14.92 26.7459 13.784C27.3699 12.648 28.2259 11.76 29.3139 11.12C30.4179 10.48 31.6499 10.16 33.0099 10.16C34.7379 10.16 36.1139 10.656 37.1379 11.648C38.1779 12.624 38.6979 13.96 38.6979 15.656C38.6979 16.168 38.6419 16.736 38.5299 17.36H28.0899ZM32.9139 12.08C31.7779 12.08 30.8019 12.4 29.9859 13.04C29.1699 13.68 28.6179 14.56 28.3299 15.68H36.5379C36.6019 14.544 36.2979 13.664 35.6259 13.04C34.9699 12.4 34.0659 12.08 32.9139 12.08ZM56.0578 5.192L52.5058 23H50.2978L50.6098 21.44C50.0338 21.984 49.3618 22.408 48.5938 22.712C47.8418 23 47.0178 23.144 46.1218 23.144C45.0338 23.144 44.0658 22.928 43.2178 22.496C42.3698 22.048 41.7058 21.408 41.2258 20.576C40.7458 19.744 40.5058 18.768 40.5058 17.648C40.5058 16.208 40.8178 14.92 41.4418 13.784C42.0658 12.648 42.9218 11.76 44.0098 11.12C45.1138 10.48 46.3458 10.16 47.7058 10.16C48.7938 10.16 49.7298 10.36 50.5138 10.76C51.3138 11.144 51.9138 11.712 52.3138 12.464L53.7538 5.192H56.0578ZM46.6258 21.128C47.5698 21.128 48.4178 20.904 49.1698 20.456C49.9378 19.992 50.5298 19.352 50.9458 18.536C51.3778 17.72 51.5938 16.792 51.5938 15.752C51.5938 14.616 51.2658 13.736 50.6098 13.112C49.9538 12.488 49.0178 12.176 47.8018 12.176C46.8578 12.176 46.0098 12.408 45.2578 12.872C44.5058 13.32 43.9138 13.952 43.4818 14.768C43.0498 15.584 42.8338 16.512 42.8338 17.552C42.8338 18.672 43.1618 19.552 43.8178 20.192C44.4898 20.816 45.4258 21.128 46.6258 21.128ZM59.4091 10.28H61.7131L59.1931 23H56.8891L59.4091 10.28ZM61.2331 7.832C60.8171 7.832 60.4731 7.696 60.2011 7.424C59.9291 7.152 59.7931 6.824 59.7931 6.44C59.7931 5.992 59.9451 5.616 60.2491 5.312C60.5691 4.992 60.9691 4.832 61.4491 4.832C61.8651 4.832 62.2091 4.968 62.4811 5.24C62.7691 5.496 62.9131 5.808 62.9131 6.176C62.9131 6.672 62.7531 7.072 62.4331 7.376C62.1291 7.68 61.7291 7.832 61.2331 7.832ZM77.9683 10.28L75.4483 23H73.2403L73.5523 21.368C72.9763 21.96 72.2963 22.408 71.5123 22.712C70.7443 23 69.9043 23.144 68.9922 23.144C67.5843 23.144 66.4723 22.768 65.6562 22.016C64.8403 21.264 64.4323 20.216 64.4323 18.872C64.4323 18.424 64.4803 17.936 64.5763 17.408L65.9923 10.28H68.2963L66.8803 17.432C66.8003 17.864 66.7603 18.224 66.7603 18.512C66.7603 19.344 67.0003 19.984 67.4803 20.432C67.9763 20.864 68.7043 21.08 69.6643 21.08C70.8803 21.08 71.8883 20.736 72.6883 20.048C73.5043 19.36 74.0483 18.352 74.3203 17.024L75.6643 10.28H77.9683ZM97.9304 10.16C99.3704 10.16 100.49 10.528 101.29 11.264C102.106 11.984 102.514 13.016 102.514 14.36C102.514 14.728 102.458 15.232 102.346 15.872L100.93 23H98.6264L100.042 15.872C100.122 15.424 100.162 15.056 100.162 14.768C100.162 13.936 99.9304 13.304 99.4664 12.872C99.0024 12.44 98.2984 12.224 97.3544 12.224C96.1704 12.224 95.1944 12.56 94.4264 13.232C93.6744 13.888 93.1624 14.88 92.8904 16.208L91.5224 23H89.2184L90.6584 15.872C90.7384 15.44 90.7784 15.08 90.7784 14.792C90.7784 13.96 90.5384 13.328 90.0584 12.896C89.5944 12.448 88.8904 12.224 87.9464 12.224C86.7624 12.224 85.7864 12.56 85.0184 13.232C84.2664 13.904 83.7544 14.92 83.4824 16.28L82.1384 23H79.8344L82.3544 10.28H84.5624L84.2504 11.864C85.3704 10.728 86.8424 10.16 88.6664 10.16C89.6584 10.16 90.5064 10.352 91.2104 10.736C91.9144 11.12 92.4264 11.68 92.7464 12.416C94.0424 10.912 95.7704 10.16 97.9304 10.16ZM115.311 6.2H117.711L114.351 23H111.951L115.311 6.2ZM122.477 18.944C122.429 19.184 122.405 19.408 122.405 19.616C122.405 20.128 122.541 20.52 122.813 20.792C123.101 21.064 123.525 21.2 124.085 21.2C124.757 21.2 125.365 21 125.909 20.6L126.389 22.352C125.621 22.88 124.637 23.144 123.437 23.144C122.429 23.144 121.613 22.864 120.989 22.304C120.381 21.728 120.077 20.944 120.077 19.952C120.077 19.616 120.109 19.296 120.173 18.992L121.541 12.176H119.381L119.741 10.28H121.925L122.477 7.496H124.781L124.229 10.28H127.877L127.493 12.176H123.845L122.477 18.944ZM143.08 10.28L140.56 23H138.352L138.664 21.44C138.088 21.984 137.416 22.408 136.648 22.712C135.896 23 135.072 23.144 134.176 23.144C133.088 23.144 132.12 22.928 131.272 22.496C130.424 22.048 129.76 21.408 129.28 20.576C128.8 19.744 128.56 18.768 128.56 17.648C128.56 16.208 128.872 14.92 129.496 13.784C130.12 12.648 130.976 11.76 132.064 11.12C133.168 10.48 134.4 10.16 135.76 10.16C136.848 10.16 137.776 10.352 138.544 10.736C139.328 11.12 139.928 11.688 140.344 12.44L140.776 10.28H143.08ZM134.68 21.128C135.624 21.128 136.472 20.904 137.224 20.456C137.992 19.992 138.584 19.352 139 18.536C139.432 17.72 139.648 16.792 139.648 15.752C139.648 14.616 139.32 13.736 138.664 13.112C138.008 12.488 137.072 12.176 135.856 12.176C134.912 12.176 134.064 12.408 133.312 12.872C132.56 13.32 131.968 13.952 131.536 14.768C131.104 15.584 130.888 16.512 130.888 17.552C130.888 18.672 131.216 19.552 131.872 20.192C132.544 20.816 133.48 21.128 134.68 21.128ZM148.496 5.192H150.8L147.248 23H144.944L148.496 5.192ZM154.167 10.28H156.471L153.951 23H151.647L154.167 10.28ZM155.991 7.832C155.575 7.832 155.231 7.696 154.959 7.424C154.687 7.152 154.551 6.824 154.551 6.44C154.551 5.992 154.703 5.616 155.007 5.312C155.327 4.992 155.727 4.832 156.207 4.832C156.623 4.832 156.967 4.968 157.239 5.24C157.527 5.496 157.671 5.808 157.671 6.176C157.671 6.672 157.511 7.072 157.191 7.376C156.887 7.68 156.487 7.832 155.991 7.832ZM164.374 23.144C163.158 23.144 162.094 22.92 161.182 22.472C160.27 22.008 159.566 21.368 159.07 20.552C158.574 19.72 158.326 18.752 158.326 17.648C158.326 16.224 158.646 14.944 159.286 13.808C159.926 12.672 160.814 11.784 161.95 11.144C163.086 10.488 164.374 10.16 165.814 10.16C168.326 10.16 170.07 11.08 171.046 12.92L169.102 14C168.43 12.784 167.278 12.176 165.646 12.176C164.702 12.176 163.846 12.408 163.078 12.872C162.326 13.32 161.734 13.952 161.302 14.768C160.87 15.584 160.654 16.512 160.654 17.552C160.654 18.672 160.982 19.552 161.638 20.192C162.31 20.816 163.254 21.128 164.47 21.128C165.238 21.128 165.95 20.976 166.606 20.672C167.278 20.368 167.83 19.92 168.262 19.328L169.942 20.528C169.35 21.344 168.558 21.984 167.566 22.448C166.574 22.912 165.51 23.144 164.374 23.144ZM183.834 8.288L182.442 12.896H184.074C186.154 12.896 187.714 13.296 188.754 14.096C189.794 14.88 190.314 15.976 190.314 17.384C190.314 18.536 190.018 19.552 189.426 20.432C188.834 21.312 187.994 21.992 186.906 22.472C185.834 22.952 184.586 23.192 183.162 23.192C181.898 23.192 180.746 23.008 179.706 22.64C178.682 22.256 177.874 21.736 177.282 21.08L178.554 19.232C179.034 19.776 179.69 20.216 180.522 20.552C181.354 20.888 182.29 21.056 183.33 21.056C184.786 21.056 185.914 20.76 186.714 20.168C187.514 19.56 187.914 18.72 187.914 17.648C187.914 15.872 186.49 14.984 183.642 14.984H179.562L182.178 6.2H191.658L191.25 8.288H183.834ZM198.36 23.192C196.584 23.192 195.192 22.648 194.184 21.56C193.176 20.472 192.672 18.96 192.672 17.024C192.672 15.072 193.024 13.256 193.728 11.576C194.432 9.88 195.424 8.528 196.704 7.52C198 6.512 199.488 6.008 201.168 6.008C202.944 6.008 204.328 6.552 205.32 7.64C206.328 8.728 206.832 10.24 206.832 12.176C206.832 14.128 206.48 15.952 205.776 17.648C205.072 19.328 204.072 20.672 202.776 21.68C201.496 22.688 200.024 23.192 198.36 23.192ZM198.552 21.056C199.736 21.056 200.776 20.608 201.672 19.712C202.568 18.816 203.248 17.688 203.712 16.328C204.192 14.952 204.432 13.584 204.432 12.224C204.432 10.912 204.128 9.904 203.52 9.2C202.912 8.496 202.064 8.144 200.976 8.144C199.776 8.144 198.728 8.592 197.832 9.488C196.936 10.384 196.248 11.52 195.768 12.896C195.304 14.256 195.072 15.616 195.072 16.976C195.072 18.288 195.376 19.296 195.984 20C196.592 20.704 197.448 21.056 198.552 21.056ZM214.344 23.192C212.568 23.192 211.176 22.648 210.168 21.56C209.16 20.472 208.656 18.96 208.656 17.024C208.656 15.072 209.008 13.256 209.712 11.576C210.416 9.88 211.408 8.528 212.688 7.52C213.984 6.512 215.472 6.008 217.152 6.008C218.928 6.008 220.312 6.552 221.304 7.64C222.312 8.728 222.816 10.24 222.816 12.176C222.816 14.128 222.464 15.952 221.76 17.648C221.056 19.328 220.056 20.672 218.76 21.68C217.48 22.688 216.008 23.192 214.344 23.192ZM214.536 21.056C215.72 21.056 216.76 20.608 217.656 19.712C218.552 18.816 219.232 17.688 219.696 16.328C220.176 14.952 220.416 13.584 220.416 12.224C220.416 10.912 220.112 9.904 219.504 9.2C218.896 8.496 218.048 8.144 216.96 8.144C215.76 8.144 214.712 8.592 213.816 9.488C212.92 10.384 212.232 11.52 211.752 12.896C211.288 14.256 211.056 15.616 211.056 16.976C211.056 18.288 211.36 19.296 211.968 20C212.576 20.704 213.432 21.056 214.536 21.056ZM14.936 47.8H5.96L3.296 52H0.704L11.696 35.2H14.072L18.32 52H15.944L14.936 47.8ZM14.456 45.88L12.464 37.6L7.184 45.88H14.456ZM24.0661 34.192H26.3701L22.8181 52H20.5141L24.0661 34.192ZM45.3133 39.16C46.7533 39.16 47.8733 39.528 48.6733 40.264C49.4893 40.984 49.8973 42.016 49.8973 43.36C49.8973 43.728 49.8413 44.232 49.7293 44.872L48.3133 52H46.0093L47.4253 44.872C47.5053 44.424 47.5453 44.056 47.5453 43.768C47.5453 42.936 47.3133 42.304 46.8493 41.872C46.3853 41.44 45.6813 41.224 44.7373 41.224C43.5533 41.224 42.5773 41.56 41.8093 42.232C41.0573 42.888 40.5453 43.88 40.2733 45.208L38.9053 52H36.6013L38.0413 44.872C38.1213 44.44 38.1613 44.08 38.1613 43.792C38.1613 42.96 37.9213 42.328 37.4413 41.896C36.9773 41.448 36.2733 41.224 35.3293 41.224C34.1453 41.224 33.1693 41.56 32.4013 42.232C31.6493 42.904 31.1373 43.92 30.8653 45.28L29.5213 52H27.2173L29.7373 39.28H31.9453L31.6333 40.864C32.7533 39.728 34.2253 39.16 36.0493 39.16C37.0413 39.16 37.8893 39.352 38.5933 39.736C39.2973 40.12 39.8093 40.68 40.1293 41.416C41.4253 39.912 43.1533 39.16 45.3133 39.16ZM58.5989 52.144C57.3989 52.144 56.3509 51.92 55.4549 51.472C54.5589 51.008 53.8629 50.36 53.3669 49.528C52.8709 48.696 52.6229 47.736 52.6229 46.648C52.6229 45.224 52.9429 43.944 53.5829 42.808C54.2229 41.672 55.1109 40.784 56.2469 40.144C57.3829 39.488 58.6629 39.16 60.0869 39.16C61.2869 39.16 62.3349 39.384 63.2309 39.832C64.1269 40.28 64.8149 40.92 65.2949 41.752C65.7909 42.568 66.0389 43.528 66.0389 44.632C66.0389 46.056 65.7189 47.344 65.0789 48.496C64.4389 49.632 63.5509 50.528 62.4149 51.184C61.2949 51.824 60.0229 52.144 58.5989 52.144ZM58.7429 50.128C59.6869 50.128 60.5349 49.904 61.2869 49.456C62.0549 48.992 62.6469 48.352 63.0629 47.536C63.4949 46.72 63.7109 45.792 63.7109 44.752C63.7109 43.616 63.3829 42.736 62.7269 42.112C62.0709 41.488 61.1349 41.176 59.9189 41.176C58.9749 41.176 58.1269 41.408 57.3749 41.872C56.6229 42.32 56.0309 42.952 55.5989 43.768C55.1669 44.584 54.9509 45.512 54.9509 46.552C54.9509 47.672 55.2789 48.552 55.9349 49.192C56.6069 49.816 57.5429 50.128 58.7429 50.128ZM71.8893 52.144C70.8333 52.144 69.8253 52.008 68.8653 51.736C67.9213 51.464 67.1853 51.112 66.6573 50.68L67.6893 48.856C68.1853 49.256 68.8253 49.576 69.6093 49.816C70.4093 50.04 71.2413 50.152 72.1053 50.152C73.1933 50.152 74.0173 49.992 74.5773 49.672C75.1533 49.336 75.4413 48.872 75.4413 48.28C75.4413 47.8 75.2093 47.456 74.7453 47.248C74.2973 47.04 73.5933 46.832 72.6333 46.624C71.7373 46.432 71.0013 46.24 70.4253 46.048C69.8653 45.84 69.3853 45.52 68.9853 45.088C68.5853 44.64 68.3853 44.04 68.3853 43.288C68.3853 42.456 68.6173 41.728 69.0813 41.104C69.5613 40.48 70.2333 40 71.0973 39.664C71.9773 39.328 72.9933 39.16 74.1453 39.16C74.9933 39.16 75.8173 39.264 76.6173 39.472C77.4173 39.68 78.0733 39.96 78.5853 40.312L77.6733 42.136C77.1773 41.8 76.6013 41.552 75.9453 41.392C75.2893 41.216 74.6173 41.128 73.9293 41.128C72.8893 41.128 72.0893 41.304 71.5293 41.656C70.9693 41.992 70.6893 42.448 70.6893 43.024C70.6893 43.536 70.9213 43.904 71.3853 44.128C71.8493 44.336 72.5693 44.544 73.5453 44.752C74.4253 44.944 75.1453 45.136 75.7053 45.328C76.2653 45.52 76.7373 45.832 77.1213 46.264C77.5213 46.696 77.7213 47.28 77.7213 48.016C77.7213 49.312 77.1853 50.328 76.1133 51.064C75.0573 51.784 73.6493 52.144 71.8893 52.144ZM83.3128 47.944C83.2648 48.184 83.2408 48.408 83.2408 48.616C83.2408 49.128 83.3768 49.52 83.6488 49.792C83.9368 50.064 84.3608 50.2 84.9208 50.2C85.5928 50.2 86.2008 50 86.7448 49.6L87.2248 51.352C86.4568 51.88 85.4728 52.144 84.2728 52.144C83.2648 52.144 82.4488 51.864 81.8248 51.304C81.2168 50.728 80.9128 49.944 80.9128 48.952C80.9128 48.616 80.9448 48.296 81.0088 47.992L82.3768 41.176H80.2168L80.5768 39.28H82.7608L83.3128 36.496H85.6168L85.0648 39.28H88.7128L88.3288 41.176H84.6808L83.3128 47.944ZM105.192 39.16C106.28 39.16 107.248 39.384 108.096 39.832C108.944 40.264 109.608 40.896 110.088 41.728C110.568 42.544 110.808 43.512 110.808 44.632C110.808 46.072 110.496 47.36 109.872 48.496C109.248 49.632 108.384 50.528 107.28 51.184C106.192 51.824 104.968 52.144 103.608 52.144C102.488 52.144 101.528 51.936 100.728 51.52C99.9436 51.104 99.3516 50.496 98.9516 49.696L98.4716 52H96.2876L99.8396 34.192H102.144L100.824 40.744C102.008 39.688 103.464 39.16 105.192 39.16ZM103.512 50.128C104.456 50.128 105.304 49.904 106.056 49.456C106.808 48.992 107.4 48.352 107.832 47.536C108.264 46.72 108.48 45.792 108.48 44.752C108.48 43.616 108.152 42.736 107.496 42.112C106.84 41.488 105.904 41.176 104.688 41.176C103.744 41.176 102.888 41.408 102.12 41.872C101.368 42.32 100.776 42.952 100.344 43.768C99.9276 44.584 99.7196 45.512 99.7196 46.552C99.7196 47.672 100.048 48.552 100.704 49.192C101.376 49.816 102.312 50.128 103.512 50.128ZM114.879 46.36V46.504C114.879 47.688 115.215 48.592 115.887 49.216C116.559 49.824 117.567 50.128 118.911 50.128C119.695 50.128 120.431 50 121.119 49.744C121.807 49.472 122.383 49.112 122.847 48.664L123.831 50.32C123.207 50.896 122.447 51.344 121.551 51.664C120.655 51.984 119.711 52.144 118.719 52.144C117.471 52.144 116.391 51.92 115.479 51.472C114.567 51.024 113.863 50.384 113.367 49.552C112.871 48.72 112.623 47.744 112.623 46.624C112.623 45.2 112.927 43.92 113.535 42.784C114.159 41.648 115.015 40.76 116.103 40.12C117.207 39.48 118.439 39.16 119.799 39.16C121.527 39.16 122.903 39.656 123.927 40.648C124.967 41.624 125.487 42.96 125.487 44.656C125.487 45.168 125.431 45.736 125.319 46.36H114.879ZM119.703 41.08C118.567 41.08 117.591 41.4 116.775 42.04C115.959 42.68 115.407 43.56 115.119 44.68H123.327C123.391 43.544 123.087 42.664 122.415 42.04C121.759 41.4 120.855 41.08 119.703 41.08ZM135.143 35.944C134.455 35.944 133.911 36.136 133.511 36.52C133.111 36.888 132.823 37.472 132.647 38.272L132.431 39.28H136.127L135.743 41.176H132.119L129.935 52H127.631L129.815 41.176H127.631L127.991 39.28H130.199L130.439 38.08C130.695 36.784 131.215 35.792 131.999 35.104C132.799 34.4 133.847 34.048 135.143 34.048C135.671 34.048 136.167 34.12 136.631 34.264C137.111 34.392 137.503 34.584 137.807 34.84L136.847 36.544C136.399 36.144 135.831 35.944 135.143 35.944ZM141.544 52.144C140.344 52.144 139.296 51.92 138.4 51.472C137.504 51.008 136.808 50.36 136.312 49.528C135.816 48.696 135.568 47.736 135.568 46.648C135.568 45.224 135.888 43.944 136.528 42.808C137.168 41.672 138.056 40.784 139.192 40.144C140.328 39.488 141.608 39.16 143.032 39.16C144.232 39.16 145.28 39.384 146.176 39.832C147.072 40.28 147.76 40.92 148.24 41.752C148.736 42.568 148.984 43.528 148.984 44.632C148.984 46.056 148.664 47.344 148.024 48.496C147.384 49.632 146.496 50.528 145.36 51.184C144.24 51.824 142.968 52.144 141.544 52.144ZM141.688 50.128C142.632 50.128 143.48 49.904 144.232 49.456C145 48.992 145.592 48.352 146.008 47.536C146.44 46.72 146.656 45.792 146.656 44.752C146.656 43.616 146.328 42.736 145.672 42.112C145.016 41.488 144.08 41.176 142.864 41.176C141.92 41.176 141.072 41.408 140.32 41.872C139.568 42.32 138.976 42.952 138.544 43.768C138.112 44.584 137.896 45.512 137.896 46.552C137.896 47.672 138.224 48.552 138.88 49.192C139.552 49.816 140.488 50.128 141.688 50.128ZM155.195 41.176C155.755 40.472 156.443 39.96 157.259 39.64C158.075 39.32 159.067 39.16 160.235 39.16L159.803 41.392C159.659 41.376 159.459 41.368 159.203 41.368C156.563 41.368 154.963 42.792 154.403 45.64L153.131 52H150.827L153.347 39.28H155.555L155.195 41.176ZM162.621 46.36V46.504C162.621 47.688 162.957 48.592 163.629 49.216C164.301 49.824 165.309 50.128 166.653 50.128C167.437 50.128 168.173 50 168.861 49.744C169.549 49.472 170.125 49.112 170.589 48.664L171.573 50.32C170.949 50.896 170.189 51.344 169.293 51.664C168.397 51.984 167.453 52.144 166.461 52.144C165.213 52.144 164.133 51.92 163.221 51.472C162.309 51.024 161.605 50.384 161.109 49.552C160.613 48.72 160.365 47.744 160.365 46.624C160.365 45.2 160.669 43.92 161.277 42.784C161.901 41.648 162.757 40.76 163.845 40.12C164.949 39.48 166.181 39.16 167.541 39.16C169.269 39.16 170.645 39.656 171.669 40.648C172.709 41.624 173.229 42.96 173.229 44.656C173.229 45.168 173.173 45.736 173.061 46.36H162.621ZM167.445 41.08C166.309 41.08 165.333 41.4 164.517 42.04C163.701 42.68 163.149 43.56 162.861 44.68H171.069C171.133 43.544 170.829 42.664 170.157 42.04C169.501 41.4 168.597 41.08 167.445 41.08ZM203.394 39.28L196.266 52H194.01L192.066 42.376L186.546 52H184.338L181.914 39.28H184.002L185.874 49.36L191.634 39.28H193.602L195.522 49.36L201.21 39.28H203.394ZM205.02 46.36V46.504C205.02 47.688 205.356 48.592 206.028 49.216C206.7 49.824 207.708 50.128 209.052 50.128C209.836 50.128 210.572 50 211.26 49.744C211.948 49.472 212.524 49.112 212.988 48.664L213.972 50.32C213.348 50.896 212.588 51.344 211.692 51.664C210.796 51.984 209.852 52.144 208.86 52.144C207.612 52.144 206.532 51.92 205.62 51.472C204.708 51.024 204.004 50.384 203.508 49.552C203.012 48.72 202.764 47.744 202.764 46.624C202.764 45.2 203.068 43.92 203.676 42.784C204.3 41.648 205.156 40.76 206.244 40.12C207.348 39.48 208.58 39.16 209.94 39.16C211.668 39.16 213.044 39.656 214.068 40.648C215.108 41.624 215.628 42.96 215.628 44.656C215.628 45.168 215.572 45.736 215.46 46.36H205.02ZM209.844 41.08C208.708 41.08 207.732 41.4 206.916 42.04C206.1 42.68 205.548 43.56 205.26 44.68H213.468C213.532 43.544 213.228 42.664 212.556 42.04C211.9 41.4 210.996 41.08 209.844 41.08ZM231.849 44.632L236.385 52H233.721L230.049 46L226.929 48.424L226.209 52H223.905L227.457 34.192H229.761L227.505 45.52L235.401 39.28H238.641L231.849 44.632ZM247.319 39.16C248.775 39.16 249.903 39.528 250.703 40.264C251.519 41 251.927 42.04 251.927 43.384C251.927 43.848 251.879 44.344 251.783 44.872L250.367 52H248.063L249.479 44.872C249.559 44.44 249.599 44.088 249.599 43.816C249.599 42.984 249.351 42.344 248.855 41.896C248.359 41.448 247.623 41.224 246.647 41.224C245.399 41.224 244.367 41.568 243.551 42.256C242.751 42.928 242.215 43.936 241.943 45.28L240.599 52H238.295L240.815 39.28H243.023L242.711 40.912C243.863 39.744 245.399 39.16 247.319 39.16ZM256.934 46.36V46.504C256.934 47.688 257.27 48.592 257.942 49.216C258.614 49.824 259.622 50.128 260.966 50.128C261.75 50.128 262.486 50 263.174 49.744C263.862 49.472 264.438 49.112 264.902 48.664L265.886 50.32C265.262 50.896 264.502 51.344 263.606 51.664C262.71 51.984 261.766 52.144 260.774 52.144C259.526 52.144 258.446 51.92 257.534 51.472C256.622 51.024 255.918 50.384 255.422 49.552C254.926 48.72 254.678 47.744 254.678 46.624C254.678 45.2 254.982 43.92 255.59 42.784C256.214 41.648 257.07 40.76 258.158 40.12C259.262 39.48 260.494 39.16 261.854 39.16C263.582 39.16 264.958 39.656 265.982 40.648C267.022 41.624 267.542 42.96 267.542 44.656C267.542 45.168 267.486 45.736 267.374 46.36H256.934ZM261.758 41.08C260.622 41.08 259.646 41.4 258.83 42.04C258.014 42.68 257.462 43.56 257.174 44.68H265.382C265.446 43.544 265.142 42.664 264.47 42.04C263.814 41.4 262.91 41.08 261.758 41.08ZM291.027 39.28L283.899 52H281.643L279.699 42.376L274.179 52H271.971L269.547 39.28H271.635L273.507 49.36L279.267 39.28H281.235L283.155 49.36L288.843 39.28H291.027ZM299.737 39.28H302.041L299.521 52H297.217L299.737 39.28ZM301.561 36.832C301.145 36.832 300.801 36.696 300.529 36.424C300.257 36.152 300.121 35.824 300.121 35.44C300.121 34.992 300.273 34.616 300.577 34.312C300.897 33.992 301.297 33.832 301.777 33.832C302.193 33.832 302.537 33.968 302.809 34.24C303.097 34.496 303.241 34.808 303.241 35.176C303.241 35.672 303.081 36.072 302.761 36.376C302.457 36.68 302.057 36.832 301.561 36.832ZM307.328 47.944C307.28 48.184 307.256 48.408 307.256 48.616C307.256 49.128 307.392 49.52 307.664 49.792C307.952 50.064 308.376 50.2 308.936 50.2C309.608 50.2 310.216 50 310.76 49.6L311.24 51.352C310.472 51.88 309.488 52.144 308.288 52.144C307.28 52.144 306.464 51.864 305.84 51.304C305.232 50.728 304.928 49.944 304.928 48.952C304.928 48.616 304.96 48.296 305.024 47.992L306.392 41.176H304.232L304.592 39.28H306.776L307.328 36.496H309.632L309.08 39.28H312.728L312.344 41.176H308.696L307.328 47.944ZM315.004 48.856C315.436 48.856 315.796 49.008 316.084 49.312C316.372 49.6 316.516 49.968 316.516 50.416C316.516 50.656 316.476 50.888 316.396 51.112C316.316 51.336 316.172 51.616 315.964 51.952L313.948 55.552H312.436L314.068 51.952C313.828 51.824 313.636 51.64 313.492 51.4C313.364 51.16 313.3 50.896 313.3 50.608C313.3 50.096 313.46 49.68 313.78 49.36C314.116 49.024 314.524 48.856 315.004 48.856ZM347.863 39.28L340.735 52H338.479L336.535 42.376L331.015 52H328.807L326.383 39.28H328.471L330.343 49.36L336.103 39.28H338.071L339.991 49.36L345.679 39.28H347.863ZM349.488 46.36V46.504C349.488 47.688 349.824 48.592 350.496 49.216C351.168 49.824 352.176 50.128 353.52 50.128C354.304 50.128 355.04 50 355.728 49.744C356.416 49.472 356.992 49.112 357.456 48.664L358.44 50.32C357.816 50.896 357.056 51.344 356.16 51.664C355.264 51.984 354.32 52.144 353.328 52.144C352.08 52.144 351 51.92 350.088 51.472C349.176 51.024 348.472 50.384 347.976 49.552C347.48 48.72 347.232 47.744 347.232 46.624C347.232 45.2 347.536 43.92 348.144 42.784C348.768 41.648 349.624 40.76 350.712 40.12C351.816 39.48 353.048 39.16 354.408 39.16C356.136 39.16 357.512 39.656 358.536 40.648C359.576 41.624 360.096 42.96 360.096 44.656C360.096 45.168 360.04 45.736 359.928 46.36H349.488ZM354.312 41.08C353.176 41.08 352.2 41.4 351.384 42.04C350.568 42.68 350.016 43.56 349.728 44.68H357.936C358 43.544 357.696 42.664 357.024 42.04C356.368 41.4 355.464 41.08 354.312 41.08ZM377.398 39.16C378.854 39.16 379.982 39.528 380.782 40.264C381.598 41 382.006 42.04 382.006 43.384C382.006 43.848 381.958 44.344 381.862 44.872L380.446 52H378.142L379.557 44.872C379.638 44.44 379.678 44.088 379.678 43.816C379.678 42.984 379.43 42.344 378.934 41.896C378.438 41.448 377.702 41.224 376.726 41.224C375.478 41.224 374.446 41.568 373.63 42.256C372.83 42.928 372.294 43.936 372.022 45.28L370.678 52H368.374L371.926 34.192H374.23L372.91 40.768C374.046 39.696 375.542 39.16 377.398 39.16ZM399.276 39.28L396.756 52H394.548L394.86 50.44C394.284 50.984 393.612 51.408 392.844 51.712C392.092 52 391.268 52.144 390.372 52.144C389.284 52.144 388.316 51.928 387.468 51.496C386.62 51.048 385.956 50.408 385.476 49.576C384.996 48.744 384.756 47.768 384.756 46.648C384.756 45.208 385.068 43.92 385.692 42.784C386.316 41.648 387.172 40.76 388.26 40.12C389.364 39.48 390.596 39.16 391.956 39.16C393.044 39.16 393.972 39.352 394.74 39.736C395.524 40.12 396.124 40.688 396.54 41.44L396.972 39.28H399.276ZM390.876 50.128C391.82 50.128 392.668 49.904 393.42 49.456C394.188 48.992 394.78 48.352 395.196 47.536C395.628 46.72 395.844 45.792 395.844 44.752C395.844 43.616 395.516 42.736 394.86 42.112C394.204 41.488 393.268 41.176 392.052 41.176C391.108 41.176 390.26 41.408 389.508 41.872C388.756 42.32 388.164 42.952 387.732 43.768C387.3 44.584 387.084 45.512 387.084 46.552C387.084 47.672 387.412 48.552 388.068 49.192C388.74 49.816 389.676 50.128 390.876 50.128ZM416.667 34.192L413.115 52H410.907L411.219 50.44C410.643 50.984 409.971 51.408 409.203 51.712C408.451 52 407.627 52.144 406.731 52.144C405.643 52.144 404.675 51.928 403.827 51.496C402.979 51.048 402.315 50.408 401.835 49.576C401.355 48.744 401.115 47.768 401.115 46.648C401.115 45.208 401.427 43.92 402.051 42.784C402.675 41.648 403.531 40.76 404.619 40.12C405.723 39.48 406.955 39.16 408.315 39.16C409.403 39.16 410.339 39.36 411.123 39.76C411.923 40.144 412.523 40.712 412.923 41.464L414.363 34.192H416.667ZM407.235 50.128C408.179 50.128 409.027 49.904 409.779 49.456C410.547 48.992 411.139 48.352 411.555 47.536C411.987 46.72 412.203 45.792 412.203 44.752C412.203 43.616 411.875 42.736 411.219 42.112C410.563 41.488 409.627 41.176 408.411 41.176C407.467 41.176 406.619 41.408 405.867 41.872C405.115 42.32 404.523 42.952 404.091 43.768C403.659 44.584 403.443 45.512 403.443 46.552C403.443 47.672 403.771 48.552 404.427 49.192C405.099 49.816 406.035 50.128 407.235 50.128ZM427.496 34.192H429.8L426.248 52H423.944L427.496 34.192ZM432.879 46.36V46.504C432.879 47.688 433.215 48.592 433.887 49.216C434.559 49.824 435.567 50.128 436.911 50.128C437.695 50.128 438.431 50 439.119 49.744C439.807 49.472 440.383 49.112 440.847 48.664L441.831 50.32C441.207 50.896 440.447 51.344 439.551 51.664C438.655 51.984 437.711 52.144 436.719 52.144C435.471 52.144 434.391 51.92 433.479 51.472C432.567 51.024 431.863 50.384 431.367 49.552C430.871 48.72 430.623 47.744 430.623 46.624C430.623 45.2 430.927 43.92 431.535 42.784C432.159 41.648 433.015 40.76 434.103 40.12C435.207 39.48 436.439 39.16 437.799 39.16C439.527 39.16 440.903 39.656 441.927 40.648C442.967 41.624 443.487 42.96 443.487 44.656C443.487 45.168 443.431 45.736 443.319 46.36H432.879ZM437.703 41.08C436.567 41.08 435.591 41.4 434.775 42.04C433.959 42.68 433.407 43.56 433.119 44.68H441.327C441.391 43.544 441.087 42.664 440.415 42.04C439.759 41.4 438.855 41.08 437.703 41.08ZM453.143 35.944C452.455 35.944 451.911 36.136 451.511 36.52C451.111 36.888 450.823 37.472 450.647 38.272L450.431 39.28H454.127L453.743 41.176H450.119L447.935 52H445.631L447.815 41.176H445.631L445.991 39.28H448.199L448.439 38.08C448.695 36.784 449.215 35.792 449.999 35.104C450.799 34.4 451.847 34.048 453.143 34.048C453.671 34.048 454.167 34.12 454.631 34.264C455.111 34.392 455.503 34.584 455.807 34.84L454.847 36.544C454.399 36.144 453.831 35.944 453.143 35.944ZM457.188 47.944C457.14 48.184 457.116 48.408 457.116 48.616C457.116 49.128 457.252 49.52 457.524 49.792C457.812 50.064 458.236 50.2 458.796 50.2C459.468 50.2 460.076 50 460.62 49.6L461.1 51.352C460.332 51.88 459.348 52.144 458.148 52.144C457.14 52.144 456.324 51.864 455.7 51.304C455.092 50.728 454.788 49.944 454.788 48.952C454.788 48.616 454.82 48.296 454.884 47.992L456.252 41.176H454.092L454.452 39.28H456.636L457.188 36.496H459.492L458.94 39.28H462.588L462.204 41.176H458.556L457.188 47.944ZM473.571 47.944C473.523 48.184 473.499 48.408 473.499 48.616C473.499 49.128 473.635 49.52 473.907 49.792C474.195 50.064 474.619 50.2 475.179 50.2C475.851 50.2 476.459 50 477.003 49.6L477.483 51.352C476.715 51.88 475.731 52.144 474.531 52.144C473.523 52.144 472.707 51.864 472.083 51.304C471.475 50.728 471.171 49.944 471.171 48.952C471.171 48.616 471.203 48.296 471.267 47.992L472.635 41.176H470.475L470.835 39.28H473.019L473.571 36.496H475.875L475.323 39.28H478.971L478.587 41.176H474.939L473.571 47.944ZM489.124 39.16C490.58 39.16 491.708 39.528 492.508 40.264C493.324 41 493.732 42.04 493.732 43.384C493.732 43.848 493.684 44.344 493.588 44.872L492.172 52H489.868L491.284 44.872C491.364 44.44 491.404 44.088 491.404 43.816C491.404 42.984 491.156 42.344 490.66 41.896C490.164 41.448 489.428 41.224 488.452 41.224C487.204 41.224 486.172 41.568 485.356 42.256C484.556 42.928 484.02 43.936 483.748 45.28L482.404 52H480.1L483.652 34.192H485.956L484.636 40.768C485.772 39.696 487.268 39.16 489.124 39.16ZM498.738 46.36V46.504C498.738 47.688 499.074 48.592 499.746 49.216C500.418 49.824 501.426 50.128 502.77 50.128C503.554 50.128 504.29 50 504.978 49.744C505.666 49.472 506.242 49.112 506.706 48.664L507.69 50.32C507.066 50.896 506.306 51.344 505.41 51.664C504.514 51.984 503.57 52.144 502.578 52.144C501.33 52.144 500.25 51.92 499.338 51.472C498.426 51.024 497.722 50.384 497.226 49.552C496.73 48.72 496.482 47.744 496.482 46.624C496.482 45.2 496.786 43.92 497.394 42.784C498.018 41.648 498.874 40.76 499.962 40.12C501.066 39.48 502.298 39.16 503.658 39.16C505.386 39.16 506.762 39.656 507.786 40.648C508.826 41.624 509.346 42.96 509.346 44.656C509.346 45.168 509.29 45.736 509.178 46.36H498.738ZM503.562 41.08C502.426 41.08 501.45 41.4 500.634 42.04C499.818 42.68 499.266 43.56 498.978 44.68H507.186C507.25 43.544 506.946 42.664 506.274 42.04C505.618 41.4 504.714 41.08 503.562 41.08ZM532.312 39.28L530.128 50.272C529.68 52.544 528.832 54.2 527.584 55.24C526.352 56.28 524.664 56.8 522.52 56.8C521.32 56.8 520.224 56.64 519.232 56.32C518.24 56.016 517.4 55.576 516.712 55L517.984 53.224C518.496 53.688 519.16 54.056 519.976 54.328C520.808 54.616 521.712 54.76 522.688 54.76C524.16 54.76 525.296 54.424 526.096 53.752C526.912 53.08 527.464 52.04 527.752 50.632L527.944 49.72C526.728 50.888 525.192 51.472 523.336 51.472C522.216 51.472 521.224 51.264 520.36 50.848C519.512 50.432 518.848 49.832 518.368 49.048C517.904 48.264 517.672 47.344 517.672 46.288C517.672 44.96 517.976 43.752 518.584 42.664C519.208 41.576 520.072 40.72 521.176 40.096C522.28 39.472 523.528 39.16 524.92 39.16C526.008 39.16 526.968 39.368 527.8 39.784C528.648 40.184 529.272 40.792 529.672 41.608L530.128 39.28H532.312ZM523.792 49.456C524.752 49.456 525.608 49.248 526.36 48.832C527.128 48.4 527.72 47.808 528.136 47.056C528.568 46.288 528.784 45.424 528.784 44.464C528.784 43.44 528.448 42.64 527.776 42.064C527.12 41.472 526.192 41.176 524.992 41.176C524.032 41.176 523.168 41.392 522.4 41.824C521.648 42.24 521.056 42.832 520.624 43.6C520.208 44.352 520 45.2 520 46.144C520 47.184 520.336 48 521.008 48.592C521.68 49.168 522.608 49.456 523.792 49.456ZM538.562 41.176C539.122 40.472 539.81 39.96 540.626 39.64C541.442 39.32 542.434 39.16 543.602 39.16L543.17 41.392C543.026 41.376 542.826 41.368 542.57 41.368C539.93 41.368 538.33 42.792 537.77 45.64L536.498 52H534.194L536.714 39.28H538.922L538.562 41.176ZM549.708 52.144C548.508 52.144 547.46 51.92 546.564 51.472C545.668 51.008 544.972 50.36 544.476 49.528C543.98 48.696 543.732 47.736 543.732 46.648C543.732 45.224 544.052 43.944 544.692 42.808C545.332 41.672 546.22 40.784 547.356 40.144C548.492 39.488 549.772 39.16 551.196 39.16C552.396 39.16 553.444 39.384 554.34 39.832C555.236 40.28 555.924 40.92 556.404 41.752C556.9 42.568 557.148 43.528 557.148 44.632C557.148 46.056 556.828 47.344 556.188 48.496C555.548 49.632 554.66 50.528 553.524 51.184C552.404 51.824 551.132 52.144 549.708 52.144ZM549.852 50.128C550.796 50.128 551.644 49.904 552.396 49.456C553.164 48.992 553.756 48.352 554.172 47.536C554.604 46.72 554.82 45.792 554.82 44.752C554.82 43.616 554.492 42.736 553.836 42.112C553.18 41.488 552.244 41.176 551.028 41.176C550.084 41.176 549.236 41.408 548.484 41.872C547.732 42.32 547.14 42.952 546.708 43.768C546.276 44.584 546.06 45.512 546.06 46.552C546.06 47.672 546.388 48.552 547.044 49.192C547.716 49.816 548.652 50.128 549.852 50.128ZM573.367 39.28L570.847 52H568.639L568.951 50.368C568.375 50.96 567.695 51.408 566.911 51.712C566.143 52 565.303 52.144 564.391 52.144C562.983 52.144 561.871 51.768 561.055 51.016C560.239 50.264 559.831 49.216 559.831 47.872C559.831 47.424 559.879 46.936 559.975 46.408L561.391 39.28H563.695L562.279 46.432C562.199 46.864 562.159 47.224 562.159 47.512C562.159 48.344 562.399 48.984 562.879 49.432C563.375 49.864 564.103 50.08 565.063 50.08C566.279 50.08 567.287 49.736 568.087 49.048C568.903 48.36 569.447 47.352 569.719 46.024L571.063 39.28H573.367ZM584.257 39.16C585.713 39.16 586.841 39.528 587.641 40.264C588.457 41 588.865 42.04 588.865 43.384C588.865 43.848 588.817 44.344 588.721 44.872L587.305 52H585.001L586.417 44.872C586.497 44.44 586.537 44.088 586.537 43.816C586.537 42.984 586.289 42.344 585.793 41.896C585.297 41.448 584.561 41.224 583.585 41.224C582.337 41.224 581.305 41.568 580.489 42.256C579.689 42.928 579.153 43.936 578.881 45.28L577.537 52H575.233L577.753 39.28H579.961L579.649 40.912C580.801 39.744 582.337 39.16 584.257 39.16ZM607.167 34.192L603.615 52H601.407L601.719 50.44C601.143 50.984 600.471 51.408 599.703 51.712C598.951 52 598.127 52.144 597.231 52.144C596.143 52.144 595.175 51.928 594.327 51.496C593.479 51.048 592.815 50.408 592.335 49.576C591.855 48.744 591.615 47.768 591.615 46.648C591.615 45.208 591.927 43.92 592.551 42.784C593.175 41.648 594.031 40.76 595.119 40.12C596.223 39.48 597.455 39.16 598.815 39.16C599.903 39.16 600.839 39.36 601.623 39.76C602.423 40.144 603.023 40.712 603.423 41.464L604.863 34.192H607.167ZM597.735 50.128C598.679 50.128 599.527 49.904 600.279 49.456C601.047 48.992 601.639 48.352 602.055 47.536C602.487 46.72 602.703 45.792 602.703 44.752C602.703 43.616 602.375 42.736 601.719 42.112C601.063 41.488 600.127 41.176 598.911 41.176C597.967 41.176 597.119 41.408 596.367 41.872C595.615 42.32 595.023 42.952 594.591 43.768C594.159 44.584 593.943 45.512 593.943 46.552C593.943 47.672 594.271 48.552 594.927 49.192C595.599 49.816 596.535 50.128 597.735 50.128ZM608.743 52.144C608.311 52.144 607.943 52 607.639 51.712C607.351 51.408 607.207 51.04 607.207 50.608C607.207 50.096 607.367 49.68 607.687 49.36C608.023 49.024 608.431 48.856 608.911 48.856C609.343 48.856 609.703 49.008 609.991 49.312C610.279 49.6 610.423 49.968 610.423 50.416C610.423 50.912 610.255 51.328 609.919 51.664C609.599 51.984 609.207 52.144 608.743 52.144Z" fill="black"/>
</svg>
