<svg width="605" height="60" viewBox="0 0 605 60" fill="none" xmlns="http://www.w3.org/2000/svg">
<rect width="605" height="60" fill="white" fill-opacity="0.13"/>
<rect width="605" height="59.9829" fill="white"/>
<path d="M14.208 23L10.368 17.6C9.936 17.648 9.488 17.672 9.024 17.672H4.512V23H2.736V6.2H9.024C11.168 6.2 12.848 6.712 14.064 7.736C15.28 8.76 15.888 10.168 15.888 11.96C15.888 13.272 15.552 14.384 14.88 15.296C14.224 16.192 13.28 16.84 12.048 17.24L16.152 23H14.208ZM8.976 16.16C10.64 16.16 11.912 15.792 12.792 15.056C13.672 14.32 14.112 13.288 14.112 11.96C14.112 10.6 13.672 9.56 12.792 8.84C11.912 8.104 10.64 7.736 8.976 7.736H4.512V16.16H8.976ZM30.7118 17.216H20.1518C20.2478 18.528 20.7518 19.592 21.6638 20.408C22.5758 21.208 23.7278 21.608 25.1198 21.608C25.9038 21.608 26.6238 21.472 27.2798 21.2C27.9358 20.912 28.5038 20.496 28.9838 19.952L29.9438 21.056C29.3838 21.728 28.6798 22.24 27.8318 22.592C26.9998 22.944 26.0798 23.12 25.0718 23.12C23.7758 23.12 22.6238 22.848 21.6158 22.304C20.6238 21.744 19.8478 20.976 19.2878 20C18.7278 19.024 18.4478 17.92 18.4478 16.688C18.4478 15.456 18.7118 14.352 19.2398 13.376C19.7838 12.4 20.5198 11.64 21.4478 11.096C22.3918 10.552 23.4478 10.28 24.6158 10.28C25.7838 10.28 26.8318 10.552 27.7598 11.096C28.6878 11.64 29.4158 12.4 29.9438 13.376C30.4718 14.336 30.7358 15.44 30.7358 16.688L30.7118 17.216ZM24.6158 11.744C23.3998 11.744 22.3758 12.136 21.5438 12.92C20.7278 13.688 20.2638 14.696 20.1518 15.944H29.1038C28.9918 14.696 28.5198 13.688 27.6878 12.92C26.8718 12.136 25.8478 11.744 24.6158 11.744ZM45.8921 10.376V21.464C45.8921 23.608 45.3641 25.192 44.3081 26.216C43.2681 27.256 41.6921 27.776 39.5801 27.776C38.4121 27.776 37.3001 27.6 36.2441 27.248C35.2041 26.912 34.3561 26.44 33.7001 25.832L34.5641 24.536C35.1721 25.08 35.9081 25.504 36.7721 25.808C37.6521 26.112 38.5721 26.264 39.5321 26.264C41.1321 26.264 42.3081 25.888 43.0601 25.136C43.8121 24.4 44.1881 23.248 44.1881 21.68V20.072C43.6601 20.872 42.9641 21.48 42.1001 21.896C41.2521 22.312 40.3081 22.52 39.2681 22.52C38.0841 22.52 37.0041 22.264 36.0281 21.752C35.0681 21.224 34.3081 20.496 33.7481 19.568C33.2041 18.624 32.9321 17.56 32.9321 16.376C32.9321 15.192 33.2041 14.136 33.7481 13.208C34.3081 12.28 35.0681 11.56 36.0281 11.048C36.9881 10.536 38.0681 10.28 39.2681 10.28C40.3401 10.28 41.3081 10.496 42.1721 10.928C43.0361 11.36 43.7321 11.984 44.2601 12.8V10.376H45.8921ZM39.4361 21.008C40.3481 21.008 41.1721 20.816 41.9081 20.432C42.6441 20.032 43.2121 19.48 43.6121 18.776C44.0281 18.072 44.2361 17.272 44.2361 16.376C44.2361 15.48 44.0281 14.688 43.6121 14C43.2121 13.296 42.6441 12.752 41.9081 12.368C41.1881 11.968 40.3641 11.768 39.4361 11.768C38.5241 11.768 37.7001 11.96 36.9641 12.344C36.2441 12.728 35.6761 13.272 35.2601 13.976C34.8601 14.68 34.6601 15.48 34.6601 16.376C34.6601 17.272 34.8601 18.072 35.2601 18.776C35.6761 19.48 36.2441 20.032 36.9641 20.432C37.7001 20.816 38.5241 21.008 39.4361 21.008ZM62.0333 10.376V23H60.4012V20.696C59.9533 21.464 59.3373 22.064 58.5533 22.496C57.7693 22.912 56.8733 23.12 55.8653 23.12C54.2173 23.12 52.9133 22.664 51.9533 21.752C51.0093 20.824 50.5373 19.472 50.5373 17.696V10.376H52.2413V17.528C52.2413 18.856 52.5693 19.864 53.2253 20.552C53.8813 21.24 54.8173 21.584 56.0333 21.584C57.3613 21.584 58.4093 21.184 59.1773 20.384C59.9453 19.568 60.3293 18.44 60.3293 17V10.376H62.0333ZM66.8057 5.192H68.5097V23H66.8057V5.192ZM77.667 10.28C79.315 10.28 80.579 10.696 81.459 11.528C82.339 12.344 82.779 13.56 82.779 15.176V23H81.147V21.032C80.763 21.688 80.195 22.2 79.443 22.568C78.707 22.936 77.827 23.12 76.803 23.12C75.395 23.12 74.275 22.784 73.443 22.112C72.611 21.44 72.195 20.552 72.195 19.448C72.195 18.376 72.579 17.512 73.347 16.856C74.131 16.2 75.371 15.872 77.067 15.872H81.075V15.104C81.075 14.016 80.771 13.192 80.163 12.632C79.555 12.056 78.667 11.768 77.499 11.768C76.699 11.768 75.931 11.904 75.195 12.176C74.459 12.432 73.827 12.792 73.299 13.256L72.531 11.984C73.171 11.44 73.939 11.024 74.835 10.736C75.731 10.432 76.675 10.28 77.667 10.28ZM77.067 21.776C78.027 21.776 78.851 21.56 79.539 21.128C80.227 20.68 80.739 20.04 81.075 19.208V17.144H77.115C74.955 17.144 73.875 17.896 73.875 19.4C73.875 20.136 74.155 20.72 74.715 21.152C75.275 21.568 76.059 21.776 77.067 21.776ZM89.0393 12.848C89.4393 12 90.0313 11.36 90.8153 10.928C91.6153 10.496 92.5993 10.28 93.7673 10.28V11.936L93.3593 11.912C92.0312 11.912 90.9913 12.32 90.2393 13.136C89.4873 13.952 89.1113 15.096 89.1113 16.568V23H87.4073V10.376H89.0393V12.848ZM116.473 18.584H113.113V23H111.385V18.584H101.905V17.336L110.809 6.2H112.729L104.137 17.048H111.433V13.16H113.113V17.048H116.473V18.584ZM124.757 23.144C123.461 23.144 122.301 22.8 121.277 22.112C120.269 21.424 119.477 20.44 118.901 19.16C118.341 17.864 118.061 16.344 118.061 14.6C118.061 12.856 118.341 11.344 118.901 10.064C119.477 8.768 120.269 7.776 121.277 7.088C122.301 6.4 123.461 6.056 124.757 6.056C126.053 6.056 127.205 6.4 128.213 7.088C129.237 7.776 130.037 8.768 130.613 10.064C131.189 11.344 131.477 12.856 131.477 14.6C131.477 16.344 131.189 17.864 130.613 19.16C130.037 20.44 129.237 21.424 128.213 22.112C127.205 22.8 126.053 23.144 124.757 23.144ZM124.757 21.56C125.733 21.56 126.589 21.288 127.325 20.744C128.077 20.2 128.661 19.408 129.077 18.368C129.493 17.328 129.701 16.072 129.701 14.6C129.701 13.128 129.493 11.872 129.077 10.832C128.661 9.792 128.077 9 127.325 8.456C126.589 7.912 125.733 7.64 124.757 7.64C123.781 7.64 122.917 7.912 122.165 8.456C121.429 9 120.853 9.792 120.437 10.832C120.021 11.872 119.812 13.128 119.812 14.6C119.812 16.072 120.021 17.328 120.437 18.368C120.853 19.408 121.429 20.2 122.165 20.744C122.917 21.288 123.781 21.56 124.757 21.56ZM140.647 23.144C139.351 23.144 138.191 22.8 137.167 22.112C136.159 21.424 135.367 20.44 134.791 19.16C134.231 17.864 133.951 16.344 133.951 14.6C133.951 12.856 134.231 11.344 134.791 10.064C135.367 8.768 136.159 7.776 137.167 7.088C138.191 6.4 139.351 6.056 140.647 6.056C141.943 6.056 143.095 6.4 144.103 7.088C145.127 7.776 145.927 8.768 146.503 10.064C147.079 11.344 147.367 12.856 147.367 14.6C147.367 16.344 147.079 17.864 146.503 19.16C145.927 20.44 145.127 21.424 144.103 22.112C143.095 22.8 141.943 23.144 140.647 23.144ZM140.647 21.56C141.623 21.56 142.479 21.288 143.215 20.744C143.967 20.2 144.551 19.408 144.967 18.368C145.383 17.328 145.591 16.072 145.591 14.6C145.591 13.128 145.383 11.872 144.967 10.832C144.551 9.792 143.967 9 143.215 8.456C142.479 7.912 141.623 7.64 140.647 7.64C139.671 7.64 138.807 7.912 138.055 8.456C137.319 9 136.743 9.792 136.327 10.832C135.911 11.872 135.703 13.128 135.703 14.6C135.703 16.072 135.911 17.328 136.327 18.368C136.743 19.408 137.319 20.2 138.055 20.744C138.807 21.288 139.671 21.56 140.647 21.56ZM13.272 47.512H3.912L1.896 52H0.048L7.728 35.2H9.48L17.16 52H15.288L13.272 47.512ZM12.624 46.072L8.592 37.048L4.56 46.072H12.624ZM19.5791 34.192H21.2831V52H19.5791V34.192ZM41.7684 39.28C43.3524 39.28 44.5924 39.736 45.4884 40.648C46.4004 41.56 46.8564 42.904 46.8564 44.68V52H45.1524V44.848C45.1524 43.536 44.8324 42.536 44.1924 41.848C43.5684 41.16 42.6804 40.816 41.5284 40.816C40.2164 40.816 39.1844 41.224 38.4324 42.04C37.6804 42.84 37.3044 43.952 37.3044 45.376V52H35.6004V44.848C35.6004 43.536 35.2804 42.536 34.6404 41.848C34.0164 41.16 33.1204 40.816 31.9524 40.816C30.6564 40.816 29.6244 41.224 28.8564 42.04C28.1044 42.84 27.7284 43.952 27.7284 45.376V52H26.0244V39.376H27.6564V41.68C28.1044 40.912 28.7284 40.32 29.5284 39.904C30.3284 39.488 31.2484 39.28 32.2884 39.28C33.3444 39.28 34.2564 39.504 35.0244 39.952C35.8084 40.4 36.3924 41.064 36.7764 41.944C37.2404 41.112 37.9044 40.464 38.7684 40C39.6484 39.52 40.6484 39.28 41.7684 39.28ZM56.6844 52.12C55.4684 52.12 54.3724 51.848 53.3964 51.304C52.4204 50.744 51.6524 49.976 51.0924 49C50.5324 48.024 50.2524 46.92 50.2524 45.688C50.2524 44.456 50.5324 43.352 51.0924 42.376C51.6524 41.4 52.4204 40.64 53.3964 40.096C54.3724 39.552 55.4684 39.28 56.6844 39.28C57.9004 39.28 58.9964 39.552 59.9724 40.096C60.9484 40.64 61.7084 41.4 62.2524 42.376C62.8124 43.352 63.0924 44.456 63.0924 45.688C63.0924 46.92 62.8124 48.024 62.2524 49C61.7084 49.976 60.9484 50.744 59.9724 51.304C58.9964 51.848 57.9004 52.12 56.6844 52.12ZM56.6844 50.608C57.5804 50.608 58.3804 50.408 59.0844 50.008C59.8044 49.592 60.3644 49.008 60.7644 48.256C61.1644 47.504 61.3644 46.648 61.3644 45.688C61.3644 44.728 61.1644 43.872 60.7644 43.12C60.3644 42.368 59.8044 41.792 59.0844 41.392C58.3804 40.976 57.5804 40.768 56.6844 40.768C55.7884 40.768 54.9804 40.976 54.2604 41.392C53.5564 41.792 52.9964 42.368 52.5804 43.12C52.1804 43.872 51.9804 44.728 51.9804 45.688C51.9804 46.648 52.1804 47.504 52.5804 48.256C52.9964 49.008 53.5564 49.592 54.2604 50.008C54.9804 50.408 55.7884 50.608 56.6844 50.608ZM69.9553 52.12C68.9313 52.12 67.9473 51.976 67.0033 51.688C66.0753 51.384 65.3473 51.008 64.8193 50.56L65.5873 49.216C66.1153 49.632 66.7793 49.976 67.5793 50.248C68.3793 50.504 69.2113 50.632 70.0753 50.632C71.2273 50.632 72.0753 50.456 72.6193 50.104C73.1793 49.736 73.4593 49.224 73.4593 48.568C73.4593 48.104 73.3073 47.744 73.0033 47.488C72.6993 47.216 72.3153 47.016 71.8513 46.888C71.3873 46.744 70.7713 46.608 70.0033 46.48C68.9793 46.288 68.1553 46.096 67.5313 45.904C66.9073 45.696 66.3713 45.352 65.9233 44.872C65.4913 44.392 65.2753 43.728 65.2753 42.88C65.2753 41.824 65.7153 40.96 66.5953 40.288C67.4753 39.616 68.6993 39.28 70.2673 39.28C71.0833 39.28 71.8993 39.392 72.7153 39.616C73.5313 39.824 74.2033 40.104 74.7313 40.456L73.9873 41.824C72.9473 41.104 71.7073 40.744 70.2673 40.744C69.1793 40.744 68.3553 40.936 67.7953 41.32C67.2513 41.704 66.9793 42.208 66.9793 42.832C66.9793 43.312 67.1313 43.696 67.4353 43.984C67.7553 44.272 68.1473 44.488 68.6113 44.632C69.0753 44.76 69.7153 44.896 70.5313 45.04C71.5393 45.232 72.3473 45.424 72.9553 45.616C73.5633 45.808 74.0833 46.136 74.5153 46.6C74.9473 47.064 75.1633 47.704 75.1633 48.52C75.1633 49.624 74.6993 50.504 73.7713 51.16C72.8593 51.8 71.5873 52.12 69.9553 52.12ZM84.9615 51.232C84.6415 51.52 84.2415 51.744 83.7615 51.904C83.2975 52.048 82.8095 52.12 82.2975 52.12C81.1135 52.12 80.2015 51.8 79.5615 51.16C78.9215 50.52 78.6015 49.616 78.6015 48.448V40.816H76.3455V39.376H78.6015V36.616H80.3055V39.376H84.1455V40.816H80.3055V48.352C80.3055 49.104 80.4895 49.68 80.8575 50.08C81.2415 50.464 81.7855 50.656 82.4895 50.656C82.8415 50.656 83.1775 50.6 83.4975 50.488C83.8335 50.376 84.1215 50.216 84.3615 50.008L84.9615 51.232ZM100.849 39.28C102.033 39.28 103.105 39.552 104.065 40.096C105.025 40.624 105.777 41.376 106.321 42.352C106.865 43.328 107.137 44.44 107.137 45.688C107.137 46.936 106.865 48.048 106.321 49.024C105.777 50 105.025 50.76 104.065 51.304C103.105 51.848 102.033 52.12 100.849 52.12C99.7928 52.12 98.8408 51.896 97.9928 51.448C97.1608 51 96.4888 50.352 95.9768 49.504V52H94.3448V34.192H96.0488V41.776C96.5768 40.96 97.2488 40.344 98.0648 39.928C98.8968 39.496 99.8248 39.28 100.849 39.28ZM100.729 50.608C101.609 50.608 102.409 50.408 103.129 50.008C103.849 49.592 104.409 49.008 104.809 48.256C105.225 47.504 105.433 46.648 105.433 45.688C105.433 44.728 105.225 43.872 104.809 43.12C104.409 42.368 103.849 41.792 103.129 41.392C102.409 40.976 101.609 40.768 100.729 40.768C99.8328 40.768 99.0248 40.976 98.3047 41.392C97.6008 41.792 97.0408 42.368 96.6248 43.12C96.2248 43.872 96.0248 44.728 96.0248 45.688C96.0248 46.648 96.2248 47.504 96.6248 48.256C97.0408 49.008 97.6008 49.592 98.3047 50.008C99.0248 50.408 99.8328 50.608 100.729 50.608ZM121.602 46.216H111.042C111.138 47.528 111.642 48.592 112.554 49.408C113.466 50.208 114.618 50.608 116.01 50.608C116.794 50.608 117.514 50.472 118.17 50.2C118.826 49.912 119.394 49.496 119.874 48.952L120.834 50.056C120.274 50.728 119.57 51.24 118.722 51.592C117.89 51.944 116.97 52.12 115.962 52.12C114.666 52.12 113.514 51.848 112.506 51.304C111.514 50.744 110.738 49.976 110.178 49C109.618 48.024 109.338 46.92 109.338 45.688C109.338 44.456 109.602 43.352 110.13 42.376C110.674 41.4 111.41 40.64 112.338 40.096C113.282 39.552 114.338 39.28 115.506 39.28C116.674 39.28 117.722 39.552 118.65 40.096C119.578 40.64 120.306 41.4 120.834 42.376C121.362 43.336 121.626 44.44 121.626 45.688L121.602 46.216ZM115.506 40.744C114.29 40.744 113.266 41.136 112.434 41.92C111.618 42.688 111.154 43.696 111.042 44.944H119.994C119.882 43.696 119.41 42.688 118.578 41.92C117.762 41.136 116.738 40.744 115.506 40.744ZM129.271 35.512C128.535 35.512 127.975 35.712 127.591 36.112C127.223 36.512 127.039 37.104 127.039 37.888V39.376H130.927V40.816H127.087V52H125.383V40.816H123.127V39.376H125.383V37.816C125.383 36.664 125.711 35.752 126.367 35.08C127.039 34.408 127.983 34.072 129.199 34.072C129.679 34.072 130.143 34.144 130.591 34.288C131.039 34.416 131.415 34.608 131.719 34.864L131.143 36.136C130.647 35.72 130.023 35.512 129.271 35.512ZM138.177 52.12C136.961 52.12 135.865 51.848 134.889 51.304C133.913 50.744 133.145 49.976 132.585 49C132.025 48.024 131.745 46.92 131.745 45.688C131.745 44.456 132.025 43.352 132.585 42.376C133.145 41.4 133.913 40.64 134.889 40.096C135.865 39.552 136.961 39.28 138.177 39.28C139.393 39.28 140.489 39.552 141.465 40.096C142.441 40.64 143.201 41.4 143.745 42.376C144.305 43.352 144.585 44.456 144.585 45.688C144.585 46.92 144.305 48.024 143.745 49C143.201 49.976 142.441 50.744 141.465 51.304C140.489 51.848 139.393 52.12 138.177 52.12ZM138.177 50.608C139.073 50.608 139.873 50.408 140.577 50.008C141.297 49.592 141.857 49.008 142.257 48.256C142.657 47.504 142.857 46.648 142.857 45.688C142.857 44.728 142.657 43.872 142.257 43.12C141.857 42.368 141.297 41.792 140.577 41.392C139.873 40.976 139.073 40.768 138.177 40.768C137.281 40.768 136.473 40.976 135.753 41.392C135.049 41.792 134.489 42.368 134.073 43.12C133.673 43.872 133.473 44.728 133.473 45.688C133.473 46.648 133.673 47.504 134.073 48.256C134.489 49.008 135.049 49.592 135.753 50.008C136.473 50.408 137.281 50.608 138.177 50.608ZM149.696 41.848C150.096 41 150.688 40.36 151.472 39.928C152.272 39.496 153.256 39.28 154.424 39.28V40.936L154.016 40.912C152.688 40.912 151.648 41.32 150.896 42.136C150.144 42.952 149.768 44.096 149.768 45.568V52H148.064V39.376H149.696V41.848ZM168.384 46.216H157.824C157.92 47.528 158.424 48.592 159.336 49.408C160.248 50.208 161.4 50.608 162.792 50.608C163.576 50.608 164.296 50.472 164.952 50.2C165.608 49.912 166.176 49.496 166.656 48.952L167.616 50.056C167.056 50.728 166.352 51.24 165.504 51.592C164.672 51.944 163.752 52.12 162.744 52.12C161.448 52.12 160.296 51.848 159.288 51.304C158.296 50.744 157.52 49.976 156.96 49C156.4 48.024 156.12 46.92 156.12 45.688C156.12 44.456 156.384 43.352 156.912 42.376C157.456 41.4 158.192 40.64 159.12 40.096C160.064 39.552 161.12 39.28 162.288 39.28C163.456 39.28 164.504 39.552 165.432 40.096C166.36 40.64 167.088 41.4 167.616 42.376C168.144 43.336 168.408 44.44 168.408 45.688L168.384 46.216ZM162.288 40.744C161.072 40.744 160.048 41.136 159.216 41.92C158.4 42.688 157.936 43.696 157.824 44.944H166.776C166.664 43.696 166.192 42.688 165.36 41.92C164.544 41.136 163.52 40.744 162.288 40.744ZM196.685 39.376L191.909 52H190.301L186.317 41.656L182.333 52H180.725L175.973 39.376H177.605L181.565 50.104L185.621 39.376H187.085L191.117 50.104L195.125 39.376H196.685ZM209.891 46.216H199.331C199.427 47.528 199.931 48.592 200.843 49.408C201.755 50.208 202.907 50.608 204.299 50.608C205.083 50.608 205.803 50.472 206.459 50.2C207.115 49.912 207.683 49.496 208.163 48.952L209.123 50.056C208.563 50.728 207.859 51.24 207.011 51.592C206.179 51.944 205.259 52.12 204.251 52.12C202.955 52.12 201.803 51.848 200.795 51.304C199.803 50.744 199.027 49.976 198.467 49C197.907 48.024 197.627 46.92 197.627 45.688C197.627 44.456 197.891 43.352 198.419 42.376C198.963 41.4 199.699 40.64 200.627 40.096C201.571 39.552 202.627 39.28 203.795 39.28C204.963 39.28 206.011 39.552 206.939 40.096C207.867 40.64 208.595 41.4 209.123 42.376C209.651 43.336 209.915 44.44 209.915 45.688L209.891 46.216ZM203.795 40.744C202.579 40.744 201.555 41.136 200.723 41.92C199.907 42.688 199.443 43.696 199.331 44.944H208.283C208.171 43.696 207.699 42.688 206.867 41.92C206.051 41.136 205.027 40.744 203.795 40.744ZM224.345 45.664L221.369 48.4V52H219.665V34.192H221.369V46.264L228.905 39.376H231.017L225.617 44.536L231.521 52H229.433L224.345 45.664ZM240.324 39.28C241.908 39.28 243.164 39.744 244.092 40.672C245.036 41.584 245.508 42.92 245.508 44.68V52H243.804V44.848C243.804 43.536 243.476 42.536 242.82 41.848C242.164 41.16 241.228 40.816 240.012 40.816C238.652 40.816 237.572 41.224 236.772 42.04C235.988 42.84 235.596 43.952 235.596 45.376V52H233.892V39.376H235.524V41.704C235.988 40.936 236.628 40.344 237.444 39.928C238.276 39.496 239.236 39.28 240.324 39.28ZM261.173 46.216H250.613C250.709 47.528 251.213 48.592 252.125 49.408C253.037 50.208 254.189 50.608 255.581 50.608C256.365 50.608 257.085 50.472 257.741 50.2C258.397 49.912 258.965 49.496 259.445 48.952L260.405 50.056C259.845 50.728 259.141 51.24 258.293 51.592C257.461 51.944 256.541 52.12 255.533 52.12C254.237 52.12 253.085 51.848 252.077 51.304C251.085 50.744 250.309 49.976 249.749 49C249.189 48.024 248.909 46.92 248.909 45.688C248.909 44.456 249.173 43.352 249.701 42.376C250.245 41.4 250.981 40.64 251.909 40.096C252.853 39.552 253.909 39.28 255.077 39.28C256.245 39.28 257.293 39.552 258.221 40.096C259.149 40.64 259.877 41.4 260.405 42.376C260.933 43.336 261.197 44.44 261.197 45.688L261.173 46.216ZM255.077 40.744C253.861 40.744 252.837 41.136 252.005 41.92C251.189 42.688 250.725 43.696 250.613 44.944H259.565C259.453 43.696 258.981 42.688 258.149 41.92C257.333 41.136 256.309 40.744 255.077 40.744ZM282.959 39.376L278.183 52H276.575L272.591 41.656L268.607 52H266.999L262.247 39.376H263.879L267.839 50.104L271.895 39.376H273.359L277.391 50.104L281.399 39.376H282.959ZM291.806 39.376H293.51V52H291.806V39.376ZM292.67 36.616C292.318 36.616 292.022 36.496 291.782 36.256C291.542 36.016 291.422 35.728 291.422 35.392C291.422 35.072 291.542 34.792 291.782 34.552C292.022 34.312 292.318 34.192 292.67 34.192C293.022 34.192 293.318 34.312 293.558 34.552C293.798 34.776 293.918 35.048 293.918 35.368C293.918 35.72 293.798 36.016 293.558 36.256C293.318 36.496 293.022 36.616 292.67 36.616ZM304.899 51.232C304.579 51.52 304.179 51.744 303.699 51.904C303.235 52.048 302.747 52.12 302.235 52.12C301.051 52.12 300.139 51.8 299.499 51.16C298.859 50.52 298.539 49.616 298.539 48.448V40.816H296.283V39.376H298.539V36.616H300.243V39.376H304.083V40.816H300.243V48.352C300.243 49.104 300.427 49.68 300.795 50.08C301.179 50.464 301.723 50.656 302.427 50.656C302.779 50.656 303.115 50.6 303.435 50.488C303.771 50.376 304.059 50.216 304.299 50.008L304.899 51.232ZM308.427 49.504C308.795 49.504 309.099 49.632 309.339 49.888C309.579 50.128 309.699 50.432 309.699 50.8C309.699 50.992 309.667 51.2 309.603 51.424C309.555 51.648 309.475 51.904 309.363 52.192L308.355 55.504H307.203L308.019 52.024C307.763 51.944 307.555 51.8 307.395 51.592C307.235 51.368 307.155 51.104 307.155 50.8C307.155 50.432 307.275 50.128 307.515 49.888C307.755 49.632 308.059 49.504 308.427 49.504ZM338.131 39.376L333.355 52H331.747L327.763 41.656L323.779 52H322.171L317.419 39.376H319.051L323.011 50.104L327.067 39.376H328.531L332.563 50.104L336.571 39.376H338.131ZM351.337 46.216H340.777C340.873 47.528 341.377 48.592 342.289 49.408C343.201 50.208 344.353 50.608 345.745 50.608C346.529 50.608 347.249 50.472 347.905 50.2C348.561 49.912 349.129 49.496 349.609 48.952L350.569 50.056C350.009 50.728 349.305 51.24 348.457 51.592C347.625 51.944 346.705 52.12 345.697 52.12C344.401 52.12 343.249 51.848 342.241 51.304C341.249 50.744 340.473 49.976 339.913 49C339.353 48.024 339.073 46.92 339.073 45.688C339.073 44.456 339.337 43.352 339.865 42.376C340.409 41.4 341.145 40.64 342.073 40.096C343.017 39.552 344.073 39.28 345.241 39.28C346.409 39.28 347.457 39.552 348.385 40.096C349.313 40.64 350.041 41.4 350.569 42.376C351.097 43.336 351.361 44.44 351.361 45.688L351.337 46.216ZM345.241 40.744C344.025 40.744 343.001 41.136 342.169 41.92C341.353 42.688 340.889 43.696 340.777 44.944H349.729C349.617 43.696 349.145 42.688 348.313 41.92C347.497 41.136 346.473 40.744 345.241 40.744ZM367.542 39.28C369.126 39.28 370.382 39.744 371.31 40.672C372.254 41.584 372.726 42.92 372.726 44.68V52H371.022V44.848C371.022 43.536 370.694 42.536 370.038 41.848C369.382 41.16 368.446 40.816 367.23 40.816C365.87 40.816 364.79 41.224 363.99 42.04C363.206 42.84 362.814 43.952 362.814 45.376V52H361.11V34.192H362.814V41.584C363.278 40.848 363.918 40.28 364.734 39.88C365.55 39.48 366.486 39.28 367.542 39.28ZM381.769 39.28C383.417 39.28 384.681 39.696 385.561 40.528C386.441 41.344 386.881 42.56 386.881 44.176V52H385.249V50.032C384.865 50.688 384.297 51.2 383.545 51.568C382.809 51.936 381.929 52.12 380.905 52.12C379.497 52.12 378.377 51.784 377.545 51.112C376.713 50.44 376.297 49.552 376.297 48.448C376.297 47.376 376.681 46.512 377.449 45.856C378.233 45.2 379.473 44.872 381.169 44.872H385.177V44.104C385.177 43.016 384.873 42.192 384.265 41.632C383.657 41.056 382.769 40.768 381.601 40.768C380.801 40.768 380.033 40.904 379.297 41.176C378.561 41.432 377.929 41.792 377.401 42.256L376.633 40.984C377.273 40.44 378.041 40.024 378.937 39.736C379.833 39.432 380.777 39.28 381.769 39.28ZM381.169 50.776C382.129 50.776 382.953 50.56 383.641 50.128C384.329 49.68 384.841 49.04 385.177 48.208V46.144H381.217C379.057 46.144 377.977 46.896 377.977 48.4C377.977 49.136 378.257 49.72 378.817 50.152C379.377 50.568 380.161 50.776 381.169 50.776ZM403.076 34.192V52H401.444V49.504C400.932 50.352 400.252 51 399.404 51.448C398.572 51.896 397.628 52.12 396.572 52.12C395.388 52.12 394.316 51.848 393.356 51.304C392.396 50.76 391.644 50 391.1 49.024C390.556 48.048 390.284 46.936 390.284 45.688C390.284 44.44 390.556 43.328 391.1 42.352C391.644 41.376 392.396 40.624 393.356 40.096C394.316 39.552 395.388 39.28 396.572 39.28C397.596 39.28 398.516 39.496 399.332 39.928C400.164 40.344 400.844 40.96 401.372 41.776V34.192H403.076ZM396.716 50.608C397.596 50.608 398.388 50.408 399.092 50.008C399.812 49.592 400.372 49.008 400.772 48.256C401.188 47.504 401.396 46.648 401.396 45.688C401.396 44.728 401.188 43.872 400.772 43.12C400.372 42.368 399.812 41.792 399.092 41.392C398.388 40.976 397.596 40.768 396.716 40.768C395.82 40.768 395.012 40.976 394.292 41.392C393.588 41.792 393.028 42.368 392.612 43.12C392.212 43.872 392.012 44.728 392.012 45.688C392.012 46.648 392.212 47.504 392.612 48.256C393.028 49.008 393.588 49.592 394.292 50.008C395.012 50.408 395.82 50.608 396.716 50.608ZM414.103 34.192H415.807V52H414.103V34.192ZM431.54 46.216H420.98C421.076 47.528 421.58 48.592 422.492 49.408C423.404 50.208 424.556 50.608 425.948 50.608C426.732 50.608 427.452 50.472 428.108 50.2C428.764 49.912 429.332 49.496 429.812 48.952L430.772 50.056C430.212 50.728 429.508 51.24 428.66 51.592C427.828 51.944 426.908 52.12 425.9 52.12C424.604 52.12 423.452 51.848 422.444 51.304C421.452 50.744 420.676 49.976 420.116 49C419.556 48.024 419.276 46.92 419.276 45.688C419.276 44.456 419.54 43.352 420.068 42.376C420.612 41.4 421.348 40.64 422.276 40.096C423.22 39.552 424.276 39.28 425.444 39.28C426.612 39.28 427.66 39.552 428.588 40.096C429.516 40.64 430.244 41.4 430.772 42.376C431.3 43.336 431.564 44.44 431.564 45.688L431.54 46.216ZM425.444 40.744C424.228 40.744 423.204 41.136 422.372 41.92C421.556 42.688 421.092 43.696 420.98 44.944H429.932C429.82 43.696 429.348 42.688 428.516 41.92C427.7 41.136 426.676 40.744 425.444 40.744ZM439.208 35.512C438.472 35.512 437.912 35.712 437.528 36.112C437.16 36.512 436.976 37.104 436.976 37.888V39.376H440.864V40.816H437.024V52H435.32V40.816H433.064V39.376H435.32V37.816C435.32 36.664 435.648 35.752 436.304 35.08C436.976 34.408 437.92 34.072 439.136 34.072C439.616 34.072 440.08 34.144 440.528 34.288C440.976 34.416 441.352 34.608 441.656 34.864L441.08 36.136C440.584 35.72 439.96 35.512 439.208 35.512ZM449.813 51.232C449.493 51.52 449.093 51.744 448.613 51.904C448.149 52.048 447.661 52.12 447.149 52.12C445.965 52.12 445.053 51.8 444.413 51.16C443.773 50.52 443.453 49.616 443.453 48.448V40.816H441.197V39.376H443.453V36.616H445.157V39.376H448.997V40.816H445.157V48.352C445.157 49.104 445.341 49.68 445.709 50.08C446.093 50.464 446.637 50.656 447.341 50.656C447.693 50.656 448.029 50.6 448.349 50.488C448.685 50.376 448.973 50.216 449.213 50.008L449.813 51.232ZM465.844 51.232C465.524 51.52 465.124 51.744 464.644 51.904C464.18 52.048 463.692 52.12 463.18 52.12C461.996 52.12 461.084 51.8 460.444 51.16C459.804 50.52 459.484 49.616 459.484 48.448V40.816H457.228V39.376H459.484V36.616H461.188V39.376H465.028V40.816H461.188V48.352C461.188 49.104 461.372 49.68 461.74 50.08C462.124 50.464 462.668 50.656 463.372 50.656C463.724 50.656 464.06 50.6 464.38 50.488C464.716 50.376 465.004 50.216 465.244 50.008L465.844 51.232ZM475.378 39.28C476.962 39.28 478.218 39.744 479.146 40.672C480.09 41.584 480.562 42.92 480.562 44.68V52H478.858V44.848C478.858 43.536 478.53 42.536 477.874 41.848C477.218 41.16 476.282 40.816 475.066 40.816C473.706 40.816 472.626 41.224 471.826 42.04C471.042 42.84 470.65 43.952 470.65 45.376V52H468.946V34.192H470.65V41.584C471.114 40.848 471.754 40.28 472.57 39.88C473.386 39.48 474.322 39.28 475.378 39.28ZM496.227 46.216H485.667C485.763 47.528 486.267 48.592 487.179 49.408C488.091 50.208 489.243 50.608 490.635 50.608C491.419 50.608 492.139 50.472 492.795 50.2C493.451 49.912 494.019 49.496 494.499 48.952L495.459 50.056C494.899 50.728 494.195 51.24 493.347 51.592C492.515 51.944 491.595 52.12 490.587 52.12C489.291 52.12 488.139 51.848 487.131 51.304C486.139 50.744 485.363 49.976 484.803 49C484.243 48.024 483.963 46.92 483.963 45.688C483.963 44.456 484.227 43.352 484.755 42.376C485.299 41.4 486.035 40.64 486.963 40.096C487.907 39.552 488.963 39.28 490.131 39.28C491.299 39.28 492.347 39.552 493.275 40.096C494.203 40.64 494.931 41.4 495.459 42.376C495.987 43.336 496.251 44.44 496.251 45.688L496.227 46.216ZM490.131 40.744C488.915 40.744 487.891 41.136 487.059 41.92C486.243 42.688 485.779 43.696 485.667 44.944H494.619C494.507 43.696 494.035 42.688 493.203 41.92C492.387 41.136 491.363 40.744 490.131 40.744ZM517.689 39.376V50.464C517.689 52.608 517.161 54.192 516.105 55.216C515.065 56.256 513.489 56.776 511.377 56.776C510.209 56.776 509.097 56.6 508.041 56.248C507.001 55.912 506.153 55.44 505.497 54.832L506.361 53.536C506.969 54.08 507.705 54.504 508.569 54.808C509.449 55.112 510.369 55.264 511.329 55.264C512.929 55.264 514.105 54.888 514.857 54.136C515.609 53.4 515.985 52.248 515.985 50.68V49.072C515.457 49.872 514.761 50.48 513.897 50.896C513.049 51.312 512.105 51.52 511.065 51.52C509.881 51.52 508.801 51.264 507.825 50.752C506.865 50.224 506.105 49.496 505.545 48.568C505.001 47.624 504.729 46.56 504.729 45.376C504.729 44.192 505.001 43.136 505.545 42.208C506.105 41.28 506.865 40.56 507.825 40.048C508.785 39.536 509.865 39.28 511.065 39.28C512.137 39.28 513.105 39.496 513.969 39.928C514.833 40.36 515.529 40.984 516.057 41.8V39.376H517.689ZM511.233 50.008C512.145 50.008 512.969 49.816 513.705 49.432C514.441 49.032 515.009 48.48 515.409 47.776C515.825 47.072 516.033 46.272 516.033 45.376C516.033 44.48 515.825 43.688 515.409 43C515.009 42.296 514.441 41.752 513.705 41.368C512.985 40.968 512.161 40.768 511.233 40.768C510.321 40.768 509.497 40.96 508.761 41.344C508.041 41.728 507.473 42.272 507.057 42.976C506.657 43.68 506.457 44.48 506.457 45.376C506.457 46.272 506.657 47.072 507.057 47.776C507.473 48.48 508.041 49.032 508.761 49.432C509.497 49.816 510.321 50.008 511.233 50.008ZM524.086 41.848C524.486 41 525.078 40.36 525.862 39.928C526.662 39.496 527.646 39.28 528.814 39.28V40.936L528.406 40.912C527.078 40.912 526.038 41.32 525.286 42.136C524.534 42.952 524.158 44.096 524.158 45.568V52H522.454V39.376H524.086V41.848ZM536.942 52.12C535.726 52.12 534.63 51.848 533.654 51.304C532.678 50.744 531.91 49.976 531.35 49C530.79 48.024 530.51 46.92 530.51 45.688C530.51 44.456 530.79 43.352 531.35 42.376C531.91 41.4 532.678 40.64 533.654 40.096C534.63 39.552 535.726 39.28 536.942 39.28C538.158 39.28 539.254 39.552 540.23 40.096C541.206 40.64 541.966 41.4 542.51 42.376C543.07 43.352 543.35 44.456 543.35 45.688C543.35 46.92 543.07 48.024 542.51 49C541.966 49.976 541.206 50.744 540.23 51.304C539.254 51.848 538.158 52.12 536.942 52.12ZM536.942 50.608C537.838 50.608 538.638 50.408 539.342 50.008C540.062 49.592 540.622 49.008 541.022 48.256C541.422 47.504 541.622 46.648 541.622 45.688C541.622 44.728 541.422 43.872 541.022 43.12C540.622 42.368 540.062 41.792 539.342 41.392C538.638 40.976 537.838 40.768 536.942 40.768C536.046 40.768 535.238 40.976 534.518 41.392C533.814 41.792 533.254 42.368 532.838 43.12C532.438 43.872 532.238 44.728 532.238 45.688C532.238 46.648 532.438 47.504 532.838 48.256C533.254 49.008 533.814 49.592 534.518 50.008C535.238 50.408 536.046 50.608 536.942 50.608ZM558.205 39.376V52H556.573V49.696C556.125 50.464 555.509 51.064 554.725 51.496C553.941 51.912 553.045 52.12 552.037 52.12C550.389 52.12 549.085 51.664 548.125 50.752C547.181 49.824 546.709 48.472 546.709 46.696V39.376H548.413V46.528C548.413 47.856 548.741 48.864 549.397 49.552C550.053 50.24 550.989 50.584 552.205 50.584C553.533 50.584 554.581 50.184 555.349 49.384C556.117 48.568 556.501 47.44 556.501 46V39.376H558.205ZM569.41 39.28C570.994 39.28 572.25 39.744 573.178 40.672C574.122 41.584 574.594 42.92 574.594 44.68V52H572.89V44.848C572.89 43.536 572.562 42.536 571.906 41.848C571.25 41.16 570.314 40.816 569.098 40.816C567.738 40.816 566.658 41.224 565.858 42.04C565.074 42.84 564.682 43.952 564.682 45.376V52H562.978V39.376H564.61V41.704C565.074 40.936 565.714 40.344 566.53 39.928C567.362 39.496 568.322 39.28 569.41 39.28ZM590.787 34.192V52H589.155V49.504C588.643 50.352 587.963 51 587.115 51.448C586.283 51.896 585.339 52.12 584.283 52.12C583.099 52.12 582.027 51.848 581.067 51.304C580.107 50.76 579.355 50 578.811 49.024C578.267 48.048 577.995 46.936 577.995 45.688C577.995 44.44 578.267 43.328 578.811 42.352C579.355 41.376 580.107 40.624 581.067 40.096C582.027 39.552 583.099 39.28 584.283 39.28C585.307 39.28 586.227 39.496 587.043 39.928C587.875 40.344 588.555 40.96 589.083 41.776V34.192H590.787ZM584.427 50.608C585.307 50.608 586.099 50.408 586.803 50.008C587.523 49.592 588.083 49.008 588.483 48.256C588.899 47.504 589.107 46.648 589.107 45.688C589.107 44.728 588.899 43.872 588.483 43.12C588.083 42.368 587.523 41.792 586.803 41.392C586.099 40.976 585.307 40.768 584.427 40.768C583.531 40.768 582.723 40.976 582.003 41.392C581.299 41.792 580.739 42.368 580.323 43.12C579.923 43.872 579.723 44.728 579.723 45.688C579.723 46.648 579.923 47.504 580.323 48.256C580.739 49.008 581.299 49.592 582.003 50.008C582.723 50.408 583.531 50.608 584.427 50.608ZM595.7 52.12C595.348 52.12 595.044 51.992 594.788 51.736C594.548 51.48 594.428 51.168 594.428 50.8C594.428 50.432 594.548 50.128 594.788 49.888C595.044 49.632 595.348 49.504 595.7 49.504C596.052 49.504 596.356 49.632 596.612 49.888C596.868 50.128 596.996 50.432 596.996 50.8C596.996 51.168 596.868 51.48 596.612 51.736C596.356 51.992 596.052 52.12 595.7 52.12Z" fill="black"/>
</svg>
