<svg width="607" height="60" viewBox="0 0 607 60" fill="none" xmlns="http://www.w3.org/2000/svg">
<rect width="607" height="60" fill="white" fill-opacity="0.13"/>
<rect x="2" width="605" height="59.9829" fill="white"/>
<path d="M18.896 10.952C18.896 12.664 18.44 14.072 17.528 15.176C16.632 16.264 15.368 17 13.736 17.384L16.904 23H14.984L11.96 17.648C11.784 17.664 11.496 17.672 11.096 17.672H6.32L5.264 23H3.488L6.848 6.2H12.896C14.8 6.2 16.272 6.616 17.312 7.448C18.368 8.28 18.896 9.448 18.896 10.952ZM11.144 16.136C13.064 16.136 14.536 15.712 15.56 14.864C16.6 14.016 17.12 12.768 17.12 11.12C17.12 10.016 16.744 9.176 15.992 8.6C15.24 8.024 14.168 7.736 12.776 7.736H8.312L6.608 16.136H11.144ZM22.0558 17.168C22.0398 17.28 22.0318 17.448 22.0318 17.672C22.0318 18.952 22.3918 19.928 23.1118 20.6C23.8478 21.272 24.9358 21.608 26.3758 21.608C27.2078 21.608 27.9838 21.472 28.7038 21.2C29.4398 20.912 30.0398 20.52 30.5038 20.024L31.2718 21.248C30.6798 21.84 29.9358 22.304 29.0398 22.64C28.1598 22.96 27.2238 23.12 26.2318 23.12C24.4078 23.12 22.9678 22.64 21.9118 21.68C20.8718 20.72 20.3518 19.408 20.3518 17.744C20.3518 16.336 20.6478 15.064 21.2398 13.928C21.8478 12.792 22.6798 11.904 23.7358 11.264C24.8078 10.608 26.0078 10.28 27.3358 10.28C29.0158 10.28 30.3518 10.76 31.3438 11.72C32.3358 12.664 32.8318 13.968 32.8318 15.632C32.8318 16.096 32.7758 16.608 32.6638 17.168H22.0558ZM27.2878 11.72C26.0238 11.72 24.9438 12.096 24.0478 12.848C23.1518 13.6 22.5438 14.616 22.2238 15.896H31.2238C31.2398 15.784 31.2478 15.632 31.2478 15.44C31.2478 14.256 30.8878 13.344 30.1678 12.704C29.4478 12.048 28.4878 11.72 27.2878 11.72ZM49.1641 10.376L46.9561 21.464C46.5241 23.672 45.7081 25.272 44.5081 26.264C43.3241 27.272 41.6921 27.776 39.6121 27.776C38.4281 27.776 37.3561 27.608 36.3961 27.272C35.4521 26.952 34.6521 26.488 33.9961 25.88L35.0041 24.584C35.5161 25.112 36.1801 25.52 36.9961 25.808C37.8281 26.112 38.7401 26.264 39.7321 26.264C41.3161 26.264 42.5481 25.896 43.4281 25.16C44.3081 24.424 44.9001 23.288 45.2041 21.752L45.4921 20.36C44.8841 21.048 44.1481 21.584 43.2841 21.968C42.4361 22.336 41.4921 22.52 40.4521 22.52C38.7721 22.52 37.4201 22.064 36.3961 21.152C35.3881 20.24 34.8841 19 34.8841 17.432C34.8841 16.088 35.1881 14.872 35.7961 13.784C36.4201 12.696 37.2761 11.84 38.3641 11.216C39.4681 10.592 40.7081 10.28 42.0841 10.28C43.2841 10.28 44.3161 10.528 45.1801 11.024C46.0441 11.504 46.6521 12.216 47.0041 13.16L47.5321 10.376H49.1641ZM40.7881 21.008C41.8281 21.008 42.7641 20.768 43.5961 20.288C44.4441 19.808 45.1001 19.144 45.5641 18.296C46.0441 17.448 46.2841 16.496 46.2841 15.44C46.2841 14.288 45.9161 13.392 45.1801 12.752C44.4441 12.096 43.4201 11.768 42.1081 11.768C41.0521 11.768 40.1081 12.008 39.2761 12.488C38.4441 12.968 37.7881 13.632 37.3081 14.48C36.8441 15.328 36.6121 16.28 36.6121 17.336C36.6121 18.488 36.9801 19.392 37.7161 20.048C38.4521 20.688 39.4761 21.008 40.7881 21.008ZM65.3053 10.376L62.7853 23H61.1533L61.5613 20.984C60.3773 22.408 58.7533 23.12 56.6893 23.12C55.2813 23.12 54.1773 22.76 53.3773 22.04C52.5933 21.304 52.2013 20.288 52.2013 18.992C52.2013 18.544 52.2493 18.072 52.3453 17.576L53.7853 10.376H55.4893L54.0493 17.576C53.9693 18.024 53.9293 18.4 53.9293 18.704C53.9293 19.632 54.1933 20.344 54.7213 20.84C55.2653 21.336 56.0733 21.584 57.1453 21.584C58.4893 21.584 59.6013 21.208 60.4813 20.456C61.3613 19.704 61.9533 18.608 62.2573 17.168L63.6013 10.376H65.3053ZM71.1097 5.192H72.8137L69.2617 23H67.5577L71.1097 5.192ZM88.043 10.376L85.523 23H83.891L84.299 21.008C83.691 21.68 82.971 22.2 82.139 22.568C81.307 22.936 80.387 23.12 79.379 23.12C78.307 23.12 77.355 22.904 76.523 22.472C75.691 22.04 75.043 21.424 74.579 20.624C74.115 19.808 73.883 18.856 73.883 17.768C73.883 16.344 74.187 15.064 74.795 13.928C75.419 12.792 76.275 11.904 77.363 11.264C78.451 10.608 79.667 10.28 81.011 10.28C82.211 10.28 83.219 10.52 84.035 11C84.851 11.464 85.443 12.136 85.811 13.016L86.339 10.376H88.043ZM79.739 21.608C80.779 21.608 81.715 21.36 82.547 20.864C83.379 20.352 84.027 19.648 84.491 18.752C84.971 17.84 85.211 16.824 85.211 15.704C85.211 14.472 84.843 13.512 84.107 12.824C83.387 12.12 82.371 11.768 81.059 11.768C80.019 11.768 79.083 12.024 78.251 12.536C77.419 13.048 76.763 13.76 76.283 14.672C75.819 15.568 75.587 16.576 75.587 17.696C75.587 18.928 75.947 19.888 76.667 20.576C77.403 21.264 78.427 21.608 79.739 21.608ZM93.9646 12.68C94.5246 11.864 95.2286 11.264 96.0766 10.88C96.9246 10.48 97.9486 10.28 99.1486 10.28L98.8366 11.936L98.3566 11.912C96.9966 11.912 95.8766 12.304 94.9966 13.088C94.1326 13.872 93.5486 15.04 93.2446 16.592L91.9726 23H90.2686L92.7646 10.376H94.3966L93.9646 12.68ZM109.903 6.2H111.655L108.295 23H106.543L109.903 6.2ZM116.161 19.184C116.097 19.568 116.065 19.832 116.065 19.976C116.065 21.096 116.673 21.656 117.889 21.656C118.609 21.656 119.257 21.44 119.833 21.008L120.241 22.304C119.521 22.848 118.585 23.12 117.433 23.12C116.489 23.12 115.737 22.864 115.177 22.352C114.633 21.84 114.361 21.136 114.361 20.24C114.361 19.888 114.393 19.56 114.457 19.256L115.921 11.816H113.689L113.953 10.376H116.209L116.761 7.616H118.465L117.913 10.376H121.753L121.465 11.816H117.625L116.161 19.184ZM136.77 10.376L134.25 23H132.618L133.026 21.008C132.418 21.68 131.698 22.2 130.866 22.568C130.034 22.936 129.114 23.12 128.106 23.12C127.034 23.12 126.082 22.904 125.25 22.472C124.418 22.04 123.77 21.424 123.306 20.624C122.842 19.808 122.61 18.856 122.61 17.768C122.61 16.344 122.914 15.064 123.522 13.928C124.146 12.792 125.002 11.904 126.09 11.264C127.178 10.608 128.394 10.28 129.738 10.28C130.938 10.28 131.946 10.52 132.762 11C133.578 11.464 134.17 12.136 134.538 13.016L135.066 10.376H136.77ZM128.466 21.608C129.506 21.608 130.442 21.36 131.274 20.864C132.106 20.352 132.754 19.648 133.218 18.752C133.698 17.84 133.938 16.824 133.938 15.704C133.938 14.472 133.57 13.512 132.834 12.824C132.114 12.12 131.098 11.768 129.786 11.768C128.746 11.768 127.81 12.024 126.978 12.536C126.146 13.048 125.49 13.76 125.01 14.672C124.546 15.568 124.314 16.576 124.314 17.696C124.314 18.928 124.674 19.888 125.394 20.576C126.13 21.264 127.154 21.608 128.466 21.608ZM142.547 5.192H144.251L140.699 23H138.995L142.547 5.192ZM147.937 10.376H149.641L147.145 23H145.441L147.937 10.376ZM149.521 7.616C149.185 7.616 148.905 7.504 148.681 7.28C148.473 7.056 148.369 6.792 148.369 6.488C148.369 6.12 148.489 5.816 148.729 5.576C148.985 5.32 149.305 5.192 149.689 5.192C150.025 5.192 150.305 5.304 150.529 5.528C150.753 5.736 150.865 5.984 150.865 6.272C150.865 6.656 150.737 6.976 150.48 7.232C150.225 7.488 149.905 7.616 149.521 7.616ZM157.598 23.12C156.414 23.12 155.382 22.904 154.502 22.472C153.622 22.024 152.942 21.4 152.462 20.6C151.998 19.784 151.766 18.84 151.766 17.768C151.766 16.344 152.078 15.064 152.702 13.928C153.326 12.792 154.198 11.904 155.318 11.264C156.438 10.608 157.702 10.28 159.11 10.28C160.278 10.28 161.278 10.496 162.11 10.928C162.958 11.344 163.614 11.968 164.078 12.8L162.638 13.64C161.918 12.392 160.694 11.768 158.966 11.768C157.926 11.768 156.982 12.024 156.134 12.536C155.302 13.048 154.646 13.752 154.166 14.648C153.702 15.544 153.47 16.56 153.47 17.696C153.47 18.928 153.83 19.888 154.55 20.576C155.286 21.264 156.326 21.608 157.67 21.608C158.486 21.608 159.238 21.456 159.926 21.152C160.63 20.832 161.206 20.376 161.654 19.784L162.878 20.72C162.318 21.472 161.566 22.064 160.622 22.496C159.694 22.912 158.686 23.12 157.598 23.12ZM185.731 18.584H182.347L181.459 23H179.731L180.619 18.584H171.163L171.403 17.336L182.395 6.2H184.435L173.779 17.048H180.979L181.771 13.16H183.427L182.659 17.048H186.019L185.731 18.584ZM193.318 23.144C191.606 23.144 190.262 22.608 189.286 21.536C188.326 20.464 187.846 18.976 187.846 17.072C187.846 15.152 188.19 13.352 188.878 11.672C189.566 9.976 190.55 8.616 191.83 7.592C193.11 6.568 194.582 6.056 196.246 6.056C197.958 6.056 199.294 6.592 200.254 7.664C201.23 8.736 201.718 10.224 201.718 12.128C201.718 14.048 201.374 15.856 200.686 17.552C199.998 19.232 199.014 20.584 197.734 21.608C196.454 22.632 194.982 23.144 193.318 23.144ZM193.462 21.56C194.774 21.56 195.926 21.096 196.918 20.168C197.91 19.224 198.662 18.024 199.174 16.568C199.702 15.112 199.966 13.64 199.966 12.152C199.966 10.696 199.622 9.584 198.934 8.816C198.262 8.032 197.318 7.64 196.102 7.64C194.79 7.64 193.638 8.112 192.646 9.056C191.654 9.984 190.894 11.176 190.366 12.632C189.854 14.088 189.598 15.56 189.598 17.048C189.598 18.504 189.934 19.624 190.606 20.408C191.294 21.176 192.246 21.56 193.462 21.56ZM209.208 23.144C207.496 23.144 206.152 22.608 205.176 21.536C204.216 20.464 203.736 18.976 203.736 17.072C203.736 15.152 204.08 13.352 204.768 11.672C205.456 9.976 206.44 8.616 207.72 7.592C209 6.568 210.472 6.056 212.136 6.056C213.848 6.056 215.184 6.592 216.144 7.664C217.12 8.736 217.608 10.224 217.608 12.128C217.608 14.048 217.264 15.856 216.576 17.552C215.888 19.232 214.904 20.584 213.624 21.608C212.344 22.632 210.872 23.144 209.208 23.144ZM209.352 21.56C210.664 21.56 211.816 21.096 212.808 20.168C213.8 19.224 214.552 18.024 215.064 16.568C215.592 15.112 215.856 13.64 215.856 12.152C215.856 10.696 215.512 9.584 214.824 8.816C214.152 8.032 213.208 7.64 211.992 7.64C210.68 7.64 209.528 8.112 208.536 9.056C207.544 9.984 206.784 11.176 206.256 12.632C205.744 14.088 205.488 15.56 205.488 17.048C205.488 18.504 205.824 19.624 206.496 20.408C207.184 21.176 208.136 21.56 209.352 21.56ZM15.008 47.512H5.624L2.72 52H0.8L11.84 35.2H13.592L17.912 52H16.136L15.008 47.512ZM14.672 46.072L12.392 37L6.536 46.072H14.672ZM23.8831 34.192H25.5871L22.0351 52H20.3311L23.8831 34.192ZM44.7284 39.28C46.1524 39.28 47.2484 39.64 48.0164 40.36C48.8004 41.064 49.1924 42.056 49.1924 43.336C49.1924 43.704 49.1364 44.2 49.0244 44.824L47.5844 52H45.8804L47.3204 44.8C47.4004 44.432 47.4404 44.04 47.4404 43.624C47.4404 42.728 47.1764 42.04 46.6484 41.56C46.1204 41.064 45.3444 40.816 44.3204 40.816C43.0404 40.816 41.9764 41.176 41.1284 41.896C40.2804 42.6 39.7124 43.648 39.4244 45.04L38.0324 52H36.3284L37.7684 44.8C37.8484 44.352 37.8884 43.968 37.8884 43.648C37.8884 42.736 37.6244 42.04 37.0964 41.56C36.5844 41.064 35.8084 40.816 34.7684 40.816C33.4724 40.816 32.4004 41.192 31.5524 41.944C30.7044 42.68 30.1284 43.776 29.8244 45.232L28.4804 52H26.7764L29.2724 39.376H30.9044L30.4964 41.392C31.6484 39.984 33.2404 39.28 35.2724 39.28C36.3284 39.28 37.2084 39.496 37.9124 39.928C38.6324 40.36 39.1284 40.984 39.4004 41.8C40.0244 40.968 40.7844 40.344 41.6804 39.928C42.5924 39.496 43.6084 39.28 44.7284 39.28ZM57.8924 52.12C56.7404 52.12 55.7324 51.904 54.8684 51.472C54.0044 51.024 53.3324 50.4 52.8524 49.6C52.3884 48.784 52.1564 47.84 52.1564 46.768C52.1564 45.344 52.4684 44.064 53.0924 42.928C53.7164 41.792 54.5804 40.904 55.6844 40.264C56.8044 39.608 58.0604 39.28 59.4524 39.28C61.2124 39.28 62.6044 39.76 63.6284 40.72C64.6684 41.68 65.1884 42.976 65.1884 44.608C65.1884 46.032 64.8764 47.32 64.2524 48.472C63.6284 49.608 62.7564 50.504 61.6364 51.16C60.5324 51.8 59.2844 52.12 57.8924 52.12ZM58.0124 50.608C59.0524 50.608 59.9884 50.36 60.8204 49.864C61.6524 49.352 62.3004 48.648 62.7644 47.752C63.2444 46.84 63.4844 45.824 63.4844 44.704C63.4844 43.472 63.1164 42.512 62.3804 41.824C61.6604 41.12 60.6444 40.768 59.3324 40.768C58.2924 40.768 57.3564 41.024 56.5244 41.536C55.6924 42.048 55.0364 42.76 54.5564 43.672C54.0924 44.568 53.8604 45.576 53.8604 46.696C53.8604 47.928 54.2204 48.888 54.9404 49.576C55.6764 50.264 56.7004 50.608 58.0124 50.608ZM70.9953 52.12C69.9873 52.12 69.0193 51.976 68.0913 51.688C67.1793 51.4 66.4753 51.032 65.9793 50.584L66.7953 49.24C67.2753 49.656 67.9073 49.992 68.6913 50.248C69.4753 50.504 70.2993 50.632 71.1633 50.632C72.3633 50.632 73.2833 50.44 73.9233 50.056C74.5793 49.656 74.9073 49.096 74.9073 48.376C74.9073 47.976 74.7713 47.656 74.4993 47.416C74.2433 47.176 73.9233 46.992 73.5393 46.864C73.1553 46.736 72.5953 46.592 71.8593 46.432C70.9793 46.24 70.2673 46.048 69.7233 45.856C69.1793 45.664 68.7153 45.36 68.3313 44.944C67.9473 44.528 67.7553 43.952 67.7553 43.216C67.7553 42.016 68.2513 41.064 69.2433 40.36C70.2353 39.64 71.5633 39.28 73.2273 39.28C74.0433 39.28 74.8353 39.392 75.6033 39.616C76.3873 39.824 77.0193 40.104 77.4993 40.456L76.7793 41.824C76.2993 41.472 75.7313 41.208 75.0753 41.032C74.4353 40.84 73.7713 40.744 73.0833 40.744C71.9313 40.744 71.0353 40.952 70.3953 41.368C69.7553 41.784 69.4353 42.344 69.4353 43.048C69.4353 43.464 69.5713 43.8 69.8433 44.056C70.1153 44.312 70.4513 44.504 70.8513 44.632C71.2673 44.76 71.8273 44.896 72.5313 45.04C73.3953 45.232 74.0913 45.424 74.6193 45.616C75.1633 45.792 75.6273 46.088 76.0113 46.504C76.3953 46.92 76.5873 47.48 76.5873 48.184C76.5873 49.416 76.0753 50.384 75.0513 51.088C74.0433 51.776 72.6913 52.12 70.9953 52.12ZM81.8015 48.184C81.7375 48.568 81.7055 48.832 81.7055 48.976C81.7055 50.096 82.3135 50.656 83.5295 50.656C84.2495 50.656 84.8975 50.44 85.4735 50.008L85.8815 51.304C85.1615 51.848 84.2255 52.12 83.0735 52.12C82.1295 52.12 81.3775 51.864 80.8175 51.352C80.2735 50.84 80.0015 50.136 80.0015 49.24C80.0015 48.888 80.0335 48.56 80.0975 48.256L81.5615 40.816H79.3295L79.5935 39.376H81.8495L82.4015 36.616H84.1055L83.5535 39.376H87.3935L87.1055 40.816H83.2655L81.8015 48.184ZM103.737 39.28C104.809 39.28 105.761 39.496 106.593 39.928C107.441 40.36 108.097 40.976 108.561 41.776C109.025 42.576 109.257 43.52 109.257 44.608C109.257 46.032 108.945 47.32 108.321 48.472C107.713 49.608 106.865 50.504 105.777 51.16C104.689 51.8 103.465 52.12 102.105 52.12C100.889 52.12 99.8648 51.872 99.0328 51.376C98.2168 50.88 97.6328 50.168 97.2808 49.24L96.7288 52H95.0968L98.6488 34.192H100.353L98.9368 41.272C99.5448 40.632 100.249 40.144 101.049 39.808C101.865 39.456 102.761 39.28 103.737 39.28ZM102.081 50.608C103.121 50.608 104.049 50.36 104.865 49.864C105.697 49.352 106.345 48.648 106.809 47.752C107.289 46.856 107.529 45.84 107.529 44.704C107.529 43.472 107.161 42.512 106.425 41.824C105.705 41.12 104.689 40.768 103.377 40.768C102.337 40.768 101.401 41.024 100.569 41.536C99.7528 42.032 99.1048 42.736 98.6248 43.648C98.1608 44.544 97.9288 45.56 97.9288 46.696C97.9288 47.928 98.2888 48.888 99.0088 49.576C99.7448 50.264 100.769 50.608 102.081 50.608ZM112.946 46.168C112.93 46.28 112.922 46.448 112.922 46.672C112.922 47.952 113.282 48.928 114.002 49.6C114.738 50.272 115.826 50.608 117.266 50.608C118.098 50.608 118.874 50.472 119.594 50.2C120.33 49.912 120.93 49.52 121.394 49.024L122.162 50.248C121.57 50.84 120.826 51.304 119.93 51.64C119.05 51.96 118.114 52.12 117.122 52.12C115.298 52.12 113.858 51.64 112.802 50.68C111.762 49.72 111.242 48.408 111.242 46.744C111.242 45.336 111.538 44.064 112.13 42.928C112.738 41.792 113.57 40.904 114.626 40.264C115.698 39.608 116.898 39.28 118.226 39.28C119.906 39.28 121.242 39.76 122.234 40.72C123.226 41.664 123.722 42.968 123.722 44.632C123.722 45.096 123.666 45.608 123.554 46.168H112.946ZM118.178 40.72C116.914 40.72 115.834 41.096 114.938 41.848C114.042 42.6 113.434 43.616 113.114 44.896H122.114C122.13 44.784 122.138 44.632 122.138 44.44C122.138 43.256 121.778 42.344 121.058 41.704C120.338 41.048 119.378 40.72 118.178 40.72ZM133.287 35.512C132.535 35.512 131.943 35.712 131.511 36.112C131.079 36.512 130.775 37.136 130.599 37.984L130.311 39.376H134.175L133.887 40.816H130.071L127.839 52H126.135L128.367 40.816H126.111L126.375 39.376H128.655L128.967 37.792C129.207 36.592 129.687 35.672 130.407 35.032C131.143 34.392 132.103 34.072 133.287 34.072C133.799 34.072 134.279 34.144 134.727 34.288C135.175 34.432 135.543 34.632 135.831 34.888L135.087 36.136C134.623 35.72 134.023 35.512 133.287 35.512ZM139.385 52.12C138.233 52.12 137.225 51.904 136.361 51.472C135.497 51.024 134.825 50.4 134.345 49.6C133.881 48.784 133.649 47.84 133.649 46.768C133.649 45.344 133.961 44.064 134.585 42.928C135.209 41.792 136.073 40.904 137.177 40.264C138.297 39.608 139.553 39.28 140.945 39.28C142.705 39.28 144.097 39.76 145.121 40.72C146.161 41.68 146.681 42.976 146.681 44.608C146.681 46.032 146.369 47.32 145.745 48.472C145.121 49.608 144.249 50.504 143.129 51.16C142.025 51.8 140.777 52.12 139.385 52.12ZM139.505 50.608C140.545 50.608 141.481 50.36 142.313 49.864C143.145 49.352 143.793 48.648 144.257 47.752C144.737 46.84 144.977 45.824 144.977 44.704C144.977 43.472 144.609 42.512 143.873 41.824C143.153 41.12 142.137 40.768 140.825 40.768C139.785 40.768 138.849 41.024 138.017 41.536C137.185 42.048 136.529 42.76 136.049 43.672C135.585 44.568 135.353 45.576 135.353 46.696C135.353 47.928 135.713 48.888 136.433 49.576C137.169 50.264 138.193 50.608 139.505 50.608ZM152.512 41.68C153.072 40.864 153.776 40.264 154.624 39.88C155.472 39.48 156.496 39.28 157.696 39.28L157.384 40.936L156.904 40.912C155.544 40.912 154.424 41.304 153.544 42.088C152.68 42.872 152.096 44.04 151.792 45.592L150.52 52H148.816L151.312 39.376H152.944L152.512 41.68ZM159.728 46.168C159.712 46.28 159.704 46.448 159.704 46.672C159.704 47.952 160.064 48.928 160.784 49.6C161.52 50.272 162.608 50.608 164.048 50.608C164.88 50.608 165.656 50.472 166.376 50.2C167.112 49.912 167.712 49.52 168.176 49.024L168.944 50.248C168.352 50.84 167.608 51.304 166.712 51.64C165.832 51.96 164.896 52.12 163.904 52.12C162.08 52.12 160.64 51.64 159.584 50.68C158.544 49.72 158.024 48.408 158.024 46.744C158.024 45.336 158.32 44.064 158.912 42.928C159.52 41.792 160.352 40.904 161.408 40.264C162.48 39.608 163.68 39.28 165.008 39.28C166.688 39.28 168.024 39.76 169.016 40.72C170.008 41.664 170.504 42.968 170.504 44.632C170.504 45.096 170.448 45.608 170.336 46.168H159.728ZM164.96 40.72C163.696 40.72 162.616 41.096 161.72 41.848C160.824 42.6 160.216 43.616 159.896 44.896H168.896C168.912 44.784 168.92 44.632 168.92 44.44C168.92 43.256 168.56 42.344 167.84 41.704C167.12 41.048 166.16 40.72 164.96 40.72ZM200.053 39.376L192.925 52H191.269L189.157 41.68L183.253 52H181.621L179.149 39.376H180.709L182.749 50.08L188.845 39.376H190.285L192.397 50.08L198.397 39.376H200.053ZM201.235 46.168C201.219 46.28 201.211 46.448 201.211 46.672C201.211 47.952 201.571 48.928 202.291 49.6C203.027 50.272 204.115 50.608 205.555 50.608C206.387 50.608 207.163 50.472 207.883 50.2C208.619 49.912 209.219 49.52 209.683 49.024L210.451 50.248C209.859 50.84 209.115 51.304 208.219 51.64C207.339 51.96 206.403 52.12 205.411 52.12C203.587 52.12 202.147 51.64 201.091 50.68C200.051 49.72 199.531 48.408 199.531 46.744C199.531 45.336 199.827 44.064 200.419 42.928C201.027 41.792 201.859 40.904 202.915 40.264C203.987 39.608 205.187 39.28 206.515 39.28C208.195 39.28 209.531 39.76 210.523 40.72C211.515 41.664 212.011 42.968 212.011 44.632C212.011 45.096 211.955 45.608 211.843 46.168H201.235ZM206.467 40.72C205.203 40.72 204.123 41.096 203.227 41.848C202.331 42.6 201.723 43.616 201.403 44.896H210.403C210.419 44.784 210.427 44.632 210.427 44.44C210.427 43.256 210.067 42.344 209.347 41.704C208.627 41.048 207.667 40.72 206.467 40.72ZM227.713 44.584L232.249 52H230.257L226.369 45.616L222.841 48.352L222.121 52H220.417L223.969 34.192H225.673L223.273 46.168L231.961 39.376H234.385L227.713 44.584ZM243.05 39.28C244.474 39.28 245.578 39.648 246.362 40.384C247.162 41.104 247.562 42.104 247.562 43.384C247.562 43.832 247.514 44.312 247.418 44.824L245.978 52H244.274L245.714 44.8C245.794 44.352 245.834 43.968 245.834 43.648C245.834 42.736 245.554 42.04 244.994 41.56C244.45 41.064 243.642 40.816 242.57 40.816C241.21 40.816 240.09 41.192 239.21 41.944C238.33 42.68 237.738 43.776 237.434 45.232L236.09 52H234.386L236.882 39.376H238.514L238.106 41.392C239.306 39.984 240.954 39.28 243.05 39.28ZM252.259 46.168C252.243 46.28 252.235 46.448 252.235 46.672C252.235 47.952 252.595 48.928 253.315 49.6C254.051 50.272 255.139 50.608 256.579 50.608C257.411 50.608 258.187 50.472 258.907 50.2C259.643 49.912 260.243 49.52 260.707 49.024L261.475 50.248C260.883 50.84 260.139 51.304 259.243 51.64C258.363 51.96 257.427 52.12 256.435 52.12C254.611 52.12 253.171 51.64 252.115 50.68C251.075 49.72 250.555 48.408 250.555 46.744C250.555 45.336 250.851 44.064 251.443 42.928C252.051 41.792 252.883 40.904 253.939 40.264C255.011 39.608 256.211 39.28 257.539 39.28C259.219 39.28 260.555 39.76 261.547 40.72C262.539 41.664 263.035 42.968 263.035 44.632C263.035 45.096 262.979 45.608 262.867 46.168H252.259ZM257.491 40.72C256.227 40.72 255.147 41.096 254.251 41.848C253.355 42.6 252.747 43.616 252.427 44.896H261.427C261.443 44.784 261.451 44.632 261.451 44.44C261.451 43.256 261.091 42.344 260.371 41.704C259.651 41.048 258.691 40.72 257.491 40.72ZM286.069 39.376L278.941 52H277.285L275.173 41.68L269.269 52H267.637L265.165 39.376H266.725L268.765 50.08L274.861 39.376H276.301L278.413 50.08L284.413 39.376H286.069ZM294.796 39.376H296.5L294.004 52H292.3L294.796 39.376ZM296.38 36.616C296.044 36.616 295.764 36.504 295.54 36.28C295.332 36.056 295.228 35.792 295.228 35.488C295.228 35.12 295.348 34.816 295.588 34.576C295.844 34.32 296.164 34.192 296.548 34.192C296.884 34.192 297.164 34.304 297.388 34.528C297.612 34.736 297.724 34.984 297.724 35.272C297.724 35.656 297.596 35.976 297.34 36.232C297.084 36.488 296.764 36.616 296.38 36.616ZM301.481 48.184C301.417 48.568 301.385 48.832 301.385 48.976C301.385 50.096 301.993 50.656 303.209 50.656C303.929 50.656 304.577 50.44 305.153 50.008L305.561 51.304C304.841 51.848 303.905 52.12 302.753 52.12C301.809 52.12 301.057 51.864 300.497 51.352C299.953 50.84 299.681 50.136 299.681 49.24C299.681 48.888 299.713 48.56 299.777 48.256L301.241 40.816H299.009L299.273 39.376H301.529L302.081 36.616H303.785L303.233 39.376H307.073L306.785 40.816H302.945L301.481 48.184ZM309.186 49.504C309.538 49.504 309.826 49.624 310.05 49.864C310.29 50.104 310.41 50.4 310.41 50.752C310.41 50.96 310.37 51.152 310.29 51.328C310.226 51.504 310.114 51.736 309.954 52.024L308.13 55.504H306.978L308.514 51.976C308.306 51.88 308.138 51.736 308.01 51.544C307.898 51.336 307.842 51.112 307.842 50.872C307.842 50.488 307.97 50.168 308.226 49.912C308.498 49.64 308.818 49.504 309.186 49.504ZM341.241 39.376L334.113 52H332.457L330.345 41.68L324.441 52H322.809L320.337 39.376H321.897L323.937 50.08L330.033 39.376H331.473L333.585 50.08L339.585 39.376H341.241ZM342.423 46.168C342.407 46.28 342.399 46.448 342.399 46.672C342.399 47.952 342.759 48.928 343.479 49.6C344.215 50.272 345.303 50.608 346.743 50.608C347.575 50.608 348.351 50.472 349.071 50.2C349.807 49.912 350.407 49.52 350.871 49.024L351.639 50.248C351.047 50.84 350.303 51.304 349.407 51.64C348.527 51.96 347.591 52.12 346.599 52.12C344.775 52.12 343.335 51.64 342.279 50.68C341.239 49.72 340.719 48.408 340.719 46.744C340.719 45.336 341.015 44.064 341.607 42.928C342.215 41.792 343.047 40.904 344.103 40.264C345.175 39.608 346.375 39.28 347.703 39.28C349.383 39.28 350.719 39.76 351.711 40.72C352.703 41.664 353.199 42.968 353.199 44.632C353.199 45.096 353.143 45.608 353.031 46.168H342.423ZM347.655 40.72C346.391 40.72 345.311 41.096 344.415 41.848C343.519 42.6 342.911 43.616 342.591 44.896H351.591C351.607 44.784 351.615 44.632 351.615 44.44C351.615 43.256 351.255 42.344 350.535 41.704C349.815 41.048 348.855 40.72 347.655 40.72ZM370.269 39.28C371.693 39.28 372.797 39.648 373.581 40.384C374.381 41.104 374.781 42.104 374.781 43.384C374.781 43.832 374.733 44.312 374.637 44.824L373.197 52H371.493L372.933 44.8C373.013 44.352 373.053 43.968 373.053 43.648C373.053 42.736 372.773 42.04 372.213 41.56C371.669 41.064 370.861 40.816 369.789 40.816C368.429 40.816 367.309 41.192 366.429 41.944C365.549 42.68 364.957 43.776 364.653 45.232L363.309 52H361.605L365.157 34.192H366.861L365.445 41.272C366.613 39.944 368.221 39.28 370.269 39.28ZM391.934 39.376L389.414 52H387.782L388.19 50.008C387.582 50.68 386.862 51.2 386.03 51.568C385.198 51.936 384.278 52.12 383.27 52.12C382.198 52.12 381.246 51.904 380.414 51.472C379.582 51.04 378.934 50.424 378.47 49.624C378.006 48.808 377.774 47.856 377.774 46.768C377.774 45.344 378.078 44.064 378.686 42.928C379.31 41.792 380.166 40.904 381.254 40.264C382.342 39.608 383.558 39.28 384.902 39.28C386.102 39.28 387.11 39.52 387.926 40C388.742 40.464 389.334 41.136 389.702 42.016L390.23 39.376H391.934ZM383.63 50.608C384.67 50.608 385.606 50.36 386.438 49.864C387.27 49.352 387.918 48.648 388.382 47.752C388.862 46.84 389.102 45.824 389.102 44.704C389.102 43.472 388.734 42.512 387.998 41.824C387.278 41.12 386.262 40.768 384.95 40.768C383.91 40.768 382.974 41.024 382.142 41.536C381.31 42.048 380.654 42.76 380.174 43.672C379.71 44.568 379.478 45.576 379.478 46.696C379.478 47.928 379.838 48.888 380.558 49.576C381.294 50.264 382.318 50.608 383.63 50.608ZM409.231 34.192L405.679 52H404.047L404.455 50.008C403.847 50.68 403.127 51.2 402.295 51.568C401.463 51.936 400.543 52.12 399.535 52.12C398.463 52.12 397.511 51.904 396.679 51.472C395.847 51.04 395.199 50.424 394.735 49.624C394.271 48.808 394.039 47.856 394.039 46.768C394.039 45.344 394.343 44.064 394.951 42.928C395.575 41.792 396.431 40.904 397.519 40.264C398.607 39.608 399.823 39.28 401.167 39.28C402.351 39.28 403.351 39.52 404.167 40C404.999 40.464 405.599 41.136 405.967 42.016L407.527 34.192H409.231ZM399.895 50.608C400.935 50.608 401.871 50.36 402.703 49.864C403.535 49.352 404.183 48.648 404.647 47.752C405.127 46.84 405.367 45.824 405.367 44.704C405.367 43.472 404.999 42.512 404.263 41.824C403.543 41.12 402.527 40.768 401.215 40.768C400.175 40.768 399.239 41.024 398.407 41.536C397.575 42.048 396.919 42.76 396.439 43.672C395.975 44.568 395.743 45.576 395.743 46.696C395.743 47.928 396.103 48.888 396.823 49.576C397.559 50.264 398.583 50.608 399.895 50.608ZM420.258 34.192H421.962L418.41 52H416.706L420.258 34.192ZM424.735 46.168C424.719 46.28 424.711 46.448 424.711 46.672C424.711 47.952 425.071 48.928 425.791 49.6C426.527 50.272 427.615 50.608 429.055 50.608C429.887 50.608 430.663 50.472 431.383 50.2C432.119 49.912 432.719 49.52 433.183 49.024L433.951 50.248C433.359 50.84 432.615 51.304 431.719 51.64C430.839 51.96 429.903 52.12 428.911 52.12C427.087 52.12 425.647 51.64 424.591 50.68C423.551 49.72 423.031 48.408 423.031 46.744C423.031 45.336 423.327 44.064 423.919 42.928C424.527 41.792 425.359 40.904 426.415 40.264C427.487 39.608 428.687 39.28 430.015 39.28C431.695 39.28 433.031 39.76 434.023 40.72C435.015 41.664 435.511 42.968 435.511 44.632C435.511 45.096 435.455 45.608 435.343 46.168H424.735ZM429.967 40.72C428.703 40.72 427.623 41.096 426.727 41.848C425.831 42.6 425.223 43.616 424.903 44.896H433.903C433.919 44.784 433.927 44.632 433.927 44.44C433.927 43.256 433.567 42.344 432.847 41.704C432.127 41.048 431.167 40.72 429.967 40.72ZM445.076 35.512C444.324 35.512 443.732 35.712 443.3 36.112C442.868 36.512 442.564 37.136 442.388 37.984L442.1 39.376H445.964L445.676 40.816H441.86L439.628 52H437.924L440.156 40.816H437.9L438.164 39.376H440.444L440.756 37.792C440.996 36.592 441.476 35.672 442.196 35.032C442.932 34.392 443.892 34.072 445.076 34.072C445.588 34.072 446.068 34.144 446.516 34.288C446.964 34.432 447.332 34.632 447.62 34.888L446.876 36.136C446.412 35.72 445.812 35.512 445.076 35.512ZM448.505 48.184C448.441 48.568 448.409 48.832 448.409 48.976C448.409 50.096 449.017 50.656 450.233 50.656C450.953 50.656 451.601 50.44 452.177 50.008L452.585 51.304C451.865 51.848 450.929 52.12 449.777 52.12C448.833 52.12 448.081 51.864 447.521 51.352C446.977 50.84 446.705 50.136 446.705 49.24C446.705 48.888 446.737 48.56 446.801 48.256L448.265 40.816H446.033L446.297 39.376H448.553L449.105 36.616H450.809L450.257 39.376H454.097L453.809 40.816H449.969L448.505 48.184ZM464.536 48.184C464.472 48.568 464.44 48.832 464.44 48.976C464.44 50.096 465.048 50.656 466.264 50.656C466.984 50.656 467.632 50.44 468.208 50.008L468.616 51.304C467.896 51.848 466.96 52.12 465.808 52.12C464.864 52.12 464.112 51.864 463.552 51.352C463.008 50.84 462.736 50.136 462.736 49.24C462.736 48.888 462.768 48.56 462.832 48.256L464.296 40.816H462.064L462.328 39.376H464.584L465.136 36.616H466.84L466.288 39.376H470.128L469.84 40.816H466L464.536 48.184ZM480.214 39.28C481.638 39.28 482.742 39.648 483.526 40.384C484.326 41.104 484.726 42.104 484.726 43.384C484.726 43.832 484.678 44.312 484.582 44.824L483.142 52H481.438L482.878 44.8C482.958 44.352 482.998 43.968 482.998 43.648C482.998 42.736 482.718 42.04 482.158 41.56C481.614 41.064 480.806 40.816 479.734 40.816C478.374 40.816 477.254 41.192 476.374 41.944C475.494 42.68 474.902 43.776 474.598 45.232L473.254 52H471.55L475.102 34.192H476.806L475.39 41.272C476.558 39.944 478.166 39.28 480.214 39.28ZM489.423 46.168C489.407 46.28 489.399 46.448 489.399 46.672C489.399 47.952 489.759 48.928 490.479 49.6C491.215 50.272 492.303 50.608 493.743 50.608C494.575 50.608 495.351 50.472 496.071 50.2C496.807 49.912 497.407 49.52 497.871 49.024L498.639 50.248C498.047 50.84 497.303 51.304 496.407 51.64C495.527 51.96 494.591 52.12 493.599 52.12C491.775 52.12 490.335 51.64 489.279 50.68C488.239 49.72 487.719 48.408 487.719 46.744C487.719 45.336 488.015 44.064 488.607 42.928C489.215 41.792 490.047 40.904 491.103 40.264C492.175 39.608 493.375 39.28 494.703 39.28C496.383 39.28 497.719 39.76 498.711 40.72C499.703 41.664 500.199 42.968 500.199 44.632C500.199 45.096 500.143 45.608 500.031 46.168H489.423ZM494.655 40.72C493.391 40.72 492.311 41.096 491.415 41.848C490.519 42.6 489.911 43.616 489.591 44.896H498.591C498.607 44.784 498.615 44.632 498.615 44.44C498.615 43.256 498.255 42.344 497.535 41.704C496.815 41.048 495.855 40.72 494.655 40.72ZM522.813 39.376L520.605 50.464C520.173 52.672 519.357 54.272 518.157 55.264C516.973 56.272 515.341 56.776 513.261 56.776C512.077 56.776 511.005 56.608 510.045 56.272C509.101 55.952 508.301 55.488 507.645 54.88L508.653 53.584C509.165 54.112 509.829 54.52 510.645 54.808C511.477 55.112 512.389 55.264 513.381 55.264C514.965 55.264 516.197 54.896 517.077 54.16C517.957 53.424 518.549 52.288 518.853 50.752L519.141 49.36C518.533 50.048 517.797 50.584 516.933 50.968C516.085 51.336 515.141 51.52 514.101 51.52C512.421 51.52 511.069 51.064 510.045 50.152C509.037 49.24 508.533 48 508.533 46.432C508.533 45.088 508.837 43.872 509.445 42.784C510.069 41.696 510.925 40.84 512.013 40.216C513.117 39.592 514.357 39.28 515.733 39.28C516.933 39.28 517.965 39.528 518.829 40.024C519.693 40.504 520.301 41.216 520.653 42.16L521.181 39.376H522.813ZM514.437 50.008C515.477 50.008 516.413 49.768 517.245 49.288C518.093 48.808 518.749 48.144 519.213 47.296C519.693 46.448 519.933 45.496 519.933 44.44C519.933 43.288 519.565 42.392 518.829 41.752C518.093 41.096 517.069 40.768 515.757 40.768C514.701 40.768 513.757 41.008 512.925 41.488C512.093 41.968 511.437 42.632 510.957 43.48C510.493 44.328 510.261 45.28 510.261 46.336C510.261 47.488 510.629 48.392 511.365 49.048C512.101 49.688 513.125 50.008 514.437 50.008ZM528.754 41.68C529.314 40.864 530.018 40.264 530.866 39.88C531.714 39.48 532.738 39.28 533.938 39.28L533.626 40.936L533.146 40.912C531.786 40.912 530.666 41.304 529.786 42.088C528.922 42.872 528.338 44.04 528.034 45.592L526.762 52H525.058L527.554 39.376H529.186L528.754 41.68ZM540.002 52.12C538.85 52.12 537.842 51.904 536.978 51.472C536.114 51.024 535.442 50.4 534.962 49.6C534.498 48.784 534.266 47.84 534.266 46.768C534.266 45.344 534.578 44.064 535.202 42.928C535.826 41.792 536.69 40.904 537.794 40.264C538.914 39.608 540.17 39.28 541.562 39.28C543.322 39.28 544.714 39.76 545.738 40.72C546.778 41.68 547.298 42.976 547.298 44.608C547.298 46.032 546.986 47.32 546.362 48.472C545.738 49.608 544.866 50.504 543.746 51.16C542.642 51.8 541.394 52.12 540.002 52.12ZM540.122 50.608C541.162 50.608 542.098 50.36 542.93 49.864C543.762 49.352 544.41 48.648 544.874 47.752C545.354 46.84 545.594 45.824 545.594 44.704C545.594 43.472 545.226 42.512 544.49 41.824C543.77 41.12 542.754 40.768 541.442 40.768C540.402 40.768 539.466 41.024 538.634 41.536C537.802 42.048 537.146 42.76 536.666 43.672C536.202 44.568 535.97 45.576 535.97 46.696C535.97 47.928 536.33 48.888 537.05 49.576C537.786 50.264 538.81 50.608 540.122 50.608ZM563.329 39.376L560.809 52H559.177L559.585 49.984C558.401 51.408 556.777 52.12 554.713 52.12C553.305 52.12 552.201 51.76 551.401 51.04C550.617 50.304 550.225 49.288 550.225 47.992C550.225 47.544 550.273 47.072 550.369 46.576L551.809 39.376H553.513L552.073 46.576C551.993 47.024 551.953 47.4 551.953 47.704C551.953 48.632 552.217 49.344 552.745 49.84C553.289 50.336 554.097 50.584 555.169 50.584C556.513 50.584 557.625 50.208 558.505 49.456C559.385 48.704 559.977 47.608 560.281 46.168L561.625 39.376H563.329ZM574.245 39.28C575.669 39.28 576.773 39.648 577.557 40.384C578.357 41.104 578.757 42.104 578.757 43.384C578.757 43.832 578.709 44.312 578.613 44.824L577.173 52H575.469L576.909 44.8C576.989 44.352 577.029 43.968 577.029 43.648C577.029 42.736 576.749 42.04 576.189 41.56C575.645 41.064 574.837 40.816 573.765 40.816C572.405 40.816 571.285 41.192 570.405 41.944C569.525 42.68 568.933 43.776 568.629 45.232L567.285 52H565.581L568.077 39.376H569.709L569.301 41.392C570.501 39.984 572.149 39.28 574.245 39.28ZM596.942 34.192L593.39 52H591.758L592.166 50.008C591.558 50.68 590.838 51.2 590.006 51.568C589.174 51.936 588.254 52.12 587.246 52.12C586.174 52.12 585.222 51.904 584.39 51.472C583.558 51.04 582.91 50.424 582.446 49.624C581.982 48.808 581.75 47.856 581.75 46.768C581.75 45.344 582.054 44.064 582.662 42.928C583.286 41.792 584.142 40.904 585.23 40.264C586.318 39.608 587.534 39.28 588.878 39.28C590.062 39.28 591.062 39.52 591.878 40C592.71 40.464 593.31 41.136 593.678 42.016L595.238 34.192H596.942ZM587.606 50.608C588.646 50.608 589.582 50.36 590.414 49.864C591.246 49.352 591.894 48.648 592.358 47.752C592.838 46.84 593.078 45.824 593.078 44.704C593.078 43.472 592.71 42.512 591.974 41.824C591.254 41.12 590.238 40.768 588.926 40.768C587.886 40.768 586.95 41.024 586.118 41.536C585.286 42.048 584.63 42.76 584.15 43.672C583.686 44.568 583.454 45.576 583.454 46.696C583.454 47.928 583.814 48.888 584.534 49.576C585.27 50.264 586.294 50.608 587.606 50.608ZM598.496 52.12C598.144 52.12 597.848 52 597.608 51.76C597.368 51.52 597.248 51.224 597.248 50.872C597.248 50.488 597.376 50.168 597.632 49.912C597.904 49.64 598.224 49.504 598.592 49.504C598.944 49.504 599.232 49.624 599.456 49.864C599.696 50.104 599.816 50.4 599.816 50.752C599.816 51.136 599.68 51.464 599.408 51.736C599.152 51.992 598.848 52.12 598.496 52.12Z" fill="black"/>
</svg>
