<svg width="630" height="63" viewBox="0 0 630 63" fill="none" xmlns="http://www.w3.org/2000/svg">
<rect width="630" height="63" fill="white" fill-opacity="0.13"/>
<rect x="2" width="628" height="62.2632" fill="white"/>
<path d="M8.48 23.24C7.184 23.24 5.944 23.056 4.76 22.688C3.576 22.32 2.648 21.848 1.976 21.272L3.296 18.824C4 19.384 4.832 19.832 5.792 20.168C6.768 20.488 7.76 20.648 8.768 20.648C10 20.648 10.976 20.44 11.696 20.024C12.432 19.592 12.8 19.008 12.8 18.272C12.8 17.856 12.648 17.512 12.344 17.24C12.056 16.952 11.688 16.72 11.24 16.544C10.808 16.368 10.2 16.168 9.416 15.944C8.328 15.624 7.448 15.32 6.776 15.032C6.104 14.728 5.528 14.28 5.048 13.688C4.568 13.096 4.328 12.328 4.328 11.384C4.328 10.296 4.632 9.344 5.24 8.528C5.864 7.712 6.728 7.08 7.832 6.632C8.936 6.184 10.208 5.96 11.648 5.96C12.736 5.96 13.768 6.088 14.744 6.344C15.72 6.584 16.56 6.928 17.264 7.376L16.04 9.848C15.416 9.432 14.712 9.112 13.928 8.888C13.144 8.664 12.328 8.552 11.48 8.552C10.232 8.552 9.24 8.784 8.504 9.248C7.784 9.696 7.424 10.296 7.424 11.048C7.424 11.48 7.576 11.84 7.88 12.128C8.184 12.416 8.552 12.648 8.984 12.824C9.416 12.984 10.048 13.192 10.88 13.448C11.936 13.752 12.8 14.048 13.472 14.336C14.144 14.624 14.712 15.048 15.176 15.608C15.656 16.168 15.896 16.896 15.896 17.792C15.896 18.896 15.584 19.856 14.96 20.672C14.352 21.488 13.48 22.12 12.344 22.568C11.224 23.016 9.936 23.24 8.48 23.24ZM31.2057 15.656C31.2057 16.28 31.1418 16.888 31.0138 17.48H20.8378C20.8858 19.576 22.1178 20.624 24.5338 20.624C25.2698 20.624 25.9578 20.512 26.5978 20.288C27.2378 20.048 27.7818 19.72 28.2298 19.304L29.4778 21.392C28.8218 21.984 28.0298 22.432 27.1018 22.736C26.1898 23.024 25.2298 23.168 24.2218 23.168C22.9418 23.168 21.8218 22.936 20.8618 22.472C19.9178 22.008 19.1898 21.352 18.6777 20.504C18.1658 19.64 17.9098 18.648 17.9098 17.528C17.9098 16.104 18.2218 14.824 18.8458 13.688C19.4858 12.536 20.3658 11.64 21.4858 11C22.6218 10.36 23.8938 10.04 25.3018 10.04C27.0938 10.04 28.5258 10.544 29.5978 11.552C30.6698 12.544 31.2057 13.912 31.2057 15.656ZM25.1578 12.44C24.1498 12.44 23.2858 12.712 22.5658 13.256C21.8618 13.8 21.3738 14.544 21.1018 15.488H28.4458C28.4618 14.528 28.1658 13.784 27.5578 13.256C26.9658 12.712 26.1658 12.44 25.1578 12.44ZM51.0331 10.04C52.4731 10.04 53.6011 10.408 54.4171 11.144C55.2491 11.88 55.6651 12.936 55.6651 14.312C55.6651 14.824 55.6091 15.352 55.4971 15.896L54.0811 23H51.0811L52.4971 15.968C52.5611 15.648 52.5931 15.312 52.5931 14.96C52.5931 13.424 51.7771 12.656 50.1451 12.656C48.0171 12.656 46.7051 13.88 46.2091 16.328L44.8651 23H41.8651L43.2811 15.968C43.3451 15.648 43.3771 15.312 43.3771 14.96C43.3771 13.424 42.5611 12.656 40.9291 12.656C38.8011 12.656 37.4891 13.888 36.9931 16.352L35.6491 23H32.6491L35.1931 10.184H38.0491L37.7851 11.576C38.8731 10.552 40.2731 10.04 41.9851 10.04C42.9131 10.04 43.7211 10.224 44.4091 10.592C45.0971 10.944 45.6171 11.464 45.9691 12.152C47.2811 10.744 48.9691 10.04 51.0331 10.04ZM60.4588 10.184H63.4588L60.9148 23H57.9148L60.4588 10.184ZM62.6428 8.072C62.1148 8.072 61.6828 7.912 61.3468 7.592C61.0108 7.256 60.8428 6.856 60.8428 6.392C60.8428 5.848 61.0268 5.392 61.3948 5.024C61.7788 4.656 62.2748 4.472 62.8828 4.472C63.4108 4.472 63.8428 4.632 64.1788 4.952C64.5148 5.256 64.6828 5.632 64.6828 6.08C64.6828 6.672 64.4908 7.152 64.1068 7.52C63.7387 7.888 63.2508 8.072 62.6428 8.072ZM65.7883 15.08H72.3883L71.8843 17.576H65.3083L65.7883 15.08ZM83.3986 10.04C84.4546 10.04 85.4066 10.264 86.2546 10.712C87.1186 11.16 87.7986 11.808 88.2946 12.656C88.7906 13.504 89.0386 14.504 89.0386 15.656C89.0386 17.08 88.7186 18.368 88.0786 19.52C87.4546 20.656 86.5906 21.552 85.4866 22.208C84.3986 22.848 83.1826 23.168 81.8386 23.168C80.7826 23.168 79.8706 22.984 79.1026 22.616C78.3346 22.232 77.7506 21.68 77.3506 20.96L76.9426 23H74.0866L77.6386 5.192H80.6386L79.4146 11.384C80.5026 10.488 81.8306 10.04 83.3986 10.04ZM81.5986 20.6C82.4466 20.6 83.1986 20.4 83.8546 20C84.5266 19.584 85.0546 19.016 85.4386 18.296C85.8226 17.56 86.0146 16.728 86.0146 15.8C86.0146 14.792 85.7186 14.008 85.1266 13.448C84.5346 12.872 83.7026 12.584 82.6306 12.584C81.7826 12.584 81.0226 12.792 80.3506 13.208C79.6946 13.608 79.1746 14.176 78.7906 14.912C78.4066 15.632 78.2146 16.456 78.2146 17.384C78.2146 18.392 78.5106 19.184 79.1026 19.76C79.6946 20.32 80.5266 20.6 81.5986 20.6ZM96.8758 23.168C95.6278 23.168 94.5318 22.936 93.5878 22.472C92.6598 21.992 91.9398 21.328 91.4277 20.48C90.9158 19.632 90.6598 18.648 90.6598 17.528C90.6598 16.104 90.9798 14.824 91.6198 13.688C92.2758 12.552 93.1798 11.664 94.3318 11.024C95.4998 10.368 96.8118 10.04 98.2678 10.04C99.5158 10.04 100.612 10.272 101.556 10.736C102.5 11.2 103.228 11.856 103.74 12.704C104.252 13.552 104.508 14.536 104.508 15.656C104.508 17.08 104.18 18.36 103.524 19.496C102.868 20.632 101.956 21.528 100.788 22.184C99.6358 22.84 98.3318 23.168 96.8758 23.168ZM97.0678 20.6C97.9158 20.6 98.6678 20.4 99.3238 20C99.9958 19.584 100.524 19.016 100.908 18.296C101.292 17.56 101.484 16.728 101.484 15.8C101.484 14.792 101.188 14.008 100.596 13.448C100.004 12.872 99.1718 12.584 98.0998 12.584C97.2518 12.584 96.4918 12.792 95.8198 13.208C95.1638 13.608 94.6438 14.176 94.2598 14.912C93.8758 15.632 93.6838 16.456 93.6838 17.384C93.6838 18.392 93.9798 19.184 94.5718 19.76C95.1638 20.32 95.9958 20.6 97.0678 20.6ZM109.561 5.192H112.561L109.009 23H106.009L109.561 5.192ZM129.026 5.192L125.474 23H122.618L122.882 21.68C121.73 22.672 120.346 23.168 118.73 23.168C117.674 23.168 116.714 22.944 115.85 22.496C115.002 22.048 114.33 21.4 113.834 20.552C113.338 19.688 113.09 18.68 113.09 17.528C113.09 16.088 113.402 14.8 114.026 13.664C114.65 12.528 115.506 11.64 116.594 11C117.698 10.36 118.93 10.04 120.29 10.04C121.298 10.04 122.17 10.208 122.906 10.544C123.658 10.88 124.242 11.376 124.658 12.032L126.026 5.192H129.026ZM119.498 20.6C120.33 20.6 121.082 20.4 121.754 20C122.426 19.584 122.946 19.016 123.314 18.296C123.698 17.56 123.89 16.728 123.89 15.8C123.89 14.792 123.594 14.008 123.002 13.448C122.41 12.872 121.578 12.584 120.506 12.584C119.674 12.584 118.922 12.792 118.25 13.208C117.578 13.608 117.05 14.176 116.666 14.912C116.298 15.632 116.114 16.456 116.114 17.384C116.114 18.392 116.41 19.184 117.002 19.76C117.594 20.32 118.426 20.6 119.498 20.6ZM139.703 6.2H142.823L139.463 23H136.343L139.703 6.2ZM147.943 18.704C147.911 18.96 147.895 19.144 147.895 19.256C147.895 20.216 148.399 20.696 149.407 20.696C150.031 20.696 150.591 20.528 151.087 20.192L151.615 22.4C150.799 22.912 149.767 23.168 148.519 23.168C147.415 23.168 146.527 22.864 145.855 22.256C145.183 21.648 144.847 20.808 144.847 19.736C144.847 19.384 144.879 19.048 144.943 18.728L146.167 12.68H144.079L144.559 10.28H146.647L147.223 7.352H150.223L149.623 10.28H153.079L152.599 12.68H149.143L147.943 18.704ZM168.541 10.184L165.997 23H163.141L163.405 21.68C162.285 22.672 160.893 23.168 159.229 23.168C158.173 23.168 157.213 22.944 156.349 22.496C155.501 22.048 154.829 21.4 154.333 20.552C153.837 19.688 153.589 18.68 153.589 17.528C153.589 16.104 153.901 14.824 154.525 13.688C155.165 12.536 156.029 11.64 157.117 11C158.221 10.36 159.453 10.04 160.813 10.04C162.861 10.04 164.317 10.72 165.181 12.08L165.541 10.184H168.541ZM159.997 20.6C160.845 20.6 161.597 20.4 162.253 20C162.925 19.584 163.453 19.016 163.837 18.296C164.221 17.56 164.413 16.728 164.413 15.8C164.413 14.792 164.117 14.008 163.525 13.448C162.933 12.872 162.101 12.584 161.029 12.584C160.181 12.584 159.421 12.792 158.749 13.208C158.093 13.608 157.573 14.176 157.189 14.912C156.805 15.632 156.613 16.456 156.613 17.384C156.613 18.392 156.909 19.184 157.501 19.76C158.093 20.32 158.925 20.6 159.997 20.6ZM173.475 5.192H176.475L172.923 23H169.923L173.475 5.192ZM179.404 10.184H182.404L179.86 23H176.86L179.404 10.184ZM181.588 8.072C181.06 8.072 180.628 7.912 180.292 7.592C179.956 7.256 179.788 6.856 179.788 6.392C179.788 5.848 179.972 5.392 180.34 5.024C180.724 4.656 181.22 4.472 181.828 4.472C182.356 4.472 182.788 4.632 183.124 4.952C183.46 5.256 183.628 5.632 183.628 6.08C183.628 6.672 183.436 7.152 183.052 7.52C182.684 7.888 182.196 8.072 181.588 8.072ZM190.206 23.168C188.942 23.168 187.83 22.936 186.87 22.472C185.926 21.992 185.198 21.328 184.686 20.48C184.174 19.632 183.918 18.648 183.918 17.528C183.918 16.104 184.246 14.824 184.902 13.688C185.558 12.552 186.462 11.664 187.614 11.024C188.782 10.368 190.11 10.04 191.598 10.04C192.894 10.04 194.006 10.296 194.934 10.808C195.878 11.304 196.606 12.048 197.118 13.04L194.55 14.36C193.958 13.176 192.894 12.584 191.358 12.584C190.51 12.584 189.75 12.792 189.078 13.208C188.422 13.608 187.902 14.176 187.518 14.912C187.134 15.632 186.942 16.456 186.942 17.384C186.942 18.392 187.238 19.184 187.83 19.76C188.422 20.32 189.262 20.6 190.35 20.6C191.086 20.6 191.75 20.456 192.342 20.168C192.934 19.864 193.438 19.416 193.854 18.824L196.062 20.312C195.47 21.208 194.654 21.912 193.614 22.424C192.574 22.92 191.438 23.168 190.206 23.168ZM212.512 12.632C213.504 12.632 214.408 12.824 215.224 13.208C216.056 13.592 216.72 14.152 217.216 14.888C217.712 15.608 217.96 16.472 217.96 17.48C217.96 18.632 217.68 19.648 217.12 20.528C216.56 21.392 215.792 22.064 214.816 22.544C213.84 23.008 212.744 23.24 211.528 23.24C210.232 23.24 209.08 22.976 208.072 22.448C207.08 21.92 206.304 21.136 205.744 20.096C205.2 19.056 204.928 17.8 204.928 16.328C204.928 14.648 205.272 13.016 205.96 11.432C206.664 9.848 207.744 8.544 209.2 7.52C210.672 6.48 212.504 5.96 214.696 5.96C215.576 5.96 216.408 6.056 217.192 6.248C217.976 6.424 218.624 6.68 219.136 7.016L217.72 9.392C216.92 8.848 215.848 8.576 214.504 8.576C212.728 8.576 211.312 9.112 210.256 10.184C209.216 11.24 208.56 12.56 208.288 14.144C209.312 13.136 210.72 12.632 212.512 12.632ZM211.456 20.792C212.464 20.792 213.28 20.52 213.904 19.976C214.544 19.416 214.864 18.656 214.864 17.696C214.864 16.88 214.576 16.24 214 15.776C213.424 15.312 212.664 15.08 211.72 15.08C210.664 15.08 209.808 15.36 209.152 15.92C208.512 16.464 208.192 17.176 208.192 18.056C208.192 18.808 208.48 19.456 209.056 20C209.648 20.528 210.448 20.792 211.456 20.792ZM225.831 23.24C224.007 23.24 222.567 22.688 221.511 21.584C220.471 20.48 219.951 18.944 219.951 16.976C219.951 14.992 220.311 13.16 221.031 11.48C221.751 9.784 222.759 8.44 224.055 7.448C225.367 6.456 226.871 5.96 228.567 5.96C230.391 5.96 231.823 6.512 232.863 7.616C233.903 8.72 234.423 10.256 234.423 12.224C234.423 14.208 234.063 16.048 233.343 17.744C232.623 19.424 231.607 20.76 230.295 21.752C228.999 22.744 227.511 23.24 225.831 23.24ZM226.095 20.528C227.151 20.528 228.071 20.104 228.855 19.256C229.639 18.408 230.239 17.344 230.655 16.064C231.071 14.784 231.279 13.528 231.279 12.296C231.279 11.112 231.015 10.216 230.487 9.608C229.975 8.984 229.247 8.672 228.303 8.672C227.247 8.672 226.319 9.096 225.519 9.944C224.719 10.792 224.111 11.856 223.695 13.136C223.279 14.416 223.071 15.672 223.071 16.904C223.071 18.104 223.335 19.008 223.863 19.616C224.391 20.224 225.135 20.528 226.095 20.528ZM241.956 23.24C240.132 23.24 238.692 22.688 237.636 21.584C236.596 20.48 236.076 18.944 236.076 16.976C236.076 14.992 236.436 13.16 237.156 11.48C237.876 9.784 238.884 8.44 240.18 7.448C241.492 6.456 242.996 5.96 244.692 5.96C246.516 5.96 247.948 6.512 248.988 7.616C250.028 8.72 250.548 10.256 250.548 12.224C250.548 14.208 250.188 16.048 249.468 17.744C248.748 19.424 247.732 20.76 246.42 21.752C245.124 22.744 243.636 23.24 241.956 23.24ZM242.22 20.528C243.276 20.528 244.196 20.104 244.98 19.256C245.764 18.408 246.364 17.344 246.78 16.064C247.196 14.784 247.404 13.528 247.404 12.296C247.404 11.112 247.14 10.216 246.612 9.608C246.1 8.984 245.372 8.672 244.428 8.672C243.372 8.672 242.444 9.096 241.644 9.944C240.844 10.792 240.236 11.856 239.82 13.136C239.404 14.416 239.196 15.672 239.196 16.904C239.196 18.104 239.46 19.008 239.988 19.616C240.516 20.224 241.26 20.528 242.22 20.528ZM14.816 48.112H6.368L3.944 52H0.608L11.528 35.2H14.624L18.8 52H15.704L14.816 48.112ZM14.24 45.664L12.536 38.272L7.904 45.664H14.24ZM24.2246 34.192H27.2246L23.6726 52H20.6726L24.2246 34.192ZM45.9941 39.04C47.4341 39.04 48.5621 39.408 49.3781 40.144C50.2101 40.88 50.6261 41.936 50.6261 43.312C50.6261 43.824 50.5701 44.352 50.4581 44.896L49.0421 52H46.0421L47.4581 44.968C47.5221 44.648 47.5541 44.312 47.5541 43.96C47.5541 42.424 46.7381 41.656 45.1061 41.656C42.9781 41.656 41.6661 42.88 41.1701 45.328L39.8261 52H36.8261L38.2421 44.968C38.3061 44.648 38.3381 44.312 38.3381 43.96C38.3381 42.424 37.5221 41.656 35.8901 41.656C33.7621 41.656 32.4501 42.888 31.9541 45.352L30.6101 52H27.6101L30.1541 39.184H33.0101L32.7461 40.576C33.8341 39.552 35.2341 39.04 36.9461 39.04C37.8741 39.04 38.6821 39.224 39.3701 39.592C40.0581 39.944 40.5781 40.464 40.9301 41.152C42.2421 39.744 43.9301 39.04 45.9941 39.04ZM59.3289 52.168C58.0809 52.168 56.9849 51.936 56.0409 51.472C55.1129 50.992 54.3929 50.328 53.8809 49.48C53.3689 48.632 53.1129 47.648 53.1129 46.528C53.1129 45.104 53.4329 43.824 54.0729 42.688C54.7289 41.552 55.6329 40.664 56.7849 40.024C57.9529 39.368 59.2649 39.04 60.7209 39.04C61.9689 39.04 63.0649 39.272 64.0089 39.736C64.9529 40.2 65.6809 40.856 66.1929 41.704C66.7049 42.552 66.9609 43.536 66.9609 44.656C66.9609 46.08 66.6329 47.36 65.9769 48.496C65.3209 49.632 64.4089 50.528 63.2409 51.184C62.0889 51.84 60.7849 52.168 59.3289 52.168ZM59.5209 49.6C60.3689 49.6 61.1209 49.4 61.7769 49C62.4489 48.584 62.9769 48.016 63.3609 47.296C63.7449 46.56 63.9369 45.728 63.9369 44.8C63.9369 43.792 63.6409 43.008 63.0489 42.448C62.4569 41.872 61.6249 41.584 60.5529 41.584C59.7049 41.584 58.9449 41.792 58.2729 42.208C57.6169 42.608 57.0969 43.176 56.7129 43.912C56.3289 44.632 56.1369 45.456 56.1369 46.384C56.1369 47.392 56.4329 48.184 57.0249 48.76C57.6169 49.32 58.4489 49.6 59.5209 49.6ZM72.8296 52.168C71.7416 52.168 70.7016 52.04 69.7096 51.784C68.7336 51.512 67.9736 51.176 67.4296 50.776L68.6776 48.472C69.2056 48.856 69.8696 49.16 70.6696 49.384C71.4696 49.608 72.2936 49.72 73.1416 49.72C74.1016 49.72 74.8216 49.592 75.3016 49.336C75.7976 49.064 76.0456 48.68 76.0456 48.184C76.0456 47.8 75.8376 47.52 75.4216 47.344C75.0216 47.168 74.3816 46.984 73.5016 46.792C72.5896 46.616 71.8376 46.432 71.2456 46.24C70.6696 46.032 70.1656 45.704 69.7336 45.256C69.3176 44.792 69.1096 44.16 69.1096 43.36C69.1096 42.032 69.6616 40.984 70.7656 40.216C71.8856 39.432 73.3656 39.04 75.2056 39.04C76.0856 39.04 76.9416 39.144 77.7736 39.352C78.6056 39.544 79.2856 39.808 79.8136 40.144L78.7096 42.448C78.1816 42.112 77.5816 41.864 76.9096 41.704C76.2536 41.544 75.5896 41.464 74.9176 41.464C73.9736 41.464 73.2536 41.608 72.7576 41.896C72.2776 42.184 72.0376 42.56 72.0376 43.024C72.0376 43.44 72.2456 43.744 72.6616 43.936C73.0936 44.112 73.7576 44.296 74.6536 44.488C75.5496 44.664 76.2856 44.856 76.8616 45.064C77.4376 45.256 77.9336 45.576 78.3496 46.024C78.7656 46.472 78.9736 47.08 78.9736 47.848C78.9736 49.224 78.4136 50.288 77.2936 51.04C76.1736 51.792 74.6856 52.168 72.8296 52.168ZM85.0372 47.704C85.0052 47.96 84.9892 48.144 84.9892 48.256C84.9892 49.216 85.4932 49.696 86.5012 49.696C87.1252 49.696 87.6852 49.528 88.1812 49.192L88.7092 51.4C87.8932 51.912 86.8612 52.168 85.6132 52.168C84.5092 52.168 83.6212 51.864 82.9492 51.256C82.2772 50.648 81.9412 49.808 81.9412 48.736C81.9412 48.384 81.9732 48.048 82.0372 47.728L83.2612 41.68H81.1732L81.6532 39.28H83.7412L84.3172 36.352H87.3172L86.7172 39.28H90.1732L89.6932 41.68H86.2372L85.0372 47.704ZM106.93 39.04C107.986 39.04 108.938 39.264 109.786 39.712C110.65 40.16 111.33 40.808 111.826 41.656C112.322 42.504 112.57 43.504 112.57 44.656C112.57 46.08 112.25 47.368 111.61 48.52C110.986 49.656 110.122 50.552 109.018 51.208C107.93 51.848 106.714 52.168 105.37 52.168C104.314 52.168 103.402 51.984 102.634 51.616C101.866 51.232 101.282 50.68 100.882 49.96L100.474 52H97.6179L101.17 34.192H104.17L102.946 40.384C104.034 39.488 105.362 39.04 106.93 39.04ZM105.13 49.6C105.978 49.6 106.73 49.4 107.386 49C108.058 48.584 108.586 48.016 108.97 47.296C109.354 46.56 109.546 45.728 109.546 44.8C109.546 43.792 109.25 43.008 108.658 42.448C108.066 41.872 107.234 41.584 106.162 41.584C105.314 41.584 104.554 41.792 103.882 42.208C103.226 42.608 102.706 43.176 102.322 43.912C101.938 44.632 101.746 45.456 101.746 46.384C101.746 47.392 102.042 48.184 102.634 48.76C103.226 49.32 104.058 49.6 105.13 49.6ZM127.487 44.656C127.487 45.28 127.423 45.888 127.295 46.48H117.119C117.167 48.576 118.399 49.624 120.815 49.624C121.551 49.624 122.239 49.512 122.879 49.288C123.519 49.048 124.063 48.72 124.511 48.304L125.759 50.392C125.103 50.984 124.311 51.432 123.383 51.736C122.471 52.024 121.511 52.168 120.503 52.168C119.223 52.168 118.103 51.936 117.143 51.472C116.199 51.008 115.471 50.352 114.959 49.504C114.447 48.64 114.191 47.648 114.191 46.528C114.191 45.104 114.503 43.824 115.127 42.688C115.767 41.536 116.647 40.64 117.767 40C118.903 39.36 120.175 39.04 121.583 39.04C123.375 39.04 124.807 39.544 125.879 40.552C126.951 41.544 127.487 42.912 127.487 44.656ZM121.439 41.44C120.431 41.44 119.567 41.712 118.847 42.256C118.143 42.8 117.655 43.544 117.383 44.488H124.727C124.743 43.528 124.447 42.784 123.839 42.256C123.247 41.712 122.447 41.44 121.439 41.44ZM137.21 36.448C136.586 36.448 136.09 36.624 135.722 36.976C135.354 37.328 135.09 37.864 134.93 38.584L134.786 39.28H138.29L137.81 41.68H134.378L132.314 52H129.314L131.378 41.68H129.29L129.77 39.28H131.858L132.05 38.368C132.338 36.992 132.914 35.928 133.778 35.176C134.658 34.408 135.802 34.024 137.21 34.024C137.77 34.024 138.29 34.088 138.77 34.216C139.266 34.344 139.682 34.536 140.018 34.792L138.794 36.976C138.362 36.624 137.834 36.448 137.21 36.448ZM143.938 52.168C142.69 52.168 141.594 51.936 140.65 51.472C139.722 50.992 139.002 50.328 138.49 49.48C137.978 48.632 137.722 47.648 137.722 46.528C137.722 45.104 138.042 43.824 138.682 42.688C139.338 41.552 140.242 40.664 141.394 40.024C142.562 39.368 143.874 39.04 145.33 39.04C146.578 39.04 147.674 39.272 148.618 39.736C149.562 40.2 150.29 40.856 150.802 41.704C151.314 42.552 151.57 43.536 151.57 44.656C151.57 46.08 151.242 47.36 150.586 48.496C149.93 49.632 149.018 50.528 147.85 51.184C146.698 51.84 145.394 52.168 143.938 52.168ZM144.13 49.6C144.978 49.6 145.73 49.4 146.386 49C147.058 48.584 147.586 48.016 147.97 47.296C148.354 46.56 148.546 45.728 148.546 44.8C148.546 43.792 148.25 43.008 147.658 42.448C147.066 41.872 146.234 41.584 145.162 41.584C144.314 41.584 143.554 41.792 142.882 42.208C142.226 42.608 141.706 43.176 141.322 43.912C140.938 44.632 140.746 45.456 140.746 46.384C140.746 47.392 141.042 48.184 141.634 48.76C142.226 49.32 143.058 49.6 144.13 49.6ZM158.135 40.84C158.695 40.184 159.375 39.72 160.175 39.448C160.991 39.176 161.959 39.04 163.079 39.04L162.527 41.896C162.255 41.848 162.007 41.824 161.783 41.824C159.335 41.824 157.855 43.112 157.343 45.688L156.071 52H153.071L155.615 39.184H158.471L158.135 40.84ZM176.331 44.656C176.331 45.28 176.267 45.888 176.139 46.48H165.963C166.011 48.576 167.243 49.624 169.659 49.624C170.395 49.624 171.083 49.512 171.723 49.288C172.363 49.048 172.907 48.72 173.355 48.304L174.603 50.392C173.947 50.984 173.155 51.432 172.227 51.736C171.315 52.024 170.355 52.168 169.347 52.168C168.067 52.168 166.947 51.936 165.987 51.472C165.043 51.008 164.315 50.352 163.803 49.504C163.291 48.64 163.035 47.648 163.035 46.528C163.035 45.104 163.347 43.824 163.971 42.688C164.611 41.536 165.491 40.64 166.611 40C167.747 39.36 169.019 39.04 170.427 39.04C172.219 39.04 173.651 39.544 174.723 40.552C175.795 41.544 176.331 42.912 176.331 44.656ZM170.283 41.44C169.275 41.44 168.411 41.712 167.691 42.256C166.987 42.8 166.499 43.544 166.227 44.488H173.571C173.587 43.528 173.291 42.784 172.683 42.256C172.091 41.712 171.291 41.44 170.283 41.44ZM207.111 39.184L199.959 52H197.007L195.279 43.168L190.263 52H187.359L185.007 39.184H187.743L189.375 48.616L194.727 39.184H197.295L198.999 48.616L204.279 39.184H207.111ZM219.596 44.656C219.596 45.28 219.532 45.888 219.404 46.48H209.228C209.276 48.576 210.508 49.624 212.924 49.624C213.66 49.624 214.348 49.512 214.988 49.288C215.628 49.048 216.172 48.72 216.62 48.304L217.868 50.392C217.212 50.984 216.42 51.432 215.492 51.736C214.58 52.024 213.62 52.168 212.612 52.168C211.332 52.168 210.212 51.936 209.252 51.472C208.308 51.008 207.58 50.352 207.068 49.504C206.556 48.64 206.3 47.648 206.3 46.528C206.3 45.104 206.612 43.824 207.236 42.688C207.876 41.536 208.756 40.64 209.876 40C211.012 39.36 212.284 39.04 213.692 39.04C215.484 39.04 216.916 39.544 217.988 40.552C219.06 41.544 219.596 42.912 219.596 44.656ZM213.548 41.44C212.54 41.44 211.676 41.712 210.956 42.256C210.252 42.8 209.764 43.544 209.492 44.488H216.836C216.852 43.528 216.556 42.784 215.948 42.256C215.356 41.712 214.556 41.44 213.548 41.44ZM236.433 44.68L240.945 52H237.465L234.033 46.456L231.345 48.616L230.673 52H227.673L231.225 34.192H234.225L232.113 44.824L239.145 39.184H243.225L236.433 44.68ZM252.083 39.04C253.523 39.04 254.659 39.416 255.491 40.168C256.339 40.92 256.763 41.984 256.763 43.36C256.763 43.744 256.707 44.256 256.595 44.896L255.179 52H252.179L253.571 44.968C253.635 44.648 253.667 44.32 253.667 43.984C253.667 42.432 252.811 41.656 251.099 41.656C249.995 41.656 249.083 41.968 248.363 42.592C247.643 43.2 247.155 44.12 246.899 45.352L245.555 52H242.555L245.099 39.184H247.955L247.667 40.6C248.819 39.56 250.291 39.04 252.083 39.04ZM272.518 44.656C272.518 45.28 272.454 45.888 272.326 46.48H262.15C262.198 48.576 263.43 49.624 265.846 49.624C266.582 49.624 267.27 49.512 267.91 49.288C268.55 49.048 269.094 48.72 269.542 48.304L270.79 50.392C270.134 50.984 269.342 51.432 268.414 51.736C267.502 52.024 266.542 52.168 265.534 52.168C264.254 52.168 263.134 51.936 262.174 51.472C261.23 51.008 260.502 50.352 259.99 49.504C259.478 48.64 259.222 47.648 259.222 46.528C259.222 45.104 259.534 43.824 260.158 42.688C260.798 41.536 261.678 40.64 262.798 40C263.934 39.36 265.206 39.04 266.614 39.04C268.406 39.04 269.838 39.544 270.91 40.552C271.982 41.544 272.518 42.912 272.518 44.656ZM266.47 41.44C265.462 41.44 264.598 41.712 263.878 42.256C263.174 42.8 262.686 43.544 262.414 44.488H269.758C269.774 43.528 269.478 42.784 268.87 42.256C268.278 41.712 267.478 41.44 266.47 41.44ZM296.431 39.184L289.279 52H286.327L284.599 43.168L279.583 52H276.679L274.327 39.184H277.063L278.695 48.616L284.047 39.184H286.615L288.319 48.616L293.599 39.184H296.431ZM305.029 39.184H308.029L305.485 52H302.485L305.029 39.184ZM307.213 37.072C306.685 37.072 306.253 36.912 305.917 36.592C305.581 36.256 305.413 35.856 305.413 35.392C305.413 34.848 305.597 34.392 305.965 34.024C306.349 33.656 306.845 33.472 307.453 33.472C307.981 33.472 308.413 33.632 308.749 33.952C309.085 34.256 309.253 34.632 309.253 35.08C309.253 35.672 309.061 36.152 308.677 36.52C308.309 36.888 307.821 37.072 307.213 37.072ZM313.647 47.704C313.615 47.96 313.599 48.144 313.599 48.256C313.599 49.216 314.103 49.696 315.111 49.696C315.735 49.696 316.295 49.528 316.791 49.192L317.319 51.4C316.503 51.912 315.471 52.168 314.223 52.168C313.119 52.168 312.231 51.864 311.559 51.256C310.887 50.648 310.551 49.808 310.551 48.736C310.551 48.384 310.583 48.048 310.647 47.728L311.871 41.68H309.783L310.263 39.28H312.351L312.927 36.352H315.927L315.327 39.28H318.783L318.303 41.68H314.847L313.647 47.704ZM321.269 48.184C321.797 48.184 322.237 48.36 322.589 48.712C322.941 49.064 323.117 49.512 323.117 50.056C323.117 50.344 323.061 50.616 322.949 50.872C322.853 51.112 322.677 51.456 322.421 51.904L320.213 55.624H318.293L320.021 51.88C319.765 51.704 319.557 51.48 319.397 51.208C319.253 50.936 319.181 50.632 319.181 50.296C319.181 49.688 319.381 49.184 319.781 48.784C320.181 48.384 320.677 48.184 321.269 48.184ZM355.025 39.184L347.873 52H344.921L343.193 43.168L338.177 52H335.273L332.921 39.184H335.657L337.289 48.616L342.641 39.184H345.209L346.913 48.616L352.193 39.184H355.025ZM367.51 44.656C367.51 45.28 367.446 45.888 367.318 46.48H357.142C357.19 48.576 358.422 49.624 360.838 49.624C361.574 49.624 362.262 49.512 362.902 49.288C363.542 49.048 364.086 48.72 364.534 48.304L365.782 50.392C365.126 50.984 364.334 51.432 363.406 51.736C362.494 52.024 361.534 52.168 360.526 52.168C359.246 52.168 358.126 51.936 357.166 51.472C356.222 51.008 355.494 50.352 354.982 49.504C354.47 48.64 354.214 47.648 354.214 46.528C354.214 45.104 354.526 43.824 355.15 42.688C355.79 41.536 356.67 40.64 357.79 40C358.926 39.36 360.198 39.04 361.606 39.04C363.398 39.04 364.83 39.544 365.902 40.552C366.974 41.544 367.51 42.912 367.51 44.656ZM361.462 41.44C360.454 41.44 359.59 41.712 358.87 42.256C358.166 42.8 357.678 43.544 357.406 44.488H364.75C364.766 43.528 364.47 42.784 363.862 42.256C363.27 41.712 362.47 41.44 361.462 41.44ZM385.115 39.04C386.555 39.04 387.691 39.416 388.523 40.168C389.371 40.92 389.795 41.992 389.795 43.384C389.795 43.768 389.739 44.272 389.627 44.896L388.211 52H385.211L386.603 44.968C386.667 44.648 386.699 44.32 386.699 43.984C386.699 42.432 385.843 41.656 384.131 41.656C383.027 41.656 382.115 41.968 381.395 42.592C380.675 43.2 380.187 44.12 379.931 45.352L378.587 52H375.587L379.139 34.192H382.139L380.891 40.456C381.995 39.512 383.403 39.04 385.115 39.04ZM407.206 39.184L404.661 52H401.806L402.07 50.68C400.95 51.672 399.558 52.168 397.894 52.168C396.838 52.168 395.878 51.944 395.014 51.496C394.166 51.048 393.494 50.4 392.998 49.552C392.502 48.688 392.254 47.68 392.254 46.528C392.254 45.104 392.566 43.824 393.19 42.688C393.83 41.536 394.694 40.64 395.782 40C396.886 39.36 398.118 39.04 399.478 39.04C401.526 39.04 402.982 39.72 403.846 41.08L404.206 39.184H407.206ZM398.662 49.6C399.51 49.6 400.262 49.4 400.918 49C401.59 48.584 402.118 48.016 402.502 47.296C402.886 46.56 403.078 45.728 403.078 44.8C403.078 43.792 402.782 43.008 402.19 42.448C401.598 41.872 400.766 41.584 399.694 41.584C398.846 41.584 398.086 41.792 397.414 42.208C396.758 42.608 396.238 43.176 395.854 43.912C395.47 44.632 395.278 45.456 395.278 46.384C395.278 47.392 395.574 48.184 396.166 48.76C396.758 49.32 397.59 49.6 398.662 49.6ZM424.667 34.192L421.115 52H418.259L418.523 50.68C417.371 51.672 415.987 52.168 414.371 52.168C413.315 52.168 412.355 51.944 411.491 51.496C410.643 51.048 409.971 50.4 409.475 49.552C408.979 48.688 408.731 47.68 408.731 46.528C408.731 45.088 409.043 43.8 409.667 42.664C410.291 41.528 411.147 40.64 412.235 40C413.339 39.36 414.571 39.04 415.931 39.04C416.939 39.04 417.811 39.208 418.547 39.544C419.299 39.88 419.883 40.376 420.299 41.032L421.667 34.192H424.667ZM415.139 49.6C415.971 49.6 416.723 49.4 417.395 49C418.067 48.584 418.587 48.016 418.955 47.296C419.339 46.56 419.531 45.728 419.531 44.8C419.531 43.792 419.235 43.008 418.643 42.448C418.051 41.872 417.219 41.584 416.147 41.584C415.315 41.584 414.563 41.792 413.891 42.208C413.219 42.608 412.691 43.176 412.307 43.912C411.939 44.632 411.755 45.456 411.755 46.384C411.755 47.392 412.051 48.184 412.643 48.76C413.235 49.32 414.067 49.6 415.139 49.6ZM435.248 34.192H438.248L434.696 52H431.696L435.248 34.192ZM452.049 44.656C452.049 45.28 451.986 45.888 451.858 46.48H441.682C441.73 48.576 442.962 49.624 445.378 49.624C446.114 49.624 446.802 49.512 447.442 49.288C448.082 49.048 448.626 48.72 449.074 48.304L450.322 50.392C449.666 50.984 448.874 51.432 447.946 51.736C447.034 52.024 446.074 52.168 445.066 52.168C443.786 52.168 442.666 51.936 441.706 51.472C440.762 51.008 440.034 50.352 439.521 49.504C439.01 48.64 438.754 47.648 438.754 46.528C438.754 45.104 439.066 43.824 439.69 42.688C440.33 41.536 441.21 40.64 442.33 40C443.466 39.36 444.738 39.04 446.146 39.04C447.938 39.04 449.37 39.544 450.442 40.552C451.514 41.544 452.049 42.912 452.049 44.656ZM446.002 41.44C444.994 41.44 444.13 41.712 443.41 42.256C442.706 42.8 442.218 43.544 441.946 44.488H449.29C449.306 43.528 449.01 42.784 448.402 42.256C447.81 41.712 447.01 41.44 446.002 41.44ZM461.773 36.448C461.149 36.448 460.653 36.624 460.285 36.976C459.917 37.328 459.653 37.864 459.493 38.584L459.349 39.28H462.853L462.373 41.68H458.941L456.877 52H453.877L455.941 41.68H453.853L454.333 39.28H456.421L456.613 38.368C456.901 36.992 457.477 35.928 458.341 35.176C459.221 34.408 460.365 34.024 461.773 34.024C462.333 34.024 462.853 34.088 463.333 34.216C463.829 34.344 464.245 34.536 464.581 34.792L463.357 36.976C462.925 36.624 462.397 36.448 461.773 36.448ZM466.576 47.704C466.544 47.96 466.528 48.144 466.528 48.256C466.528 49.216 467.032 49.696 468.04 49.696C468.664 49.696 469.224 49.528 469.72 49.192L470.248 51.4C469.432 51.912 468.4 52.168 467.152 52.168C466.048 52.168 465.16 51.864 464.488 51.256C463.816 50.648 463.48 49.808 463.48 48.736C463.48 48.384 463.512 48.048 463.576 47.728L464.8 41.68H462.712L463.192 39.28H465.28L465.856 36.352H468.856L468.256 39.28H471.712L471.232 41.68H467.776L466.576 47.704ZM483.381 47.704C483.349 47.96 483.333 48.144 483.333 48.256C483.333 49.216 483.837 49.696 484.845 49.696C485.469 49.696 486.029 49.528 486.525 49.192L487.053 51.4C486.237 51.912 485.205 52.168 483.957 52.168C482.853 52.168 481.965 51.864 481.293 51.256C480.621 50.648 480.285 49.808 480.285 48.736C480.285 48.384 480.317 48.048 480.381 47.728L481.605 41.68H479.517L479.997 39.28H482.085L482.661 36.352H485.661L485.061 39.28H488.517L488.037 41.68H484.581L483.381 47.704ZM498.857 39.04C500.297 39.04 501.433 39.416 502.265 40.168C503.113 40.92 503.537 41.992 503.537 43.384C503.537 43.768 503.481 44.272 503.369 44.896L501.953 52H498.953L500.345 44.968C500.409 44.648 500.441 44.32 500.441 43.984C500.441 42.432 499.585 41.656 497.873 41.656C496.769 41.656 495.857 41.968 495.137 42.592C494.417 43.2 493.929 44.12 493.673 45.352L492.329 52H489.329L492.881 34.192H495.881L494.633 40.456C495.737 39.512 497.145 39.04 498.857 39.04ZM519.292 44.656C519.292 45.28 519.228 45.888 519.1 46.48H508.924C508.972 48.576 510.204 49.624 512.62 49.624C513.356 49.624 514.044 49.512 514.684 49.288C515.324 49.048 515.868 48.72 516.316 48.304L517.564 50.392C516.908 50.984 516.116 51.432 515.188 51.736C514.276 52.024 513.316 52.168 512.308 52.168C511.028 52.168 509.908 51.936 508.948 51.472C508.004 51.008 507.276 50.352 506.764 49.504C506.252 48.64 505.996 47.648 505.996 46.528C505.996 45.104 506.308 43.824 506.932 42.688C507.572 41.536 508.452 40.64 509.572 40C510.708 39.36 511.98 39.04 513.388 39.04C515.18 39.04 516.612 39.544 517.684 40.552C518.756 41.544 519.292 42.912 519.292 44.656ZM513.244 41.44C512.236 41.44 511.372 41.712 510.652 42.256C509.948 42.8 509.46 43.544 509.188 44.488H516.532C516.548 43.528 516.252 42.784 515.644 42.256C515.052 41.712 514.252 41.44 513.244 41.44ZM542.656 39.184L540.472 50.056C539.992 52.408 539.104 54.12 537.808 55.192C536.512 56.28 534.76 56.824 532.552 56.824C530.04 56.824 528.04 56.24 526.552 55.072L528.112 52.816C528.608 53.248 529.264 53.592 530.08 53.848C530.912 54.12 531.8 54.256 532.744 54.256C534.12 54.256 535.176 53.952 535.912 53.344C536.648 52.736 537.136 51.808 537.376 50.56L537.496 49.936C536.344 50.928 534.944 51.424 533.296 51.424C532.192 51.424 531.2 51.208 530.32 50.776C529.456 50.344 528.776 49.728 528.28 48.928C527.8 48.128 527.56 47.192 527.56 46.12C527.56 44.808 527.872 43.616 528.496 42.544C529.12 41.456 529.984 40.6 531.088 39.976C532.208 39.352 533.456 39.04 534.832 39.04C535.84 39.04 536.744 39.232 537.544 39.616C538.344 39.984 538.952 40.544 539.368 41.296L539.776 39.184H542.656ZM533.968 48.88C534.816 48.88 535.568 48.696 536.224 48.328C536.896 47.944 537.416 47.424 537.784 46.768C538.168 46.096 538.36 45.344 538.36 44.512C538.36 43.6 538.064 42.888 537.472 42.376C536.88 41.848 536.056 41.584 535 41.584C534.152 41.584 533.392 41.776 532.72 42.16C532.048 42.528 531.52 43.048 531.136 43.72C530.768 44.376 530.584 45.12 530.584 45.952C530.584 46.848 530.88 47.56 531.472 48.088C532.08 48.616 532.912 48.88 533.968 48.88ZM549.096 40.84C549.656 40.184 550.336 39.72 551.136 39.448C551.952 39.176 552.92 39.04 554.04 39.04L553.488 41.896C553.216 41.848 552.968 41.824 552.744 41.824C550.296 41.824 548.816 43.112 548.304 45.688L547.032 52H544.032L546.576 39.184H549.432L549.096 40.84ZM560.212 52.168C558.964 52.168 557.868 51.936 556.924 51.472C555.996 50.992 555.276 50.328 554.764 49.48C554.252 48.632 553.996 47.648 553.996 46.528C553.996 45.104 554.316 43.824 554.956 42.688C555.612 41.552 556.516 40.664 557.668 40.024C558.836 39.368 560.148 39.04 561.604 39.04C562.852 39.04 563.948 39.272 564.892 39.736C565.836 40.2 566.564 40.856 567.076 41.704C567.588 42.552 567.844 43.536 567.844 44.656C567.844 46.08 567.516 47.36 566.86 48.496C566.204 49.632 565.292 50.528 564.124 51.184C562.972 51.84 561.668 52.168 560.212 52.168ZM560.404 49.6C561.252 49.6 562.004 49.4 562.66 49C563.332 48.584 563.86 48.016 564.244 47.296C564.628 46.56 564.82 45.728 564.82 44.8C564.82 43.792 564.524 43.008 563.932 42.448C563.34 41.872 562.508 41.584 561.436 41.584C560.588 41.584 559.828 41.792 559.156 42.208C558.5 42.608 557.98 43.176 557.596 43.912C557.212 44.632 557.02 45.456 557.02 46.384C557.02 47.392 557.316 48.184 557.908 48.76C558.5 49.32 559.332 49.6 560.404 49.6ZM584.32 39.184L581.752 52H578.896L579.184 50.584C578.032 51.64 576.584 52.168 574.84 52.168C573.432 52.168 572.304 51.792 571.456 51.04C570.624 50.272 570.208 49.2 570.208 47.824C570.208 47.312 570.264 46.8 570.376 46.288L571.792 39.184H574.792L573.376 46.216C573.312 46.536 573.28 46.864 573.28 47.2C573.28 47.952 573.488 48.528 573.904 48.928C574.336 49.328 574.976 49.528 575.824 49.528C576.912 49.528 577.816 49.224 578.536 48.616C579.256 47.992 579.736 47.064 579.976 45.832L581.32 39.184H584.32ZM595.208 39.04C596.648 39.04 597.784 39.416 598.616 40.168C599.464 40.92 599.888 41.984 599.888 43.36C599.888 43.744 599.832 44.256 599.72 44.896L598.304 52H595.304L596.696 44.968C596.76 44.648 596.792 44.32 596.792 43.984C596.792 42.432 595.936 41.656 594.224 41.656C593.12 41.656 592.208 41.968 591.488 42.592C590.768 43.2 590.28 44.12 590.024 45.352L588.68 52H585.68L588.224 39.184H591.08L590.792 40.6C591.944 39.56 593.416 39.04 595.208 39.04ZM618.307 34.192L614.755 52H611.899L612.163 50.68C611.011 51.672 609.627 52.168 608.011 52.168C606.955 52.168 605.995 51.944 605.131 51.496C604.283 51.048 603.611 50.4 603.115 49.552C602.619 48.688 602.371 47.68 602.371 46.528C602.371 45.088 602.683 43.8 603.307 42.664C603.931 41.528 604.787 40.64 605.875 40C606.979 39.36 608.211 39.04 609.571 39.04C610.579 39.04 611.451 39.208 612.187 39.544C612.939 39.88 613.523 40.376 613.939 41.032L615.307 34.192H618.307ZM608.779 49.6C609.611 49.6 610.363 49.4 611.035 49C611.707 48.584 612.227 48.016 612.595 47.296C612.979 46.56 613.171 45.728 613.171 44.8C613.171 43.792 612.875 43.008 612.283 42.448C611.691 41.872 610.859 41.584 609.787 41.584C608.955 41.584 608.203 41.792 607.531 42.208C606.859 42.608 606.331 43.176 605.947 43.912C605.579 44.632 605.395 45.456 605.395 46.384C605.395 47.392 605.691 48.184 606.283 48.76C606.875 49.32 607.707 49.6 608.779 49.6ZM619.928 52.168C619.4 52.168 618.952 51.992 618.584 51.64C618.232 51.288 618.056 50.84 618.056 50.296C618.056 49.688 618.256 49.184 618.656 48.784C619.056 48.384 619.552 48.184 620.144 48.184C620.672 48.184 621.112 48.36 621.464 48.712C621.816 49.064 621.992 49.512 621.992 50.056C621.992 50.68 621.784 51.192 621.368 51.592C620.968 51.976 620.488 52.168 619.928 52.168Z" fill="black"/>
</svg>
