<svg width="626" height="62" viewBox="0 0 626 62" fill="none" xmlns="http://www.w3.org/2000/svg">
<rect width="626" height="62" fill="white" fill-opacity="0.13"/>
<rect x="1" width="625" height="61.9658" fill="white"/>
<path d="M8.464 23.24C7.168 23.24 5.912 23.056 4.696 22.688C3.496 22.32 2.544 21.832 1.84 21.224L2.92 18.8C3.608 19.344 4.448 19.792 5.44 20.144C6.448 20.48 7.456 20.648 8.464 20.648C9.712 20.648 10.64 20.448 11.248 20.048C11.872 19.648 12.184 19.12 12.184 18.464C12.184 17.984 12.008 17.592 11.656 17.288C11.32 16.968 10.888 16.72 10.36 16.544C9.832 16.368 9.112 16.168 8.2 15.944C6.92 15.64 5.88 15.336 5.08 15.032C4.296 14.728 3.616 14.256 3.04 13.616C2.48 12.96 2.2 12.08 2.2 10.976C2.2 10.048 2.448 9.208 2.944 8.456C3.456 7.688 4.216 7.08 5.224 6.632C6.248 6.184 7.496 5.96 8.968 5.96C9.992 5.96 11 6.088 11.992 6.344C12.984 6.6 13.84 6.968 14.56 7.448L13.576 9.872C12.84 9.44 12.072 9.112 11.272 8.888C10.472 8.664 9.696 8.552 8.944 8.552C7.712 8.552 6.792 8.76 6.184 9.176C5.592 9.592 5.296 10.144 5.296 10.832C5.296 11.312 5.464 11.704 5.8 12.008C6.152 12.312 6.592 12.552 7.12 12.728C7.648 12.904 8.368 13.104 9.28 13.328C10.528 13.616 11.552 13.92 12.352 14.24C13.152 14.544 13.832 15.016 14.392 15.656C14.968 16.296 15.256 17.16 15.256 18.248C15.256 19.176 15 20.016 14.488 20.768C13.992 21.52 13.232 22.12 12.208 22.568C11.184 23.016 9.936 23.24 8.464 23.24ZM30.1098 16.664C30.1098 16.872 30.0938 17.168 30.0618 17.552H20.0058C20.1818 18.496 20.6378 19.248 21.3738 19.808C22.1258 20.352 23.0538 20.624 24.1578 20.624C25.5658 20.624 26.7258 20.16 27.6378 19.232L29.2458 21.08C28.6698 21.768 27.9418 22.288 27.0618 22.64C26.1818 22.992 25.1898 23.168 24.0858 23.168C22.6778 23.168 21.4378 22.888 20.3658 22.328C19.2938 21.768 18.4618 20.992 17.8698 20C17.2938 18.992 17.0058 17.856 17.0058 16.592C17.0058 15.344 17.2858 14.224 17.8458 13.232C18.4218 12.224 19.2138 11.44 20.2218 10.88C21.2298 10.32 22.3658 10.04 23.6298 10.04C24.8778 10.04 25.9898 10.32 26.9658 10.88C27.9578 11.424 28.7258 12.2 29.2698 13.208C29.8298 14.2 30.1098 15.352 30.1098 16.664ZM23.6298 12.44C22.6698 12.44 21.8538 12.728 21.1818 13.304C20.5258 13.864 20.1258 14.616 19.9818 15.56H27.2538C27.1258 14.632 26.7338 13.88 26.0778 13.304C25.4218 12.728 24.6058 12.44 23.6298 12.44ZM49.1674 10.04C50.7834 10.04 52.0634 10.512 53.0074 11.456C53.9514 12.384 54.4234 13.784 54.4234 15.656V23H51.4234V16.04C51.4234 14.92 51.1754 14.08 50.6794 13.52C50.1834 12.944 49.4714 12.656 48.5434 12.656C47.5354 12.656 46.7274 12.992 46.1194 13.664C45.5114 14.32 45.2074 15.264 45.2074 16.496V23H42.2074V16.04C42.2074 14.92 41.9594 14.08 41.4634 13.52C40.9674 12.944 40.2554 12.656 39.3274 12.656C38.3034 12.656 37.4874 12.984 36.8794 13.64C36.2874 14.296 35.9914 15.248 35.9914 16.496V23H32.9914V10.184H35.8474V11.816C36.3274 11.24 36.9274 10.8 37.6474 10.496C38.3674 10.192 39.1674 10.04 40.0474 10.04C41.0074 10.04 41.8554 10.224 42.5914 10.592C43.3434 10.944 43.9354 11.472 44.3674 12.176C44.8954 11.504 45.5754 10.984 46.4074 10.616C47.2394 10.232 48.1594 10.04 49.1674 10.04ZM58.2571 10.184H61.2571V23H58.2571V10.184ZM59.7691 8.072C59.2251 8.072 58.7691 7.904 58.4011 7.568C58.0331 7.216 57.8491 6.784 57.8491 6.272C57.8491 5.76 58.0331 5.336 58.4011 5C58.7691 4.648 59.2251 4.472 59.7691 4.472C60.3131 4.472 60.7691 4.64 61.1371 4.976C61.5051 5.296 61.6891 5.704 61.6891 6.2C61.6891 6.728 61.5051 7.176 61.1371 7.544C60.7851 7.896 60.3291 8.072 59.7691 8.072ZM64.5466 15.08H71.1466V17.576H64.5466V15.08ZM81.5329 10.04C82.7809 10.04 83.8929 10.312 84.8689 10.856C85.8609 11.4 86.6369 12.168 87.1969 13.16C87.7569 14.152 88.0369 15.296 88.0369 16.592C88.0369 17.888 87.7569 19.04 87.1969 20.048C86.6369 21.04 85.8609 21.808 84.8689 22.352C83.8929 22.896 82.7809 23.168 81.5329 23.168C80.6529 23.168 79.8449 23.016 79.1089 22.712C78.3889 22.408 77.7809 21.952 77.2849 21.344V23H74.4289V5.192H77.4289V11.744C77.9409 11.184 78.5409 10.76 79.2289 10.472C79.9329 10.184 80.7009 10.04 81.5329 10.04ZM81.1969 20.6C82.3009 20.6 83.2049 20.232 83.9089 19.496C84.6289 18.76 84.9889 17.792 84.9889 16.592C84.9889 15.392 84.6289 14.424 83.9089 13.688C83.2049 12.952 82.3009 12.584 81.1969 12.584C80.4769 12.584 79.8289 12.752 79.2529 13.088C78.6769 13.408 78.2209 13.872 77.8849 14.48C77.5489 15.088 77.3809 15.792 77.3809 16.592C77.3809 17.392 77.5489 18.096 77.8849 18.704C78.2209 19.312 78.6769 19.784 79.2529 20.12C79.8289 20.44 80.4769 20.6 81.1969 20.6ZM96.6421 23.168C95.3461 23.168 94.1781 22.888 93.1381 22.328C92.0981 21.768 91.2821 20.992 90.6901 20C90.1141 18.992 89.8261 17.856 89.8261 16.592C89.8261 15.328 90.1141 14.2 90.6901 13.208C91.2821 12.216 92.0981 11.44 93.1381 10.88C94.1781 10.32 95.3461 10.04 96.6421 10.04C97.9541 10.04 99.1301 10.32 100.17 10.88C101.21 11.44 102.018 12.216 102.594 13.208C103.186 14.2 103.482 15.328 103.482 16.592C103.482 17.856 103.186 18.992 102.594 20C102.018 20.992 101.21 21.768 100.17 22.328C99.1301 22.888 97.9541 23.168 96.6421 23.168ZM96.6421 20.6C97.7461 20.6 98.6581 20.232 99.3781 19.496C100.098 18.76 100.458 17.792 100.458 16.592C100.458 15.392 100.098 14.424 99.3781 13.688C98.6581 12.952 97.7461 12.584 96.6421 12.584C95.5381 12.584 94.6261 12.952 93.9061 13.688C93.2021 14.424 92.8501 15.392 92.8501 16.592C92.8501 17.792 93.2021 18.76 93.9061 19.496C94.6261 20.232 95.5381 20.6 96.6421 20.6ZM106.351 5.192H109.351V23H106.351V5.192ZM125.84 5.192V23H122.96V21.344C122.464 21.952 121.848 22.408 121.112 22.712C120.392 23.016 119.592 23.168 118.712 23.168C117.48 23.168 116.368 22.896 115.376 22.352C114.4 21.808 113.632 21.04 113.072 20.048C112.512 19.04 112.232 17.888 112.232 16.592C112.232 15.296 112.512 14.152 113.072 13.16C113.632 12.168 114.4 11.4 115.376 10.856C116.368 10.312 117.48 10.04 118.712 10.04C119.56 10.04 120.336 10.184 121.04 10.472C121.744 10.76 122.344 11.192 122.84 11.768V5.192H125.84ZM119.072 20.6C119.792 20.6 120.44 20.44 121.016 20.12C121.592 19.784 122.048 19.312 122.384 18.704C122.72 18.096 122.888 17.392 122.888 16.592C122.888 15.792 122.72 15.088 122.384 14.48C122.048 13.872 121.592 13.408 121.016 13.088C120.44 12.752 119.792 12.584 119.072 12.584C118.352 12.584 117.704 12.752 117.128 13.088C116.552 13.408 116.096 13.872 115.76 14.48C115.424 15.088 115.256 15.792 115.256 16.592C115.256 17.392 115.424 18.096 115.76 18.704C116.096 19.312 116.552 19.784 117.128 20.12C117.704 20.44 118.352 20.6 119.072 20.6ZM143.118 12.632C144.222 12.632 145.214 12.848 146.094 13.28C146.974 13.696 147.662 14.296 148.158 15.08C148.654 15.864 148.902 16.768 148.902 17.792C148.902 18.88 148.63 19.84 148.086 20.672C147.542 21.488 146.806 22.12 145.878 22.568C144.95 23.016 143.91 23.24 142.758 23.24C140.454 23.24 138.662 22.52 137.382 21.08C136.118 19.64 135.486 17.576 135.486 14.888C135.486 13 135.83 11.392 136.518 10.064C137.206 8.72 138.166 7.704 139.398 7.016C140.646 6.312 142.086 5.96 143.718 5.96C144.582 5.96 145.39 6.056 146.142 6.248C146.91 6.424 147.574 6.688 148.134 7.04L146.982 9.392C146.15 8.848 145.086 8.576 143.79 8.576C142.174 8.576 140.91 9.072 139.998 10.064C139.086 11.056 138.63 12.488 138.63 14.36V14.384C139.126 13.808 139.758 13.376 140.526 13.088C141.294 12.784 142.158 12.632 143.118 12.632ZM142.59 20.792C143.566 20.792 144.358 20.536 144.966 20.024C145.574 19.496 145.878 18.8 145.878 17.936C145.878 17.056 145.574 16.36 144.966 15.848C144.358 15.336 143.542 15.08 142.518 15.08C141.51 15.08 140.686 15.352 140.046 15.896C139.422 16.44 139.11 17.128 139.11 17.96C139.11 18.776 139.414 19.456 140.022 20C140.646 20.528 141.502 20.792 142.59 20.792ZM157.541 23.24C156.197 23.24 154.997 22.904 153.941 22.232C152.885 21.544 152.053 20.552 151.445 19.256C150.837 17.944 150.533 16.392 150.533 14.6C150.533 12.808 150.837 11.264 151.445 9.968C152.053 8.656 152.885 7.664 153.941 6.992C154.997 6.304 156.197 5.96 157.541 5.96C158.885 5.96 160.085 6.304 161.141 6.992C162.213 7.664 163.053 8.656 163.661 9.968C164.269 11.264 164.573 12.808 164.573 14.6C164.573 16.392 164.269 17.944 163.661 19.256C163.053 20.552 162.213 21.544 161.141 22.232C160.085 22.904 158.885 23.24 157.541 23.24ZM157.541 20.528C158.741 20.528 159.685 20.032 160.373 19.04C161.077 18.048 161.429 16.568 161.429 14.6C161.429 12.632 161.077 11.152 160.373 10.16C159.685 9.168 158.741 8.672 157.541 8.672C156.357 8.672 155.413 9.168 154.709 10.16C154.021 11.152 153.677 12.632 153.677 14.6C153.677 16.568 154.021 18.048 154.709 19.04C155.413 20.032 156.357 20.528 157.541 20.528ZM173.689 23.24C172.345 23.24 171.145 22.904 170.089 22.232C169.033 21.544 168.201 20.552 167.593 19.256C166.985 17.944 166.681 16.392 166.681 14.6C166.681 12.808 166.985 11.264 167.593 9.968C168.201 8.656 169.033 7.664 170.089 6.992C171.145 6.304 172.345 5.96 173.689 5.96C175.033 5.96 176.233 6.304 177.289 6.992C178.361 7.664 179.201 8.656 179.809 9.968C180.417 11.264 180.721 12.808 180.721 14.6C180.721 16.392 180.417 17.944 179.809 19.256C179.201 20.552 178.361 21.544 177.289 22.232C176.233 22.904 175.033 23.24 173.689 23.24ZM173.689 20.528C174.889 20.528 175.833 20.032 176.521 19.04C177.225 18.048 177.577 16.568 177.577 14.6C177.577 12.632 177.225 11.152 176.521 10.16C175.833 9.168 174.889 8.672 173.689 8.672C172.505 8.672 171.561 9.168 170.857 10.16C170.169 11.152 169.825 12.632 169.825 14.6C169.825 16.568 170.169 18.048 170.857 19.04C171.561 20.032 172.505 20.528 173.689 20.528ZM14.152 48.112H5.752L4.096 52H0.88L8.44 35.2H11.512L19.096 52H15.832L14.152 48.112ZM13.12 45.664L9.952 38.32L6.808 45.664H13.12ZM20.9446 34.192H23.9446V52H20.9446V34.192ZM44.0581 39.04C45.6741 39.04 46.9541 39.512 47.8981 40.456C48.8421 41.384 49.3141 42.784 49.3141 44.656V52H46.3141V45.04C46.3141 43.92 46.0661 43.08 45.5701 42.52C45.0741 41.944 44.3621 41.656 43.4341 41.656C42.4261 41.656 41.6181 41.992 41.0101 42.664C40.4021 43.32 40.0981 44.264 40.0981 45.496V52H37.0981V45.04C37.0981 43.92 36.8501 43.08 36.3541 42.52C35.8581 41.944 35.1461 41.656 34.2181 41.656C33.1941 41.656 32.3781 41.984 31.7701 42.64C31.1781 43.296 30.8821 44.248 30.8821 45.496V52H27.8821V39.184H30.7381V40.816C31.2181 40.24 31.8181 39.8 32.5381 39.496C33.2581 39.192 34.0581 39.04 34.9381 39.04C35.8981 39.04 36.7461 39.224 37.4821 39.592C38.2341 39.944 38.8261 40.472 39.2581 41.176C39.7861 40.504 40.4661 39.984 41.2981 39.616C42.1301 39.232 43.0501 39.04 44.0581 39.04ZM59.0249 52.168C57.7289 52.168 56.5609 51.888 55.5209 51.328C54.4809 50.768 53.6649 49.992 53.0729 49C52.4969 47.992 52.2089 46.856 52.2089 45.592C52.2089 44.328 52.4969 43.2 53.0729 42.208C53.6649 41.216 54.4809 40.44 55.5209 39.88C56.5609 39.32 57.7289 39.04 59.0249 39.04C60.3369 39.04 61.5129 39.32 62.5529 39.88C63.5929 40.44 64.4009 41.216 64.9769 42.208C65.5689 43.2 65.8649 44.328 65.8649 45.592C65.8649 46.856 65.5689 47.992 64.9769 49C64.4009 49.992 63.5929 50.768 62.5529 51.328C61.5129 51.888 60.3369 52.168 59.0249 52.168ZM59.0249 49.6C60.1289 49.6 61.0409 49.232 61.7609 48.496C62.4809 47.76 62.8409 46.792 62.8409 45.592C62.8409 44.392 62.4809 43.424 61.7609 42.688C61.0409 41.952 60.1289 41.584 59.0249 41.584C57.9209 41.584 57.0089 41.952 56.2889 42.688C55.5849 43.424 55.2329 44.392 55.2329 45.592C55.2329 46.792 55.5849 47.76 56.2889 48.496C57.0089 49.232 57.9209 49.6 59.0249 49.6ZM72.6936 52.168C71.6536 52.168 70.6376 52.032 69.6456 51.76C68.6536 51.488 67.8616 51.144 67.2696 50.728L68.4216 48.448C68.9976 48.832 69.6856 49.144 70.4856 49.384C71.3016 49.608 72.1016 49.72 72.8856 49.72C74.6776 49.72 75.5736 49.248 75.5736 48.304C75.5736 47.856 75.3416 47.544 74.8776 47.368C74.4296 47.192 73.7016 47.024 72.6936 46.864C71.6376 46.704 70.7736 46.52 70.1016 46.312C69.4456 46.104 68.8696 45.744 68.3736 45.232C67.8936 44.704 67.6536 43.976 67.6536 43.048C67.6536 41.832 68.1576 40.864 69.1656 40.144C70.1896 39.408 71.5656 39.04 73.2936 39.04C74.1736 39.04 75.0536 39.144 75.9336 39.352C76.8136 39.544 77.5336 39.808 78.0936 40.144L76.9416 42.424C75.8536 41.784 74.6296 41.464 73.2696 41.464C72.3896 41.464 71.7176 41.6 71.2536 41.872C70.8056 42.128 70.5816 42.472 70.5816 42.904C70.5816 43.384 70.8216 43.728 71.3016 43.936C71.7976 44.128 72.5576 44.312 73.5816 44.488C74.6056 44.648 75.4456 44.832 76.1016 45.04C76.7576 45.248 77.3176 45.6 77.7816 46.096C78.2616 46.592 78.5016 47.296 78.5016 48.208C78.5016 49.408 77.9816 50.368 76.9416 51.088C75.9016 51.808 74.4856 52.168 72.6936 52.168ZM88.7892 51.304C88.4372 51.592 88.0052 51.808 87.4932 51.952C86.9972 52.096 86.4692 52.168 85.9092 52.168C84.5012 52.168 83.4132 51.8 82.6452 51.064C81.8772 50.328 81.4932 49.256 81.4932 47.848V41.68H79.3812V39.28H81.4932V36.352H84.4932V39.28H87.9252V41.68H84.4932V47.776C84.4932 48.4 84.6452 48.88 84.9492 49.216C85.2532 49.536 85.6932 49.696 86.2692 49.696C86.9412 49.696 87.5012 49.52 87.9492 49.168L88.7892 51.304ZM104.994 39.04C106.242 39.04 107.354 39.312 108.33 39.856C109.322 40.4 110.098 41.168 110.658 42.16C111.218 43.152 111.498 44.296 111.498 45.592C111.498 46.888 111.218 48.04 110.658 49.048C110.098 50.04 109.322 50.808 108.33 51.352C107.354 51.896 106.242 52.168 104.994 52.168C104.114 52.168 103.306 52.016 102.57 51.712C101.85 51.408 101.242 50.952 100.746 50.344V52H97.8899V34.192H100.89V40.744C101.402 40.184 102.002 39.76 102.69 39.472C103.394 39.184 104.162 39.04 104.994 39.04ZM104.658 49.6C105.762 49.6 106.666 49.232 107.37 48.496C108.09 47.76 108.45 46.792 108.45 45.592C108.45 44.392 108.09 43.424 107.37 42.688C106.666 41.952 105.762 41.584 104.658 41.584C103.938 41.584 103.29 41.752 102.714 42.088C102.138 42.408 101.682 42.872 101.346 43.48C101.01 44.088 100.842 44.792 100.842 45.592C100.842 46.392 101.01 47.096 101.346 47.704C101.682 48.312 102.138 48.784 102.714 49.12C103.29 49.44 103.938 49.6 104.658 49.6ZM126.391 45.664C126.391 45.872 126.375 46.168 126.343 46.552H116.287C116.463 47.496 116.919 48.248 117.655 48.808C118.407 49.352 119.335 49.624 120.439 49.624C121.847 49.624 123.007 49.16 123.919 48.232L125.527 50.08C124.951 50.768 124.223 51.288 123.343 51.64C122.463 51.992 121.471 52.168 120.367 52.168C118.959 52.168 117.719 51.888 116.647 51.328C115.575 50.768 114.743 49.992 114.151 49C113.575 47.992 113.287 46.856 113.287 45.592C113.287 44.344 113.567 43.224 114.127 42.232C114.703 41.224 115.495 40.44 116.503 39.88C117.511 39.32 118.647 39.04 119.911 39.04C121.159 39.04 122.271 39.32 123.247 39.88C124.239 40.424 125.007 41.2 125.551 42.208C126.111 43.2 126.391 44.352 126.391 45.664ZM119.911 41.44C118.951 41.44 118.135 41.728 117.463 42.304C116.807 42.864 116.407 43.616 116.263 44.56H123.535C123.407 43.632 123.015 42.88 122.359 42.304C121.703 41.728 120.887 41.44 119.911 41.44ZM134.481 36.448C133.217 36.448 132.585 37.136 132.585 38.512V39.28H136.113V41.68H132.681V52H129.681V41.68H127.569V39.28H129.681V38.464C129.681 37.088 130.081 36.008 130.881 35.224C131.681 34.424 132.809 34.024 134.265 34.024C135.417 34.024 136.321 34.256 136.977 34.72L136.137 36.976C135.625 36.624 135.073 36.448 134.481 36.448ZM143.705 52.168C142.409 52.168 141.241 51.888 140.201 51.328C139.161 50.768 138.345 49.992 137.753 49C137.177 47.992 136.889 46.856 136.889 45.592C136.889 44.328 137.177 43.2 137.753 42.208C138.345 41.216 139.161 40.44 140.201 39.88C141.241 39.32 142.409 39.04 143.705 39.04C145.017 39.04 146.193 39.32 147.233 39.88C148.273 40.44 149.081 41.216 149.657 42.208C150.249 43.2 150.545 44.328 150.545 45.592C150.545 46.856 150.249 47.992 149.657 49C149.081 49.992 148.273 50.768 147.233 51.328C146.193 51.888 145.017 52.168 143.705 52.168ZM143.705 49.6C144.809 49.6 145.721 49.232 146.441 48.496C147.161 47.76 147.521 46.792 147.521 45.592C147.521 44.392 147.161 43.424 146.441 42.688C145.721 41.952 144.809 41.584 143.705 41.584C142.601 41.584 141.689 41.952 140.969 42.688C140.265 43.424 139.913 44.392 139.913 45.592C139.913 46.792 140.265 47.76 140.969 48.496C141.689 49.232 142.601 49.6 143.705 49.6ZM156.269 41.056C157.133 39.712 158.653 39.04 160.829 39.04V41.896C160.573 41.848 160.341 41.824 160.133 41.824C158.965 41.824 158.053 42.168 157.397 42.856C156.741 43.528 156.413 44.504 156.413 45.784V52H153.413V39.184H156.269V41.056ZM175.305 45.664C175.305 45.872 175.289 46.168 175.257 46.552H165.201C165.377 47.496 165.833 48.248 166.569 48.808C167.321 49.352 168.249 49.624 169.353 49.624C170.761 49.624 171.921 49.16 172.833 48.232L174.441 50.08C173.865 50.768 173.137 51.288 172.257 51.64C171.377 51.992 170.385 52.168 169.281 52.168C167.873 52.168 166.633 51.888 165.561 51.328C164.489 50.768 163.657 49.992 163.065 49C162.489 47.992 162.201 46.856 162.201 45.592C162.201 44.344 162.481 43.224 163.041 42.232C163.617 41.224 164.409 40.44 165.417 39.88C166.425 39.32 167.561 39.04 168.825 39.04C170.073 39.04 171.185 39.32 172.161 39.88C173.153 40.424 173.921 41.2 174.465 42.208C175.025 43.2 175.305 44.352 175.305 45.664ZM168.825 41.44C167.865 41.44 167.049 41.728 166.377 42.304C165.721 42.864 165.321 43.616 165.177 44.56H172.449C172.321 43.632 171.929 42.88 171.273 42.304C170.617 41.728 169.801 41.44 168.825 41.44ZM204.812 39.184L200.084 52H197.204L193.892 43.168L190.532 52H187.652L182.948 39.184H185.78L189.164 48.64L192.692 39.184H195.212L198.668 48.688L202.148 39.184H204.812ZM218.571 45.664C218.571 45.872 218.555 46.168 218.523 46.552H208.467C208.643 47.496 209.099 48.248 209.835 48.808C210.587 49.352 211.515 49.624 212.619 49.624C214.027 49.624 215.187 49.16 216.099 48.232L217.707 50.08C217.131 50.768 216.403 51.288 215.523 51.64C214.643 51.992 213.651 52.168 212.547 52.168C211.139 52.168 209.899 51.888 208.827 51.328C207.755 50.768 206.923 49.992 206.331 49C205.755 47.992 205.467 46.856 205.467 45.592C205.467 44.344 205.747 43.224 206.307 42.232C206.883 41.224 207.675 40.44 208.683 39.88C209.691 39.32 210.827 39.04 212.091 39.04C213.339 39.04 214.451 39.32 215.427 39.88C216.419 40.424 217.187 41.2 217.731 42.208C218.291 43.2 218.571 44.352 218.571 45.664ZM212.091 41.44C211.131 41.44 210.315 41.728 209.643 42.304C208.987 42.864 208.587 43.616 208.443 44.56H215.715C215.587 43.632 215.195 42.88 214.539 42.304C213.883 41.728 213.067 41.44 212.091 41.44ZM233.317 46.504L231.085 48.616V52H228.085V34.192H231.085V44.944L237.301 39.184H240.901L235.549 44.56L241.405 52H237.757L233.317 46.504ZM250.498 39.04C252.114 39.04 253.41 39.512 254.386 40.456C255.362 41.4 255.85 42.8 255.85 44.656V52H252.85V45.04C252.85 43.92 252.586 43.08 252.058 42.52C251.53 41.944 250.778 41.656 249.802 41.656C248.698 41.656 247.826 41.992 247.186 42.664C246.546 43.32 246.226 44.272 246.226 45.52V52H243.226V39.184H246.082V40.84C246.578 40.248 247.202 39.8 247.954 39.496C248.706 39.192 249.554 39.04 250.498 39.04ZM271.821 45.664C271.821 45.872 271.805 46.168 271.773 46.552H261.717C261.893 47.496 262.349 48.248 263.085 48.808C263.837 49.352 264.765 49.624 265.869 49.624C267.277 49.624 268.437 49.16 269.349 48.232L270.957 50.08C270.381 50.768 269.653 51.288 268.773 51.64C267.893 51.992 266.901 52.168 265.797 52.168C264.389 52.168 263.149 51.888 262.077 51.328C261.005 50.768 260.173 49.992 259.581 49C259.005 47.992 258.717 46.856 258.717 45.592C258.717 44.344 258.997 43.224 259.557 42.232C260.133 41.224 260.925 40.44 261.933 39.88C262.941 39.32 264.077 39.04 265.341 39.04C266.589 39.04 267.701 39.32 268.677 39.88C269.669 40.424 270.437 41.2 270.981 42.208C271.541 43.2 271.821 44.352 271.821 45.664ZM265.341 41.44C264.381 41.44 263.565 41.728 262.893 42.304C262.237 42.864 261.837 43.616 261.693 44.56H268.965C268.837 43.632 268.445 42.88 267.789 42.304C267.133 41.728 266.317 41.44 265.341 41.44ZM294.46 39.184L289.732 52H286.852L283.54 43.168L280.18 52H277.3L272.596 39.184H275.428L278.812 48.64L282.34 39.184H284.86L288.316 48.688L291.796 39.184H294.46ZM303.156 39.184H306.156V52H303.156V39.184ZM304.668 37.072C304.124 37.072 303.668 36.904 303.3 36.568C302.932 36.216 302.748 35.784 302.748 35.272C302.748 34.76 302.932 34.336 303.3 34C303.668 33.648 304.124 33.472 304.668 33.472C305.212 33.472 305.668 33.64 306.036 33.976C306.404 34.296 306.588 34.704 306.588 35.2C306.588 35.728 306.404 36.176 306.036 36.544C305.684 36.896 305.228 37.072 304.668 37.072ZM317.797 51.304C317.445 51.592 317.013 51.808 316.501 51.952C316.005 52.096 315.477 52.168 314.917 52.168C313.509 52.168 312.421 51.8 311.653 51.064C310.885 50.328 310.501 49.256 310.501 47.848V41.68H308.389V39.28H310.501V36.352H313.501V39.28H316.933V41.68H313.501V47.776C313.501 48.4 313.653 48.88 313.957 49.216C314.261 49.536 314.701 49.696 315.277 49.696C315.949 49.696 316.509 49.52 316.957 49.168L317.797 51.304ZM321.483 48.184C322.043 48.184 322.507 48.368 322.875 48.736C323.243 49.104 323.427 49.584 323.427 50.176C323.427 50.432 323.387 50.704 323.307 50.992C323.243 51.264 323.099 51.68 322.875 52.24L321.651 55.624H319.707L320.667 51.952C320.315 51.808 320.035 51.584 319.827 51.28C319.635 50.96 319.539 50.592 319.539 50.176C319.539 49.584 319.723 49.104 320.091 48.736C320.459 48.368 320.923 48.184 321.483 48.184ZM352.983 39.184L348.255 52H345.375L342.063 43.168L338.703 52H335.823L331.119 39.184H333.951L337.335 48.64L340.863 39.184H343.383L346.839 48.688L350.319 39.184H352.983ZM366.743 45.664C366.743 45.872 366.727 46.168 366.695 46.552H356.639C356.815 47.496 357.271 48.248 358.007 48.808C358.759 49.352 359.687 49.624 360.791 49.624C362.199 49.624 363.359 49.16 364.271 48.232L365.879 50.08C365.303 50.768 364.575 51.288 363.695 51.64C362.815 51.992 361.823 52.168 360.719 52.168C359.311 52.168 358.071 51.888 356.999 51.328C355.927 50.768 355.095 49.992 354.503 49C353.927 47.992 353.639 46.856 353.639 45.592C353.639 44.344 353.919 43.224 354.479 42.232C355.055 41.224 355.847 40.44 356.855 39.88C357.863 39.32 358.999 39.04 360.263 39.04C361.511 39.04 362.623 39.32 363.599 39.88C364.591 40.424 365.359 41.2 365.903 42.208C366.463 43.2 366.743 44.352 366.743 45.664ZM360.263 41.44C359.303 41.44 358.487 41.728 357.815 42.304C357.159 42.864 356.759 43.616 356.615 44.56H363.887C363.759 43.632 363.367 42.88 362.711 42.304C362.055 41.728 361.239 41.44 360.263 41.44ZM383.529 39.04C385.145 39.04 386.441 39.512 387.417 40.456C388.393 41.4 388.881 42.8 388.881 44.656V52H385.881V45.04C385.881 43.92 385.617 43.08 385.089 42.52C384.561 41.944 383.809 41.656 382.833 41.656C381.729 41.656 380.857 41.992 380.217 42.664C379.577 43.32 379.257 44.272 379.257 45.52V52H376.257V34.192H379.257V40.672C379.753 40.144 380.361 39.744 381.081 39.472C381.817 39.184 382.633 39.04 383.529 39.04ZM397.583 39.04C399.471 39.04 400.911 39.496 401.903 40.408C402.911 41.304 403.415 42.664 403.415 44.488V52H400.583V50.44C400.215 51 399.687 51.432 398.999 51.736C398.327 52.024 397.511 52.168 396.551 52.168C395.591 52.168 394.751 52.008 394.031 51.688C393.311 51.352 392.751 50.896 392.351 50.32C391.967 49.728 391.775 49.064 391.775 48.328C391.775 47.176 392.199 46.256 393.047 45.568C393.911 44.864 395.263 44.512 397.103 44.512H400.415V44.32C400.415 43.424 400.143 42.736 399.599 42.256C399.071 41.776 398.279 41.536 397.223 41.536C396.503 41.536 395.791 41.648 395.087 41.872C394.399 42.096 393.815 42.408 393.335 42.808L392.159 40.624C392.831 40.112 393.639 39.72 394.583 39.448C395.527 39.176 396.527 39.04 397.583 39.04ZM397.175 49.984C397.927 49.984 398.591 49.816 399.167 49.48C399.759 49.128 400.175 48.632 400.415 47.992V46.504H397.319C395.591 46.504 394.727 47.072 394.727 48.208C394.727 48.752 394.943 49.184 395.375 49.504C395.807 49.824 396.407 49.984 397.175 49.984ZM419.934 34.192V52H417.054V50.344C416.558 50.952 415.942 51.408 415.206 51.712C414.486 52.016 413.686 52.168 412.806 52.168C411.574 52.168 410.462 51.896 409.47 51.352C408.494 50.808 407.726 50.04 407.166 49.048C406.606 48.04 406.326 46.888 406.326 45.592C406.326 44.296 406.606 43.152 407.166 42.16C407.726 41.168 408.494 40.4 409.47 39.856C410.462 39.312 411.574 39.04 412.806 39.04C413.654 39.04 414.43 39.184 415.134 39.472C415.838 39.76 416.438 40.192 416.934 40.768V34.192H419.934ZM413.166 49.6C413.886 49.6 414.534 49.44 415.11 49.12C415.686 48.784 416.142 48.312 416.478 47.704C416.814 47.096 416.982 46.392 416.982 45.592C416.982 44.792 416.814 44.088 416.478 43.48C416.142 42.872 415.686 42.408 415.11 42.088C414.534 41.752 413.886 41.584 413.166 41.584C412.446 41.584 411.798 41.752 411.222 42.088C410.646 42.408 410.19 42.872 409.854 43.48C409.518 44.088 409.35 44.792 409.35 45.592C409.35 46.392 409.518 47.096 409.854 47.704C410.19 48.312 410.646 48.784 411.222 49.12C411.798 49.44 412.446 49.6 413.166 49.6ZM430.491 34.192H433.491V52H430.491V34.192ZM449.477 45.664C449.477 45.872 449.461 46.168 449.429 46.552H439.373C439.549 47.496 440.005 48.248 440.741 48.808C441.493 49.352 442.421 49.624 443.525 49.624C444.933 49.624 446.093 49.16 447.005 48.232L448.613 50.08C448.037 50.768 447.309 51.288 446.429 51.64C445.549 51.992 444.557 52.168 443.453 52.168C442.045 52.168 440.805 51.888 439.733 51.328C438.661 50.768 437.829 49.992 437.237 49C436.661 47.992 436.373 46.856 436.373 45.592C436.373 44.344 436.653 43.224 437.213 42.232C437.789 41.224 438.581 40.44 439.589 39.88C440.597 39.32 441.733 39.04 442.997 39.04C444.245 39.04 445.357 39.32 446.333 39.88C447.325 40.424 448.093 41.2 448.637 42.208C449.197 43.2 449.477 44.352 449.477 45.664ZM442.997 41.44C442.037 41.44 441.221 41.728 440.549 42.304C439.893 42.864 439.493 43.616 439.349 44.56H446.621C446.493 43.632 446.101 42.88 445.445 42.304C444.789 41.728 443.973 41.44 442.997 41.44ZM457.567 36.448C456.303 36.448 455.671 37.136 455.671 38.512V39.28H459.199V41.68H455.767V52H452.767V41.68H450.655V39.28H452.767V38.464C452.767 37.088 453.167 36.008 453.967 35.224C454.767 34.424 455.895 34.024 457.351 34.024C458.503 34.024 459.407 34.256 460.063 34.72L459.223 36.976C458.711 36.624 458.159 36.448 457.567 36.448ZM468.922 51.304C468.57 51.592 468.138 51.808 467.626 51.952C467.13 52.096 466.602 52.168 466.042 52.168C464.634 52.168 463.546 51.8 462.778 51.064C462.01 50.328 461.626 49.256 461.626 47.848V41.68H459.514V39.28H461.626V36.352H464.626V39.28H468.058V41.68H464.626V47.776C464.626 48.4 464.778 48.88 465.082 49.216C465.386 49.536 465.826 49.696 466.402 49.696C467.074 49.696 467.634 49.52 468.082 49.168L468.922 51.304ZM485.727 51.304C485.375 51.592 484.943 51.808 484.431 51.952C483.935 52.096 483.407 52.168 482.847 52.168C481.439 52.168 480.351 51.8 479.583 51.064C478.815 50.328 478.431 49.256 478.431 47.848V41.68H476.319V39.28H478.431V36.352H481.431V39.28H484.863V41.68H481.431V47.776C481.431 48.4 481.583 48.88 481.887 49.216C482.191 49.536 482.631 49.696 483.207 49.696C483.879 49.696 484.439 49.52 484.887 49.168L485.727 51.304ZM495.467 39.04C497.083 39.04 498.379 39.512 499.355 40.456C500.331 41.4 500.819 42.8 500.819 44.656V52H497.819V45.04C497.819 43.92 497.555 43.08 497.027 42.52C496.499 41.944 495.747 41.656 494.771 41.656C493.667 41.656 492.795 41.992 492.155 42.664C491.515 43.32 491.195 44.272 491.195 45.52V52H488.195V34.192H491.195V40.672C491.691 40.144 492.299 39.744 493.019 39.472C493.755 39.184 494.571 39.04 495.467 39.04ZM516.789 45.664C516.789 45.872 516.773 46.168 516.741 46.552H506.685C506.861 47.496 507.317 48.248 508.053 48.808C508.805 49.352 509.733 49.624 510.837 49.624C512.245 49.624 513.405 49.16 514.317 48.232L515.925 50.08C515.349 50.768 514.621 51.288 513.741 51.64C512.861 51.992 511.869 52.168 510.765 52.168C509.357 52.168 508.117 51.888 507.045 51.328C505.973 50.768 505.141 49.992 504.549 49C503.973 47.992 503.685 46.856 503.685 45.592C503.685 44.344 503.965 43.224 504.525 42.232C505.101 41.224 505.893 40.44 506.901 39.88C507.909 39.32 509.045 39.04 510.309 39.04C511.557 39.04 512.669 39.32 513.645 39.88C514.637 40.424 515.405 41.2 515.949 42.208C516.509 43.2 516.789 44.352 516.789 45.664ZM510.309 41.44C509.349 41.44 508.533 41.728 507.861 42.304C507.205 42.864 506.805 43.616 506.661 44.56H513.933C513.805 43.632 513.413 42.88 512.757 42.304C512.101 41.728 511.285 41.44 510.309 41.44ZM539.024 39.184V50.056C539.024 54.568 536.72 56.824 532.112 56.824C530.88 56.824 529.712 56.664 528.608 56.344C527.504 56.04 526.592 55.592 525.872 55L527.216 52.744C527.776 53.208 528.48 53.576 529.328 53.848C530.192 54.136 531.064 54.28 531.944 54.28C533.352 54.28 534.384 53.96 535.04 53.32C535.696 52.68 536.024 51.704 536.024 50.392V49.72C535.512 50.28 534.888 50.704 534.152 50.992C533.416 51.28 532.608 51.424 531.728 51.424C530.512 51.424 529.408 51.168 528.416 50.656C527.44 50.128 526.664 49.392 526.088 48.448C525.528 47.504 525.248 46.424 525.248 45.208C525.248 43.992 525.528 42.92 526.088 41.992C526.664 41.048 527.44 40.32 528.416 39.808C529.408 39.296 530.512 39.04 531.728 39.04C532.656 39.04 533.496 39.192 534.248 39.496C535.016 39.8 535.656 40.264 536.168 40.888V39.184H539.024ZM532.184 48.88C533.32 48.88 534.248 48.544 534.968 47.872C535.704 47.184 536.072 46.296 536.072 45.208C536.072 44.136 535.704 43.264 534.968 42.592C534.248 41.92 533.32 41.584 532.184 41.584C531.032 41.584 530.088 41.92 529.352 42.592C528.632 43.264 528.272 44.136 528.272 45.208C528.272 46.296 528.632 47.184 529.352 47.872C530.088 48.544 531.032 48.88 532.184 48.88ZM545.824 41.056C546.688 39.712 548.208 39.04 550.384 39.04V41.896C550.128 41.848 549.896 41.824 549.688 41.824C548.52 41.824 547.608 42.168 546.952 42.856C546.296 43.528 545.968 44.504 545.968 45.784V52H542.968V39.184H545.824V41.056ZM558.572 52.168C557.276 52.168 556.108 51.888 555.068 51.328C554.028 50.768 553.212 49.992 552.62 49C552.044 47.992 551.756 46.856 551.756 45.592C551.756 44.328 552.044 43.2 552.62 42.208C553.212 41.216 554.028 40.44 555.068 39.88C556.108 39.32 557.276 39.04 558.572 39.04C559.884 39.04 561.06 39.32 562.1 39.88C563.14 40.44 563.948 41.216 564.524 42.208C565.116 43.2 565.412 44.328 565.412 45.592C565.412 46.856 565.116 47.992 564.524 49C563.948 49.992 563.14 50.768 562.1 51.328C561.06 51.888 559.884 52.168 558.572 52.168ZM558.572 49.6C559.676 49.6 560.588 49.232 561.308 48.496C562.028 47.76 562.388 46.792 562.388 45.592C562.388 44.392 562.028 43.424 561.308 42.688C560.588 41.952 559.676 41.584 558.572 41.584C557.468 41.584 556.556 41.952 555.836 42.688C555.132 43.424 554.78 44.392 554.78 45.592C554.78 46.792 555.132 47.76 555.836 48.496C556.556 49.232 557.468 49.6 558.572 49.6ZM580.689 39.184V52H577.833V50.368C577.353 50.944 576.753 51.392 576.033 51.712C575.313 52.016 574.537 52.168 573.705 52.168C571.993 52.168 570.641 51.696 569.649 50.752C568.673 49.792 568.185 48.376 568.185 46.504V39.184H571.185V46.096C571.185 47.248 571.441 48.112 571.953 48.688C572.481 49.248 573.225 49.528 574.185 49.528C575.257 49.528 576.105 49.2 576.729 48.544C577.369 47.872 577.689 46.912 577.689 45.664V39.184H580.689ZM591.888 39.04C593.504 39.04 594.8 39.512 595.776 40.456C596.752 41.4 597.24 42.8 597.24 44.656V52H594.24V45.04C594.24 43.92 593.976 43.08 593.448 42.52C592.92 41.944 592.168 41.656 591.192 41.656C590.088 41.656 589.216 41.992 588.576 42.664C587.936 43.32 587.616 44.272 587.616 45.52V52H584.616V39.184H587.472V40.84C587.968 40.248 588.592 39.8 589.344 39.496C590.096 39.192 590.944 39.04 591.888 39.04ZM613.715 34.192V52H610.835V50.344C610.339 50.952 609.723 51.408 608.987 51.712C608.267 52.016 607.467 52.168 606.587 52.168C605.355 52.168 604.243 51.896 603.251 51.352C602.275 50.808 601.507 50.04 600.947 49.048C600.387 48.04 600.107 46.888 600.107 45.592C600.107 44.296 600.387 43.152 600.947 42.16C601.507 41.168 602.275 40.4 603.251 39.856C604.243 39.312 605.355 39.04 606.587 39.04C607.435 39.04 608.211 39.184 608.915 39.472C609.619 39.76 610.219 40.192 610.715 40.768V34.192H613.715ZM606.947 49.6C607.667 49.6 608.315 49.44 608.891 49.12C609.467 48.784 609.923 48.312 610.259 47.704C610.595 47.096 610.763 46.392 610.763 45.592C610.763 44.792 610.595 44.088 610.259 43.48C609.923 42.872 609.467 42.408 608.891 42.088C608.315 41.752 607.667 41.584 606.947 41.584C606.227 41.584 605.579 41.752 605.003 42.088C604.427 42.408 603.971 42.872 603.635 43.48C603.299 44.088 603.131 44.792 603.131 45.592C603.131 46.392 603.299 47.096 603.635 47.704C603.971 48.312 604.427 48.784 605.003 49.12C605.579 49.44 606.227 49.6 606.947 49.6ZM618.6 52.168C618.056 52.168 617.592 51.984 617.208 51.616C616.824 51.232 616.632 50.752 616.632 50.176C616.632 49.584 616.816 49.104 617.184 48.736C617.568 48.368 618.04 48.184 618.6 48.184C619.16 48.184 619.624 48.368 619.992 48.736C620.376 49.104 620.568 49.584 620.568 50.176C620.568 50.752 620.376 51.232 619.992 51.616C619.608 51.984 619.144 52.168 618.6 52.168Z" fill="black"/>
</svg>
