<svg width="582" height="58" viewBox="0 0 582 58" fill="none" xmlns="http://www.w3.org/2000/svg">
<rect width="582" height="58" fill="white" fill-opacity="0.13"/>
<rect width="582" height="58" fill="white"/>
<path d="M11.336 6.656H5.096V6.2H18.056V6.656H11.816V23H11.336V6.656ZM26.5964 10.52C28.1484 10.52 29.3644 10.968 30.2444 11.864C31.1244 12.744 31.5644 14.016 31.5644 15.68V23H31.0844V15.68C31.0844 14.16 30.6924 13 29.9084 12.2C29.1404 11.384 28.0444 10.976 26.6204 10.976C25.0044 10.976 23.7244 11.464 22.7804 12.44C21.8524 13.4 21.3884 14.672 21.3884 16.256V23H20.9084V5.192H21.3884V13.904C21.7724 12.848 22.4124 12.024 23.3084 11.432C24.2044 10.824 25.3004 10.52 26.5964 10.52ZM36.9397 10.592H37.4197V23H36.9397V10.592ZM37.1797 7.16C37.0037 7.16 36.8517 7.096 36.7237 6.968C36.6117 6.84 36.5557 6.696 36.5557 6.536C36.5557 6.36 36.6117 6.216 36.7237 6.104C36.8517 5.976 37.0037 5.912 37.1797 5.912C37.3397 5.912 37.4837 5.976 37.6117 6.104C37.7397 6.216 37.8037 6.36 37.8037 6.536C37.8037 6.696 37.7397 6.84 37.6117 6.968C37.4837 7.096 37.3397 7.16 37.1797 7.16ZM48.6277 10.52C50.1797 10.52 51.3957 10.968 52.2757 11.864C53.1557 12.744 53.5957 14.016 53.5957 15.68V23H53.1157V15.68C53.1157 14.16 52.7237 13 51.9397 12.2C51.1717 11.384 50.0757 10.976 48.6517 10.976C47.0357 10.976 45.7557 11.464 44.8117 12.44C43.8837 13.4 43.4197 14.672 43.4197 16.256V23H42.9397V10.592H43.4197V13.904C43.8037 12.848 44.4437 12.024 45.3397 11.432C46.2357 10.824 47.3317 10.52 48.6277 10.52ZM67.2269 6.2V23H66.7709V6.656H62.4509V6.2H67.2269ZM78.2381 23.072C76.9741 23.072 75.8541 22.728 74.8781 22.04C73.9181 21.336 73.1661 20.344 72.6221 19.064C72.0941 17.784 71.8301 16.296 71.8301 14.6C71.8301 12.904 72.0941 11.416 72.6221 10.136C73.1661 8.856 73.9181 7.872 74.8781 7.184C75.8541 6.48 76.9741 6.128 78.2381 6.128C79.5021 6.128 80.6141 6.48 81.5741 7.184C82.5501 7.872 83.3021 8.856 83.8301 10.136C84.3741 11.416 84.6461 12.904 84.6461 14.6C84.6461 16.296 84.3741 17.784 83.8301 19.064C83.3021 20.344 82.5501 21.336 81.5741 22.04C80.6141 22.728 79.5021 23.072 78.2381 23.072ZM78.2381 22.616C79.4061 22.616 80.4381 22.288 81.3341 21.632C82.2301 20.976 82.9261 20.048 83.4221 18.848C83.9181 17.632 84.1661 16.216 84.1661 14.6C84.1661 12.984 83.9181 11.576 83.4221 10.376C82.9261 9.16 82.2301 8.224 81.3341 7.568C80.4381 6.912 79.4061 6.584 78.2381 6.584C77.0701 6.584 76.0381 6.912 75.1421 7.568C74.2461 8.224 73.5501 9.16 73.0541 10.376C72.5581 11.576 72.3101 12.984 72.3101 14.6C72.3101 16.216 72.5581 17.632 73.0541 18.848C73.5501 20.048 74.2461 20.976 75.1421 21.632C76.0381 22.288 77.0701 22.616 78.2381 22.616ZM93.8943 23.072C92.6303 23.072 91.5103 22.728 90.5343 22.04C89.5743 21.336 88.8223 20.344 88.2783 19.064C87.7503 17.784 87.4863 16.296 87.4863 14.6C87.4863 12.904 87.7503 11.416 88.2783 10.136C88.8223 8.856 89.5743 7.872 90.5343 7.184C91.5103 6.48 92.6303 6.128 93.8943 6.128C95.1583 6.128 96.2703 6.48 97.2303 7.184C98.2063 7.872 98.9583 8.856 99.4863 10.136C100.03 11.416 100.302 12.904 100.302 14.6C100.302 16.296 100.03 17.784 99.4863 19.064C98.9583 20.344 98.2063 21.336 97.2303 22.04C96.2703 22.728 95.1583 23.072 93.8943 23.072ZM93.8943 22.616C95.0623 22.616 96.0943 22.288 96.9903 21.632C97.8863 20.976 98.5823 20.048 99.0783 18.848C99.5743 17.632 99.8223 16.216 99.8223 14.6C99.8223 12.984 99.5743 11.576 99.0783 10.376C98.5823 9.16 97.8863 8.224 96.9903 7.568C96.0943 6.912 95.0623 6.584 93.8943 6.584C92.7263 6.584 91.6943 6.912 90.7983 7.568C89.9023 8.224 89.2063 9.16 88.7103 10.376C88.2143 11.576 87.9663 12.984 87.9663 14.6C87.9663 16.216 88.2143 17.632 88.7103 18.848C89.2063 20.048 89.9023 20.976 90.7983 21.632C91.6943 22.288 92.7263 22.616 93.8943 22.616ZM18.392 46.936H8.12L5.768 52H5.216L13.016 35.2H13.496L21.296 52H20.744L18.392 46.936ZM18.176 46.48L13.256 35.848L8.336 46.48H18.176ZM24.2834 34.192H24.7634V52H24.2834V34.192ZM45.7154 39.52C47.2194 39.52 48.3954 39.968 49.2434 40.864C50.1074 41.744 50.5394 43.016 50.5394 44.68V52H50.0594V44.68C50.0594 43.16 49.6834 42 48.9314 41.2C48.1794 40.384 47.1154 39.976 45.7394 39.976C44.1714 39.976 42.9314 40.464 42.0194 41.44C41.1074 42.4 40.6514 43.672 40.6514 45.256V52H40.1714V44.68C40.1714 43.16 39.7954 42 39.0434 41.2C38.2914 40.384 37.2274 39.976 35.8514 39.976C34.2834 39.976 33.0434 40.464 32.1314 41.44C31.2194 42.4 30.7634 43.672 30.7634 45.256V52H30.2834V39.592H30.7634V42.88C31.1314 41.824 31.7554 41 32.6354 40.408C33.5154 39.816 34.5794 39.52 35.8274 39.52C37.0914 39.52 38.1314 39.84 38.9474 40.48C39.7634 41.104 40.2914 42.016 40.5314 43.216C40.8514 42.08 41.4594 41.184 42.3554 40.528C43.2674 39.856 44.3874 39.52 45.7154 39.52ZM60.4841 52.072C59.3481 52.072 58.3161 51.808 57.3881 51.28C56.4761 50.736 55.7561 49.984 55.2281 49.024C54.7161 48.064 54.4601 46.984 54.4601 45.784C54.4601 44.584 54.7161 43.512 55.2281 42.568C55.7561 41.608 56.4761 40.864 57.3881 40.336C58.3161 39.792 59.3481 39.52 60.4841 39.52C61.6201 39.52 62.6441 39.792 63.5561 40.336C64.4841 40.864 65.2041 41.608 65.7161 42.568C66.2441 43.512 66.5081 44.584 66.5081 45.784C66.5081 46.984 66.2441 48.064 65.7161 49.024C65.2041 49.984 64.4841 50.736 63.5561 51.28C62.6441 51.808 61.6201 52.072 60.4841 52.072ZM60.4841 51.616C61.5241 51.616 62.4681 51.368 63.3161 50.872C64.1641 50.376 64.8281 49.688 65.3081 48.808C65.7881 47.912 66.0281 46.904 66.0281 45.784C66.0281 44.664 65.7881 43.664 65.3081 42.784C64.8281 41.888 64.1641 41.2 63.3161 40.72C62.4681 40.224 61.5241 39.976 60.4841 39.976C59.4441 39.976 58.5001 40.224 57.6521 40.72C56.8041 41.2 56.1401 41.888 55.6601 42.784C55.1801 43.664 54.9401 44.664 54.9401 45.784C54.9401 46.904 55.1801 47.912 55.6601 48.808C56.1401 49.688 56.8041 50.376 57.6521 50.872C58.5001 51.368 59.4441 51.616 60.4841 51.616ZM73.4285 52.072C72.4365 52.072 71.5005 51.912 70.6205 51.592C69.7405 51.272 69.0605 50.864 68.5805 50.368L68.8685 49.984C69.3485 50.448 69.9885 50.84 70.7885 51.16C71.6045 51.464 72.4845 51.616 73.4285 51.616C74.8365 51.616 75.8765 51.376 76.5485 50.896C77.2205 50.4 77.5565 49.72 77.5565 48.856C77.5565 48.232 77.3725 47.744 77.0045 47.392C76.6525 47.024 76.2125 46.76 75.6845 46.6C75.1725 46.424 74.4605 46.248 73.5485 46.072C72.5725 45.896 71.7805 45.712 71.1725 45.52C70.5805 45.312 70.0765 44.992 69.6605 44.56C69.2605 44.112 69.0605 43.496 69.0605 42.712C69.0605 41.816 69.4285 41.064 70.1645 40.456C70.9165 39.832 72.0125 39.52 73.4525 39.52C74.2205 39.52 74.9805 39.64 75.7325 39.88C76.4845 40.104 77.0925 40.408 77.5565 40.792L77.2685 41.176C76.7885 40.792 76.2125 40.496 75.5405 40.288C74.8685 40.08 74.1725 39.976 73.4525 39.976C72.1565 39.976 71.1805 40.232 70.5245 40.744C69.8845 41.24 69.5645 41.896 69.5645 42.712C69.5645 43.368 69.7485 43.888 70.1165 44.272C70.4845 44.64 70.9405 44.912 71.4845 45.088C72.0285 45.264 72.7485 45.432 73.6445 45.592C74.6205 45.784 75.3965 45.976 75.9725 46.168C76.5485 46.36 77.0365 46.672 77.4365 47.104C77.8365 47.52 78.0365 48.104 78.0365 48.856C78.0365 49.832 77.6445 50.616 76.8605 51.208C76.0765 51.784 74.9325 52.072 73.4285 52.072ZM87.2979 51.184C87.0259 51.472 86.6659 51.696 86.2179 51.856C85.7859 52 85.3379 52.072 84.8739 52.072C83.9139 52.072 83.1699 51.8 82.6419 51.256C82.1299 50.696 81.8739 49.952 81.8739 49.024V40.048H79.4739V39.592H81.8739V36.88H82.3539V39.592H86.5539V40.048H82.3539V48.904C82.3539 49.784 82.5699 50.456 83.0019 50.92C83.4339 51.384 84.0659 51.616 84.8979 51.616C85.7299 51.616 86.4179 51.36 86.9619 50.848L87.2979 51.184ZM103.011 39.52C104.131 39.52 105.147 39.792 106.059 40.336C106.987 40.864 107.715 41.608 108.243 42.568C108.771 43.512 109.035 44.584 109.035 45.784C109.035 46.984 108.771 48.064 108.243 49.024C107.715 49.984 106.987 50.736 106.059 51.28C105.147 51.808 104.131 52.072 103.011 52.072C101.715 52.072 100.571 51.728 99.5786 51.04C98.5866 50.336 97.8826 49.392 97.4666 48.208V52H96.9866V34.192H97.4666V43.36C97.8826 42.192 98.5866 41.264 99.5786 40.576C100.587 39.872 101.731 39.52 103.011 39.52ZM103.011 51.616C104.051 51.616 104.995 51.368 105.843 50.872C106.691 50.376 107.355 49.688 107.835 48.808C108.315 47.912 108.555 46.904 108.555 45.784C108.555 44.664 108.315 43.664 107.835 42.784C107.355 41.888 106.691 41.2 105.843 40.72C104.995 40.224 104.051 39.976 103.011 39.976C101.971 39.976 101.027 40.224 100.179 40.72C99.3306 41.2 98.6666 41.888 98.1866 42.784C97.7066 43.664 97.4666 44.664 97.4666 45.784C97.4666 46.904 97.7066 47.912 98.1866 48.808C98.6666 49.688 99.3306 50.376 100.179 50.872C101.027 51.368 101.971 51.616 103.011 51.616ZM123.12 45.784H112.08C112.08 46.904 112.328 47.912 112.824 48.808C113.32 49.688 114 50.376 114.864 50.872C115.744 51.368 116.728 51.616 117.816 51.616C118.664 51.616 119.456 51.456 120.192 51.136C120.944 50.8 121.56 50.32 122.04 49.696L122.376 50.032C121.832 50.688 121.16 51.192 120.36 51.544C119.56 51.896 118.712 52.072 117.816 52.072C116.632 52.072 115.568 51.808 114.624 51.28C113.696 50.736 112.96 49.984 112.416 49.024C111.888 48.064 111.624 46.984 111.624 45.784C111.624 44.584 111.872 43.512 112.368 42.568C112.864 41.608 113.544 40.864 114.408 40.336C115.288 39.792 116.272 39.52 117.36 39.52C118.432 39.52 119.408 39.784 120.288 40.312C121.168 40.84 121.856 41.568 122.352 42.496C122.864 43.424 123.12 44.48 123.12 45.664V45.784ZM117.36 39.976C116.4 39.976 115.528 40.208 114.744 40.672C113.96 41.136 113.328 41.776 112.848 42.592C112.384 43.408 112.128 44.32 112.08 45.328H122.664C122.616 44.32 122.352 43.408 121.872 42.592C121.392 41.776 120.76 41.136 119.976 40.672C119.192 40.208 118.32 39.976 117.36 39.976ZM130.39 34.576C129.558 34.576 128.926 34.808 128.494 35.272C128.062 35.736 127.846 36.408 127.846 37.288V39.592H132.046V40.048H127.846V52H127.366V40.048H124.966V39.592H127.366V37.168C127.366 36.24 127.63 35.504 128.158 34.96C128.686 34.4 129.422 34.12 130.366 34.12C130.83 34.12 131.278 34.2 131.71 34.36C132.158 34.504 132.518 34.72 132.79 35.008L132.454 35.344C131.91 34.832 131.222 34.576 130.39 34.576ZM138.953 52.072C137.817 52.072 136.785 51.808 135.857 51.28C134.945 50.736 134.225 49.984 133.697 49.024C133.185 48.064 132.929 46.984 132.929 45.784C132.929 44.584 133.185 43.512 133.697 42.568C134.225 41.608 134.945 40.864 135.857 40.336C136.785 39.792 137.817 39.52 138.953 39.52C140.089 39.52 141.113 39.792 142.025 40.336C142.953 40.864 143.673 41.608 144.185 42.568C144.713 43.512 144.977 44.584 144.977 45.784C144.977 46.984 144.713 48.064 144.185 49.024C143.673 49.984 142.953 50.736 142.025 51.28C141.113 51.808 140.089 52.072 138.953 52.072ZM138.953 51.616C139.993 51.616 140.937 51.368 141.785 50.872C142.633 50.376 143.297 49.688 143.777 48.808C144.257 47.912 144.497 46.904 144.497 45.784C144.497 44.664 144.257 43.664 143.777 42.784C143.297 41.888 142.633 41.2 141.785 40.72C140.937 40.224 139.993 39.976 138.953 39.976C137.913 39.976 136.969 40.224 136.121 40.72C135.273 41.2 134.609 41.888 134.129 42.784C133.649 43.664 133.409 44.664 133.409 45.784C133.409 46.904 133.649 47.912 134.129 48.808C134.609 49.688 135.273 50.376 136.121 50.872C136.969 51.368 137.913 51.616 138.953 51.616ZM149.521 42.808C149.873 41.752 150.465 40.944 151.297 40.384C152.129 39.808 153.161 39.52 154.393 39.52V40H154.249C152.761 40 151.601 40.48 150.769 41.44C149.937 42.384 149.521 43.68 149.521 45.328V52H149.041V39.592H149.521V42.808ZM167.909 45.784H156.869C156.869 46.904 157.117 47.912 157.613 48.808C158.109 49.688 158.789 50.376 159.653 50.872C160.533 51.368 161.517 51.616 162.605 51.616C163.453 51.616 164.245 51.456 164.981 51.136C165.733 50.8 166.349 50.32 166.829 49.696L167.165 50.032C166.621 50.688 165.949 51.192 165.149 51.544C164.349 51.896 163.501 52.072 162.605 52.072C161.421 52.072 160.357 51.808 159.413 51.28C158.485 50.736 157.749 49.984 157.205 49.024C156.677 48.064 156.413 46.984 156.413 45.784C156.413 44.584 156.661 43.512 157.157 42.568C157.653 41.608 158.333 40.864 159.197 40.336C160.077 39.792 161.061 39.52 162.149 39.52C163.221 39.52 164.197 39.784 165.077 40.312C165.957 40.84 166.645 41.568 167.141 42.496C167.653 43.424 167.909 44.48 167.909 45.664V45.784ZM162.149 39.976C161.189 39.976 160.317 40.208 159.533 40.672C158.749 41.136 158.117 41.776 157.637 42.592C157.173 43.408 156.917 44.32 156.869 45.328H167.453C167.405 44.32 167.141 43.408 166.661 42.592C166.181 41.776 165.549 41.136 164.765 40.672C163.981 40.208 163.109 39.976 162.149 39.976ZM195.027 39.592L190.251 52H189.819L185.259 40.264L180.675 52H180.267L175.491 39.592H175.971L180.459 51.424L185.019 39.592H185.475L190.035 51.424L194.523 39.592H195.027ZM207.753 45.784H196.713C196.713 46.904 196.961 47.912 197.457 48.808C197.953 49.688 198.633 50.376 199.497 50.872C200.377 51.368 201.361 51.616 202.449 51.616C203.297 51.616 204.089 51.456 204.825 51.136C205.577 50.8 206.193 50.32 206.673 49.696L207.009 50.032C206.465 50.688 205.793 51.192 204.993 51.544C204.193 51.896 203.345 52.072 202.449 52.072C201.265 52.072 200.201 51.808 199.257 51.28C198.329 50.736 197.593 49.984 197.049 49.024C196.521 48.064 196.257 46.984 196.257 45.784C196.257 44.584 196.505 43.512 197.001 42.568C197.497 41.608 198.177 40.864 199.041 40.336C199.921 39.792 200.905 39.52 201.993 39.52C203.065 39.52 204.041 39.784 204.921 40.312C205.801 40.84 206.489 41.568 206.985 42.496C207.497 43.424 207.753 44.48 207.753 45.664V45.784ZM201.993 39.976C201.033 39.976 200.161 40.208 199.377 40.672C198.593 41.136 197.961 41.776 197.481 42.592C197.017 43.408 196.761 44.32 196.713 45.328H207.297C207.249 44.32 206.985 43.408 206.505 42.592C206.025 41.776 205.393 41.136 204.609 40.672C203.825 40.208 202.953 39.976 201.993 39.976ZM221.959 44.824L218.287 48.16V52H217.807V34.192H218.287V47.584L227.047 39.592H227.743L222.343 44.536L228.295 52H227.671L221.959 44.824ZM236.948 39.52C238.5 39.52 239.716 39.968 240.596 40.864C241.476 41.744 241.916 43.016 241.916 44.68V52H241.436V44.68C241.436 43.16 241.044 42 240.26 41.2C239.492 40.384 238.396 39.976 236.972 39.976C235.356 39.976 234.076 40.464 233.132 41.44C232.204 42.4 231.74 43.672 231.74 45.256V52H231.26V39.592H231.74V42.904C232.124 41.848 232.764 41.024 233.66 40.432C234.556 39.824 235.652 39.52 236.948 39.52ZM257.323 45.784H246.283C246.283 46.904 246.531 47.912 247.027 48.808C247.523 49.688 248.203 50.376 249.067 50.872C249.947 51.368 250.931 51.616 252.019 51.616C252.867 51.616 253.659 51.456 254.395 51.136C255.147 50.8 255.763 50.32 256.243 49.696L256.579 50.032C256.035 50.688 255.363 51.192 254.563 51.544C253.763 51.896 252.915 52.072 252.019 52.072C250.835 52.072 249.771 51.808 248.827 51.28C247.899 50.736 247.163 49.984 246.619 49.024C246.091 48.064 245.827 46.984 245.827 45.784C245.827 44.584 246.075 43.512 246.571 42.568C247.067 41.608 247.747 40.864 248.611 40.336C249.491 39.792 250.475 39.52 251.563 39.52C252.635 39.52 253.611 39.784 254.491 40.312C255.371 40.84 256.059 41.568 256.555 42.496C257.067 43.424 257.323 44.48 257.323 45.664V45.784ZM251.563 39.976C250.603 39.976 249.731 40.208 248.947 40.672C248.163 41.136 247.531 41.776 247.051 42.592C246.587 43.408 246.331 44.32 246.283 45.328H256.867C256.819 44.32 256.555 43.408 256.075 42.592C255.595 41.776 254.963 41.136 254.179 40.672C253.395 40.208 252.523 39.976 251.563 39.976ZM278.207 39.592L273.431 52H272.999L268.439 40.264L263.855 52H263.447L258.671 39.592H259.151L263.639 51.424L268.199 39.592H268.655L273.215 51.424L277.703 39.592H278.207ZM287.252 39.592H287.732V52H287.252V39.592ZM287.492 36.16C287.316 36.16 287.164 36.096 287.036 35.968C286.924 35.84 286.868 35.696 286.868 35.536C286.868 35.36 286.924 35.216 287.036 35.104C287.164 34.976 287.316 34.912 287.492 34.912C287.652 34.912 287.796 34.976 287.924 35.104C288.052 35.216 288.116 35.36 288.116 35.536C288.116 35.696 288.052 35.84 287.924 35.968C287.796 36.096 287.652 36.16 287.492 36.16ZM298.868 51.184C298.596 51.472 298.236 51.696 297.788 51.856C297.356 52 296.908 52.072 296.444 52.072C295.484 52.072 294.74 51.8 294.212 51.256C293.7 50.696 293.444 49.952 293.444 49.024V40.048H291.044V39.592H293.444V36.88H293.924V39.592H298.124V40.048H293.924V48.904C293.924 49.784 294.14 50.456 294.572 50.92C295.004 51.384 295.636 51.616 296.468 51.616C297.3 51.616 297.988 51.36 298.532 50.848L298.868 51.184ZM302.215 50.824C302.391 50.824 302.535 50.888 302.647 51.016C302.775 51.144 302.839 51.288 302.839 51.448C302.839 51.56 302.807 51.792 302.743 52.144L301.951 55.36H301.519L302.215 52.072C302.039 52.056 301.887 51.992 301.759 51.88C301.647 51.752 301.591 51.608 301.591 51.448C301.591 51.272 301.647 51.128 301.759 51.016C301.887 50.888 302.039 50.824 302.215 50.824ZM330.215 39.592L325.439 52H325.007L320.447 40.264L315.863 52H315.455L310.679 39.592H311.159L315.647 51.424L320.207 39.592H320.663L325.223 51.424L329.711 39.592H330.215ZM342.94 45.784H331.9C331.9 46.904 332.148 47.912 332.644 48.808C333.14 49.688 333.82 50.376 334.684 50.872C335.564 51.368 336.548 51.616 337.636 51.616C338.484 51.616 339.276 51.456 340.012 51.136C340.764 50.8 341.38 50.32 341.86 49.696L342.196 50.032C341.652 50.688 340.98 51.192 340.18 51.544C339.38 51.896 338.532 52.072 337.636 52.072C336.452 52.072 335.388 51.808 334.444 51.28C333.516 50.736 332.78 49.984 332.236 49.024C331.708 48.064 331.444 46.984 331.444 45.784C331.444 44.584 331.692 43.512 332.188 42.568C332.684 41.608 333.364 40.864 334.228 40.336C335.108 39.792 336.092 39.52 337.18 39.52C338.252 39.52 339.228 39.784 340.108 40.312C340.988 40.84 341.676 41.568 342.172 42.496C342.684 43.424 342.94 44.48 342.94 45.664V45.784ZM337.18 39.976C336.22 39.976 335.348 40.208 334.564 40.672C333.78 41.136 333.148 41.776 332.668 42.592C332.204 43.408 331.948 44.32 331.9 45.328H342.484C342.436 44.32 342.172 43.408 341.692 42.592C341.212 41.776 340.58 41.136 339.796 40.672C339.012 40.208 338.14 39.976 337.18 39.976ZM358.682 39.52C360.234 39.52 361.45 39.968 362.33 40.864C363.21 41.744 363.65 43.016 363.65 44.68V52H363.17V44.68C363.17 43.16 362.778 42 361.994 41.2C361.226 40.384 360.13 39.976 358.706 39.976C357.09 39.976 355.81 40.464 354.866 41.44C353.938 42.4 353.474 43.672 353.474 45.256V52H352.994V34.192H353.474V42.904C353.858 41.848 354.498 41.024 355.394 40.432C356.29 39.824 357.386 39.52 358.682 39.52ZM372.986 39.52C374.426 39.52 375.522 39.896 376.274 40.648C377.042 41.384 377.426 42.456 377.426 43.864V52H376.946V49.36C376.546 50.208 375.938 50.872 375.122 51.352C374.322 51.832 373.354 52.072 372.218 52.072C370.842 52.072 369.762 51.76 368.978 51.136C368.21 50.496 367.826 49.648 367.826 48.592C367.826 47.6 368.17 46.8 368.858 46.192C369.562 45.568 370.69 45.256 372.242 45.256H376.946V43.888C376.946 42.592 376.61 41.616 375.938 40.96C375.282 40.304 374.306 39.976 373.01 39.976C372.114 39.976 371.274 40.136 370.49 40.456C369.722 40.76 369.058 41.176 368.498 41.704L368.162 41.368C368.754 40.792 369.474 40.344 370.322 40.024C371.17 39.688 372.058 39.52 372.986 39.52ZM372.218 51.616C374.522 51.616 376.098 50.56 376.946 48.448V45.712H372.218C370.874 45.712 369.882 45.968 369.242 46.48C368.618 46.992 368.306 47.688 368.306 48.568C368.306 49.512 368.65 50.256 369.338 50.8C370.026 51.344 370.986 51.616 372.218 51.616ZM393.391 34.192V52H392.911V48.208C392.495 49.392 391.791 50.336 390.799 51.04C389.807 51.728 388.663 52.072 387.367 52.072C386.247 52.072 385.223 51.808 384.295 51.28C383.383 50.736 382.663 49.984 382.135 49.024C381.607 48.064 381.343 46.984 381.343 45.784C381.343 44.584 381.607 43.512 382.135 42.568C382.663 41.608 383.383 40.864 384.295 40.336C385.223 39.792 386.247 39.52 387.367 39.52C388.647 39.52 389.783 39.872 390.775 40.576C391.783 41.264 392.495 42.192 392.911 43.36V34.192H393.391ZM387.367 51.616C388.407 51.616 389.351 51.368 390.199 50.872C391.047 50.376 391.711 49.688 392.191 48.808C392.671 47.912 392.911 46.904 392.911 45.784C392.911 44.664 392.671 43.664 392.191 42.784C391.711 41.888 391.047 41.2 390.199 40.72C389.351 40.224 388.407 39.976 387.367 39.976C386.327 39.976 385.383 40.224 384.535 40.72C383.687 41.2 383.023 41.888 382.543 42.784C382.063 43.664 381.823 44.664 381.823 45.784C381.823 46.904 382.063 47.912 382.543 48.808C383.023 49.688 383.687 50.376 384.535 50.872C385.383 51.368 386.327 51.616 387.367 51.616ZM404.908 34.192H405.388V52H404.908V34.192ZM420.94 45.784H409.9C409.9 46.904 410.148 47.912 410.644 48.808C411.14 49.688 411.82 50.376 412.684 50.872C413.564 51.368 414.548 51.616 415.636 51.616C416.484 51.616 417.276 51.456 418.012 51.136C418.764 50.8 419.38 50.32 419.86 49.696L420.196 50.032C419.652 50.688 418.98 51.192 418.18 51.544C417.38 51.896 416.532 52.072 415.636 52.072C414.452 52.072 413.388 51.808 412.444 51.28C411.516 50.736 410.78 49.984 410.236 49.024C409.708 48.064 409.444 46.984 409.444 45.784C409.444 44.584 409.692 43.512 410.188 42.568C410.684 41.608 411.364 40.864 412.228 40.336C413.108 39.792 414.092 39.52 415.18 39.52C416.252 39.52 417.228 39.784 418.108 40.312C418.988 40.84 419.676 41.568 420.172 42.496C420.684 43.424 420.94 44.48 420.94 45.664V45.784ZM415.18 39.976C414.22 39.976 413.348 40.208 412.564 40.672C411.78 41.136 411.148 41.776 410.668 42.592C410.204 43.408 409.948 44.32 409.9 45.328H420.484C420.436 44.32 420.172 43.408 419.692 42.592C419.212 41.776 418.58 41.136 417.796 40.672C417.012 40.208 416.14 39.976 415.18 39.976ZM428.21 34.576C427.378 34.576 426.746 34.808 426.314 35.272C425.882 35.736 425.666 36.408 425.666 37.288V39.592H429.866V40.048H425.666V52H425.186V40.048H422.786V39.592H425.186V37.168C425.186 36.24 425.45 35.504 425.978 34.96C426.506 34.4 427.242 34.12 428.186 34.12C428.65 34.12 429.098 34.2 429.53 34.36C429.978 34.504 430.338 34.72 430.61 35.008L430.274 35.344C429.73 34.832 429.042 34.576 428.21 34.576ZM438.064 51.184C437.792 51.472 437.432 51.696 436.984 51.856C436.552 52 436.104 52.072 435.64 52.072C434.68 52.072 433.936 51.8 433.408 51.256C432.896 50.696 432.64 49.952 432.64 49.024V40.048H430.24V39.592H432.64V36.88H433.12V39.592H437.32V40.048H433.12V48.904C433.12 49.784 433.336 50.456 433.768 50.92C434.2 51.384 434.832 51.616 435.664 51.616C436.496 51.616 437.184 51.36 437.728 50.848L438.064 51.184ZM453.368 51.184C453.096 51.472 452.736 51.696 452.288 51.856C451.856 52 451.408 52.072 450.944 52.072C449.984 52.072 449.24 51.8 448.712 51.256C448.2 50.696 447.944 49.952 447.944 49.024V40.048H445.544V39.592H447.944V36.88H448.424V39.592H452.624V40.048H448.424V48.904C448.424 49.784 448.64 50.456 449.072 50.92C449.504 51.384 450.136 51.616 450.968 51.616C451.8 51.616 452.488 51.36 453.032 50.848L453.368 51.184ZM462.745 39.52C464.297 39.52 465.513 39.968 466.393 40.864C467.273 41.744 467.713 43.016 467.713 44.68V52H467.233V44.68C467.233 43.16 466.841 42 466.057 41.2C465.289 40.384 464.193 39.976 462.769 39.976C461.153 39.976 459.873 40.464 458.929 41.44C458.001 42.4 457.537 43.672 457.537 45.256V52H457.057V34.192H457.537V42.904C457.921 41.848 458.561 41.024 459.457 40.432C460.353 39.824 461.449 39.52 462.745 39.52ZM483.12 45.784H472.08C472.08 46.904 472.328 47.912 472.824 48.808C473.32 49.688 474 50.376 474.864 50.872C475.744 51.368 476.728 51.616 477.816 51.616C478.664 51.616 479.456 51.456 480.192 51.136C480.944 50.8 481.56 50.32 482.04 49.696L482.376 50.032C481.832 50.688 481.16 51.192 480.36 51.544C479.56 51.896 478.712 52.072 477.816 52.072C476.632 52.072 475.568 51.808 474.624 51.28C473.696 50.736 472.96 49.984 472.416 49.024C471.888 48.064 471.624 46.984 471.624 45.784C471.624 44.584 471.872 43.512 472.368 42.568C472.864 41.608 473.544 40.864 474.408 40.336C475.288 39.792 476.272 39.52 477.36 39.52C478.432 39.52 479.408 39.784 480.288 40.312C481.168 40.84 481.856 41.568 482.352 42.496C482.864 43.424 483.12 44.48 483.12 45.664V45.784ZM477.36 39.976C476.4 39.976 475.528 40.208 474.744 40.672C473.96 41.136 473.328 41.776 472.848 42.592C472.384 43.408 472.128 44.32 472.08 45.328H482.664C482.616 44.32 482.352 43.408 481.872 42.592C481.392 41.776 480.76 41.136 479.976 40.672C479.192 40.208 478.32 39.976 477.36 39.976ZM503.902 39.592V50.896C503.902 52.88 503.43 54.344 502.486 55.288C501.542 56.248 500.102 56.728 498.166 56.728C497.03 56.728 495.974 56.544 494.998 56.176C494.038 55.808 493.262 55.304 492.67 54.664L493.006 54.328C493.646 54.952 494.406 55.432 495.286 55.768C496.166 56.104 497.126 56.272 498.166 56.272C499.958 56.272 501.278 55.84 502.126 54.976C502.99 54.128 503.422 52.792 503.422 50.968V47.848C502.99 48.984 502.27 49.896 501.262 50.584C500.27 51.256 499.118 51.592 497.806 51.592C496.654 51.592 495.614 51.336 494.686 50.824C493.758 50.296 493.03 49.576 492.502 48.664C491.974 47.736 491.71 46.696 491.71 45.544C491.71 44.392 491.974 43.36 492.502 42.448C493.03 41.52 493.758 40.8 494.686 40.288C495.614 39.776 496.654 39.52 497.806 39.52C499.118 39.52 500.27 39.856 501.262 40.528C502.27 41.2 502.99 42.096 503.422 43.216V39.592H503.902ZM497.806 51.136C498.878 51.136 499.838 50.904 500.686 50.44C501.55 49.96 502.222 49.296 502.702 48.448C503.182 47.584 503.422 46.616 503.422 45.544C503.422 44.472 503.182 43.512 502.702 42.664C502.222 41.816 501.55 41.16 500.686 40.696C499.838 40.216 498.878 39.976 497.806 39.976C496.734 39.976 495.766 40.216 494.902 40.696C494.054 41.16 493.39 41.816 492.91 42.664C492.43 43.512 492.19 44.472 492.19 45.544C492.19 46.616 492.43 47.584 492.91 48.448C493.39 49.296 494.054 49.96 494.902 50.44C495.766 50.904 496.734 51.136 497.806 51.136ZM509.896 42.808C510.248 41.752 510.84 40.944 511.672 40.384C512.504 39.808 513.536 39.52 514.768 39.52V40H514.624C513.136 40 511.976 40.48 511.144 41.44C510.312 42.384 509.896 43.68 509.896 45.328V52H509.416V39.592H509.896V42.808ZM522.812 52.072C521.676 52.072 520.644 51.808 519.716 51.28C518.804 50.736 518.084 49.984 517.556 49.024C517.044 48.064 516.788 46.984 516.788 45.784C516.788 44.584 517.044 43.512 517.556 42.568C518.084 41.608 518.804 40.864 519.716 40.336C520.644 39.792 521.676 39.52 522.812 39.52C523.948 39.52 524.972 39.792 525.884 40.336C526.812 40.864 527.532 41.608 528.044 42.568C528.572 43.512 528.836 44.584 528.836 45.784C528.836 46.984 528.572 48.064 528.044 49.024C527.532 49.984 526.812 50.736 525.884 51.28C524.972 51.808 523.948 52.072 522.812 52.072ZM522.812 51.616C523.852 51.616 524.796 51.368 525.644 50.872C526.492 50.376 527.156 49.688 527.636 48.808C528.116 47.912 528.356 46.904 528.356 45.784C528.356 44.664 528.116 43.664 527.636 42.784C527.156 41.888 526.492 41.2 525.644 40.72C524.796 40.224 523.852 39.976 522.812 39.976C521.772 39.976 520.828 40.224 519.98 40.72C519.132 41.2 518.468 41.888 517.988 42.784C517.508 43.664 517.268 44.664 517.268 45.784C517.268 46.904 517.508 47.912 517.988 48.808C518.468 49.688 519.132 50.376 519.98 50.872C520.828 51.368 521.772 51.616 522.812 51.616ZM543.317 39.592V52H542.837V48.712C542.469 49.768 541.853 50.592 540.989 51.184C540.125 51.776 539.077 52.072 537.845 52.072C536.245 52.072 534.997 51.632 534.101 50.752C533.205 49.856 532.757 48.576 532.757 46.912V39.592H533.237V46.912C533.237 48.432 533.637 49.6 534.437 50.416C535.237 51.216 536.365 51.616 537.821 51.616C539.373 51.616 540.597 51.136 541.493 50.176C542.389 49.2 542.837 47.92 542.837 46.336V39.592H543.317ZM554.526 39.52C556.078 39.52 557.294 39.968 558.174 40.864C559.054 41.744 559.494 43.016 559.494 44.68V52H559.014V44.68C559.014 43.16 558.622 42 557.838 41.2C557.07 40.384 555.974 39.976 554.55 39.976C552.934 39.976 551.654 40.464 550.71 41.44C549.782 42.4 549.318 43.672 549.318 45.256V52H548.838V39.592H549.318V42.904C549.702 41.848 550.342 41.024 551.238 40.432C552.134 39.824 553.23 39.52 554.526 39.52ZM575.453 34.192V52H574.973V48.208C574.557 49.392 573.853 50.336 572.861 51.04C571.869 51.728 570.725 52.072 569.429 52.072C568.309 52.072 567.285 51.808 566.357 51.28C565.445 50.736 564.725 49.984 564.197 49.024C563.669 48.064 563.405 46.984 563.405 45.784C563.405 44.584 563.669 43.512 564.197 42.568C564.725 41.608 565.445 40.864 566.357 40.336C567.285 39.792 568.309 39.52 569.429 39.52C570.709 39.52 571.845 39.872 572.837 40.576C573.845 41.264 574.557 42.192 574.973 43.36V34.192H575.453ZM569.429 51.616C570.469 51.616 571.413 51.368 572.261 50.872C573.109 50.376 573.773 49.688 574.253 48.808C574.733 47.912 574.973 46.904 574.973 45.784C574.973 44.664 574.733 43.664 574.253 42.784C573.773 41.888 573.109 41.2 572.261 40.72C571.413 40.224 570.469 39.976 569.429 39.976C568.389 39.976 567.445 40.224 566.597 40.72C565.749 41.2 565.085 41.888 564.605 42.784C564.125 43.664 563.885 44.664 563.885 45.784C563.885 46.904 564.125 47.912 564.605 48.808C565.085 49.688 565.749 50.376 566.597 50.872C567.445 51.368 568.389 51.616 569.429 51.616ZM580.395 52.072C580.235 52.072 580.091 52.008 579.963 51.88C579.835 51.752 579.771 51.608 579.771 51.448C579.771 51.272 579.835 51.128 579.963 51.016C580.091 50.888 580.235 50.824 580.395 50.824C580.571 50.824 580.715 50.888 580.827 51.016C580.955 51.128 581.019 51.272 581.019 51.448C581.019 51.608 580.955 51.752 580.827 51.88C580.715 52.008 580.571 52.072 580.395 52.072Z" fill="black"/>
</svg>
