<svg width="582" height="58" viewBox="0 0 582 58" fill="none" xmlns="http://www.w3.org/2000/svg">
<rect width="582" height="58" fill="white" fill-opacity="0.13"/>
<rect width="582" height="58" fill="white"/>
<path d="M13.352 6.656H7.112L7.208 6.2H20.168L20.072 6.656H13.832L10.568 23H10.088L13.352 6.656ZM27.5804 10.52C29.0044 10.52 30.0844 10.864 30.8204 11.552C31.5564 12.24 31.9244 13.176 31.9244 14.36C31.9244 14.776 31.8764 15.216 31.7804 15.68L30.3164 23H29.8364L31.3004 15.68C31.3964 15.216 31.4444 14.792 31.4444 14.408C31.4444 13.32 31.1084 12.48 30.4364 11.888C29.7804 11.28 28.8124 10.976 27.5324 10.976C25.9484 10.976 24.6284 11.416 23.5724 12.296C22.5324 13.176 21.8444 14.448 21.5084 16.112L20.1404 23H19.6604L23.2124 5.192H23.6924L22.0124 13.616C23.1804 11.552 25.0364 10.52 27.5804 10.52ZM38.1637 10.592H38.6437L36.1717 23H35.6917L38.1637 10.592ZM39.1717 7.16C39.0117 7.16 38.8757 7.104 38.7637 6.992C38.6517 6.88 38.5957 6.744 38.5957 6.584C38.5957 6.408 38.6597 6.256 38.7877 6.128C38.9317 5.984 39.0917 5.912 39.2677 5.912C39.4277 5.912 39.5637 5.968 39.6757 6.08C39.7877 6.192 39.8437 6.328 39.8437 6.488C39.8437 6.664 39.7717 6.824 39.6277 6.968C39.4997 7.096 39.3477 7.16 39.1717 7.16ZM49.6117 10.52C51.0357 10.52 52.1157 10.864 52.8517 11.552C53.5877 12.24 53.9557 13.176 53.9557 14.36C53.9557 14.776 53.9077 15.216 53.8117 15.68L52.3477 23H51.8677L53.3317 15.68C53.4277 15.216 53.4757 14.792 53.4757 14.408C53.4757 13.32 53.1397 12.48 52.4677 11.888C51.8117 11.28 50.8437 10.976 49.5637 10.976C47.9797 10.976 46.6597 11.416 45.6037 12.296C44.5637 13.176 43.8757 14.448 43.5397 16.112L42.1717 23H41.6917L44.1637 10.592H44.6437L44.0437 13.616C45.2117 11.552 47.0677 10.52 49.6117 10.52ZM67.5149 6.2H67.9949L64.6349 23H64.1549L67.5149 6.2ZM71.9341 19.664C71.8541 20.096 71.8141 20.44 71.8141 20.696C71.8141 21.976 72.5181 22.616 73.9261 22.616C74.7421 22.616 75.4701 22.36 76.1101 21.848L76.3741 22.184C76.0541 22.472 75.6701 22.696 75.2221 22.856C74.7741 23 74.3261 23.072 73.8781 23.072C73.0461 23.072 72.4141 22.872 71.9821 22.472C71.5501 22.056 71.3341 21.472 71.3341 20.72C71.3341 20.4 71.3661 20.088 71.4301 19.784L73.1821 11.048H70.7821L70.8541 10.592H73.2541L73.8061 7.88H74.2861L73.7341 10.592H77.9341L77.8621 11.048H73.6621L71.9341 19.664ZM92.5061 10.592L90.0341 23H89.5541L90.2021 19.76C89.6101 20.8 88.8021 21.616 87.7781 22.208C86.7701 22.784 85.6341 23.072 84.3701 23.072C82.7541 23.072 81.4661 22.624 80.5061 21.728C79.5621 20.816 79.0901 19.584 79.0901 18.032C79.0901 16.608 79.3861 15.328 79.9781 14.192C80.5861 13.056 81.4181 12.16 82.4741 11.504C83.5461 10.848 84.7541 10.52 86.0981 10.52C87.5701 10.52 88.7461 10.88 89.6261 11.6C90.5061 12.304 91.0341 13.312 91.2101 14.624L92.0261 10.592H92.5061ZM84.4421 22.616C85.6581 22.616 86.7541 22.312 87.7301 21.704C88.7221 21.096 89.4981 20.256 90.0581 19.184C90.6181 18.112 90.8981 16.912 90.8981 15.584C90.8981 14.128 90.4661 13 89.6021 12.2C88.7541 11.384 87.5621 10.976 86.0261 10.976C84.8101 10.976 83.7061 11.28 82.7141 11.888C81.7381 12.496 80.9701 13.336 80.4101 14.408C79.8501 15.48 79.5701 16.68 79.5701 18.008C79.5701 19.464 79.9941 20.6 80.8421 21.416C81.7061 22.216 82.9061 22.616 84.4421 22.616ZM99.0796 5.192H99.5596L96.0076 23H95.5276L99.0796 5.192ZM104 10.592H104.48L102.008 23H101.528L104 10.592ZM105.008 7.16C104.848 7.16 104.712 7.104 104.6 6.992C104.488 6.88 104.432 6.744 104.432 6.584C104.432 6.408 104.496 6.256 104.624 6.128C104.768 5.984 104.928 5.912 105.104 5.912C105.264 5.912 105.4 5.968 105.512 6.08C105.624 6.192 105.68 6.328 105.68 6.488C105.68 6.664 105.608 6.824 105.464 6.968C105.336 7.096 105.184 7.16 105.008 7.16ZM112.592 23.072C110.912 23.072 109.592 22.624 108.632 21.728C107.672 20.816 107.192 19.584 107.192 18.032C107.192 16.608 107.488 15.328 108.08 14.192C108.688 13.04 109.528 12.144 110.6 11.504C111.672 10.848 112.88 10.52 114.224 10.52C115.264 10.52 116.16 10.696 116.912 11.048C117.68 11.4 118.264 11.92 118.664 12.608L118.304 12.896C117.472 11.616 116.104 10.976 114.2 10.976C112.952 10.976 111.832 11.28 110.84 11.888C109.848 12.496 109.072 13.336 108.512 14.408C107.952 15.48 107.672 16.68 107.672 18.008C107.672 19.48 108.104 20.616 108.968 21.416C109.832 22.216 111.064 22.616 112.664 22.616C113.544 22.616 114.368 22.456 115.136 22.136C115.92 21.8 116.56 21.336 117.056 20.744L117.344 21.08C116.832 21.704 116.152 22.192 115.304 22.544C114.472 22.896 113.568 23.072 112.592 23.072ZM132.222 6.2L128.862 23H128.406L131.67 6.656H127.35L127.446 6.2H132.222ZM139.969 23.072C138.369 23.072 137.121 22.552 136.225 21.512C135.345 20.472 134.905 19.024 134.905 17.168C134.905 15.312 135.241 13.536 135.913 11.84C136.585 10.144 137.545 8.768 138.793 7.712C140.041 6.656 141.489 6.128 143.137 6.128C144.737 6.128 145.977 6.648 146.857 7.688C147.753 8.728 148.201 10.176 148.201 12.032C148.201 13.888 147.865 15.664 147.193 17.36C146.521 19.056 145.561 20.432 144.313 21.488C143.065 22.544 141.617 23.072 139.969 23.072ZM140.041 22.616C141.593 22.616 142.953 22.104 144.121 21.08C145.305 20.04 146.209 18.704 146.833 17.072C147.457 15.44 147.769 13.752 147.769 12.008C147.769 10.296 147.353 8.968 146.521 8.024C145.705 7.064 144.553 6.584 143.065 6.584C141.513 6.584 140.145 7.104 138.961 8.144C137.793 9.168 136.897 10.496 136.273 12.128C135.649 13.76 135.337 15.448 135.337 17.192C135.337 18.904 135.745 20.24 136.561 21.2C137.393 22.144 138.553 22.616 140.041 22.616ZM155.625 23.072C154.025 23.072 152.777 22.552 151.881 21.512C151.001 20.472 150.561 19.024 150.561 17.168C150.561 15.312 150.897 13.536 151.569 11.84C152.241 10.144 153.201 8.768 154.449 7.712C155.697 6.656 157.145 6.128 158.793 6.128C160.393 6.128 161.633 6.648 162.513 7.688C163.409 8.728 163.857 10.176 163.857 12.032C163.857 13.888 163.521 15.664 162.849 17.36C162.177 19.056 161.217 20.432 159.969 21.488C158.721 22.544 157.273 23.072 155.625 23.072ZM155.697 22.616C157.249 22.616 158.609 22.104 159.777 21.08C160.961 20.04 161.865 18.704 162.489 17.072C163.113 15.44 163.425 13.752 163.425 12.008C163.425 10.296 163.009 8.968 162.177 8.024C161.361 7.064 160.209 6.584 158.721 6.584C157.169 6.584 155.801 7.104 154.617 8.144C153.449 9.168 152.553 10.496 151.929 12.128C151.305 13.76 150.993 15.448 150.993 17.192C150.993 18.904 151.401 20.24 152.217 21.2C153.049 22.144 154.209 22.616 155.697 22.616ZM18.2 46.936H7.904L4.544 52H3.968L15.128 35.2H15.608L20.048 52H19.544L18.2 46.936ZM18.08 46.48L15.296 35.824L8.216 46.48H18.08ZM26.5874 34.192H27.0674L23.5154 52H23.0354L26.5874 34.192ZM46.6754 39.52C48.0674 39.52 49.1154 39.864 49.8194 40.552C50.5394 41.224 50.8994 42.152 50.8994 43.336C50.8994 43.752 50.8514 44.2 50.7554 44.68L49.2914 52H48.8114L50.2754 44.68C50.3714 44.2 50.4194 43.76 50.4194 43.36C50.4194 42.288 50.0994 41.456 49.4594 40.864C48.8194 40.272 47.8834 39.976 46.6514 39.976C45.1634 39.976 43.8994 40.384 42.8594 41.2C41.8354 42.016 41.1714 43.184 40.8674 44.704L39.4034 52H38.9234L40.3874 44.68C40.4834 44.2 40.5314 43.76 40.5314 43.36C40.5314 42.288 40.2114 41.456 39.5714 40.864C38.9314 40.272 37.9954 39.976 36.7634 39.976C35.2434 39.976 33.9634 40.424 32.9234 41.32C31.8994 42.2 31.2194 43.464 30.8834 45.112L29.5154 52H29.0354L31.5074 39.592H31.9874L31.3874 42.616C32.5714 40.552 34.3794 39.52 36.8114 39.52C38.1074 39.52 39.1074 39.824 39.8114 40.432C40.5154 41.024 40.9074 41.848 40.9874 42.904C41.5794 41.784 42.3634 40.944 43.3394 40.384C44.3154 39.808 45.4274 39.52 46.6754 39.52ZM59.6201 52.072C58.0041 52.072 56.7161 51.624 55.7561 50.728C54.8121 49.816 54.3401 48.584 54.3401 47.032C54.3401 45.608 54.6361 44.328 55.2281 43.192C55.8361 42.056 56.6681 41.16 57.7241 40.504C58.7961 39.848 60.0041 39.52 61.3481 39.52C62.9641 39.52 64.2441 39.976 65.1881 40.888C66.1481 41.784 66.6281 43.008 66.6281 44.56C66.6281 45.984 66.3241 47.272 65.7161 48.424C65.1241 49.56 64.2921 50.456 63.2201 51.112C62.1641 51.752 60.9641 52.072 59.6201 52.072ZM59.6921 51.616C60.9081 51.616 62.0041 51.312 62.9801 50.704C63.9721 50.096 64.7481 49.256 65.3081 48.184C65.8681 47.112 66.1481 45.912 66.1481 44.584C66.1481 43.128 65.7161 42 64.8521 41.2C64.0041 40.384 62.8121 39.976 61.2761 39.976C60.0601 39.976 58.9561 40.28 57.9641 40.888C56.9881 41.496 56.2201 42.336 55.6601 43.408C55.1001 44.48 54.8201 45.68 54.8201 47.008C54.8201 48.464 55.2441 49.6 56.0921 50.416C56.9561 51.216 58.1561 51.616 59.6921 51.616ZM72.3485 52.072C71.4205 52.072 70.5325 51.92 69.6845 51.616C68.8365 51.296 68.1885 50.896 67.7405 50.416L68.1005 50.032C68.5645 50.528 69.1805 50.92 69.9485 51.208C70.7165 51.48 71.5245 51.616 72.3725 51.616C73.7965 51.616 74.9165 51.344 75.7325 50.8C76.5485 50.256 76.9565 49.504 76.9565 48.544C76.9565 48 76.7965 47.568 76.4765 47.248C76.1725 46.928 75.7885 46.696 75.3245 46.552C74.8765 46.392 74.2525 46.224 73.4525 46.048C72.6205 45.872 71.9405 45.696 71.4125 45.52C70.9005 45.344 70.4685 45.064 70.1165 44.68C69.7645 44.296 69.5885 43.768 69.5885 43.096C69.5885 42.024 70.0365 41.16 70.9325 40.504C71.8285 39.848 73.0125 39.52 74.4845 39.52C75.2525 39.52 75.9965 39.64 76.7165 39.88C77.4365 40.104 78.0045 40.408 78.4205 40.792L78.0845 41.152C77.6525 40.768 77.1165 40.48 76.4765 40.288C75.8365 40.08 75.1645 39.976 74.4605 39.976C73.1325 39.976 72.0685 40.256 71.2685 40.816C70.4685 41.376 70.0685 42.128 70.0685 43.072C70.0685 43.632 70.2285 44.072 70.5485 44.392C70.8685 44.712 71.2605 44.952 71.7245 45.112C72.2045 45.272 72.8285 45.432 73.5965 45.592C74.4445 45.768 75.1165 45.944 75.6125 46.12C76.1245 46.296 76.5565 46.576 76.9085 46.96C77.2605 47.344 77.4365 47.864 77.4365 48.52C77.4365 49.624 76.9805 50.496 76.0685 51.136C75.1565 51.76 73.9165 52.072 72.3485 52.072ZM81.7779 48.664C81.6979 49.096 81.6579 49.44 81.6579 49.696C81.6579 50.976 82.3619 51.616 83.7699 51.616C84.5859 51.616 85.3139 51.36 85.9539 50.848L86.2179 51.184C85.8979 51.472 85.5139 51.696 85.0659 51.856C84.6179 52 84.1699 52.072 83.7219 52.072C82.8899 52.072 82.2579 51.872 81.8259 51.472C81.3939 51.056 81.1779 50.472 81.1779 49.72C81.1779 49.4 81.2099 49.088 81.2739 48.784L83.0259 40.048H80.6259L80.6979 39.592H83.0979L83.6499 36.88H84.1299L83.5779 39.592H87.7779L87.7059 40.048H83.5059L81.7779 48.664ZM103.875 39.52C105.491 39.52 106.771 39.976 107.715 40.888C108.675 41.784 109.155 43.008 109.155 44.56C109.155 45.984 108.851 47.264 108.243 48.4C107.651 49.536 106.819 50.432 105.747 51.088C104.691 51.744 103.491 52.072 102.147 52.072C100.675 52.072 99.4986 51.72 98.6186 51.016C97.7386 50.296 97.2106 49.28 97.0346 47.968L96.2186 52H95.7386L99.2906 34.192H99.7706L98.0426 42.832C98.6346 41.792 99.4346 40.984 100.443 40.408C101.467 39.816 102.611 39.52 103.875 39.52ZM102.219 51.616C103.435 51.616 104.531 51.312 105.507 50.704C106.499 50.096 107.275 49.256 107.835 48.184C108.395 47.112 108.675 45.912 108.675 44.584C108.675 43.128 108.243 42 107.379 41.2C106.531 40.384 105.339 39.976 103.803 39.976C102.587 39.976 101.483 40.28 100.491 40.888C99.5146 41.496 98.7466 42.336 98.1866 43.408C97.6266 44.48 97.3466 45.68 97.3466 47.008C97.3466 48.464 97.7706 49.6 98.6186 50.416C99.4826 51.216 100.683 51.616 102.219 51.616ZM112.056 45.784C112.008 46.168 111.984 46.56 111.984 46.96C111.984 48.464 112.416 49.616 113.28 50.416C114.144 51.216 115.392 51.616 117.024 51.616C117.952 51.616 118.808 51.456 119.592 51.136C120.376 50.8 121.024 50.344 121.536 49.768L121.824 50.08C121.312 50.688 120.624 51.176 119.76 51.544C118.912 51.896 117.992 52.072 117 52.072C115.272 52.072 113.928 51.632 112.968 50.752C112.008 49.856 111.528 48.592 111.528 46.96C111.528 45.568 111.816 44.304 112.392 43.168C112.968 42.032 113.76 41.144 114.768 40.504C115.776 39.848 116.904 39.52 118.152 39.52C119.72 39.52 120.952 39.968 121.848 40.864C122.76 41.76 123.216 42.992 123.216 44.56C123.216 44.976 123.176 45.384 123.096 45.784H112.056ZM118.152 39.976C116.648 39.976 115.344 40.472 114.24 41.464C113.152 42.44 112.448 43.728 112.128 45.328H122.712C122.744 45.12 122.76 44.816 122.76 44.416C122.76 43.008 122.336 41.92 121.488 41.152C120.656 40.368 119.544 39.976 118.152 39.976ZM132.669 34.12C133.133 34.12 133.565 34.2 133.965 34.36C134.381 34.504 134.709 34.72 134.949 35.008L134.613 35.32C134.149 34.824 133.493 34.576 132.645 34.576C131.781 34.576 131.101 34.8 130.605 35.248C130.109 35.696 129.765 36.408 129.573 37.384L129.141 39.592H133.317L133.245 40.048H129.045L126.645 52H126.165L128.565 40.048H126.165L126.237 39.592H128.637L129.117 37.24C129.325 36.216 129.725 35.44 130.317 34.912C130.925 34.384 131.709 34.12 132.669 34.12ZM138.136 52.072C136.52 52.072 135.232 51.624 134.272 50.728C133.328 49.816 132.856 48.584 132.856 47.032C132.856 45.608 133.152 44.328 133.744 43.192C134.352 42.056 135.184 41.16 136.24 40.504C137.312 39.848 138.52 39.52 139.864 39.52C141.48 39.52 142.76 39.976 143.704 40.888C144.664 41.784 145.144 43.008 145.144 44.56C145.144 45.984 144.84 47.272 144.232 48.424C143.64 49.56 142.808 50.456 141.736 51.112C140.68 51.752 139.48 52.072 138.136 52.072ZM138.208 51.616C139.424 51.616 140.52 51.312 141.496 50.704C142.488 50.096 143.264 49.256 143.824 48.184C144.384 47.112 144.664 45.912 144.664 44.584C144.664 43.128 144.232 42 143.368 41.2C142.52 40.384 141.328 39.976 139.792 39.976C138.576 39.976 137.472 40.28 136.48 40.888C135.504 41.496 134.736 42.336 134.176 43.408C133.616 44.48 133.336 45.68 133.336 47.008C133.336 48.464 133.76 49.6 134.608 50.416C135.472 51.216 136.672 51.616 138.208 51.616ZM150.144 42.784C151.28 40.608 153.128 39.52 155.688 39.52L155.592 40H155.376C153.856 40 152.608 40.472 151.632 41.416C150.656 42.344 149.984 43.712 149.616 45.52L148.32 52H147.84L150.312 39.592H150.792L150.144 42.784ZM156.892 45.784C156.844 46.168 156.82 46.56 156.82 46.96C156.82 48.464 157.252 49.616 158.116 50.416C158.98 51.216 160.228 51.616 161.86 51.616C162.788 51.616 163.644 51.456 164.428 51.136C165.212 50.8 165.86 50.344 166.372 49.768L166.66 50.08C166.148 50.688 165.46 51.176 164.596 51.544C163.748 51.896 162.828 52.072 161.836 52.072C160.108 52.072 158.764 51.632 157.804 50.752C156.844 49.856 156.364 48.592 156.364 46.96C156.364 45.568 156.652 44.304 157.228 43.168C157.804 42.032 158.596 41.144 159.604 40.504C160.612 39.848 161.74 39.52 162.988 39.52C164.556 39.52 165.788 39.968 166.684 40.864C167.596 41.76 168.052 42.992 168.052 44.56C168.052 44.976 168.012 45.384 167.932 45.784H156.892ZM162.988 39.976C161.484 39.976 160.18 40.472 159.076 41.464C157.988 42.44 157.284 43.728 156.964 45.328H167.548C167.58 45.12 167.596 44.816 167.596 44.416C167.596 43.008 167.172 41.92 166.324 41.152C165.492 40.368 164.38 39.976 162.988 39.976ZM196.417 39.592L189.361 52H188.929L186.433 40.288L179.713 52H179.281L176.713 39.592H177.169L179.569 51.448L186.337 39.592H186.745L189.241 51.424L195.889 39.592H196.417ZM196.712 45.784C196.664 46.168 196.64 46.56 196.64 46.96C196.64 48.464 197.072 49.616 197.936 50.416C198.8 51.216 200.048 51.616 201.68 51.616C202.608 51.616 203.464 51.456 204.248 51.136C205.032 50.8 205.68 50.344 206.192 49.768L206.48 50.08C205.968 50.688 205.28 51.176 204.416 51.544C203.568 51.896 202.648 52.072 201.656 52.072C199.928 52.072 198.584 51.632 197.624 50.752C196.664 49.856 196.184 48.592 196.184 46.96C196.184 45.568 196.472 44.304 197.048 43.168C197.624 42.032 198.416 41.144 199.424 40.504C200.432 39.848 201.56 39.52 202.808 39.52C204.376 39.52 205.608 39.968 206.504 40.864C207.416 41.76 207.872 42.992 207.872 44.56C207.872 44.976 207.832 45.384 207.752 45.784H196.712ZM202.808 39.976C201.304 39.976 200 40.472 198.896 41.464C197.808 42.44 197.104 43.728 196.784 45.328H207.368C207.4 45.12 207.416 44.816 207.416 44.416C207.416 43.008 206.992 41.92 206.144 41.152C205.312 40.368 204.2 39.976 202.808 39.976ZM222.605 44.536L227.117 52H226.541L222.221 44.848L217.877 48.184L217.109 52H216.629L220.181 34.192H220.661L217.997 47.512L228.269 39.592H229.037L222.605 44.536ZM237.674 39.52C239.098 39.52 240.178 39.864 240.914 40.552C241.65 41.24 242.018 42.176 242.018 43.36C242.018 43.776 241.97 44.216 241.874 44.68L240.41 52H239.93L241.394 44.68C241.49 44.216 241.538 43.792 241.538 43.408C241.538 42.32 241.202 41.48 240.53 40.888C239.874 40.28 238.906 39.976 237.626 39.976C236.042 39.976 234.722 40.416 233.666 41.296C232.626 42.176 231.938 43.448 231.602 45.112L230.234 52H229.754L232.226 39.592H232.706L232.106 42.616C233.274 40.552 235.13 39.52 237.674 39.52ZM246.001 45.784C245.953 46.168 245.929 46.56 245.929 46.96C245.929 48.464 246.361 49.616 247.225 50.416C248.089 51.216 249.337 51.616 250.969 51.616C251.897 51.616 252.753 51.456 253.537 51.136C254.321 50.8 254.969 50.344 255.481 49.768L255.769 50.08C255.257 50.688 254.569 51.176 253.705 51.544C252.857 51.896 251.937 52.072 250.945 52.072C249.217 52.072 247.873 51.632 246.913 50.752C245.953 49.856 245.473 48.592 245.473 46.96C245.473 45.568 245.761 44.304 246.337 43.168C246.913 42.032 247.705 41.144 248.713 40.504C249.721 39.848 250.849 39.52 252.097 39.52C253.665 39.52 254.897 39.968 255.793 40.864C256.705 41.76 257.161 42.992 257.161 44.56C257.161 44.976 257.121 45.384 257.041 45.784H246.001ZM252.097 39.976C250.593 39.976 249.289 40.472 248.185 41.464C247.097 42.44 246.393 43.728 246.073 45.328H256.657C256.689 45.12 256.705 44.816 256.705 44.416C256.705 43.008 256.281 41.92 255.433 41.152C254.601 40.368 253.489 39.976 252.097 39.976ZM279.292 39.592L272.236 52H271.804L269.308 40.288L262.588 52H262.156L259.588 39.592H260.044L262.444 51.448L269.212 39.592H269.62L272.116 51.424L278.764 39.592H279.292ZM288.195 39.592H288.675L286.203 52H285.723L288.195 39.592ZM289.203 36.16C289.043 36.16 288.907 36.104 288.795 35.992C288.683 35.88 288.627 35.744 288.627 35.584C288.627 35.408 288.691 35.256 288.819 35.128C288.963 34.984 289.123 34.912 289.299 34.912C289.459 34.912 289.595 34.968 289.707 35.08C289.819 35.192 289.875 35.328 289.875 35.488C289.875 35.664 289.803 35.824 289.659 35.968C289.531 36.096 289.379 36.16 289.203 36.16ZM293.067 48.664C292.987 49.096 292.947 49.44 292.947 49.696C292.947 50.976 293.651 51.616 295.059 51.616C295.875 51.616 296.603 51.36 297.243 50.848L297.507 51.184C297.187 51.472 296.803 51.696 296.355 51.856C295.907 52 295.459 52.072 295.011 52.072C294.179 52.072 293.547 51.872 293.115 51.472C292.683 51.056 292.467 50.472 292.467 49.72C292.467 49.4 292.499 49.088 292.563 48.784L294.315 40.048H291.915L291.987 39.592H294.387L294.939 36.88H295.419L294.867 39.592H299.067L298.995 40.048H294.795L293.067 48.664ZM300.806 50.824C300.982 50.824 301.126 50.888 301.238 51.016C301.366 51.128 301.43 51.272 301.43 51.448C301.43 51.608 301.398 51.76 301.334 51.904C301.27 52.032 301.23 52.112 301.214 52.144L299.75 55.36H299.318L300.686 52.048C300.542 52.032 300.422 51.968 300.326 51.856C300.23 51.728 300.182 51.592 300.182 51.448C300.182 51.272 300.246 51.128 300.374 51.016C300.502 50.888 300.646 50.824 300.806 50.824ZM331.229 39.592L324.173 52H323.741L321.245 40.288L314.525 52H314.093L311.525 39.592H311.981L314.381 51.448L321.149 39.592H321.557L324.053 51.424L330.701 39.592H331.229ZM331.525 45.784C331.477 46.168 331.453 46.56 331.453 46.96C331.453 48.464 331.885 49.616 332.749 50.416C333.613 51.216 334.861 51.616 336.493 51.616C337.421 51.616 338.277 51.456 339.061 51.136C339.845 50.8 340.493 50.344 341.005 49.768L341.293 50.08C340.781 50.688 340.093 51.176 339.229 51.544C338.381 51.896 337.461 52.072 336.469 52.072C334.741 52.072 333.397 51.632 332.437 50.752C331.477 49.856 330.997 48.592 330.997 46.96C330.997 45.568 331.285 44.304 331.861 43.168C332.437 42.032 333.229 41.144 334.237 40.504C335.245 39.848 336.373 39.52 337.621 39.52C339.189 39.52 340.421 39.968 341.317 40.864C342.229 41.76 342.685 42.992 342.685 44.56C342.685 44.976 342.645 45.384 342.565 45.784H331.525ZM337.621 39.976C336.117 39.976 334.813 40.472 333.709 41.464C332.621 42.44 331.917 43.728 331.597 45.328H342.181C342.213 45.12 342.229 44.816 342.229 44.416C342.229 43.008 341.805 41.92 340.957 41.152C340.125 40.368 339.013 39.976 337.621 39.976ZM359.362 39.52C360.786 39.52 361.866 39.864 362.602 40.552C363.338 41.24 363.706 42.176 363.706 43.36C363.706 43.776 363.658 44.216 363.562 44.68L362.098 52H361.618L363.082 44.68C363.178 44.216 363.226 43.792 363.226 43.408C363.226 42.32 362.89 41.48 362.218 40.888C361.562 40.28 360.594 39.976 359.314 39.976C357.73 39.976 356.41 40.416 355.354 41.296C354.314 42.176 353.626 43.448 353.29 45.112L351.922 52H351.442L354.994 34.192H355.474L353.794 42.616C354.962 40.552 356.818 39.52 359.362 39.52ZM380.553 39.592L378.081 52H377.601L378.249 48.76C377.657 49.8 376.849 50.616 375.825 51.208C374.817 51.784 373.681 52.072 372.417 52.072C370.801 52.072 369.513 51.624 368.553 50.728C367.609 49.816 367.137 48.584 367.137 47.032C367.137 45.608 367.433 44.328 368.025 43.192C368.633 42.056 369.465 41.16 370.521 40.504C371.593 39.848 372.801 39.52 374.145 39.52C375.617 39.52 376.793 39.88 377.673 40.6C378.553 41.304 379.081 42.312 379.257 43.624L380.073 39.592H380.553ZM372.489 51.616C373.705 51.616 374.801 51.312 375.777 50.704C376.769 50.096 377.545 49.256 378.105 48.184C378.665 47.112 378.945 45.912 378.945 44.584C378.945 43.128 378.513 42 377.649 41.2C376.801 40.384 375.609 39.976 374.073 39.976C372.857 39.976 371.753 40.28 370.761 40.888C369.785 41.496 369.017 42.336 368.457 43.408C367.897 44.48 367.617 45.68 367.617 47.008C367.617 48.464 368.041 49.6 368.889 50.416C369.753 51.216 370.953 51.616 372.489 51.616ZM397.735 34.192L394.182 52H393.703L394.351 48.76C393.759 49.8 392.951 50.616 391.927 51.208C390.919 51.784 389.783 52.072 388.519 52.072C386.903 52.072 385.615 51.624 384.655 50.728C383.711 49.816 383.239 48.584 383.239 47.032C383.239 45.608 383.535 44.328 384.127 43.192C384.735 42.056 385.567 41.16 386.623 40.504C387.695 39.848 388.903 39.52 390.247 39.52C391.719 39.52 392.895 39.88 393.775 40.6C394.655 41.304 395.183 42.312 395.359 43.624L397.255 34.192H397.735ZM388.591 51.616C389.807 51.616 390.903 51.312 391.879 50.704C392.871 50.096 393.647 49.256 394.207 48.184C394.767 47.112 395.047 45.912 395.047 44.584C395.047 43.128 394.615 42 393.751 41.2C392.903 40.384 391.711 39.976 390.175 39.976C388.959 39.976 387.855 40.28 386.863 40.888C385.887 41.496 385.119 42.336 384.559 43.408C383.999 44.48 383.719 45.68 383.719 47.008C383.719 48.464 384.143 49.6 384.991 50.416C385.855 51.216 387.055 51.616 388.591 51.616ZM409.228 34.192H409.708L406.156 52H405.676L409.228 34.192ZM411.892 45.784C411.844 46.168 411.82 46.56 411.82 46.96C411.82 48.464 412.252 49.616 413.116 50.416C413.98 51.216 415.228 51.616 416.86 51.616C417.788 51.616 418.644 51.456 419.428 51.136C420.212 50.8 420.86 50.344 421.372 49.768L421.66 50.08C421.148 50.688 420.46 51.176 419.596 51.544C418.748 51.896 417.828 52.072 416.836 52.072C415.108 52.072 413.764 51.632 412.804 50.752C411.844 49.856 411.364 48.592 411.364 46.96C411.364 45.568 411.652 44.304 412.228 43.168C412.804 42.032 413.596 41.144 414.604 40.504C415.612 39.848 416.74 39.52 417.988 39.52C419.556 39.52 420.788 39.968 421.684 40.864C422.596 41.76 423.052 42.992 423.052 44.56C423.052 44.976 423.012 45.384 422.932 45.784H411.892ZM417.988 39.976C416.484 39.976 415.18 40.472 414.076 41.464C412.988 42.44 412.284 43.728 411.964 45.328H422.548C422.58 45.12 422.596 44.816 422.596 44.416C422.596 43.008 422.172 41.92 421.324 41.152C420.492 40.368 419.38 39.976 417.988 39.976ZM432.505 34.12C432.969 34.12 433.401 34.2 433.801 34.36C434.217 34.504 434.545 34.72 434.785 35.008L434.449 35.32C433.985 34.824 433.329 34.576 432.481 34.576C431.617 34.576 430.937 34.8 430.441 35.248C429.945 35.696 429.601 36.408 429.409 37.384L428.977 39.592H433.153L433.081 40.048H428.881L426.481 52H426.001L428.401 40.048H426.001L426.073 39.592H428.473L428.953 37.24C429.161 36.216 429.561 35.44 430.153 34.912C430.761 34.384 431.545 34.12 432.505 34.12ZM434.606 48.664C434.526 49.096 434.486 49.44 434.486 49.696C434.486 50.976 435.19 51.616 436.598 51.616C437.414 51.616 438.142 51.36 438.782 50.848L439.046 51.184C438.726 51.472 438.342 51.696 437.894 51.856C437.446 52 436.998 52.072 436.55 52.072C435.718 52.072 435.086 51.872 434.654 51.472C434.222 51.056 434.006 50.472 434.006 49.72C434.006 49.4 434.038 49.088 434.102 48.784L435.854 40.048H433.454L433.526 39.592H435.926L436.478 36.88H436.958L436.406 39.592H440.606L440.534 40.048H436.334L434.606 48.664ZM449.911 48.664C449.831 49.096 449.791 49.44 449.791 49.696C449.791 50.976 450.495 51.616 451.903 51.616C452.719 51.616 453.447 51.36 454.087 50.848L454.351 51.184C454.031 51.472 453.647 51.696 453.199 51.856C452.751 52 452.303 52.072 451.855 52.072C451.023 52.072 450.391 51.872 449.959 51.472C449.527 51.056 449.311 50.472 449.311 49.72C449.311 49.4 449.343 49.088 449.407 48.784L451.159 40.048H448.759L448.831 39.592H451.231L451.783 36.88H452.263L451.711 39.592H455.911L455.839 40.048H451.639L449.911 48.664ZM465.791 39.52C467.215 39.52 468.295 39.864 469.031 40.552C469.767 41.24 470.135 42.176 470.135 43.36C470.135 43.776 470.087 44.216 469.991 44.68L468.527 52H468.047L469.511 44.68C469.607 44.216 469.655 43.792 469.655 43.408C469.655 42.32 469.319 41.48 468.647 40.888C467.991 40.28 467.023 39.976 465.743 39.976C464.159 39.976 462.839 40.416 461.783 41.296C460.743 42.176 460.055 43.448 459.719 45.112L458.351 52H457.871L461.423 34.192H461.903L460.223 42.616C461.391 40.552 463.247 39.52 465.791 39.52ZM474.119 45.784C474.071 46.168 474.047 46.56 474.047 46.96C474.047 48.464 474.479 49.616 475.343 50.416C476.207 51.216 477.455 51.616 479.087 51.616C480.015 51.616 480.871 51.456 481.655 51.136C482.439 50.8 483.087 50.344 483.599 49.768L483.887 50.08C483.375 50.688 482.687 51.176 481.823 51.544C480.975 51.896 480.055 52.072 479.063 52.072C477.335 52.072 475.991 51.632 475.031 50.752C474.071 49.856 473.591 48.592 473.591 46.96C473.591 45.568 473.879 44.304 474.455 43.168C475.031 42.032 475.823 41.144 476.831 40.504C477.839 39.848 478.967 39.52 480.215 39.52C481.783 39.52 483.015 39.968 483.911 40.864C484.823 41.76 485.279 42.992 485.279 44.56C485.279 44.976 485.239 45.384 485.159 45.784H474.119ZM480.215 39.976C478.711 39.976 477.407 40.472 476.303 41.464C475.215 42.44 474.511 43.728 474.191 45.328H484.775C484.807 45.12 484.823 44.816 484.823 44.416C484.823 43.008 484.399 41.92 483.551 41.152C482.719 40.368 481.607 39.976 480.215 39.976ZM507.283 39.592L505.027 50.896C504.627 52.944 503.883 54.424 502.795 55.336C501.707 56.264 500.179 56.728 498.211 56.728C497.091 56.728 496.083 56.544 495.187 56.176C494.291 55.824 493.571 55.32 493.027 54.664L493.459 54.328C493.955 54.968 494.611 55.448 495.427 55.768C496.259 56.104 497.195 56.272 498.235 56.272C500.027 56.272 501.435 55.84 502.459 54.976C503.499 54.128 504.195 52.792 504.547 50.968L505.099 48.208C504.491 49.264 503.667 50.096 502.627 50.704C501.587 51.296 500.411 51.592 499.099 51.592C497.451 51.592 496.147 51.16 495.187 50.296C494.227 49.432 493.747 48.248 493.747 46.744C493.747 45.384 494.051 44.152 494.659 43.048C495.267 41.944 496.107 41.08 497.179 40.456C498.251 39.832 499.459 39.52 500.803 39.52C502.307 39.52 503.507 39.88 504.403 40.6C505.315 41.32 505.851 42.328 506.011 43.624L506.803 39.592H507.283ZM499.147 51.136C500.379 51.136 501.491 50.848 502.483 50.272C503.491 49.68 504.275 48.872 504.835 47.848C505.395 46.824 505.675 45.672 505.675 44.392C505.675 42.984 505.243 41.896 504.379 41.128C503.515 40.36 502.307 39.976 500.755 39.976C499.523 39.976 498.403 40.272 497.395 40.864C496.403 41.44 495.627 42.24 495.067 43.264C494.507 44.288 494.227 45.44 494.227 46.72C494.227 48.128 494.659 49.216 495.523 49.984C496.387 50.752 497.595 51.136 499.147 51.136ZM512.582 42.784C513.718 40.608 515.566 39.52 518.126 39.52L518.03 40H517.814C516.294 40 515.046 40.472 514.07 41.416C513.094 42.344 512.422 43.712 512.054 45.52L510.758 52H510.278L512.75 39.592H513.23L512.582 42.784ZM524.058 52.072C522.442 52.072 521.154 51.624 520.194 50.728C519.25 49.816 518.778 48.584 518.778 47.032C518.778 45.608 519.074 44.328 519.666 43.192C520.274 42.056 521.106 41.16 522.162 40.504C523.234 39.848 524.442 39.52 525.786 39.52C527.402 39.52 528.682 39.976 529.626 40.888C530.586 41.784 531.066 43.008 531.066 44.56C531.066 45.984 530.762 47.272 530.154 48.424C529.562 49.56 528.73 50.456 527.658 51.112C526.602 51.752 525.402 52.072 524.058 52.072ZM524.13 51.616C525.346 51.616 526.442 51.312 527.418 50.704C528.41 50.096 529.186 49.256 529.746 48.184C530.306 47.112 530.586 45.912 530.586 44.584C530.586 43.128 530.154 42 529.29 41.2C528.442 40.384 527.25 39.976 525.714 39.976C524.498 39.976 523.394 40.28 522.402 40.888C521.426 41.496 520.658 42.336 520.098 43.408C519.538 44.48 519.258 45.68 519.258 47.008C519.258 48.464 519.682 49.6 520.53 50.416C521.394 51.216 522.594 51.616 524.13 51.616ZM546.674 39.592L544.202 52H543.722L544.322 48.976C543.154 51.04 541.314 52.072 538.802 52.072C537.394 52.072 536.322 51.728 535.586 51.04C534.866 50.352 534.506 49.416 534.506 48.232C534.506 47.8 534.554 47.36 534.65 46.912L536.114 39.592H536.594L535.13 46.912C535.034 47.36 534.986 47.792 534.986 48.208C534.986 49.296 535.314 50.136 535.97 50.728C536.626 51.32 537.586 51.616 538.85 51.616C540.418 51.616 541.722 51.176 542.762 50.296C543.802 49.416 544.49 48.144 544.826 46.48L546.194 39.592H546.674ZM557.62 39.52C559.044 39.52 560.124 39.864 560.859 40.552C561.595 41.24 561.964 42.176 561.964 43.36C561.964 43.776 561.916 44.216 561.82 44.68L560.356 52H559.876L561.34 44.68C561.436 44.216 561.484 43.792 561.484 43.408C561.484 42.32 561.148 41.48 560.476 40.888C559.82 40.28 558.852 39.976 557.572 39.976C555.988 39.976 554.668 40.416 553.612 41.296C552.572 42.176 551.884 43.448 551.548 45.112L550.18 52H549.7L552.172 39.592H552.652L552.052 42.616C553.22 40.552 555.076 39.52 557.62 39.52ZM579.891 34.192L576.339 52H575.859L576.507 48.76C575.915 49.8 575.107 50.616 574.083 51.208C573.075 51.784 571.939 52.072 570.675 52.072C569.059 52.072 567.771 51.624 566.811 50.728C565.867 49.816 565.395 48.584 565.395 47.032C565.395 45.608 565.691 44.328 566.283 43.192C566.891 42.056 567.723 41.16 568.779 40.504C569.851 39.848 571.059 39.52 572.403 39.52C573.875 39.52 575.051 39.88 575.931 40.6C576.811 41.304 577.339 42.312 577.515 43.624L579.411 34.192H579.891ZM570.747 51.616C571.963 51.616 573.059 51.312 574.035 50.704C575.027 50.096 575.803 49.256 576.363 48.184C576.923 47.112 577.203 45.912 577.203 44.584C577.203 43.128 576.771 42 575.907 41.2C575.059 40.384 573.867 39.976 572.331 39.976C571.115 39.976 570.011 40.28 569.019 40.888C568.043 41.496 567.275 42.336 566.715 43.408C566.155 44.48 565.875 45.68 565.875 47.008C565.875 48.464 566.299 49.6 567.147 50.416C568.011 51.216 569.211 51.616 570.747 51.616ZM581.376 52.072C581.216 52.072 581.072 52.008 580.944 51.88C580.816 51.752 580.752 51.608 580.752 51.448C580.752 51.272 580.816 51.128 580.944 51.016C581.072 50.888 581.216 50.824 581.376 50.824C581.552 50.824 581.696 50.888 581.808 51.016C581.936 51.128 582 51.272 582 51.448C582 51.608 581.936 51.752 581.808 51.88C581.696 52.008 581.552 52.072 581.376 52.072Z" fill="black"/>
</svg>
